<?xml version="1.0" encoding="utf-8" standalone="no"?>
<!DOCTYPE svg PUBLIC "-//W3C//DTD SVG 1.1//EN"
  "http://www.w3.org/Graphics/SVG/1.1/DTD/svg11.dtd">
<svg xmlns:xlink="http://www.w3.org/1999/xlink" width="576pt" height="360pt" viewBox="0 0 576 360" xmlns="http://www.w3.org/2000/svg" version="1.1">
 <metadata>
  <rdf:RDF xmlns:dc="http://purl.org/dc/elements/1.1/" xmlns:cc="http://creativecommons.org/ns#" xmlns:rdf="http://www.w3.org/1999/02/22-rdf-syntax-ns#">
   <cc:Work>
    <dc:type rdf:resource="http://purl.org/dc/dcmitype/StillImage"/>
    <dc:date>2022-08-15T18:19:03.820201</dc:date>
    <dc:format>image/svg+xml</dc:format>
    <dc:creator>
     <cc:Agent>
      <dc:title>Matplotlib v3.5.2, https://matplotlib.org/</dc:title>
     </cc:Agent>
    </dc:creator>
   </cc:Work>
  </rdf:RDF>
 </metadata>
 <defs>
  <style type="text/css">*{stroke-linejoin: round; stroke-linecap: butt}</style>
 </defs>
 <g id="figure_1">
  <g id="patch_1">
   <path d="M 0 360 
L 576 360 
L 576 0 
L 0 0 
z
" style="fill: #ffffff"/>
  </g>
  <g id="axes_1">
   <g id="patch_2">
    <path d="M 57.6 288 
L 547.2 288 
L 547.2 36 
L 57.6 36 
z
" style="fill: #ffffff"/>
   </g>
   <g id="matplotlib.axis_1">
    <g id="xtick_1">
     <g id="line2d_1">
      <path d="M 87.451419 288 
L 87.451419 36 
" clip-path="url(#p39f1ef7596)" style="fill: none; stroke: #b0b0b0; stroke-opacity: 0.7; stroke-width: 0.8; stroke-linecap: square"/>
     </g>
     <g id="line2d_2">
      <defs>
       <path id="m56d7a73386" d="M 0 0 
L 0 3.5 
" style="stroke: #000000; stroke-width: 0.8"/>
      </defs>
      <g>
       <use xlink:href="#m56d7a73386" x="87.451419" y="288" style="stroke: #000000; stroke-width: 0.8"/>
      </g>
     </g>
     <g id="text_1">
      <!-- 01.08.2022 -->
      <g transform="translate(45.494575 340.859189)rotate(-45)scale(0.1 -0.1)">
       <defs>
        <path id="DejaVuSans-30" d="M 2034 4250 
Q 1547 4250 1301 3770 
Q 1056 3291 1056 2328 
Q 1056 1369 1301 889 
Q 1547 409 2034 409 
Q 2525 409 2770 889 
Q 3016 1369 3016 2328 
Q 3016 3291 2770 3770 
Q 2525 4250 2034 4250 
z
M 2034 4750 
Q 2819 4750 3233 4129 
Q 3647 3509 3647 2328 
Q 3647 1150 3233 529 
Q 2819 -91 2034 -91 
Q 1250 -91 836 529 
Q 422 1150 422 2328 
Q 422 3509 836 4129 
Q 1250 4750 2034 4750 
z
" transform="scale(0.015625)"/>
        <path id="DejaVuSans-31" d="M 794 531 
L 1825 531 
L 1825 4091 
L 703 3866 
L 703 4441 
L 1819 4666 
L 2450 4666 
L 2450 531 
L 3481 531 
L 3481 0 
L 794 0 
L 794 531 
z
" transform="scale(0.015625)"/>
        <path id="DejaVuSans-2e" d="M 684 794 
L 1344 794 
L 1344 0 
L 684 0 
L 684 794 
z
" transform="scale(0.015625)"/>
        <path id="DejaVuSans-38" d="M 2034 2216 
Q 1584 2216 1326 1975 
Q 1069 1734 1069 1313 
Q 1069 891 1326 650 
Q 1584 409 2034 409 
Q 2484 409 2743 651 
Q 3003 894 3003 1313 
Q 3003 1734 2745 1975 
Q 2488 2216 2034 2216 
z
M 1403 2484 
Q 997 2584 770 2862 
Q 544 3141 544 3541 
Q 544 4100 942 4425 
Q 1341 4750 2034 4750 
Q 2731 4750 3128 4425 
Q 3525 4100 3525 3541 
Q 3525 3141 3298 2862 
Q 3072 2584 2669 2484 
Q 3125 2378 3379 2068 
Q 3634 1759 3634 1313 
Q 3634 634 3220 271 
Q 2806 -91 2034 -91 
Q 1263 -91 848 271 
Q 434 634 434 1313 
Q 434 1759 690 2068 
Q 947 2378 1403 2484 
z
M 1172 3481 
Q 1172 3119 1398 2916 
Q 1625 2713 2034 2713 
Q 2441 2713 2670 2916 
Q 2900 3119 2900 3481 
Q 2900 3844 2670 4047 
Q 2441 4250 2034 4250 
Q 1625 4250 1398 4047 
Q 1172 3844 1172 3481 
z
" transform="scale(0.015625)"/>
        <path id="DejaVuSans-32" d="M 1228 531 
L 3431 531 
L 3431 0 
L 469 0 
L 469 531 
Q 828 903 1448 1529 
Q 2069 2156 2228 2338 
Q 2531 2678 2651 2914 
Q 2772 3150 2772 3378 
Q 2772 3750 2511 3984 
Q 2250 4219 1831 4219 
Q 1534 4219 1204 4116 
Q 875 4013 500 3803 
L 500 4441 
Q 881 4594 1212 4672 
Q 1544 4750 1819 4750 
Q 2544 4750 2975 4387 
Q 3406 4025 3406 3419 
Q 3406 3131 3298 2873 
Q 3191 2616 2906 2266 
Q 2828 2175 2409 1742 
Q 1991 1309 1228 531 
z
" transform="scale(0.015625)"/>
       </defs>
       <use xlink:href="#DejaVuSans-30"/>
       <use xlink:href="#DejaVuSans-31" x="63.623047"/>
       <use xlink:href="#DejaVuSans-2e" x="127.246094"/>
       <use xlink:href="#DejaVuSans-30" x="159.033203"/>
       <use xlink:href="#DejaVuSans-38" x="222.65625"/>
       <use xlink:href="#DejaVuSans-2e" x="286.279297"/>
       <use xlink:href="#DejaVuSans-32" x="318.066406"/>
       <use xlink:href="#DejaVuSans-30" x="381.689453"/>
       <use xlink:href="#DejaVuSans-32" x="445.3125"/>
       <use xlink:href="#DejaVuSans-32" x="508.935547"/>
      </g>
     </g>
    </g>
    <g id="xtick_2">
     <g id="line2d_3">
      <path d="M 136.883745 288 
L 136.883745 36 
" clip-path="url(#p39f1ef7596)" style="fill: none; stroke: #b0b0b0; stroke-opacity: 0.7; stroke-width: 0.8; stroke-linecap: square"/>
     </g>
     <g id="line2d_4">
      <g>
       <use xlink:href="#m56d7a73386" x="136.883745" y="288" style="stroke: #000000; stroke-width: 0.8"/>
      </g>
     </g>
     <g id="text_2">
      <!-- 02.08.2022 -->
      <g transform="translate(94.926902 340.859189)rotate(-45)scale(0.1 -0.1)">
       <use xlink:href="#DejaVuSans-30"/>
       <use xlink:href="#DejaVuSans-32" x="63.623047"/>
       <use xlink:href="#DejaVuSans-2e" x="127.246094"/>
       <use xlink:href="#DejaVuSans-30" x="159.033203"/>
       <use xlink:href="#DejaVuSans-38" x="222.65625"/>
       <use xlink:href="#DejaVuSans-2e" x="286.279297"/>
       <use xlink:href="#DejaVuSans-32" x="318.066406"/>
       <use xlink:href="#DejaVuSans-30" x="381.689453"/>
       <use xlink:href="#DejaVuSans-32" x="445.3125"/>
       <use xlink:href="#DejaVuSans-32" x="508.935547"/>
      </g>
     </g>
    </g>
    <g id="xtick_3">
     <g id="line2d_5">
      <path d="M 186.316072 288 
L 186.316072 36 
" clip-path="url(#p39f1ef7596)" style="fill: none; stroke: #b0b0b0; stroke-opacity: 0.7; stroke-width: 0.8; stroke-linecap: square"/>
     </g>
     <g id="line2d_6">
      <g>
       <use xlink:href="#m56d7a73386" x="186.316072" y="288" style="stroke: #000000; stroke-width: 0.8"/>
      </g>
     </g>
     <g id="text_3">
      <!-- 03.08.2022 -->
      <g transform="translate(144.359228 340.859189)rotate(-45)scale(0.1 -0.1)">
       <defs>
        <path id="DejaVuSans-33" d="M 2597 2516 
Q 3050 2419 3304 2112 
Q 3559 1806 3559 1356 
Q 3559 666 3084 287 
Q 2609 -91 1734 -91 
Q 1441 -91 1130 -33 
Q 819 25 488 141 
L 488 750 
Q 750 597 1062 519 
Q 1375 441 1716 441 
Q 2309 441 2620 675 
Q 2931 909 2931 1356 
Q 2931 1769 2642 2001 
Q 2353 2234 1838 2234 
L 1294 2234 
L 1294 2753 
L 1863 2753 
Q 2328 2753 2575 2939 
Q 2822 3125 2822 3475 
Q 2822 3834 2567 4026 
Q 2313 4219 1838 4219 
Q 1578 4219 1281 4162 
Q 984 4106 628 3988 
L 628 4550 
Q 988 4650 1302 4700 
Q 1616 4750 1894 4750 
Q 2613 4750 3031 4423 
Q 3450 4097 3450 3541 
Q 3450 3153 3228 2886 
Q 3006 2619 2597 2516 
z
" transform="scale(0.015625)"/>
       </defs>
       <use xlink:href="#DejaVuSans-30"/>
       <use xlink:href="#DejaVuSans-33" x="63.623047"/>
       <use xlink:href="#DejaVuSans-2e" x="127.246094"/>
       <use xlink:href="#DejaVuSans-30" x="159.033203"/>
       <use xlink:href="#DejaVuSans-38" x="222.65625"/>
       <use xlink:href="#DejaVuSans-2e" x="286.279297"/>
       <use xlink:href="#DejaVuSans-32" x="318.066406"/>
       <use xlink:href="#DejaVuSans-30" x="381.689453"/>
       <use xlink:href="#DejaVuSans-32" x="445.3125"/>
       <use xlink:href="#DejaVuSans-32" x="508.935547"/>
      </g>
     </g>
    </g>
    <g id="xtick_4">
     <g id="line2d_7">
      <path d="M 235.748399 288 
L 235.748399 36 
" clip-path="url(#p39f1ef7596)" style="fill: none; stroke: #b0b0b0; stroke-opacity: 0.7; stroke-width: 0.8; stroke-linecap: square"/>
     </g>
     <g id="line2d_8">
      <g>
       <use xlink:href="#m56d7a73386" x="235.748399" y="288" style="stroke: #000000; stroke-width: 0.8"/>
      </g>
     </g>
     <g id="text_4">
      <!-- 04.08.2022 -->
      <g transform="translate(193.791555 340.859189)rotate(-45)scale(0.1 -0.1)">
       <defs>
        <path id="DejaVuSans-34" d="M 2419 4116 
L 825 1625 
L 2419 1625 
L 2419 4116 
z
M 2253 4666 
L 3047 4666 
L 3047 1625 
L 3713 1625 
L 3713 1100 
L 3047 1100 
L 3047 0 
L 2419 0 
L 2419 1100 
L 313 1100 
L 313 1709 
L 2253 4666 
z
" transform="scale(0.015625)"/>
       </defs>
       <use xlink:href="#DejaVuSans-30"/>
       <use xlink:href="#DejaVuSans-34" x="63.623047"/>
       <use xlink:href="#DejaVuSans-2e" x="127.246094"/>
       <use xlink:href="#DejaVuSans-30" x="159.033203"/>
       <use xlink:href="#DejaVuSans-38" x="222.65625"/>
       <use xlink:href="#DejaVuSans-2e" x="286.279297"/>
       <use xlink:href="#DejaVuSans-32" x="318.066406"/>
       <use xlink:href="#DejaVuSans-30" x="381.689453"/>
       <use xlink:href="#DejaVuSans-32" x="445.3125"/>
       <use xlink:href="#DejaVuSans-32" x="508.935547"/>
      </g>
     </g>
    </g>
    <g id="xtick_5">
     <g id="line2d_9">
      <path d="M 285.180726 288 
L 285.180726 36 
" clip-path="url(#p39f1ef7596)" style="fill: none; stroke: #b0b0b0; stroke-opacity: 0.7; stroke-width: 0.8; stroke-linecap: square"/>
     </g>
     <g id="line2d_10">
      <g>
       <use xlink:href="#m56d7a73386" x="285.180726" y="288" style="stroke: #000000; stroke-width: 0.8"/>
      </g>
     </g>
     <g id="text_5">
      <!-- 05.08.2022 -->
      <g transform="translate(243.223882 340.859189)rotate(-45)scale(0.1 -0.1)">
       <defs>
        <path id="DejaVuSans-35" d="M 691 4666 
L 3169 4666 
L 3169 4134 
L 1269 4134 
L 1269 2991 
Q 1406 3038 1543 3061 
Q 1681 3084 1819 3084 
Q 2600 3084 3056 2656 
Q 3513 2228 3513 1497 
Q 3513 744 3044 326 
Q 2575 -91 1722 -91 
Q 1428 -91 1123 -41 
Q 819 9 494 109 
L 494 744 
Q 775 591 1075 516 
Q 1375 441 1709 441 
Q 2250 441 2565 725 
Q 2881 1009 2881 1497 
Q 2881 1984 2565 2268 
Q 2250 2553 1709 2553 
Q 1456 2553 1204 2497 
Q 953 2441 691 2322 
L 691 4666 
z
" transform="scale(0.015625)"/>
       </defs>
       <use xlink:href="#DejaVuSans-30"/>
       <use xlink:href="#DejaVuSans-35" x="63.623047"/>
       <use xlink:href="#DejaVuSans-2e" x="127.246094"/>
       <use xlink:href="#DejaVuSans-30" x="159.033203"/>
       <use xlink:href="#DejaVuSans-38" x="222.65625"/>
       <use xlink:href="#DejaVuSans-2e" x="286.279297"/>
       <use xlink:href="#DejaVuSans-32" x="318.066406"/>
       <use xlink:href="#DejaVuSans-30" x="381.689453"/>
       <use xlink:href="#DejaVuSans-32" x="445.3125"/>
       <use xlink:href="#DejaVuSans-32" x="508.935547"/>
      </g>
     </g>
    </g>
    <g id="xtick_6">
     <g id="line2d_11">
      <path d="M 334.613052 288 
L 334.613052 36 
" clip-path="url(#p39f1ef7596)" style="fill: none; stroke: #b0b0b0; stroke-opacity: 0.7; stroke-width: 0.8; stroke-linecap: square"/>
     </g>
     <g id="line2d_12">
      <g>
       <use xlink:href="#m56d7a73386" x="334.613052" y="288" style="stroke: #000000; stroke-width: 0.8"/>
      </g>
     </g>
     <g id="text_6">
      <!-- 06.08.2022 -->
      <g transform="translate(292.656209 340.859189)rotate(-45)scale(0.1 -0.1)">
       <defs>
        <path id="DejaVuSans-36" d="M 2113 2584 
Q 1688 2584 1439 2293 
Q 1191 2003 1191 1497 
Q 1191 994 1439 701 
Q 1688 409 2113 409 
Q 2538 409 2786 701 
Q 3034 994 3034 1497 
Q 3034 2003 2786 2293 
Q 2538 2584 2113 2584 
z
M 3366 4563 
L 3366 3988 
Q 3128 4100 2886 4159 
Q 2644 4219 2406 4219 
Q 1781 4219 1451 3797 
Q 1122 3375 1075 2522 
Q 1259 2794 1537 2939 
Q 1816 3084 2150 3084 
Q 2853 3084 3261 2657 
Q 3669 2231 3669 1497 
Q 3669 778 3244 343 
Q 2819 -91 2113 -91 
Q 1303 -91 875 529 
Q 447 1150 447 2328 
Q 447 3434 972 4092 
Q 1497 4750 2381 4750 
Q 2619 4750 2861 4703 
Q 3103 4656 3366 4563 
z
" transform="scale(0.015625)"/>
       </defs>
       <use xlink:href="#DejaVuSans-30"/>
       <use xlink:href="#DejaVuSans-36" x="63.623047"/>
       <use xlink:href="#DejaVuSans-2e" x="127.246094"/>
       <use xlink:href="#DejaVuSans-30" x="159.033203"/>
       <use xlink:href="#DejaVuSans-38" x="222.65625"/>
       <use xlink:href="#DejaVuSans-2e" x="286.279297"/>
       <use xlink:href="#DejaVuSans-32" x="318.066406"/>
       <use xlink:href="#DejaVuSans-30" x="381.689453"/>
       <use xlink:href="#DejaVuSans-32" x="445.3125"/>
       <use xlink:href="#DejaVuSans-32" x="508.935547"/>
      </g>
     </g>
    </g>
    <g id="xtick_7">
     <g id="line2d_13">
      <path d="M 384.045379 288 
L 384.045379 36 
" clip-path="url(#p39f1ef7596)" style="fill: none; stroke: #b0b0b0; stroke-opacity: 0.7; stroke-width: 0.8; stroke-linecap: square"/>
     </g>
     <g id="line2d_14">
      <g>
       <use xlink:href="#m56d7a73386" x="384.045379" y="288" style="stroke: #000000; stroke-width: 0.8"/>
      </g>
     </g>
     <g id="text_7">
      <!-- 07.08.2022 -->
      <g transform="translate(342.088535 340.859189)rotate(-45)scale(0.1 -0.1)">
       <defs>
        <path id="DejaVuSans-37" d="M 525 4666 
L 3525 4666 
L 3525 4397 
L 1831 0 
L 1172 0 
L 2766 4134 
L 525 4134 
L 525 4666 
z
" transform="scale(0.015625)"/>
       </defs>
       <use xlink:href="#DejaVuSans-30"/>
       <use xlink:href="#DejaVuSans-37" x="63.623047"/>
       <use xlink:href="#DejaVuSans-2e" x="127.246094"/>
       <use xlink:href="#DejaVuSans-30" x="159.033203"/>
       <use xlink:href="#DejaVuSans-38" x="222.65625"/>
       <use xlink:href="#DejaVuSans-2e" x="286.279297"/>
       <use xlink:href="#DejaVuSans-32" x="318.066406"/>
       <use xlink:href="#DejaVuSans-30" x="381.689453"/>
       <use xlink:href="#DejaVuSans-32" x="445.3125"/>
       <use xlink:href="#DejaVuSans-32" x="508.935547"/>
      </g>
     </g>
    </g>
    <g id="xtick_8">
     <g id="line2d_15">
      <path d="M 433.477706 288 
L 433.477706 36 
" clip-path="url(#p39f1ef7596)" style="fill: none; stroke: #b0b0b0; stroke-opacity: 0.7; stroke-width: 0.8; stroke-linecap: square"/>
     </g>
     <g id="line2d_16">
      <g>
       <use xlink:href="#m56d7a73386" x="433.477706" y="288" style="stroke: #000000; stroke-width: 0.8"/>
      </g>
     </g>
     <g id="text_8">
      <!-- 08.08.2022 -->
      <g transform="translate(391.520862 340.859189)rotate(-45)scale(0.1 -0.1)">
       <use xlink:href="#DejaVuSans-30"/>
       <use xlink:href="#DejaVuSans-38" x="63.623047"/>
       <use xlink:href="#DejaVuSans-2e" x="127.246094"/>
       <use xlink:href="#DejaVuSans-30" x="159.033203"/>
       <use xlink:href="#DejaVuSans-38" x="222.65625"/>
       <use xlink:href="#DejaVuSans-2e" x="286.279297"/>
       <use xlink:href="#DejaVuSans-32" x="318.066406"/>
       <use xlink:href="#DejaVuSans-30" x="381.689453"/>
       <use xlink:href="#DejaVuSans-32" x="445.3125"/>
       <use xlink:href="#DejaVuSans-32" x="508.935547"/>
      </g>
     </g>
    </g>
    <g id="xtick_9">
     <g id="line2d_17">
      <path d="M 482.910033 288 
L 482.910033 36 
" clip-path="url(#p39f1ef7596)" style="fill: none; stroke: #b0b0b0; stroke-opacity: 0.7; stroke-width: 0.8; stroke-linecap: square"/>
     </g>
     <g id="line2d_18">
      <g>
       <use xlink:href="#m56d7a73386" x="482.910033" y="288" style="stroke: #000000; stroke-width: 0.8"/>
      </g>
     </g>
     <g id="text_9">
      <!-- 09.08.2022 -->
      <g transform="translate(440.953189 340.859189)rotate(-45)scale(0.1 -0.1)">
       <defs>
        <path id="DejaVuSans-39" d="M 703 97 
L 703 672 
Q 941 559 1184 500 
Q 1428 441 1663 441 
Q 2288 441 2617 861 
Q 2947 1281 2994 2138 
Q 2813 1869 2534 1725 
Q 2256 1581 1919 1581 
Q 1219 1581 811 2004 
Q 403 2428 403 3163 
Q 403 3881 828 4315 
Q 1253 4750 1959 4750 
Q 2769 4750 3195 4129 
Q 3622 3509 3622 2328 
Q 3622 1225 3098 567 
Q 2575 -91 1691 -91 
Q 1453 -91 1209 -44 
Q 966 3 703 97 
z
M 1959 2075 
Q 2384 2075 2632 2365 
Q 2881 2656 2881 3163 
Q 2881 3666 2632 3958 
Q 2384 4250 1959 4250 
Q 1534 4250 1286 3958 
Q 1038 3666 1038 3163 
Q 1038 2656 1286 2365 
Q 1534 2075 1959 2075 
z
" transform="scale(0.015625)"/>
       </defs>
       <use xlink:href="#DejaVuSans-30"/>
       <use xlink:href="#DejaVuSans-39" x="63.623047"/>
       <use xlink:href="#DejaVuSans-2e" x="127.246094"/>
       <use xlink:href="#DejaVuSans-30" x="159.033203"/>
       <use xlink:href="#DejaVuSans-38" x="222.65625"/>
       <use xlink:href="#DejaVuSans-2e" x="286.279297"/>
       <use xlink:href="#DejaVuSans-32" x="318.066406"/>
       <use xlink:href="#DejaVuSans-30" x="381.689453"/>
       <use xlink:href="#DejaVuSans-32" x="445.3125"/>
       <use xlink:href="#DejaVuSans-32" x="508.935547"/>
      </g>
     </g>
    </g>
    <g id="xtick_10">
     <g id="line2d_19">
      <path d="M 532.342359 288 
L 532.342359 36 
" clip-path="url(#p39f1ef7596)" style="fill: none; stroke: #b0b0b0; stroke-opacity: 0.7; stroke-width: 0.8; stroke-linecap: square"/>
     </g>
     <g id="line2d_20">
      <g>
       <use xlink:href="#m56d7a73386" x="532.342359" y="288" style="stroke: #000000; stroke-width: 0.8"/>
      </g>
     </g>
     <g id="text_10">
      <!-- 10.08.2022 -->
      <g transform="translate(490.385516 340.859189)rotate(-45)scale(0.1 -0.1)">
       <use xlink:href="#DejaVuSans-31"/>
       <use xlink:href="#DejaVuSans-30" x="63.623047"/>
       <use xlink:href="#DejaVuSans-2e" x="127.246094"/>
       <use xlink:href="#DejaVuSans-30" x="159.033203"/>
       <use xlink:href="#DejaVuSans-38" x="222.65625"/>
       <use xlink:href="#DejaVuSans-2e" x="286.279297"/>
       <use xlink:href="#DejaVuSans-32" x="318.066406"/>
       <use xlink:href="#DejaVuSans-30" x="381.689453"/>
       <use xlink:href="#DejaVuSans-32" x="445.3125"/>
       <use xlink:href="#DejaVuSans-32" x="508.935547"/>
      </g>
     </g>
    </g>
    <g id="text_11">
     <!-- Data -->
     <g transform="translate(290.461719 353.928188)scale(0.1 -0.1)">
      <defs>
       <path id="DejaVuSans-44" d="M 1259 4147 
L 1259 519 
L 2022 519 
Q 2988 519 3436 956 
Q 3884 1394 3884 2338 
Q 3884 3275 3436 3711 
Q 2988 4147 2022 4147 
L 1259 4147 
z
M 628 4666 
L 1925 4666 
Q 3281 4666 3915 4102 
Q 4550 3538 4550 2338 
Q 4550 1131 3912 565 
Q 3275 0 1925 0 
L 628 0 
L 628 4666 
z
" transform="scale(0.015625)"/>
       <path id="DejaVuSans-61" d="M 2194 1759 
Q 1497 1759 1228 1600 
Q 959 1441 959 1056 
Q 959 750 1161 570 
Q 1363 391 1709 391 
Q 2188 391 2477 730 
Q 2766 1069 2766 1631 
L 2766 1759 
L 2194 1759 
z
M 3341 1997 
L 3341 0 
L 2766 0 
L 2766 531 
Q 2569 213 2275 61 
Q 1981 -91 1556 -91 
Q 1019 -91 701 211 
Q 384 513 384 1019 
Q 384 1609 779 1909 
Q 1175 2209 1959 2209 
L 2766 2209 
L 2766 2266 
Q 2766 2663 2505 2880 
Q 2244 3097 1772 3097 
Q 1472 3097 1187 3025 
Q 903 2953 641 2809 
L 641 3341 
Q 956 3463 1253 3523 
Q 1550 3584 1831 3584 
Q 2591 3584 2966 3190 
Q 3341 2797 3341 1997 
z
" transform="scale(0.015625)"/>
       <path id="DejaVuSans-74" d="M 1172 4494 
L 1172 3500 
L 2356 3500 
L 2356 3053 
L 1172 3053 
L 1172 1153 
Q 1172 725 1289 603 
Q 1406 481 1766 481 
L 2356 481 
L 2356 0 
L 1766 0 
Q 1100 0 847 248 
Q 594 497 594 1153 
L 594 3053 
L 172 3053 
L 172 3500 
L 594 3500 
L 594 4494 
L 1172 4494 
z
" transform="scale(0.015625)"/>
      </defs>
      <use xlink:href="#DejaVuSans-44"/>
      <use xlink:href="#DejaVuSans-61" x="77.001953"/>
      <use xlink:href="#DejaVuSans-74" x="138.28125"/>
      <use xlink:href="#DejaVuSans-61" x="177.490234"/>
     </g>
    </g>
   </g>
   <g id="matplotlib.axis_2">
    <g id="ytick_1">
     <g id="line2d_21">
      <defs>
       <path id="m4c39a2ca0e" d="M 0 0 
L -3.5 0 
" style="stroke: #000000; stroke-width: 0.8"/>
      </defs>
      <g>
       <use xlink:href="#m4c39a2ca0e" x="57.6" y="288" style="stroke: #000000; stroke-width: 0.8"/>
      </g>
     </g>
     <g id="text_12">
      <!-- 0 -->
      <g transform="translate(44.2375 291.799219)scale(0.1 -0.1)">
       <use xlink:href="#DejaVuSans-30"/>
      </g>
     </g>
    </g>
    <g id="ytick_2">
     <g id="line2d_22">
      <g>
       <use xlink:href="#m4c39a2ca0e" x="57.6" y="258.197942" style="stroke: #000000; stroke-width: 0.8"/>
      </g>
     </g>
     <g id="text_13">
      <!-- 250 -->
      <g transform="translate(31.5125 261.997161)scale(0.1 -0.1)">
       <use xlink:href="#DejaVuSans-32"/>
       <use xlink:href="#DejaVuSans-35" x="63.623047"/>
       <use xlink:href="#DejaVuSans-30" x="127.246094"/>
      </g>
     </g>
    </g>
    <g id="ytick_3">
     <g id="line2d_23">
      <g>
       <use xlink:href="#m4c39a2ca0e" x="57.6" y="228.395885" style="stroke: #000000; stroke-width: 0.8"/>
      </g>
     </g>
     <g id="text_14">
      <!-- 500 -->
      <g transform="translate(31.5125 232.195104)scale(0.1 -0.1)">
       <use xlink:href="#DejaVuSans-35"/>
       <use xlink:href="#DejaVuSans-30" x="63.623047"/>
       <use xlink:href="#DejaVuSans-30" x="127.246094"/>
      </g>
     </g>
    </g>
    <g id="ytick_4">
     <g id="line2d_24">
      <g>
       <use xlink:href="#m4c39a2ca0e" x="57.6" y="198.593827" style="stroke: #000000; stroke-width: 0.8"/>
      </g>
     </g>
     <g id="text_15">
      <!-- 750 -->
      <g transform="translate(31.5125 202.393046)scale(0.1 -0.1)">
       <use xlink:href="#DejaVuSans-37"/>
       <use xlink:href="#DejaVuSans-35" x="63.623047"/>
       <use xlink:href="#DejaVuSans-30" x="127.246094"/>
      </g>
     </g>
    </g>
    <g id="ytick_5">
     <g id="line2d_25">
      <g>
       <use xlink:href="#m4c39a2ca0e" x="57.6" y="168.79177" style="stroke: #000000; stroke-width: 0.8"/>
      </g>
     </g>
     <g id="text_16">
      <!-- 1 000 -->
      <g transform="translate(21.971875 172.590989)scale(0.1 -0.1)">
       <defs>
        <path id="DejaVuSans-20" transform="scale(0.015625)"/>
       </defs>
       <use xlink:href="#DejaVuSans-31"/>
       <use xlink:href="#DejaVuSans-20" x="63.623047"/>
       <use xlink:href="#DejaVuSans-30" x="95.410156"/>
       <use xlink:href="#DejaVuSans-30" x="159.033203"/>
       <use xlink:href="#DejaVuSans-30" x="222.65625"/>
      </g>
     </g>
    </g>
    <g id="ytick_6">
     <g id="line2d_26">
      <g>
       <use xlink:href="#m4c39a2ca0e" x="57.6" y="138.989712" style="stroke: #000000; stroke-width: 0.8"/>
      </g>
     </g>
     <g id="text_17">
      <!-- 1 250 -->
      <g transform="translate(21.971875 142.788931)scale(0.1 -0.1)">
       <use xlink:href="#DejaVuSans-31"/>
       <use xlink:href="#DejaVuSans-20" x="63.623047"/>
       <use xlink:href="#DejaVuSans-32" x="95.410156"/>
       <use xlink:href="#DejaVuSans-35" x="159.033203"/>
       <use xlink:href="#DejaVuSans-30" x="222.65625"/>
      </g>
     </g>
    </g>
    <g id="ytick_7">
     <g id="line2d_27">
      <g>
       <use xlink:href="#m4c39a2ca0e" x="57.6" y="109.187655" style="stroke: #000000; stroke-width: 0.8"/>
      </g>
     </g>
     <g id="text_18">
      <!-- 1 500 -->
      <g transform="translate(21.971875 112.986873)scale(0.1 -0.1)">
       <use xlink:href="#DejaVuSans-31"/>
       <use xlink:href="#DejaVuSans-20" x="63.623047"/>
       <use xlink:href="#DejaVuSans-35" x="95.410156"/>
       <use xlink:href="#DejaVuSans-30" x="159.033203"/>
       <use xlink:href="#DejaVuSans-30" x="222.65625"/>
      </g>
     </g>
    </g>
    <g id="ytick_8">
     <g id="line2d_28">
      <g>
       <use xlink:href="#m4c39a2ca0e" x="57.6" y="79.385597" style="stroke: #000000; stroke-width: 0.8"/>
      </g>
     </g>
     <g id="text_19">
      <!-- 1 750 -->
      <g transform="translate(21.971875 83.184816)scale(0.1 -0.1)">
       <use xlink:href="#DejaVuSans-31"/>
       <use xlink:href="#DejaVuSans-20" x="63.623047"/>
       <use xlink:href="#DejaVuSans-37" x="95.410156"/>
       <use xlink:href="#DejaVuSans-35" x="159.033203"/>
       <use xlink:href="#DejaVuSans-30" x="222.65625"/>
      </g>
     </g>
    </g>
    <g id="ytick_9">
     <g id="line2d_29">
      <g>
       <use xlink:href="#m4c39a2ca0e" x="57.6" y="49.58354" style="stroke: #000000; stroke-width: 0.8"/>
      </g>
     </g>
     <g id="text_20">
      <!-- 2 000 -->
      <g transform="translate(21.971875 53.382758)scale(0.1 -0.1)">
       <use xlink:href="#DejaVuSans-32"/>
       <use xlink:href="#DejaVuSans-20" x="63.623047"/>
       <use xlink:href="#DejaVuSans-30" x="95.410156"/>
       <use xlink:href="#DejaVuSans-30" x="159.033203"/>
       <use xlink:href="#DejaVuSans-30" x="222.65625"/>
      </g>
     </g>
    </g>
    <g id="text_21">
     <!-- Koszt (gwei ETH) -->
     <g transform="translate(15.892187 204.059375)rotate(-90)scale(0.1 -0.1)">
      <defs>
       <path id="DejaVuSans-4b" d="M 628 4666 
L 1259 4666 
L 1259 2694 
L 3353 4666 
L 4166 4666 
L 1850 2491 
L 4331 0 
L 3500 0 
L 1259 2247 
L 1259 0 
L 628 0 
L 628 4666 
z
" transform="scale(0.015625)"/>
       <path id="DejaVuSans-6f" d="M 1959 3097 
Q 1497 3097 1228 2736 
Q 959 2375 959 1747 
Q 959 1119 1226 758 
Q 1494 397 1959 397 
Q 2419 397 2687 759 
Q 2956 1122 2956 1747 
Q 2956 2369 2687 2733 
Q 2419 3097 1959 3097 
z
M 1959 3584 
Q 2709 3584 3137 3096 
Q 3566 2609 3566 1747 
Q 3566 888 3137 398 
Q 2709 -91 1959 -91 
Q 1206 -91 779 398 
Q 353 888 353 1747 
Q 353 2609 779 3096 
Q 1206 3584 1959 3584 
z
" transform="scale(0.015625)"/>
       <path id="DejaVuSans-73" d="M 2834 3397 
L 2834 2853 
Q 2591 2978 2328 3040 
Q 2066 3103 1784 3103 
Q 1356 3103 1142 2972 
Q 928 2841 928 2578 
Q 928 2378 1081 2264 
Q 1234 2150 1697 2047 
L 1894 2003 
Q 2506 1872 2764 1633 
Q 3022 1394 3022 966 
Q 3022 478 2636 193 
Q 2250 -91 1575 -91 
Q 1294 -91 989 -36 
Q 684 19 347 128 
L 347 722 
Q 666 556 975 473 
Q 1284 391 1588 391 
Q 1994 391 2212 530 
Q 2431 669 2431 922 
Q 2431 1156 2273 1281 
Q 2116 1406 1581 1522 
L 1381 1569 
Q 847 1681 609 1914 
Q 372 2147 372 2553 
Q 372 3047 722 3315 
Q 1072 3584 1716 3584 
Q 2034 3584 2315 3537 
Q 2597 3491 2834 3397 
z
" transform="scale(0.015625)"/>
       <path id="DejaVuSans-7a" d="M 353 3500 
L 3084 3500 
L 3084 2975 
L 922 459 
L 3084 459 
L 3084 0 
L 275 0 
L 275 525 
L 2438 3041 
L 353 3041 
L 353 3500 
z
" transform="scale(0.015625)"/>
       <path id="DejaVuSans-28" d="M 1984 4856 
Q 1566 4138 1362 3434 
Q 1159 2731 1159 2009 
Q 1159 1288 1364 580 
Q 1569 -128 1984 -844 
L 1484 -844 
Q 1016 -109 783 600 
Q 550 1309 550 2009 
Q 550 2706 781 3412 
Q 1013 4119 1484 4856 
L 1984 4856 
z
" transform="scale(0.015625)"/>
       <path id="DejaVuSans-67" d="M 2906 1791 
Q 2906 2416 2648 2759 
Q 2391 3103 1925 3103 
Q 1463 3103 1205 2759 
Q 947 2416 947 1791 
Q 947 1169 1205 825 
Q 1463 481 1925 481 
Q 2391 481 2648 825 
Q 2906 1169 2906 1791 
z
M 3481 434 
Q 3481 -459 3084 -895 
Q 2688 -1331 1869 -1331 
Q 1566 -1331 1297 -1286 
Q 1028 -1241 775 -1147 
L 775 -588 
Q 1028 -725 1275 -790 
Q 1522 -856 1778 -856 
Q 2344 -856 2625 -561 
Q 2906 -266 2906 331 
L 2906 616 
Q 2728 306 2450 153 
Q 2172 0 1784 0 
Q 1141 0 747 490 
Q 353 981 353 1791 
Q 353 2603 747 3093 
Q 1141 3584 1784 3584 
Q 2172 3584 2450 3431 
Q 2728 3278 2906 2969 
L 2906 3500 
L 3481 3500 
L 3481 434 
z
" transform="scale(0.015625)"/>
       <path id="DejaVuSans-77" d="M 269 3500 
L 844 3500 
L 1563 769 
L 2278 3500 
L 2956 3500 
L 3675 769 
L 4391 3500 
L 4966 3500 
L 4050 0 
L 3372 0 
L 2619 2869 
L 1863 0 
L 1184 0 
L 269 3500 
z
" transform="scale(0.015625)"/>
       <path id="DejaVuSans-65" d="M 3597 1894 
L 3597 1613 
L 953 1613 
Q 991 1019 1311 708 
Q 1631 397 2203 397 
Q 2534 397 2845 478 
Q 3156 559 3463 722 
L 3463 178 
Q 3153 47 2828 -22 
Q 2503 -91 2169 -91 
Q 1331 -91 842 396 
Q 353 884 353 1716 
Q 353 2575 817 3079 
Q 1281 3584 2069 3584 
Q 2775 3584 3186 3129 
Q 3597 2675 3597 1894 
z
M 3022 2063 
Q 3016 2534 2758 2815 
Q 2500 3097 2075 3097 
Q 1594 3097 1305 2825 
Q 1016 2553 972 2059 
L 3022 2063 
z
" transform="scale(0.015625)"/>
       <path id="DejaVuSans-69" d="M 603 3500 
L 1178 3500 
L 1178 0 
L 603 0 
L 603 3500 
z
M 603 4863 
L 1178 4863 
L 1178 4134 
L 603 4134 
L 603 4863 
z
" transform="scale(0.015625)"/>
       <path id="DejaVuSans-45" d="M 628 4666 
L 3578 4666 
L 3578 4134 
L 1259 4134 
L 1259 2753 
L 3481 2753 
L 3481 2222 
L 1259 2222 
L 1259 531 
L 3634 531 
L 3634 0 
L 628 0 
L 628 4666 
z
" transform="scale(0.015625)"/>
       <path id="DejaVuSans-54" d="M -19 4666 
L 3928 4666 
L 3928 4134 
L 2272 4134 
L 2272 0 
L 1638 0 
L 1638 4134 
L -19 4134 
L -19 4666 
z
" transform="scale(0.015625)"/>
       <path id="DejaVuSans-48" d="M 628 4666 
L 1259 4666 
L 1259 2753 
L 3553 2753 
L 3553 4666 
L 4184 4666 
L 4184 0 
L 3553 0 
L 3553 2222 
L 1259 2222 
L 1259 0 
L 628 0 
L 628 4666 
z
" transform="scale(0.015625)"/>
       <path id="DejaVuSans-29" d="M 513 4856 
L 1013 4856 
Q 1481 4119 1714 3412 
Q 1947 2706 1947 2009 
Q 1947 1309 1714 600 
Q 1481 -109 1013 -844 
L 513 -844 
Q 928 -128 1133 580 
Q 1338 1288 1338 2009 
Q 1338 2731 1133 3434 
Q 928 4138 513 4856 
z
" transform="scale(0.015625)"/>
      </defs>
      <use xlink:href="#DejaVuSans-4b"/>
      <use xlink:href="#DejaVuSans-6f" x="60.576172"/>
      <use xlink:href="#DejaVuSans-73" x="121.757812"/>
      <use xlink:href="#DejaVuSans-7a" x="173.857422"/>
      <use xlink:href="#DejaVuSans-74" x="226.347656"/>
      <use xlink:href="#DejaVuSans-20" x="265.556641"/>
      <use xlink:href="#DejaVuSans-28" x="297.34375"/>
      <use xlink:href="#DejaVuSans-67" x="336.357422"/>
      <use xlink:href="#DejaVuSans-77" x="399.833984"/>
      <use xlink:href="#DejaVuSans-65" x="481.621094"/>
      <use xlink:href="#DejaVuSans-69" x="543.144531"/>
      <use xlink:href="#DejaVuSans-20" x="570.927734"/>
      <use xlink:href="#DejaVuSans-45" x="602.714844"/>
      <use xlink:href="#DejaVuSans-54" x="665.898438"/>
      <use xlink:href="#DejaVuSans-48" x="726.982422"/>
      <use xlink:href="#DejaVuSans-29" x="802.177734"/>
     </g>
    </g>
   </g>
   <g id="line2d_30">
    <path d="M 79.854545 194.457611 
L 81.913975 205.033104 
L 83.973828 206.422028 
L 86.033207 198.619461 
L 88.092666 187.412545 
L 90.152157 190.577056 
L 92.211937 205.877968 
L 94.271598 206.842516 
L 96.331093 205.308938 
L 98.390977 191.843603 
L 100.451634 188.420356 
L 102.510294 178.105146 
L 104.570023 206.372795 
L 106.629977 202.962268 
L 108.689629 207.10988 
L 114.869116 205.165194 
L 116.929184 206.903901 
L 118.988357 207.481443 
L 123.233668 206.496231 
L 125.291988 203.852371 
L 127.352939 282.097071 
L 129.414337 191.231327 
L 131.471662 182.539824 
L 133.531001 261.98167 
L 135.590605 162.348687 
L 139.709796 154.368016 
L 141.769693 202.47553 
L 143.832037 201.709543 
L 145.889274 194.205457 
L 150.009222 183.267007 
L 152.068328 255.591498 
L 154.128058 195.272839 
L 156.188067 194.616063 
L 158.247509 198.588352 
L 160.30727 181.249714 
L 162.368121 179.542231 
L 164.427097 178.634154 
L 168.546716 206.675877 
L 170.60663 283.989956 
L 172.665884 195.868074 
L 174.726003 206.693277 
L 176.785639 206.915853 
L 178.848566 204.5391 
L 180.908738 180.068595 
L 185.026907 164.644712 
L 186.869667 -1 
M 187.220252 -1 
L 189.14574 278.180039 
L 191.205327 167.060877 
L 193.264963 187.856855 
L 195.325182 206.671035 
L 197.38502 204.276503 
L 199.445025 204.819416 
L 201.504723 186.412218 
L 203.564674 204.561956 
L 205.624615 278.399364 
L 207.684702 206.290769 
L 209.744128 206.100916 
L 211.801218 205.463449 
L 213.861087 183.503366 
L 215.920784 282.972453 
L 217.980576 283.989956 
L 220.096311 283.971245 
L 222.153335 203.181157 
L 224.213145 283.916875 
L 226.272788 250.192857 
L 228.334466 263.852477 
L 230.393739 160.560589 
L 232.453862 283.989956 
L 234.511645 278.446286 
L 236.573139 243.423251 
L 240.692711 194.955358 
L 242.752117 197.831759 
L 244.811912 227.753911 
L 246.872705 198.735548 
L 248.930951 204.1185 
L 250.990799 166.642547 
L 253.050783 187.8037 
L 255.109048 274.636802 
L 257.168793 204 
L 259.228208 204.642577 
L 261.288204 146.890429 
L 263.348254 194.878962 
L 265.408191 206.826395 
L 267.467904 207.145725 
L 269.527299 203.331876 
L 271.587233 206.243622 
L 273.647364 200.196158 
L 275.706668 199.207137 
L 277.767121 202.013351 
L 279.828346 206.566695 
L 281.886385 205.430881 
L 283.948886 206.079734 
L 286.007134 202.448804 
L 288.066931 205.125757 
L 290.126887 200.809057 
L 292.18671 189.432043 
L 294.247039 196.631147 
L 296.306701 206.158459 
L 298.366231 196.196199 
L 300.426203 199.882821 
L 302.48568 206.859106 
L 304.54544 205.385385 
L 306.60524 205.165194 
L 308.664716 206.460923 
L 310.724577 207.074486 
L 314.844347 207.339924 
L 316.904295 183.260621 
L 318.963691 230.73389 
L 321.023167 205.125757 
L 323.083413 205.954975 
L 325.140594 205.14817 
L 327.199991 205.14817 
L 329.259918 261.727882 
L 331.320587 186.766313 
L 335.398262 199.779032 
L 337.458369 205.125757 
L 339.518179 197.177671 
L 341.57801 276.153172 
L 343.637029 147.320973 
L 345.696859 276.907475 
L 349.816213 193.20399 
L 351.875921 189.76356 
L 353.935743 202.525587 
L 355.995447 206.722212 
L 358.055282 204.953048 
L 360.115183 202.37886 
L 362.176015 93.390053 
L 364.234742 165.058575 
L 365.799451 -1 
M 366.65964 -1 
L 368.354847 243.906789 
L 370.414577 194.221785 
L 372.473592 201.781016 
L 374.533463 192.702926 
L 376.593235 159.137292 
L 378.65283 263.939736 
L 382.772898 169.668844 
L 384.401233 -1 
M 385.217835 -1 
L 386.894733 199.802891 
L 388.954919 274.633187 
L 391.013691 127.107092 
L 394.064296 -1 
M 395.416477 -1 
L 397.193314 281.318401 
L 399.25293 281.316593 
L 401.313022 178.148299 
L 403.372766 154.331866 
L 405.435044 199.876541 
L 407.493844 262.483836 
L 409.552182 104.202558 
L 411.609752 141.635172 
L 413.669099 20.736033 
L 415.729105 231.934872 
L 417.788665 205.120771 
L 419.84965 154.368016 
L 421.798486 -1 
M 422.504465 -1 
L 423.969098 20.736033 
L 426.027819 273.840631 
L 428.13983 209.005891 
L 430.198897 196.558059 
L 432.258387 195.869511 
L 434.317979 171.224983 
L 436.377686 76.728407 
L 438.437266 232.17028 
L 440.497092 229.533381 
L 442.556928 269.447806 
L 444.616581 260.079534 
L 446.676184 270.61183 
L 448.736225 266.138067 
L 450.795774 274.287622 
L 452.855274 280.074734 
L 456.974639 165.484154 
L 459.035237 258.617873 
L 461.094199 185.597642 
L 463.15421 205.641021 
L 467.273206 205.894856 
L 469.333434 273.463891 
L 471.392261 158.376976 
L 473.45201 204.164668 
L 475.511923 189.334067 
L 477.571761 188.072952 
L 479.633418 252.729552 
L 481.692952 199.39677 
L 485.810807 154.058529 
L 487.870322 252.077063 
L 489.929929 168.124507 
L 491.989719 173.027712 
L 496.109187 140.987542 
L 498.168902 257.459712 
L 500.228802 204.53421 
L 502.288442 199.800109 
L 504.348317 205.118131 
L 506.408589 167.69868 
L 508.467916 204.812584 
L 510.527273 201.074952 
L 512.587181 206.68614 
L 514.646868 194.457611 
L 516.706555 207.558942 
L 518.766304 203.975144 
L 520.826036 205.087718 
L 522.885792 196.78324 
L 524.945455 204.23605 
L 524.945455 204.23605 
" clip-path="url(#p39f1ef7596)" style="fill: none; stroke: #1f77b4; stroke-width: 1.5; stroke-linecap: square"/>
   </g>
   <g id="line2d_31">
    <path d="M 79.854545 241.086465 
L 81.913975 246.390303 
L 83.973828 247.120006 
L 86.033207 243.210018 
L 88.092666 237.594058 
L 90.152157 239.179844 
L 92.211937 246.847369 
L 94.271598 247.297763 
L 96.331093 246.52864 
L 98.390977 239.775483 
L 100.451634 238.48393 
L 102.510294 232.885349 
L 104.570023 247.095335 
L 106.629977 245.351734 
L 108.689629 247.431851 
L 110.74982 247.15823 
L 114.869116 246.490187 
L 116.929184 247.328548 
L 118.988357 247.650896 
L 121.047943 247.35279 
L 123.233668 247.15719 
L 125.291988 245.79814 
L 127.352939 285.039553 
L 129.414337 239.507709 
L 131.471662 235.152261 
L 133.531001 274.951244 
L 135.590605 225.034168 
L 139.709796 220.980664 
L 141.769693 245.107625 
L 143.832037 244.758506 
L 145.889274 240.181148 
L 150.009222 235.474134 
L 152.068328 271.759594 
L 154.128058 241.495319 
L 156.188067 241.203853 
L 158.247509 243.194429 
L 160.30727 236.169451 
L 162.368121 233.606078 
L 164.427097 233.150658 
L 168.546716 247.247214 
L 170.60663 285.990504 
L 172.665884 241.831255 
L 174.726003 247.222916 
L 176.785639 247.334543 
L 178.848566 246.142549 
L 180.908738 233.91389 
L 185.026907 226.134649 
L 187.086082 133.429156 
L 189.14574 283.079064 
L 191.205327 227.346408 
L 193.264963 237.816709 
L 195.325182 247.244787 
L 197.38502 246.010852 
L 199.445025 246.283134 
L 201.504723 237.092778 
L 203.564674 246.154012 
L 205.624615 283.188972 
L 207.684702 247.02105 
L 209.744128 246.925834 
L 211.801218 246.606131 
L 213.861087 235.635107 
L 215.920784 285.478576 
L 217.980576 285.990504 
L 220.096311 285.979492 
L 222.153335 245.461512 
L 224.213145 285.952224 
L 226.272788 269.054251 
L 228.334466 275.8993 
L 230.393739 224.138124 
L 232.453862 285.990504 
L 234.511645 283.208605 
L 236.573139 265.643794 
L 240.692711 241.373879 
L 242.752117 242.815288 
L 244.811912 238.831111 
L 246.872705 243.231942 
L 248.930951 245.93161 
L 250.990799 288 
L 253.050783 237.790072 
L 255.109048 281.298066 
L 257.168793 245.90629 
L 259.228208 246.228295 
L 261.288204 217.287794 
L 263.348254 241.335596 
L 265.408191 247.322641 
L 267.467904 247.449828 
L 269.527299 288 
L 271.587233 246.997404 
L 273.647364 244.000126 
L 275.706668 243.468454 
L 277.767121 244.875832 
L 279.828346 288 
L 281.886385 246.589797 
L 283.948886 245.094221 
L 286.007134 245.094221 
L 288.066931 246.470425 
L 290.126887 244.307259 
L 292.18671 238.566033 
L 294.247039 242.213643 
L 296.306701 246.987928 
L 298.366231 241.995684 
L 300.426203 243.807325 
L 302.48568 247.339033 
L 304.54544 246.600528 
L 306.60524 246.490187 
L 308.664716 247.106386 
L 310.724577 247.414101 
L 314.844347 247.579978 
L 316.904295 236.892147 
L 318.963691 259.303059 
L 321.023167 246.470425 
L 323.083413 246.852642 
L 325.140594 246.448011 
L 327.199991 246.448011 
L 329.259918 274.823963 
L 331.320587 237.229112 
L 335.398262 243.791097 
L 337.458369 246.470424 
L 339.518179 242.487515 
L 341.57801 282.058559 
L 343.637029 217.503546 
L 345.696859 214.854361 
L 347.756464 260.942744 
L 349.816213 240.496241 
L 351.875921 238.772188 
L 353.935743 245.167439 
L 355.995447 247.298767 
L 358.055282 246.453989 
L 360.115183 245.059142 
L 362.176015 190.477921 
L 364.234742 226.342211 
L 366.295352 116.804526 
L 368.354847 265.886299 
L 370.414577 241.006274 
L 372.473592 244.794323 
L 374.533463 240.206452 
L 376.593235 223.424888 
L 378.65283 275.943026 
L 382.772898 228.702413 
L 384.836689 120.306207 
L 386.894733 243.767238 
L 388.954919 281.301681 
L 391.013691 207.308719 
L 395.133807 120.535374 
L 397.193314 284.649033 
L 399.25293 284.650841 
L 401.313022 232.9516 
L 403.372766 221.016814 
L 405.435044 243.83996 
L 407.493844 275.213453 
L 409.552182 195.896236 
L 411.609752 214.594866 
L 413.669099 153.961327 
L 415.729105 259.90489 
L 417.788665 246.467926 
L 419.84965 220.980664 
L 421.90928 138.75129 
L 423.969098 153.961327 
L 426.027819 280.89877 
L 428.13983 248.41482 
L 430.198897 242.177017 
L 432.258387 241.794563 
L 434.317979 229.482218 
L 436.377686 182.042717 
L 438.437266 260.022857 
L 440.497092 258.677723 
L 442.556928 278.703206 
L 444.616581 274.008619 
L 446.676184 279.279456 
L 448.736225 277.044645 
L 450.795774 281.128514 
L 452.855274 284.025308 
L 456.974639 226.885548 
L 459.035237 273.276158 
L 461.094199 236.684582 
L 463.15421 246.728631 
L 467.273206 246.822491 
L 469.333434 280.715729 
L 471.392261 222.991244 
L 473.45201 245.954764 
L 475.511923 238.516896 
L 477.571761 237.884419 
L 479.633418 270.325428 
L 481.692952 243.563559 
L 485.810807 220.87984 
L 487.870322 269.998456 
L 489.929929 227.928521 
L 491.989719 230.385594 
L 496.109187 214.270066 
L 498.168902 272.683383 
L 500.228802 246.173991 
L 502.288442 243.801659 
L 504.348317 246.432946 
L 506.408589 227.715132 
L 508.467916 246.279708 
L 510.527273 244.440503 
L 512.587181 247.252357 
L 514.646868 241.086465 
L 516.706555 247.689732 
L 518.766304 245.859714 
L 520.826036 246.451363 
L 522.885792 242.158774 
L 524.945455 246.024578 
L 524.945455 246.024578 
" clip-path="url(#p39f1ef7596)" style="fill: none; stroke: #ff7f0e; stroke-width: 1.5; stroke-linecap: square"/>
   </g>
   <g id="patch_3">
    <path d="M 57.6 288 
L 57.6 36 
" style="fill: none; stroke: #000000; stroke-width: 0.8; stroke-linejoin: miter; stroke-linecap: square"/>
   </g>
   <g id="patch_4">
    <path d="M 547.2 288 
L 547.2 36 
" style="fill: none; stroke: #000000; stroke-width: 0.8; stroke-linejoin: miter; stroke-linecap: square"/>
   </g>
   <g id="patch_5">
    <path d="M 57.6 288 
L 547.2 288 
" style="fill: none; stroke: #000000; stroke-width: 0.8; stroke-linejoin: miter; stroke-linecap: square"/>
   </g>
   <g id="patch_6">
    <path d="M 57.6 36 
L 547.2 36 
" style="fill: none; stroke: #000000; stroke-width: 0.8; stroke-linejoin: miter; stroke-linecap: square"/>
   </g>
   <g id="text_22">
    <!-- Koszt transakcji dla sieci 'Polygon' -->
    <g transform="translate(200.158125 30)scale(0.12 -0.12)">
     <defs>
      <path id="DejaVuSans-72" d="M 2631 2963 
Q 2534 3019 2420 3045 
Q 2306 3072 2169 3072 
Q 1681 3072 1420 2755 
Q 1159 2438 1159 1844 
L 1159 0 
L 581 0 
L 581 3500 
L 1159 3500 
L 1159 2956 
Q 1341 3275 1631 3429 
Q 1922 3584 2338 3584 
Q 2397 3584 2469 3576 
Q 2541 3569 2628 3553 
L 2631 2963 
z
" transform="scale(0.015625)"/>
      <path id="DejaVuSans-6e" d="M 3513 2113 
L 3513 0 
L 2938 0 
L 2938 2094 
Q 2938 2591 2744 2837 
Q 2550 3084 2163 3084 
Q 1697 3084 1428 2787 
Q 1159 2491 1159 1978 
L 1159 0 
L 581 0 
L 581 3500 
L 1159 3500 
L 1159 2956 
Q 1366 3272 1645 3428 
Q 1925 3584 2291 3584 
Q 2894 3584 3203 3211 
Q 3513 2838 3513 2113 
z
" transform="scale(0.015625)"/>
      <path id="DejaVuSans-6b" d="M 581 4863 
L 1159 4863 
L 1159 1991 
L 2875 3500 
L 3609 3500 
L 1753 1863 
L 3688 0 
L 2938 0 
L 1159 1709 
L 1159 0 
L 581 0 
L 581 4863 
z
" transform="scale(0.015625)"/>
      <path id="DejaVuSans-63" d="M 3122 3366 
L 3122 2828 
Q 2878 2963 2633 3030 
Q 2388 3097 2138 3097 
Q 1578 3097 1268 2742 
Q 959 2388 959 1747 
Q 959 1106 1268 751 
Q 1578 397 2138 397 
Q 2388 397 2633 464 
Q 2878 531 3122 666 
L 3122 134 
Q 2881 22 2623 -34 
Q 2366 -91 2075 -91 
Q 1284 -91 818 406 
Q 353 903 353 1747 
Q 353 2603 823 3093 
Q 1294 3584 2113 3584 
Q 2378 3584 2631 3529 
Q 2884 3475 3122 3366 
z
" transform="scale(0.015625)"/>
      <path id="DejaVuSans-6a" d="M 603 3500 
L 1178 3500 
L 1178 -63 
Q 1178 -731 923 -1031 
Q 669 -1331 103 -1331 
L -116 -1331 
L -116 -844 
L 38 -844 
Q 366 -844 484 -692 
Q 603 -541 603 -63 
L 603 3500 
z
M 603 4863 
L 1178 4863 
L 1178 4134 
L 603 4134 
L 603 4863 
z
" transform="scale(0.015625)"/>
      <path id="DejaVuSans-64" d="M 2906 2969 
L 2906 4863 
L 3481 4863 
L 3481 0 
L 2906 0 
L 2906 525 
Q 2725 213 2448 61 
Q 2172 -91 1784 -91 
Q 1150 -91 751 415 
Q 353 922 353 1747 
Q 353 2572 751 3078 
Q 1150 3584 1784 3584 
Q 2172 3584 2448 3432 
Q 2725 3281 2906 2969 
z
M 947 1747 
Q 947 1113 1208 752 
Q 1469 391 1925 391 
Q 2381 391 2643 752 
Q 2906 1113 2906 1747 
Q 2906 2381 2643 2742 
Q 2381 3103 1925 3103 
Q 1469 3103 1208 2742 
Q 947 2381 947 1747 
z
" transform="scale(0.015625)"/>
      <path id="DejaVuSans-6c" d="M 603 4863 
L 1178 4863 
L 1178 0 
L 603 0 
L 603 4863 
z
" transform="scale(0.015625)"/>
      <path id="DejaVuSans-27" d="M 1147 4666 
L 1147 2931 
L 616 2931 
L 616 4666 
L 1147 4666 
z
" transform="scale(0.015625)"/>
      <path id="DejaVuSans-50" d="M 1259 4147 
L 1259 2394 
L 2053 2394 
Q 2494 2394 2734 2622 
Q 2975 2850 2975 3272 
Q 2975 3691 2734 3919 
Q 2494 4147 2053 4147 
L 1259 4147 
z
M 628 4666 
L 2053 4666 
Q 2838 4666 3239 4311 
Q 3641 3956 3641 3272 
Q 3641 2581 3239 2228 
Q 2838 1875 2053 1875 
L 1259 1875 
L 1259 0 
L 628 0 
L 628 4666 
z
" transform="scale(0.015625)"/>
      <path id="DejaVuSans-79" d="M 2059 -325 
Q 1816 -950 1584 -1140 
Q 1353 -1331 966 -1331 
L 506 -1331 
L 506 -850 
L 844 -850 
Q 1081 -850 1212 -737 
Q 1344 -625 1503 -206 
L 1606 56 
L 191 3500 
L 800 3500 
L 1894 763 
L 2988 3500 
L 3597 3500 
L 2059 -325 
z
" transform="scale(0.015625)"/>
     </defs>
     <use xlink:href="#DejaVuSans-4b"/>
     <use xlink:href="#DejaVuSans-6f" x="60.576172"/>
     <use xlink:href="#DejaVuSans-73" x="121.757812"/>
     <use xlink:href="#DejaVuSans-7a" x="173.857422"/>
     <use xlink:href="#DejaVuSans-74" x="226.347656"/>
     <use xlink:href="#DejaVuSans-20" x="265.556641"/>
     <use xlink:href="#DejaVuSans-74" x="297.34375"/>
     <use xlink:href="#DejaVuSans-72" x="336.552734"/>
     <use xlink:href="#DejaVuSans-61" x="377.666016"/>
     <use xlink:href="#DejaVuSans-6e" x="438.945312"/>
     <use xlink:href="#DejaVuSans-73" x="502.324219"/>
     <use xlink:href="#DejaVuSans-61" x="554.423828"/>
     <use xlink:href="#DejaVuSans-6b" x="615.703125"/>
     <use xlink:href="#DejaVuSans-63" x="673.613281"/>
     <use xlink:href="#DejaVuSans-6a" x="728.59375"/>
     <use xlink:href="#DejaVuSans-69" x="756.376953"/>
     <use xlink:href="#DejaVuSans-20" x="784.160156"/>
     <use xlink:href="#DejaVuSans-64" x="815.947266"/>
     <use xlink:href="#DejaVuSans-6c" x="879.423828"/>
     <use xlink:href="#DejaVuSans-61" x="907.207031"/>
     <use xlink:href="#DejaVuSans-20" x="968.486328"/>
     <use xlink:href="#DejaVuSans-73" x="1000.273438"/>
     <use xlink:href="#DejaVuSans-69" x="1052.373047"/>
     <use xlink:href="#DejaVuSans-65" x="1080.15625"/>
     <use xlink:href="#DejaVuSans-63" x="1141.679688"/>
     <use xlink:href="#DejaVuSans-69" x="1196.660156"/>
     <use xlink:href="#DejaVuSans-20" x="1224.443359"/>
     <use xlink:href="#DejaVuSans-27" x="1256.230469"/>
     <use xlink:href="#DejaVuSans-50" x="1283.720703"/>
     <use xlink:href="#DejaVuSans-6f" x="1340.398438"/>
     <use xlink:href="#DejaVuSans-6c" x="1401.580078"/>
     <use xlink:href="#DejaVuSans-79" x="1429.363281"/>
     <use xlink:href="#DejaVuSans-67" x="1488.542969"/>
     <use xlink:href="#DejaVuSans-6f" x="1552.019531"/>
     <use xlink:href="#DejaVuSans-6e" x="1613.201172"/>
     <use xlink:href="#DejaVuSans-27" x="1676.580078"/>
    </g>
   </g>
   <g id="legend_1">
    <g id="patch_7">
     <path d="M 348.64375 73.35625 
L 540.2 73.35625 
Q 542.2 73.35625 542.2 71.35625 
L 542.2 43 
Q 542.2 41 540.2 41 
L 348.64375 41 
Q 346.64375 41 346.64375 43 
L 346.64375 71.35625 
Q 346.64375 73.35625 348.64375 73.35625 
z
" style="fill: #ffffff; opacity: 0.8; stroke: #cccccc; stroke-linejoin: miter"/>
    </g>
    <g id="line2d_32">
     <path d="M 350.64375 49.098438 
L 360.64375 49.098438 
L 370.64375 49.098438 
" style="fill: none; stroke: #1f77b4; stroke-width: 1.5; stroke-linecap: square"/>
    </g>
    <g id="text_23">
     <!-- Koszt użytkownika (GiveAccess) -->
     <g transform="translate(378.64375 52.598438)scale(0.1 -0.1)">
      <defs>
       <path id="DejaVuSans-75" d="M 544 1381 
L 544 3500 
L 1119 3500 
L 1119 1403 
Q 1119 906 1312 657 
Q 1506 409 1894 409 
Q 2359 409 2629 706 
Q 2900 1003 2900 1516 
L 2900 3500 
L 3475 3500 
L 3475 0 
L 2900 0 
L 2900 538 
Q 2691 219 2414 64 
Q 2138 -91 1772 -91 
Q 1169 -91 856 284 
Q 544 659 544 1381 
z
M 1991 3584 
L 1991 3584 
z
" transform="scale(0.015625)"/>
       <path id="DejaVuSans-17c" d="M 1378 4863 
L 1953 4863 
L 1953 4134 
L 1378 4134 
L 1378 4863 
z
M 1672 3584 
L 1672 3584 
z
M 353 3500 
L 3084 3500 
L 3084 2975 
L 922 459 
L 3084 459 
L 3084 0 
L 275 0 
L 275 525 
L 2438 3041 
L 353 3041 
L 353 3500 
z
" transform="scale(0.015625)"/>
       <path id="DejaVuSans-47" d="M 3809 666 
L 3809 1919 
L 2778 1919 
L 2778 2438 
L 4434 2438 
L 4434 434 
Q 4069 175 3628 42 
Q 3188 -91 2688 -91 
Q 1594 -91 976 548 
Q 359 1188 359 2328 
Q 359 3472 976 4111 
Q 1594 4750 2688 4750 
Q 3144 4750 3555 4637 
Q 3966 4525 4313 4306 
L 4313 3634 
Q 3963 3931 3569 4081 
Q 3175 4231 2741 4231 
Q 1884 4231 1454 3753 
Q 1025 3275 1025 2328 
Q 1025 1384 1454 906 
Q 1884 428 2741 428 
Q 3075 428 3337 486 
Q 3600 544 3809 666 
z
" transform="scale(0.015625)"/>
       <path id="DejaVuSans-76" d="M 191 3500 
L 800 3500 
L 1894 563 
L 2988 3500 
L 3597 3500 
L 2284 0 
L 1503 0 
L 191 3500 
z
" transform="scale(0.015625)"/>
       <path id="DejaVuSans-41" d="M 2188 4044 
L 1331 1722 
L 3047 1722 
L 2188 4044 
z
M 1831 4666 
L 2547 4666 
L 4325 0 
L 3669 0 
L 3244 1197 
L 1141 1197 
L 716 0 
L 50 0 
L 1831 4666 
z
" transform="scale(0.015625)"/>
      </defs>
      <use xlink:href="#DejaVuSans-4b"/>
      <use xlink:href="#DejaVuSans-6f" x="60.576172"/>
      <use xlink:href="#DejaVuSans-73" x="121.757812"/>
      <use xlink:href="#DejaVuSans-7a" x="173.857422"/>
      <use xlink:href="#DejaVuSans-74" x="226.347656"/>
      <use xlink:href="#DejaVuSans-20" x="265.556641"/>
      <use xlink:href="#DejaVuSans-75" x="297.34375"/>
      <use xlink:href="#DejaVuSans-17c" x="360.722656"/>
      <use xlink:href="#DejaVuSans-79" x="413.212891"/>
      <use xlink:href="#DejaVuSans-74" x="472.392578"/>
      <use xlink:href="#DejaVuSans-6b" x="511.601562"/>
      <use xlink:href="#DejaVuSans-6f" x="565.886719"/>
      <use xlink:href="#DejaVuSans-77" x="627.068359"/>
      <use xlink:href="#DejaVuSans-6e" x="708.855469"/>
      <use xlink:href="#DejaVuSans-69" x="772.234375"/>
      <use xlink:href="#DejaVuSans-6b" x="800.017578"/>
      <use xlink:href="#DejaVuSans-61" x="856.177734"/>
      <use xlink:href="#DejaVuSans-20" x="917.457031"/>
      <use xlink:href="#DejaVuSans-28" x="949.244141"/>
      <use xlink:href="#DejaVuSans-47" x="988.257812"/>
      <use xlink:href="#DejaVuSans-69" x="1065.748047"/>
      <use xlink:href="#DejaVuSans-76" x="1093.53125"/>
      <use xlink:href="#DejaVuSans-65" x="1152.710938"/>
      <use xlink:href="#DejaVuSans-41" x="1214.234375"/>
      <use xlink:href="#DejaVuSans-63" x="1280.892578"/>
      <use xlink:href="#DejaVuSans-63" x="1335.873047"/>
      <use xlink:href="#DejaVuSans-65" x="1390.853516"/>
      <use xlink:href="#DejaVuSans-73" x="1452.376953"/>
      <use xlink:href="#DejaVuSans-73" x="1504.476562"/>
      <use xlink:href="#DejaVuSans-29" x="1556.576172"/>
     </g>
    </g>
    <g id="line2d_33">
     <path d="M 350.64375 63.776563 
L 360.64375 63.776563 
L 370.64375 63.776563 
" style="fill: none; stroke: #ff7f0e; stroke-width: 1.5; stroke-linecap: square"/>
    </g>
    <g id="text_24">
     <!-- Koszt aplikacji (ReceiveAccess) -->
     <g transform="translate(378.64375 67.276563)scale(0.1 -0.1)">
      <defs>
       <path id="DejaVuSans-70" d="M 1159 525 
L 1159 -1331 
L 581 -1331 
L 581 3500 
L 1159 3500 
L 1159 2969 
Q 1341 3281 1617 3432 
Q 1894 3584 2278 3584 
Q 2916 3584 3314 3078 
Q 3713 2572 3713 1747 
Q 3713 922 3314 415 
Q 2916 -91 2278 -91 
Q 1894 -91 1617 61 
Q 1341 213 1159 525 
z
M 3116 1747 
Q 3116 2381 2855 2742 
Q 2594 3103 2138 3103 
Q 1681 3103 1420 2742 
Q 1159 2381 1159 1747 
Q 1159 1113 1420 752 
Q 1681 391 2138 391 
Q 2594 391 2855 752 
Q 3116 1113 3116 1747 
z
" transform="scale(0.015625)"/>
       <path id="DejaVuSans-52" d="M 2841 2188 
Q 3044 2119 3236 1894 
Q 3428 1669 3622 1275 
L 4263 0 
L 3584 0 
L 2988 1197 
Q 2756 1666 2539 1819 
Q 2322 1972 1947 1972 
L 1259 1972 
L 1259 0 
L 628 0 
L 628 4666 
L 2053 4666 
Q 2853 4666 3247 4331 
Q 3641 3997 3641 3322 
Q 3641 2881 3436 2590 
Q 3231 2300 2841 2188 
z
M 1259 4147 
L 1259 2491 
L 2053 2491 
Q 2509 2491 2742 2702 
Q 2975 2913 2975 3322 
Q 2975 3731 2742 3939 
Q 2509 4147 2053 4147 
L 1259 4147 
z
" transform="scale(0.015625)"/>
      </defs>
      <use xlink:href="#DejaVuSans-4b"/>
      <use xlink:href="#DejaVuSans-6f" x="60.576172"/>
      <use xlink:href="#DejaVuSans-73" x="121.757812"/>
      <use xlink:href="#DejaVuSans-7a" x="173.857422"/>
      <use xlink:href="#DejaVuSans-74" x="226.347656"/>
      <use xlink:href="#DejaVuSans-20" x="265.556641"/>
      <use xlink:href="#DejaVuSans-61" x="297.34375"/>
      <use xlink:href="#DejaVuSans-70" x="358.623047"/>
      <use xlink:href="#DejaVuSans-6c" x="422.099609"/>
      <use xlink:href="#DejaVuSans-69" x="449.882812"/>
      <use xlink:href="#DejaVuSans-6b" x="477.666016"/>
      <use xlink:href="#DejaVuSans-61" x="533.826172"/>
      <use xlink:href="#DejaVuSans-63" x="595.105469"/>
      <use xlink:href="#DejaVuSans-6a" x="650.085938"/>
      <use xlink:href="#DejaVuSans-69" x="677.869141"/>
      <use xlink:href="#DejaVuSans-20" x="705.652344"/>
      <use xlink:href="#DejaVuSans-28" x="737.439453"/>
      <use xlink:href="#DejaVuSans-52" x="776.453125"/>
      <use xlink:href="#DejaVuSans-65" x="841.435547"/>
      <use xlink:href="#DejaVuSans-63" x="902.958984"/>
      <use xlink:href="#DejaVuSans-65" x="957.939453"/>
      <use xlink:href="#DejaVuSans-69" x="1019.462891"/>
      <use xlink:href="#DejaVuSans-76" x="1047.246094"/>
      <use xlink:href="#DejaVuSans-65" x="1106.425781"/>
      <use xlink:href="#DejaVuSans-41" x="1167.949219"/>
      <use xlink:href="#DejaVuSans-63" x="1234.607422"/>
      <use xlink:href="#DejaVuSans-63" x="1289.587891"/>
      <use xlink:href="#DejaVuSans-65" x="1344.568359"/>
      <use xlink:href="#DejaVuSans-73" x="1406.091797"/>
      <use xlink:href="#DejaVuSans-73" x="1458.191406"/>
      <use xlink:href="#DejaVuSans-29" x="1510.291016"/>
     </g>
    </g>
   </g>
  </g>
 </g>
 <defs>
  <clipPath id="p39f1ef7596">
   <rect x="57.6" y="36" width="489.6" height="252"/>
  </clipPath>
 </defs>
</svg>
