<?xml version="1.0" encoding="utf-8" standalone="no"?>
<!DOCTYPE svg PUBLIC "-//W3C//DTD SVG 1.1//EN"
  "http://www.w3.org/Graphics/SVG/1.1/DTD/svg11.dtd">
<svg xmlns:xlink="http://www.w3.org/1999/xlink" width="576pt" height="288pt" viewBox="0 0 576 288" xmlns="http://www.w3.org/2000/svg" version="1.1">
 <metadata>
  <rdf:RDF xmlns:dc="http://purl.org/dc/elements/1.1/" xmlns:cc="http://creativecommons.org/ns#" xmlns:rdf="http://www.w3.org/1999/02/22-rdf-syntax-ns#">
   <cc:Work>
    <dc:type rdf:resource="http://purl.org/dc/dcmitype/StillImage"/>
    <dc:date>2022-10-09T16:08:33.380645</dc:date>
    <dc:format>image/svg+xml</dc:format>
    <dc:creator>
     <cc:Agent>
      <dc:title>Matplotlib v3.5.3, https://matplotlib.org/</dc:title>
     </cc:Agent>
    </dc:creator>
   </cc:Work>
  </rdf:RDF>
 </metadata>
 <defs>
  <style type="text/css">*{stroke-linejoin: round; stroke-linecap: butt}</style>
 </defs>
 <g id="figure_1">
  <g id="patch_1">
   <path d="M 0 288 
L 576 288 
L 576 0 
L 0 0 
z
" style="fill: #ffffff"/>
  </g>
  <g id="axes_1">
   <g id="patch_2">
    <path d="M 115.2 230.4 
L 547.2 230.4 
L 547.2 28.8 
L 115.2 28.8 
z
" style="fill: #ffffff"/>
   </g>
   <g id="matplotlib.axis_1">
    <g id="xtick_1">
     <g id="line2d_1">
      <path d="M 141.539487 230.4 
L 141.539487 28.8 
" clip-path="url(#p2139278a9d)" style="fill: none; stroke: #b0b0b0; stroke-opacity: 0.7; stroke-width: 0.8; stroke-linecap: square"/>
     </g>
     <g id="line2d_2">
      <defs>
       <path id="m19ee1f5388" d="M 0 0 
L 0 3.5 
" style="stroke: #000000; stroke-width: 0.8"/>
      </defs>
      <g>
       <use xlink:href="#m19ee1f5388" x="141.539487" y="230.4" style="stroke: #000000; stroke-width: 0.8"/>
      </g>
     </g>
     <g id="text_1">
      <!-- 01.08.2022 -->
      <g transform="translate(99.582643 283.259189)rotate(-45)scale(0.1 -0.1)">
       <defs>
        <path id="DejaVuSans-30" d="M 2034 4250 
Q 1547 4250 1301 3770 
Q 1056 3291 1056 2328 
Q 1056 1369 1301 889 
Q 1547 409 2034 409 
Q 2525 409 2770 889 
Q 3016 1369 3016 2328 
Q 3016 3291 2770 3770 
Q 2525 4250 2034 4250 
z
M 2034 4750 
Q 2819 4750 3233 4129 
Q 3647 3509 3647 2328 
Q 3647 1150 3233 529 
Q 2819 -91 2034 -91 
Q 1250 -91 836 529 
Q 422 1150 422 2328 
Q 422 3509 836 4129 
Q 1250 4750 2034 4750 
z
" transform="scale(0.015625)"/>
        <path id="DejaVuSans-31" d="M 794 531 
L 1825 531 
L 1825 4091 
L 703 3866 
L 703 4441 
L 1819 4666 
L 2450 4666 
L 2450 531 
L 3481 531 
L 3481 0 
L 794 0 
L 794 531 
z
" transform="scale(0.015625)"/>
        <path id="DejaVuSans-2e" d="M 684 794 
L 1344 794 
L 1344 0 
L 684 0 
L 684 794 
z
" transform="scale(0.015625)"/>
        <path id="DejaVuSans-38" d="M 2034 2216 
Q 1584 2216 1326 1975 
Q 1069 1734 1069 1313 
Q 1069 891 1326 650 
Q 1584 409 2034 409 
Q 2484 409 2743 651 
Q 3003 894 3003 1313 
Q 3003 1734 2745 1975 
Q 2488 2216 2034 2216 
z
M 1403 2484 
Q 997 2584 770 2862 
Q 544 3141 544 3541 
Q 544 4100 942 4425 
Q 1341 4750 2034 4750 
Q 2731 4750 3128 4425 
Q 3525 4100 3525 3541 
Q 3525 3141 3298 2862 
Q 3072 2584 2669 2484 
Q 3125 2378 3379 2068 
Q 3634 1759 3634 1313 
Q 3634 634 3220 271 
Q 2806 -91 2034 -91 
Q 1263 -91 848 271 
Q 434 634 434 1313 
Q 434 1759 690 2068 
Q 947 2378 1403 2484 
z
M 1172 3481 
Q 1172 3119 1398 2916 
Q 1625 2713 2034 2713 
Q 2441 2713 2670 2916 
Q 2900 3119 2900 3481 
Q 2900 3844 2670 4047 
Q 2441 4250 2034 4250 
Q 1625 4250 1398 4047 
Q 1172 3844 1172 3481 
z
" transform="scale(0.015625)"/>
        <path id="DejaVuSans-32" d="M 1228 531 
L 3431 531 
L 3431 0 
L 469 0 
L 469 531 
Q 828 903 1448 1529 
Q 2069 2156 2228 2338 
Q 2531 2678 2651 2914 
Q 2772 3150 2772 3378 
Q 2772 3750 2511 3984 
Q 2250 4219 1831 4219 
Q 1534 4219 1204 4116 
Q 875 4013 500 3803 
L 500 4441 
Q 881 4594 1212 4672 
Q 1544 4750 1819 4750 
Q 2544 4750 2975 4387 
Q 3406 4025 3406 3419 
Q 3406 3131 3298 2873 
Q 3191 2616 2906 2266 
Q 2828 2175 2409 1742 
Q 1991 1309 1228 531 
z
" transform="scale(0.015625)"/>
       </defs>
       <use xlink:href="#DejaVuSans-30"/>
       <use xlink:href="#DejaVuSans-31" x="63.623047"/>
       <use xlink:href="#DejaVuSans-2e" x="127.246094"/>
       <use xlink:href="#DejaVuSans-30" x="159.033203"/>
       <use xlink:href="#DejaVuSans-38" x="222.65625"/>
       <use xlink:href="#DejaVuSans-2e" x="286.279297"/>
       <use xlink:href="#DejaVuSans-32" x="318.066406"/>
       <use xlink:href="#DejaVuSans-30" x="381.689453"/>
       <use xlink:href="#DejaVuSans-32" x="445.3125"/>
       <use xlink:href="#DejaVuSans-32" x="508.935547"/>
      </g>
     </g>
    </g>
    <g id="xtick_2">
     <g id="line2d_3">
      <path d="M 185.156246 230.4 
L 185.156246 28.8 
" clip-path="url(#p2139278a9d)" style="fill: none; stroke: #b0b0b0; stroke-opacity: 0.7; stroke-width: 0.8; stroke-linecap: square"/>
     </g>
     <g id="line2d_4">
      <g>
       <use xlink:href="#m19ee1f5388" x="185.156246" y="230.4" style="stroke: #000000; stroke-width: 0.8"/>
      </g>
     </g>
     <g id="text_2">
      <!-- 02.08.2022 -->
      <g transform="translate(143.199402 283.259189)rotate(-45)scale(0.1 -0.1)">
       <use xlink:href="#DejaVuSans-30"/>
       <use xlink:href="#DejaVuSans-32" x="63.623047"/>
       <use xlink:href="#DejaVuSans-2e" x="127.246094"/>
       <use xlink:href="#DejaVuSans-30" x="159.033203"/>
       <use xlink:href="#DejaVuSans-38" x="222.65625"/>
       <use xlink:href="#DejaVuSans-2e" x="286.279297"/>
       <use xlink:href="#DejaVuSans-32" x="318.066406"/>
       <use xlink:href="#DejaVuSans-30" x="381.689453"/>
       <use xlink:href="#DejaVuSans-32" x="445.3125"/>
       <use xlink:href="#DejaVuSans-32" x="508.935547"/>
      </g>
     </g>
    </g>
    <g id="xtick_3">
     <g id="line2d_5">
      <path d="M 228.773005 230.4 
L 228.773005 28.8 
" clip-path="url(#p2139278a9d)" style="fill: none; stroke: #b0b0b0; stroke-opacity: 0.7; stroke-width: 0.8; stroke-linecap: square"/>
     </g>
     <g id="line2d_6">
      <g>
       <use xlink:href="#m19ee1f5388" x="228.773005" y="230.4" style="stroke: #000000; stroke-width: 0.8"/>
      </g>
     </g>
     <g id="text_3">
      <!-- 03.08.2022 -->
      <g transform="translate(186.816161 283.259189)rotate(-45)scale(0.1 -0.1)">
       <defs>
        <path id="DejaVuSans-33" d="M 2597 2516 
Q 3050 2419 3304 2112 
Q 3559 1806 3559 1356 
Q 3559 666 3084 287 
Q 2609 -91 1734 -91 
Q 1441 -91 1130 -33 
Q 819 25 488 141 
L 488 750 
Q 750 597 1062 519 
Q 1375 441 1716 441 
Q 2309 441 2620 675 
Q 2931 909 2931 1356 
Q 2931 1769 2642 2001 
Q 2353 2234 1838 2234 
L 1294 2234 
L 1294 2753 
L 1863 2753 
Q 2328 2753 2575 2939 
Q 2822 3125 2822 3475 
Q 2822 3834 2567 4026 
Q 2313 4219 1838 4219 
Q 1578 4219 1281 4162 
Q 984 4106 628 3988 
L 628 4550 
Q 988 4650 1302 4700 
Q 1616 4750 1894 4750 
Q 2613 4750 3031 4423 
Q 3450 4097 3450 3541 
Q 3450 3153 3228 2886 
Q 3006 2619 2597 2516 
z
" transform="scale(0.015625)"/>
       </defs>
       <use xlink:href="#DejaVuSans-30"/>
       <use xlink:href="#DejaVuSans-33" x="63.623047"/>
       <use xlink:href="#DejaVuSans-2e" x="127.246094"/>
       <use xlink:href="#DejaVuSans-30" x="159.033203"/>
       <use xlink:href="#DejaVuSans-38" x="222.65625"/>
       <use xlink:href="#DejaVuSans-2e" x="286.279297"/>
       <use xlink:href="#DejaVuSans-32" x="318.066406"/>
       <use xlink:href="#DejaVuSans-30" x="381.689453"/>
       <use xlink:href="#DejaVuSans-32" x="445.3125"/>
       <use xlink:href="#DejaVuSans-32" x="508.935547"/>
      </g>
     </g>
    </g>
    <g id="xtick_4">
     <g id="line2d_7">
      <path d="M 272.389764 230.4 
L 272.389764 28.8 
" clip-path="url(#p2139278a9d)" style="fill: none; stroke: #b0b0b0; stroke-opacity: 0.7; stroke-width: 0.8; stroke-linecap: square"/>
     </g>
     <g id="line2d_8">
      <g>
       <use xlink:href="#m19ee1f5388" x="272.389764" y="230.4" style="stroke: #000000; stroke-width: 0.8"/>
      </g>
     </g>
     <g id="text_4">
      <!-- 04.08.2022 -->
      <g transform="translate(230.43292 283.259189)rotate(-45)scale(0.1 -0.1)">
       <defs>
        <path id="DejaVuSans-34" d="M 2419 4116 
L 825 1625 
L 2419 1625 
L 2419 4116 
z
M 2253 4666 
L 3047 4666 
L 3047 1625 
L 3713 1625 
L 3713 1100 
L 3047 1100 
L 3047 0 
L 2419 0 
L 2419 1100 
L 313 1100 
L 313 1709 
L 2253 4666 
z
" transform="scale(0.015625)"/>
       </defs>
       <use xlink:href="#DejaVuSans-30"/>
       <use xlink:href="#DejaVuSans-34" x="63.623047"/>
       <use xlink:href="#DejaVuSans-2e" x="127.246094"/>
       <use xlink:href="#DejaVuSans-30" x="159.033203"/>
       <use xlink:href="#DejaVuSans-38" x="222.65625"/>
       <use xlink:href="#DejaVuSans-2e" x="286.279297"/>
       <use xlink:href="#DejaVuSans-32" x="318.066406"/>
       <use xlink:href="#DejaVuSans-30" x="381.689453"/>
       <use xlink:href="#DejaVuSans-32" x="445.3125"/>
       <use xlink:href="#DejaVuSans-32" x="508.935547"/>
      </g>
     </g>
    </g>
    <g id="xtick_5">
     <g id="line2d_9">
      <path d="M 316.006523 230.4 
L 316.006523 28.8 
" clip-path="url(#p2139278a9d)" style="fill: none; stroke: #b0b0b0; stroke-opacity: 0.7; stroke-width: 0.8; stroke-linecap: square"/>
     </g>
     <g id="line2d_10">
      <g>
       <use xlink:href="#m19ee1f5388" x="316.006523" y="230.4" style="stroke: #000000; stroke-width: 0.8"/>
      </g>
     </g>
     <g id="text_5">
      <!-- 05.08.2022 -->
      <g transform="translate(274.049679 283.259189)rotate(-45)scale(0.1 -0.1)">
       <defs>
        <path id="DejaVuSans-35" d="M 691 4666 
L 3169 4666 
L 3169 4134 
L 1269 4134 
L 1269 2991 
Q 1406 3038 1543 3061 
Q 1681 3084 1819 3084 
Q 2600 3084 3056 2656 
Q 3513 2228 3513 1497 
Q 3513 744 3044 326 
Q 2575 -91 1722 -91 
Q 1428 -91 1123 -41 
Q 819 9 494 109 
L 494 744 
Q 775 591 1075 516 
Q 1375 441 1709 441 
Q 2250 441 2565 725 
Q 2881 1009 2881 1497 
Q 2881 1984 2565 2268 
Q 2250 2553 1709 2553 
Q 1456 2553 1204 2497 
Q 953 2441 691 2322 
L 691 4666 
z
" transform="scale(0.015625)"/>
       </defs>
       <use xlink:href="#DejaVuSans-30"/>
       <use xlink:href="#DejaVuSans-35" x="63.623047"/>
       <use xlink:href="#DejaVuSans-2e" x="127.246094"/>
       <use xlink:href="#DejaVuSans-30" x="159.033203"/>
       <use xlink:href="#DejaVuSans-38" x="222.65625"/>
       <use xlink:href="#DejaVuSans-2e" x="286.279297"/>
       <use xlink:href="#DejaVuSans-32" x="318.066406"/>
       <use xlink:href="#DejaVuSans-30" x="381.689453"/>
       <use xlink:href="#DejaVuSans-32" x="445.3125"/>
       <use xlink:href="#DejaVuSans-32" x="508.935547"/>
      </g>
     </g>
    </g>
    <g id="xtick_6">
     <g id="line2d_11">
      <path d="M 359.623281 230.4 
L 359.623281 28.8 
" clip-path="url(#p2139278a9d)" style="fill: none; stroke: #b0b0b0; stroke-opacity: 0.7; stroke-width: 0.8; stroke-linecap: square"/>
     </g>
     <g id="line2d_12">
      <g>
       <use xlink:href="#m19ee1f5388" x="359.623281" y="230.4" style="stroke: #000000; stroke-width: 0.8"/>
      </g>
     </g>
     <g id="text_6">
      <!-- 06.08.2022 -->
      <g transform="translate(317.666438 283.259189)rotate(-45)scale(0.1 -0.1)">
       <defs>
        <path id="DejaVuSans-36" d="M 2113 2584 
Q 1688 2584 1439 2293 
Q 1191 2003 1191 1497 
Q 1191 994 1439 701 
Q 1688 409 2113 409 
Q 2538 409 2786 701 
Q 3034 994 3034 1497 
Q 3034 2003 2786 2293 
Q 2538 2584 2113 2584 
z
M 3366 4563 
L 3366 3988 
Q 3128 4100 2886 4159 
Q 2644 4219 2406 4219 
Q 1781 4219 1451 3797 
Q 1122 3375 1075 2522 
Q 1259 2794 1537 2939 
Q 1816 3084 2150 3084 
Q 2853 3084 3261 2657 
Q 3669 2231 3669 1497 
Q 3669 778 3244 343 
Q 2819 -91 2113 -91 
Q 1303 -91 875 529 
Q 447 1150 447 2328 
Q 447 3434 972 4092 
Q 1497 4750 2381 4750 
Q 2619 4750 2861 4703 
Q 3103 4656 3366 4563 
z
" transform="scale(0.015625)"/>
       </defs>
       <use xlink:href="#DejaVuSans-30"/>
       <use xlink:href="#DejaVuSans-36" x="63.623047"/>
       <use xlink:href="#DejaVuSans-2e" x="127.246094"/>
       <use xlink:href="#DejaVuSans-30" x="159.033203"/>
       <use xlink:href="#DejaVuSans-38" x="222.65625"/>
       <use xlink:href="#DejaVuSans-2e" x="286.279297"/>
       <use xlink:href="#DejaVuSans-32" x="318.066406"/>
       <use xlink:href="#DejaVuSans-30" x="381.689453"/>
       <use xlink:href="#DejaVuSans-32" x="445.3125"/>
       <use xlink:href="#DejaVuSans-32" x="508.935547"/>
      </g>
     </g>
    </g>
    <g id="xtick_7">
     <g id="line2d_13">
      <path d="M 403.24004 230.4 
L 403.24004 28.8 
" clip-path="url(#p2139278a9d)" style="fill: none; stroke: #b0b0b0; stroke-opacity: 0.7; stroke-width: 0.8; stroke-linecap: square"/>
     </g>
     <g id="line2d_14">
      <g>
       <use xlink:href="#m19ee1f5388" x="403.24004" y="230.4" style="stroke: #000000; stroke-width: 0.8"/>
      </g>
     </g>
     <g id="text_7">
      <!-- 07.08.2022 -->
      <g transform="translate(361.283197 283.259189)rotate(-45)scale(0.1 -0.1)">
       <defs>
        <path id="DejaVuSans-37" d="M 525 4666 
L 3525 4666 
L 3525 4397 
L 1831 0 
L 1172 0 
L 2766 4134 
L 525 4134 
L 525 4666 
z
" transform="scale(0.015625)"/>
       </defs>
       <use xlink:href="#DejaVuSans-30"/>
       <use xlink:href="#DejaVuSans-37" x="63.623047"/>
       <use xlink:href="#DejaVuSans-2e" x="127.246094"/>
       <use xlink:href="#DejaVuSans-30" x="159.033203"/>
       <use xlink:href="#DejaVuSans-38" x="222.65625"/>
       <use xlink:href="#DejaVuSans-2e" x="286.279297"/>
       <use xlink:href="#DejaVuSans-32" x="318.066406"/>
       <use xlink:href="#DejaVuSans-30" x="381.689453"/>
       <use xlink:href="#DejaVuSans-32" x="445.3125"/>
       <use xlink:href="#DejaVuSans-32" x="508.935547"/>
      </g>
     </g>
    </g>
    <g id="xtick_8">
     <g id="line2d_15">
      <path d="M 446.856799 230.4 
L 446.856799 28.8 
" clip-path="url(#p2139278a9d)" style="fill: none; stroke: #b0b0b0; stroke-opacity: 0.7; stroke-width: 0.8; stroke-linecap: square"/>
     </g>
     <g id="line2d_16">
      <g>
       <use xlink:href="#m19ee1f5388" x="446.856799" y="230.4" style="stroke: #000000; stroke-width: 0.8"/>
      </g>
     </g>
     <g id="text_8">
      <!-- 08.08.2022 -->
      <g transform="translate(404.899956 283.259189)rotate(-45)scale(0.1 -0.1)">
       <use xlink:href="#DejaVuSans-30"/>
       <use xlink:href="#DejaVuSans-38" x="63.623047"/>
       <use xlink:href="#DejaVuSans-2e" x="127.246094"/>
       <use xlink:href="#DejaVuSans-30" x="159.033203"/>
       <use xlink:href="#DejaVuSans-38" x="222.65625"/>
       <use xlink:href="#DejaVuSans-2e" x="286.279297"/>
       <use xlink:href="#DejaVuSans-32" x="318.066406"/>
       <use xlink:href="#DejaVuSans-30" x="381.689453"/>
       <use xlink:href="#DejaVuSans-32" x="445.3125"/>
       <use xlink:href="#DejaVuSans-32" x="508.935547"/>
      </g>
     </g>
    </g>
    <g id="xtick_9">
     <g id="line2d_17">
      <path d="M 490.473558 230.4 
L 490.473558 28.8 
" clip-path="url(#p2139278a9d)" style="fill: none; stroke: #b0b0b0; stroke-opacity: 0.7; stroke-width: 0.8; stroke-linecap: square"/>
     </g>
     <g id="line2d_18">
      <g>
       <use xlink:href="#m19ee1f5388" x="490.473558" y="230.4" style="stroke: #000000; stroke-width: 0.8"/>
      </g>
     </g>
     <g id="text_9">
      <!-- 09.08.2022 -->
      <g transform="translate(448.516714 283.259189)rotate(-45)scale(0.1 -0.1)">
       <defs>
        <path id="DejaVuSans-39" d="M 703 97 
L 703 672 
Q 941 559 1184 500 
Q 1428 441 1663 441 
Q 2288 441 2617 861 
Q 2947 1281 2994 2138 
Q 2813 1869 2534 1725 
Q 2256 1581 1919 1581 
Q 1219 1581 811 2004 
Q 403 2428 403 3163 
Q 403 3881 828 4315 
Q 1253 4750 1959 4750 
Q 2769 4750 3195 4129 
Q 3622 3509 3622 2328 
Q 3622 1225 3098 567 
Q 2575 -91 1691 -91 
Q 1453 -91 1209 -44 
Q 966 3 703 97 
z
M 1959 2075 
Q 2384 2075 2632 2365 
Q 2881 2656 2881 3163 
Q 2881 3666 2632 3958 
Q 2384 4250 1959 4250 
Q 1534 4250 1286 3958 
Q 1038 3666 1038 3163 
Q 1038 2656 1286 2365 
Q 1534 2075 1959 2075 
z
" transform="scale(0.015625)"/>
       </defs>
       <use xlink:href="#DejaVuSans-30"/>
       <use xlink:href="#DejaVuSans-39" x="63.623047"/>
       <use xlink:href="#DejaVuSans-2e" x="127.246094"/>
       <use xlink:href="#DejaVuSans-30" x="159.033203"/>
       <use xlink:href="#DejaVuSans-38" x="222.65625"/>
       <use xlink:href="#DejaVuSans-2e" x="286.279297"/>
       <use xlink:href="#DejaVuSans-32" x="318.066406"/>
       <use xlink:href="#DejaVuSans-30" x="381.689453"/>
       <use xlink:href="#DejaVuSans-32" x="445.3125"/>
       <use xlink:href="#DejaVuSans-32" x="508.935547"/>
      </g>
     </g>
    </g>
    <g id="xtick_10">
     <g id="line2d_19">
      <path d="M 534.090317 230.4 
L 534.090317 28.8 
" clip-path="url(#p2139278a9d)" style="fill: none; stroke: #b0b0b0; stroke-opacity: 0.7; stroke-width: 0.8; stroke-linecap: square"/>
     </g>
     <g id="line2d_20">
      <g>
       <use xlink:href="#m19ee1f5388" x="534.090317" y="230.4" style="stroke: #000000; stroke-width: 0.8"/>
      </g>
     </g>
     <g id="text_10">
      <!-- 10.08.2022 -->
      <g transform="translate(492.133473 283.259189)rotate(-45)scale(0.1 -0.1)">
       <use xlink:href="#DejaVuSans-31"/>
       <use xlink:href="#DejaVuSans-30" x="63.623047"/>
       <use xlink:href="#DejaVuSans-2e" x="127.246094"/>
       <use xlink:href="#DejaVuSans-30" x="159.033203"/>
       <use xlink:href="#DejaVuSans-38" x="222.65625"/>
       <use xlink:href="#DejaVuSans-2e" x="286.279297"/>
       <use xlink:href="#DejaVuSans-32" x="318.066406"/>
       <use xlink:href="#DejaVuSans-30" x="381.689453"/>
       <use xlink:href="#DejaVuSans-32" x="445.3125"/>
       <use xlink:href="#DejaVuSans-32" x="508.935547"/>
      </g>
     </g>
    </g>
    <g id="text_11">
     <!-- Data -->
     <g transform="translate(319.261719 296.328188)scale(0.1 -0.1)">
      <defs>
       <path id="DejaVuSans-44" d="M 1259 4147 
L 1259 519 
L 2022 519 
Q 2988 519 3436 956 
Q 3884 1394 3884 2338 
Q 3884 3275 3436 3711 
Q 2988 4147 2022 4147 
L 1259 4147 
z
M 628 4666 
L 1925 4666 
Q 3281 4666 3915 4102 
Q 4550 3538 4550 2338 
Q 4550 1131 3912 565 
Q 3275 0 1925 0 
L 628 0 
L 628 4666 
z
" transform="scale(0.015625)"/>
       <path id="DejaVuSans-61" d="M 2194 1759 
Q 1497 1759 1228 1600 
Q 959 1441 959 1056 
Q 959 750 1161 570 
Q 1363 391 1709 391 
Q 2188 391 2477 730 
Q 2766 1069 2766 1631 
L 2766 1759 
L 2194 1759 
z
M 3341 1997 
L 3341 0 
L 2766 0 
L 2766 531 
Q 2569 213 2275 61 
Q 1981 -91 1556 -91 
Q 1019 -91 701 211 
Q 384 513 384 1019 
Q 384 1609 779 1909 
Q 1175 2209 1959 2209 
L 2766 2209 
L 2766 2266 
Q 2766 2663 2505 2880 
Q 2244 3097 1772 3097 
Q 1472 3097 1187 3025 
Q 903 2953 641 2809 
L 641 3341 
Q 956 3463 1253 3523 
Q 1550 3584 1831 3584 
Q 2591 3584 2966 3190 
Q 3341 2797 3341 1997 
z
" transform="scale(0.015625)"/>
       <path id="DejaVuSans-74" d="M 1172 4494 
L 1172 3500 
L 2356 3500 
L 2356 3053 
L 1172 3053 
L 1172 1153 
Q 1172 725 1289 603 
Q 1406 481 1766 481 
L 2356 481 
L 2356 0 
L 1766 0 
Q 1100 0 847 248 
Q 594 497 594 1153 
L 594 3053 
L 172 3053 
L 172 3500 
L 594 3500 
L 594 4494 
L 1172 4494 
z
" transform="scale(0.015625)"/>
      </defs>
      <use xlink:href="#DejaVuSans-44"/>
      <use xlink:href="#DejaVuSans-61" x="77.001953"/>
      <use xlink:href="#DejaVuSans-74" x="138.28125"/>
      <use xlink:href="#DejaVuSans-61" x="177.490234"/>
     </g>
    </g>
   </g>
   <g id="matplotlib.axis_2">
    <g id="ytick_1">
     <g id="line2d_21">
      <defs>
       <path id="m56ecfbd541" d="M 0 0 
L -3.5 0 
" style="stroke: #000000; stroke-width: 0.8"/>
      </defs>
      <g>
       <use xlink:href="#m56ecfbd541" x="115.2" y="221.236364" style="stroke: #000000; stroke-width: 0.8"/>
      </g>
     </g>
     <g id="text_12">
      <!-- 0 -->
      <g transform="translate(101.8375 225.035582)scale(0.1 -0.1)">
       <use xlink:href="#DejaVuSans-30"/>
      </g>
     </g>
    </g>
    <g id="ytick_2">
     <g id="line2d_22">
      <g>
       <use xlink:href="#m56ecfbd541" x="115.2" y="189.260688" style="stroke: #000000; stroke-width: 0.8"/>
      </g>
     </g>
     <g id="text_13">
      <!-- 500 -->
      <g transform="translate(89.1125 193.059907)scale(0.1 -0.1)">
       <use xlink:href="#DejaVuSans-35"/>
       <use xlink:href="#DejaVuSans-30" x="63.623047"/>
       <use xlink:href="#DejaVuSans-30" x="127.246094"/>
      </g>
     </g>
    </g>
    <g id="ytick_3">
     <g id="line2d_23">
      <g>
       <use xlink:href="#m56ecfbd541" x="115.2" y="157.285013" style="stroke: #000000; stroke-width: 0.8"/>
      </g>
     </g>
     <g id="text_14">
      <!-- 1 000 -->
      <g transform="translate(79.571875 161.084232)scale(0.1 -0.1)">
       <defs>
        <path id="DejaVuSans-20" transform="scale(0.015625)"/>
       </defs>
       <use xlink:href="#DejaVuSans-31"/>
       <use xlink:href="#DejaVuSans-20" x="63.623047"/>
       <use xlink:href="#DejaVuSans-30" x="95.410156"/>
       <use xlink:href="#DejaVuSans-30" x="159.033203"/>
       <use xlink:href="#DejaVuSans-30" x="222.65625"/>
      </g>
     </g>
    </g>
    <g id="ytick_4">
     <g id="line2d_24">
      <g>
       <use xlink:href="#m56ecfbd541" x="115.2" y="125.309338" style="stroke: #000000; stroke-width: 0.8"/>
      </g>
     </g>
     <g id="text_15">
      <!-- 1 500 -->
      <g transform="translate(79.571875 129.108556)scale(0.1 -0.1)">
       <use xlink:href="#DejaVuSans-31"/>
       <use xlink:href="#DejaVuSans-20" x="63.623047"/>
       <use xlink:href="#DejaVuSans-35" x="95.410156"/>
       <use xlink:href="#DejaVuSans-30" x="159.033203"/>
       <use xlink:href="#DejaVuSans-30" x="222.65625"/>
      </g>
     </g>
    </g>
    <g id="ytick_5">
     <g id="line2d_25">
      <g>
       <use xlink:href="#m56ecfbd541" x="115.2" y="93.333662" style="stroke: #000000; stroke-width: 0.8"/>
      </g>
     </g>
     <g id="text_16">
      <!-- 2 000 -->
      <g transform="translate(79.571875 97.132881)scale(0.1 -0.1)">
       <use xlink:href="#DejaVuSans-32"/>
       <use xlink:href="#DejaVuSans-20" x="63.623047"/>
       <use xlink:href="#DejaVuSans-30" x="95.410156"/>
       <use xlink:href="#DejaVuSans-30" x="159.033203"/>
       <use xlink:href="#DejaVuSans-30" x="222.65625"/>
      </g>
     </g>
    </g>
    <g id="ytick_6">
     <g id="line2d_26">
      <g>
       <use xlink:href="#m56ecfbd541" x="115.2" y="61.357987" style="stroke: #000000; stroke-width: 0.8"/>
      </g>
     </g>
     <g id="text_17">
      <!-- 2 500 -->
      <g transform="translate(79.571875 65.157206)scale(0.1 -0.1)">
       <use xlink:href="#DejaVuSans-32"/>
       <use xlink:href="#DejaVuSans-20" x="63.623047"/>
       <use xlink:href="#DejaVuSans-35" x="95.410156"/>
       <use xlink:href="#DejaVuSans-30" x="159.033203"/>
       <use xlink:href="#DejaVuSans-30" x="222.65625"/>
      </g>
     </g>
    </g>
    <g id="ytick_7">
     <g id="line2d_27">
      <g>
       <use xlink:href="#m56ecfbd541" x="115.2" y="29.382312" style="stroke: #000000; stroke-width: 0.8"/>
      </g>
     </g>
     <g id="text_18">
      <!-- 3 000 -->
      <g transform="translate(79.571875 33.181531)scale(0.1 -0.1)">
       <use xlink:href="#DejaVuSans-33"/>
       <use xlink:href="#DejaVuSans-20" x="63.623047"/>
       <use xlink:href="#DejaVuSans-30" x="95.410156"/>
       <use xlink:href="#DejaVuSans-30" x="159.033203"/>
       <use xlink:href="#DejaVuSans-30" x="222.65625"/>
      </g>
     </g>
    </g>
    <g id="text_19">
     <!-- Koszt (Gwei ETH) -->
     <g transform="translate(73.492188 172.359375)rotate(-90)scale(0.1 -0.1)">
      <defs>
       <path id="DejaVuSans-4b" d="M 628 4666 
L 1259 4666 
L 1259 2694 
L 3353 4666 
L 4166 4666 
L 1850 2491 
L 4331 0 
L 3500 0 
L 1259 2247 
L 1259 0 
L 628 0 
L 628 4666 
z
" transform="scale(0.015625)"/>
       <path id="DejaVuSans-6f" d="M 1959 3097 
Q 1497 3097 1228 2736 
Q 959 2375 959 1747 
Q 959 1119 1226 758 
Q 1494 397 1959 397 
Q 2419 397 2687 759 
Q 2956 1122 2956 1747 
Q 2956 2369 2687 2733 
Q 2419 3097 1959 3097 
z
M 1959 3584 
Q 2709 3584 3137 3096 
Q 3566 2609 3566 1747 
Q 3566 888 3137 398 
Q 2709 -91 1959 -91 
Q 1206 -91 779 398 
Q 353 888 353 1747 
Q 353 2609 779 3096 
Q 1206 3584 1959 3584 
z
" transform="scale(0.015625)"/>
       <path id="DejaVuSans-73" d="M 2834 3397 
L 2834 2853 
Q 2591 2978 2328 3040 
Q 2066 3103 1784 3103 
Q 1356 3103 1142 2972 
Q 928 2841 928 2578 
Q 928 2378 1081 2264 
Q 1234 2150 1697 2047 
L 1894 2003 
Q 2506 1872 2764 1633 
Q 3022 1394 3022 966 
Q 3022 478 2636 193 
Q 2250 -91 1575 -91 
Q 1294 -91 989 -36 
Q 684 19 347 128 
L 347 722 
Q 666 556 975 473 
Q 1284 391 1588 391 
Q 1994 391 2212 530 
Q 2431 669 2431 922 
Q 2431 1156 2273 1281 
Q 2116 1406 1581 1522 
L 1381 1569 
Q 847 1681 609 1914 
Q 372 2147 372 2553 
Q 372 3047 722 3315 
Q 1072 3584 1716 3584 
Q 2034 3584 2315 3537 
Q 2597 3491 2834 3397 
z
" transform="scale(0.015625)"/>
       <path id="DejaVuSans-7a" d="M 353 3500 
L 3084 3500 
L 3084 2975 
L 922 459 
L 3084 459 
L 3084 0 
L 275 0 
L 275 525 
L 2438 3041 
L 353 3041 
L 353 3500 
z
" transform="scale(0.015625)"/>
       <path id="DejaVuSans-28" d="M 1984 4856 
Q 1566 4138 1362 3434 
Q 1159 2731 1159 2009 
Q 1159 1288 1364 580 
Q 1569 -128 1984 -844 
L 1484 -844 
Q 1016 -109 783 600 
Q 550 1309 550 2009 
Q 550 2706 781 3412 
Q 1013 4119 1484 4856 
L 1984 4856 
z
" transform="scale(0.015625)"/>
       <path id="DejaVuSans-47" d="M 3809 666 
L 3809 1919 
L 2778 1919 
L 2778 2438 
L 4434 2438 
L 4434 434 
Q 4069 175 3628 42 
Q 3188 -91 2688 -91 
Q 1594 -91 976 548 
Q 359 1188 359 2328 
Q 359 3472 976 4111 
Q 1594 4750 2688 4750 
Q 3144 4750 3555 4637 
Q 3966 4525 4313 4306 
L 4313 3634 
Q 3963 3931 3569 4081 
Q 3175 4231 2741 4231 
Q 1884 4231 1454 3753 
Q 1025 3275 1025 2328 
Q 1025 1384 1454 906 
Q 1884 428 2741 428 
Q 3075 428 3337 486 
Q 3600 544 3809 666 
z
" transform="scale(0.015625)"/>
       <path id="DejaVuSans-77" d="M 269 3500 
L 844 3500 
L 1563 769 
L 2278 3500 
L 2956 3500 
L 3675 769 
L 4391 3500 
L 4966 3500 
L 4050 0 
L 3372 0 
L 2619 2869 
L 1863 0 
L 1184 0 
L 269 3500 
z
" transform="scale(0.015625)"/>
       <path id="DejaVuSans-65" d="M 3597 1894 
L 3597 1613 
L 953 1613 
Q 991 1019 1311 708 
Q 1631 397 2203 397 
Q 2534 397 2845 478 
Q 3156 559 3463 722 
L 3463 178 
Q 3153 47 2828 -22 
Q 2503 -91 2169 -91 
Q 1331 -91 842 396 
Q 353 884 353 1716 
Q 353 2575 817 3079 
Q 1281 3584 2069 3584 
Q 2775 3584 3186 3129 
Q 3597 2675 3597 1894 
z
M 3022 2063 
Q 3016 2534 2758 2815 
Q 2500 3097 2075 3097 
Q 1594 3097 1305 2825 
Q 1016 2553 972 2059 
L 3022 2063 
z
" transform="scale(0.015625)"/>
       <path id="DejaVuSans-69" d="M 603 3500 
L 1178 3500 
L 1178 0 
L 603 0 
L 603 3500 
z
M 603 4863 
L 1178 4863 
L 1178 4134 
L 603 4134 
L 603 4863 
z
" transform="scale(0.015625)"/>
       <path id="DejaVuSans-45" d="M 628 4666 
L 3578 4666 
L 3578 4134 
L 1259 4134 
L 1259 2753 
L 3481 2753 
L 3481 2222 
L 1259 2222 
L 1259 531 
L 3634 531 
L 3634 0 
L 628 0 
L 628 4666 
z
" transform="scale(0.015625)"/>
       <path id="DejaVuSans-54" d="M -19 4666 
L 3928 4666 
L 3928 4134 
L 2272 4134 
L 2272 0 
L 1638 0 
L 1638 4134 
L -19 4134 
L -19 4666 
z
" transform="scale(0.015625)"/>
       <path id="DejaVuSans-48" d="M 628 4666 
L 1259 4666 
L 1259 2753 
L 3553 2753 
L 3553 4666 
L 4184 4666 
L 4184 0 
L 3553 0 
L 3553 2222 
L 1259 2222 
L 1259 0 
L 628 0 
L 628 4666 
z
" transform="scale(0.015625)"/>
       <path id="DejaVuSans-29" d="M 513 4856 
L 1013 4856 
Q 1481 4119 1714 3412 
Q 1947 2706 1947 2009 
Q 1947 1309 1714 600 
Q 1481 -109 1013 -844 
L 513 -844 
Q 928 -128 1133 580 
Q 1338 1288 1338 2009 
Q 1338 2731 1133 3434 
Q 928 4138 513 4856 
z
" transform="scale(0.015625)"/>
      </defs>
      <use xlink:href="#DejaVuSans-4b"/>
      <use xlink:href="#DejaVuSans-6f" x="60.576172"/>
      <use xlink:href="#DejaVuSans-73" x="121.757812"/>
      <use xlink:href="#DejaVuSans-7a" x="173.857422"/>
      <use xlink:href="#DejaVuSans-74" x="226.347656"/>
      <use xlink:href="#DejaVuSans-20" x="265.556641"/>
      <use xlink:href="#DejaVuSans-28" x="297.34375"/>
      <use xlink:href="#DejaVuSans-47" x="336.357422"/>
      <use xlink:href="#DejaVuSans-77" x="413.847656"/>
      <use xlink:href="#DejaVuSans-65" x="495.634766"/>
      <use xlink:href="#DejaVuSans-69" x="557.158203"/>
      <use xlink:href="#DejaVuSans-20" x="584.941406"/>
      <use xlink:href="#DejaVuSans-45" x="616.728516"/>
      <use xlink:href="#DejaVuSans-54" x="679.912109"/>
      <use xlink:href="#DejaVuSans-48" x="740.996094"/>
      <use xlink:href="#DejaVuSans-29" x="816.191406"/>
     </g>
    </g>
   </g>
   <g id="line2d_28">
    <path d="M 134.836364 171.053905 
L 136.653507 176.727314 
L 138.471025 177.472426 
L 140.288124 173.286602 
L 142.105293 167.274455 
L 143.922491 168.972113 
L 145.739945 177.180556 
L 147.557292 177.698005 
L 149.374494 176.87529 
L 151.192039 169.651574 
L 153.010265 167.815113 
L 154.82673 162.281337 
L 156.644138 177.446015 
L 158.461744 175.616378 
L 160.279084 177.841437 
L 165.731573 176.798176 
L 167.54928 177.730936 
L 169.366197 178.040768 
L 173.11206 177.512234 
L 174.928224 176.093889 
L 176.746711 218.069633 
L 178.565591 169.323108 
L 180.380878 164.660399 
L 182.197942 207.278373 
L 184.015239 153.828508 
L 187.64982 149.547137 
L 189.467376 175.355259 
L 191.287092 174.944331 
L 193.102301 170.918632 
L 196.737549 165.050509 
L 198.554407 203.850253 
L 200.371815 171.491248 
L 202.189471 171.138909 
L 204.006626 173.269913 
L 205.824062 163.968296 
L 207.64246 163.052287 
L 209.459203 162.565133 
L 213.094161 177.608608 
L 214.911733 219.085105 
L 216.728721 171.810572 
L 218.546473 177.617943 
L 220.363799 177.737348 
L 222.184029 176.462297 
L 224.001827 163.334664 
L 227.635506 155.060251 
L 229.452426 55.761077 
L 231.26977 215.968273 
L 233.087053 156.356445 
L 234.904379 167.512813 
L 236.722219 177.606011 
L 238.539724 176.321422 
L 240.357375 176.612677 
L 242.174756 166.737812 
L 243.99236 176.474558 
L 245.809954 216.085934 
L 247.627678 177.40201 
L 249.444819 177.30016 
L 251.259898 176.95818 
L 253.07743 165.177307 
L 254.894809 218.539247 
L 256.712273 219.085105 
L 258.579098 219.075067 
L 260.394119 175.733804 
L 262.211598 219.045899 
L 264.02893 200.954057 
L 265.848058 208.282001 
L 267.665064 152.869251 
L 269.48282 219.085105 
L 271.29851 216.111106 
L 273.117475 197.322383 
L 276.752392 171.32093 
L 278.569515 172.864026 
L 280.386981 188.91629 
L 282.205328 173.348879 
L 284.021428 176.236659 
L 285.83894 156.132025 
L 287.656573 167.484297 
L 289.472689 214.067441 
L 291.290112 176.173087 
L 293.107242 176.517809 
L 294.924886 145.535654 
L 296.742577 171.279946 
L 298.560169 177.689356 
L 300.377562 177.860666 
L 302.194676 175.81466 
L 304.012265 177.376717 
L 305.830027 174.132449 
L 307.64706 173.601871 
L 309.465107 175.107314 
L 311.283835 177.550035 
L 313.099751 176.940708 
L 314.919605 177.288797 
L 316.735706 175.340921 
L 318.553175 176.777019 
L 320.370783 174.46125 
L 322.188274 168.35785 
L 324.006211 172.219936 
L 325.82356 177.33103 
L 327.640792 171.986601 
L 329.458414 173.964354 
L 331.2756 177.706905 
L 333.093036 176.916301 
L 334.910506 176.798176 
L 336.727691 177.493293 
L 338.545215 177.822449 
L 342.180306 177.964848 
L 343.997907 165.047083 
L 345.815021 190.514952 
L 347.632206 176.777019 
L 349.45007 177.221868 
L 351.26523 176.789043 
L 353.082345 176.789043 
L 354.899928 207.142224 
L 356.718165 166.927773 
L 360.316113 173.908674 
L 362.133855 176.777019 
L 363.951335 172.513129 
L 365.768833 214.880924 
L 367.585614 145.766626 
L 369.403111 215.285583 
L 373.037835 170.381378 
L 374.855225 168.535698 
L 376.672714 175.382112 
L 378.4901 177.633465 
L 380.307601 176.684366 
L 382.125162 175.303398 
L 383.943543 116.834437 
L 385.760066 155.282275 
L 387.578252 37.963636 
L 389.395453 197.581785 
L 391.212862 170.927392 
L 393.02964 174.982674 
L 394.847173 170.112573 
L 396.664619 152.105699 
L 398.481909 208.328812 
L 402.117263 157.755535 
L 403.938255 41.712349 
L 405.754176 173.921474 
L 407.571987 214.065502 
L 409.388551 134.922535 
L 413.023947 42.102845 
L 414.84116 217.651902 
L 416.658468 217.650933 
L 418.476196 162.304488 
L 420.293617 149.527744 
L 422.113274 173.960985 
L 423.929862 207.547769 
L 425.746043 122.634995 
L 427.561546 142.716379 
L 429.378616 77.85791 
L 431.196269 191.15924 
L 433.013528 176.774344 
L 434.832044 149.547137 
L 436.649365 61.45867 
L 438.466851 77.85791 
L 440.283369 213.640321 
L 442.146908 178.858585 
L 443.963733 172.180727 
L 445.78093 171.811343 
L 447.598217 158.590353 
L 449.415605 107.896004 
L 451.232882 191.285529 
L 453.050376 189.870918 
L 454.867878 211.283713 
L 456.685219 206.257939 
L 458.502515 211.908174 
L 460.320198 209.508146 
L 462.137448 213.880117 
L 463.954653 216.984716 
L 467.589387 155.510585 
L 469.407562 205.473805 
L 471.224293 166.300819 
L 473.04195 177.053441 
L 476.676358 177.189616 
L 478.494206 213.438212 
L 480.310819 151.697814 
L 482.128244 176.261426 
L 483.945814 168.305289 
L 485.763319 167.628742 
L 487.582428 202.314912 
L 489.399664 173.703603 
L 493.033065 149.381107 
L 494.850284 201.964873 
L 496.667584 156.927048 
L 498.485046 159.557459 
L 502.119871 142.368946 
L 503.937266 204.852489 
L 505.754825 176.459673 
L 507.572155 173.919982 
L 509.389692 176.772928 
L 511.207579 156.698606 
L 513.024632 176.609012 
L 514.841711 174.603894 
L 516.659277 177.614114 
L 518.476649 171.053905 
L 520.294019 178.082344 
L 522.111445 176.159753 
L 523.928856 176.756612 
L 525.746287 172.301529 
L 527.563636 176.29972 
L 527.563636 176.29972 
" clip-path="url(#p2139278a9d)" style="fill: none; stroke: #1f77b4; stroke-width: 1.5; stroke-linecap: square"/>
   </g>
   <g id="line2d_29">
    <path d="M 134.836364 196.068773 
L 136.653507 198.91411 
L 138.471025 199.305572 
L 140.288124 197.20799 
L 142.105293 194.19521 
L 143.922491 195.045933 
L 145.739945 199.159311 
L 147.557292 199.400933 
L 149.374494 198.988324 
L 151.192039 195.365474 
L 153.010265 194.672598 
L 154.82673 191.66914 
L 156.644138 199.292337 
L 158.461744 198.356952 
L 160.279084 199.472867 
L 165.731573 198.967695 
L 167.54928 199.417448 
L 169.366197 199.590377 
L 173.11206 199.32552 
L 174.928224 198.596434 
L 176.746711 219.64818 
L 178.565591 195.221822 
L 180.380878 192.885265 
L 182.197942 214.236129 
L 184.015239 187.457236 
L 187.64982 185.282663 
L 189.467376 198.225995 
L 191.287092 198.038704 
L 193.102301 195.5831 
L 196.737549 193.057939 
L 198.554407 212.523913 
L 200.371815 196.28811 
L 202.189471 196.131748 
L 204.006626 197.199627 
L 205.824062 193.430955 
L 207.64246 192.055788 
L 209.459203 191.81147 
L 213.094161 199.373815 
L 214.911733 220.158334 
L 216.728721 196.468329 
L 218.546473 199.36078 
L 220.363799 199.420664 
L 222.184029 198.781199 
L 224.001827 192.220919 
L 227.635506 188.047609 
L 229.452426 138.314117 
L 231.26977 218.596441 
L 233.087053 188.697678 
L 234.904379 194.314655 
L 236.722219 199.372513 
L 238.539724 198.710547 
L 240.357375 198.856618 
L 242.174756 193.92629 
L 243.99236 198.787348 
L 245.809954 218.655403 
L 247.627678 199.252485 
L 249.444819 199.201405 
L 251.259898 199.029895 
L 253.07743 193.144296 
L 254.894809 219.883701 
L 256.712273 220.158334 
L 258.579098 220.152427 
L 260.394119 198.415844 
L 262.211598 220.137798 
L 264.02893 211.072584 
L 265.848058 214.74473 
L 267.665064 186.976538 
L 269.48282 220.158334 
L 271.29851 218.665936 
L 273.117475 209.242984 
L 276.752392 196.222961 
L 278.569515 196.996231 
L 280.386981 194.858849 
L 282.205328 197.219752 
L 284.021428 198.668036 
L 285.83894 221.236364 
L 287.656573 194.300365 
L 289.472689 217.640994 
L 291.290112 198.654453 
L 293.107242 198.827198 
L 294.924886 183.301557 
L 296.742577 196.202424 
L 298.560169 199.414279 
L 300.377562 199.482511 
L 302.194676 221.236364 
L 304.012265 199.2398 
L 305.830027 197.631858 
L 307.64706 197.346633 
L 309.465107 198.101646 
L 311.283835 221.236364 
L 313.099751 199.021132 
L 314.919605 198.218804 
L 316.735706 198.218804 
L 318.553175 198.957093 
L 320.370783 197.796625 
L 322.188274 194.716643 
L 324.006211 196.673468 
L 325.82356 199.234717 
L 327.640792 196.55654 
L 329.458414 197.528426 
L 331.2756 199.423073 
L 333.093036 199.026889 
L 334.910506 198.967695 
L 336.727691 199.298265 
L 338.545215 199.463344 
L 342.180306 199.552332 
L 343.997907 193.818657 
L 345.815021 205.841385 
L 347.632206 198.957093 
L 349.45007 199.16214 
L 351.26523 198.945069 
L 353.082345 198.945069 
L 354.899928 214.167847 
L 356.718165 193.999428 
L 360.316113 197.519721 
L 362.133855 198.957093 
L 363.951335 196.820391 
L 365.768833 218.048973 
L 367.585614 183.417301 
L 369.403111 181.9961 
L 371.220409 206.721023 
L 373.037835 195.752137 
L 374.855225 194.827238 
L 376.672714 198.258083 
L 378.4901 199.401472 
L 380.307601 198.948276 
L 382.125162 198.199986 
L 383.943543 168.91893 
L 385.760066 188.158959 
L 387.578252 129.395542 
L 389.395453 209.37308 
L 391.212862 196.025753 
L 393.02964 198.057918 
L 394.847173 195.596675 
L 396.664619 186.593909 
L 398.481909 214.768188 
L 402.117263 189.425131 
L 403.938255 131.274081 
L 405.754176 197.506921 
L 407.571987 217.642933 
L 409.388551 177.948108 
L 413.023947 131.397021 
L 414.84116 219.438679 
L 416.658468 219.439648 
L 418.476196 191.704682 
L 420.293617 185.302056 
L 422.113274 197.545934 
L 423.929862 214.376795 
L 425.746043 171.82568 
L 427.561546 181.856889 
L 429.378616 149.328961 
L 431.196269 206.164248 
L 433.013528 198.955753 
L 434.832044 185.282663 
L 436.649365 141.16927 
L 438.466851 149.328961 
L 440.283369 217.426784 
L 442.146908 200.000198 
L 443.963733 196.653819 
L 445.78093 196.448645 
L 447.598217 189.843471 
L 449.415605 164.393716 
L 451.232882 206.227533 
L 453.050376 205.505913 
L 454.867878 216.248935 
L 456.685219 213.730441 
L 458.502515 216.558074 
L 460.320198 215.359171 
L 462.137448 217.550034 
L 463.954653 219.10407 
L 467.589387 188.450442 
L 469.407562 213.3375 
L 471.224293 193.707305 
L 473.04195 199.095612 
L 476.676358 199.145965 
L 478.494206 217.328588 
L 480.310819 186.361274 
L 482.128244 198.680458 
L 483.945814 194.690283 
L 485.763319 194.350979 
L 487.582428 211.754529 
L 489.399664 197.397654 
L 493.033065 185.228574 
L 494.850284 211.579119 
L 496.667584 189.009963 
L 498.485046 190.328103 
L 502.119871 181.682644 
L 503.937266 213.019495 
L 505.754825 198.798066 
L 507.572155 197.525387 
L 509.389692 198.936987 
L 511.207579 188.895487 
L 513.024632 198.85478 
L 514.841711 197.868106 
L 516.659277 199.376574 
L 518.476649 196.068773 
L 520.294019 199.611212 
L 522.111445 198.629466 
L 523.928856 198.946867 
L 525.746287 196.644032 
L 527.563636 198.717911 
L 527.563636 198.717911 
" clip-path="url(#p2139278a9d)" style="fill: none; stroke: #ff7f0e; stroke-width: 1.5; stroke-linecap: square"/>
   </g>
   <g id="patch_3">
    <path d="M 115.2 230.4 
L 115.2 28.8 
" style="fill: none; stroke: #000000; stroke-width: 0.8; stroke-linejoin: miter; stroke-linecap: square"/>
   </g>
   <g id="patch_4">
    <path d="M 547.2 230.4 
L 547.2 28.8 
" style="fill: none; stroke: #000000; stroke-width: 0.8; stroke-linejoin: miter; stroke-linecap: square"/>
   </g>
   <g id="patch_5">
    <path d="M 115.2 230.4 
L 547.2 230.4 
" style="fill: none; stroke: #000000; stroke-width: 0.8; stroke-linejoin: miter; stroke-linecap: square"/>
   </g>
   <g id="patch_6">
    <path d="M 115.2 28.8 
L 547.2 28.8 
" style="fill: none; stroke: #000000; stroke-width: 0.8; stroke-linejoin: miter; stroke-linecap: square"/>
   </g>
   <g id="text_20">
    <!-- Koszt transakcji dla sieci 'Polygon' -->
    <g transform="translate(228.958125 22.8)scale(0.12 -0.12)">
     <defs>
      <path id="DejaVuSans-72" d="M 2631 2963 
Q 2534 3019 2420 3045 
Q 2306 3072 2169 3072 
Q 1681 3072 1420 2755 
Q 1159 2438 1159 1844 
L 1159 0 
L 581 0 
L 581 3500 
L 1159 3500 
L 1159 2956 
Q 1341 3275 1631 3429 
Q 1922 3584 2338 3584 
Q 2397 3584 2469 3576 
Q 2541 3569 2628 3553 
L 2631 2963 
z
" transform="scale(0.015625)"/>
      <path id="DejaVuSans-6e" d="M 3513 2113 
L 3513 0 
L 2938 0 
L 2938 2094 
Q 2938 2591 2744 2837 
Q 2550 3084 2163 3084 
Q 1697 3084 1428 2787 
Q 1159 2491 1159 1978 
L 1159 0 
L 581 0 
L 581 3500 
L 1159 3500 
L 1159 2956 
Q 1366 3272 1645 3428 
Q 1925 3584 2291 3584 
Q 2894 3584 3203 3211 
Q 3513 2838 3513 2113 
z
" transform="scale(0.015625)"/>
      <path id="DejaVuSans-6b" d="M 581 4863 
L 1159 4863 
L 1159 1991 
L 2875 3500 
L 3609 3500 
L 1753 1863 
L 3688 0 
L 2938 0 
L 1159 1709 
L 1159 0 
L 581 0 
L 581 4863 
z
" transform="scale(0.015625)"/>
      <path id="DejaVuSans-63" d="M 3122 3366 
L 3122 2828 
Q 2878 2963 2633 3030 
Q 2388 3097 2138 3097 
Q 1578 3097 1268 2742 
Q 959 2388 959 1747 
Q 959 1106 1268 751 
Q 1578 397 2138 397 
Q 2388 397 2633 464 
Q 2878 531 3122 666 
L 3122 134 
Q 2881 22 2623 -34 
Q 2366 -91 2075 -91 
Q 1284 -91 818 406 
Q 353 903 353 1747 
Q 353 2603 823 3093 
Q 1294 3584 2113 3584 
Q 2378 3584 2631 3529 
Q 2884 3475 3122 3366 
z
" transform="scale(0.015625)"/>
      <path id="DejaVuSans-6a" d="M 603 3500 
L 1178 3500 
L 1178 -63 
Q 1178 -731 923 -1031 
Q 669 -1331 103 -1331 
L -116 -1331 
L -116 -844 
L 38 -844 
Q 366 -844 484 -692 
Q 603 -541 603 -63 
L 603 3500 
z
M 603 4863 
L 1178 4863 
L 1178 4134 
L 603 4134 
L 603 4863 
z
" transform="scale(0.015625)"/>
      <path id="DejaVuSans-64" d="M 2906 2969 
L 2906 4863 
L 3481 4863 
L 3481 0 
L 2906 0 
L 2906 525 
Q 2725 213 2448 61 
Q 2172 -91 1784 -91 
Q 1150 -91 751 415 
Q 353 922 353 1747 
Q 353 2572 751 3078 
Q 1150 3584 1784 3584 
Q 2172 3584 2448 3432 
Q 2725 3281 2906 2969 
z
M 947 1747 
Q 947 1113 1208 752 
Q 1469 391 1925 391 
Q 2381 391 2643 752 
Q 2906 1113 2906 1747 
Q 2906 2381 2643 2742 
Q 2381 3103 1925 3103 
Q 1469 3103 1208 2742 
Q 947 2381 947 1747 
z
" transform="scale(0.015625)"/>
      <path id="DejaVuSans-6c" d="M 603 4863 
L 1178 4863 
L 1178 0 
L 603 0 
L 603 4863 
z
" transform="scale(0.015625)"/>
      <path id="DejaVuSans-27" d="M 1147 4666 
L 1147 2931 
L 616 2931 
L 616 4666 
L 1147 4666 
z
" transform="scale(0.015625)"/>
      <path id="DejaVuSans-50" d="M 1259 4147 
L 1259 2394 
L 2053 2394 
Q 2494 2394 2734 2622 
Q 2975 2850 2975 3272 
Q 2975 3691 2734 3919 
Q 2494 4147 2053 4147 
L 1259 4147 
z
M 628 4666 
L 2053 4666 
Q 2838 4666 3239 4311 
Q 3641 3956 3641 3272 
Q 3641 2581 3239 2228 
Q 2838 1875 2053 1875 
L 1259 1875 
L 1259 0 
L 628 0 
L 628 4666 
z
" transform="scale(0.015625)"/>
      <path id="DejaVuSans-79" d="M 2059 -325 
Q 1816 -950 1584 -1140 
Q 1353 -1331 966 -1331 
L 506 -1331 
L 506 -850 
L 844 -850 
Q 1081 -850 1212 -737 
Q 1344 -625 1503 -206 
L 1606 56 
L 191 3500 
L 800 3500 
L 1894 763 
L 2988 3500 
L 3597 3500 
L 2059 -325 
z
" transform="scale(0.015625)"/>
      <path id="DejaVuSans-67" d="M 2906 1791 
Q 2906 2416 2648 2759 
Q 2391 3103 1925 3103 
Q 1463 3103 1205 2759 
Q 947 2416 947 1791 
Q 947 1169 1205 825 
Q 1463 481 1925 481 
Q 2391 481 2648 825 
Q 2906 1169 2906 1791 
z
M 3481 434 
Q 3481 -459 3084 -895 
Q 2688 -1331 1869 -1331 
Q 1566 -1331 1297 -1286 
Q 1028 -1241 775 -1147 
L 775 -588 
Q 1028 -725 1275 -790 
Q 1522 -856 1778 -856 
Q 2344 -856 2625 -561 
Q 2906 -266 2906 331 
L 2906 616 
Q 2728 306 2450 153 
Q 2172 0 1784 0 
Q 1141 0 747 490 
Q 353 981 353 1791 
Q 353 2603 747 3093 
Q 1141 3584 1784 3584 
Q 2172 3584 2450 3431 
Q 2728 3278 2906 2969 
L 2906 3500 
L 3481 3500 
L 3481 434 
z
" transform="scale(0.015625)"/>
     </defs>
     <use xlink:href="#DejaVuSans-4b"/>
     <use xlink:href="#DejaVuSans-6f" x="60.576172"/>
     <use xlink:href="#DejaVuSans-73" x="121.757812"/>
     <use xlink:href="#DejaVuSans-7a" x="173.857422"/>
     <use xlink:href="#DejaVuSans-74" x="226.347656"/>
     <use xlink:href="#DejaVuSans-20" x="265.556641"/>
     <use xlink:href="#DejaVuSans-74" x="297.34375"/>
     <use xlink:href="#DejaVuSans-72" x="336.552734"/>
     <use xlink:href="#DejaVuSans-61" x="377.666016"/>
     <use xlink:href="#DejaVuSans-6e" x="438.945312"/>
     <use xlink:href="#DejaVuSans-73" x="502.324219"/>
     <use xlink:href="#DejaVuSans-61" x="554.423828"/>
     <use xlink:href="#DejaVuSans-6b" x="615.703125"/>
     <use xlink:href="#DejaVuSans-63" x="673.613281"/>
     <use xlink:href="#DejaVuSans-6a" x="728.59375"/>
     <use xlink:href="#DejaVuSans-69" x="756.376953"/>
     <use xlink:href="#DejaVuSans-20" x="784.160156"/>
     <use xlink:href="#DejaVuSans-64" x="815.947266"/>
     <use xlink:href="#DejaVuSans-6c" x="879.423828"/>
     <use xlink:href="#DejaVuSans-61" x="907.207031"/>
     <use xlink:href="#DejaVuSans-20" x="968.486328"/>
     <use xlink:href="#DejaVuSans-73" x="1000.273438"/>
     <use xlink:href="#DejaVuSans-69" x="1052.373047"/>
     <use xlink:href="#DejaVuSans-65" x="1080.15625"/>
     <use xlink:href="#DejaVuSans-63" x="1141.679688"/>
     <use xlink:href="#DejaVuSans-69" x="1196.660156"/>
     <use xlink:href="#DejaVuSans-20" x="1224.443359"/>
     <use xlink:href="#DejaVuSans-27" x="1256.230469"/>
     <use xlink:href="#DejaVuSans-50" x="1283.720703"/>
     <use xlink:href="#DejaVuSans-6f" x="1340.398438"/>
     <use xlink:href="#DejaVuSans-6c" x="1401.580078"/>
     <use xlink:href="#DejaVuSans-79" x="1429.363281"/>
     <use xlink:href="#DejaVuSans-67" x="1488.542969"/>
     <use xlink:href="#DejaVuSans-6f" x="1552.019531"/>
     <use xlink:href="#DejaVuSans-6e" x="1613.201172"/>
     <use xlink:href="#DejaVuSans-27" x="1676.580078"/>
    </g>
   </g>
   <g id="legend_1">
    <g id="patch_7">
     <path d="M 345.292187 66.15625 
L 540.2 66.15625 
Q 542.2 66.15625 542.2 64.15625 
L 542.2 35.8 
Q 542.2 33.8 540.2 33.8 
L 345.292187 33.8 
Q 343.292187 33.8 343.292187 35.8 
L 343.292187 64.15625 
Q 343.292187 66.15625 345.292187 66.15625 
z
" style="fill: #ffffff; opacity: 0.8; stroke: #cccccc; stroke-linejoin: miter"/>
    </g>
    <g id="line2d_30">
     <path d="M 347.292187 41.898438 
L 357.292187 41.898438 
L 367.292187 41.898438 
" style="fill: none; stroke: #1f77b4; stroke-width: 1.5; stroke-linecap: square"/>
    </g>
    <g id="text_21">
     <!-- Koszt użytkownika (createToken) -->
     <g transform="translate(375.292187 45.398438)scale(0.1 -0.1)">
      <defs>
       <path id="DejaVuSans-75" d="M 544 1381 
L 544 3500 
L 1119 3500 
L 1119 1403 
Q 1119 906 1312 657 
Q 1506 409 1894 409 
Q 2359 409 2629 706 
Q 2900 1003 2900 1516 
L 2900 3500 
L 3475 3500 
L 3475 0 
L 2900 0 
L 2900 538 
Q 2691 219 2414 64 
Q 2138 -91 1772 -91 
Q 1169 -91 856 284 
Q 544 659 544 1381 
z
M 1991 3584 
L 1991 3584 
z
" transform="scale(0.015625)"/>
       <path id="DejaVuSans-17c" d="M 1378 4863 
L 1953 4863 
L 1953 4134 
L 1378 4134 
L 1378 4863 
z
M 1672 3584 
L 1672 3584 
z
M 353 3500 
L 3084 3500 
L 3084 2975 
L 922 459 
L 3084 459 
L 3084 0 
L 275 0 
L 275 525 
L 2438 3041 
L 353 3041 
L 353 3500 
z
" transform="scale(0.015625)"/>
      </defs>
      <use xlink:href="#DejaVuSans-4b"/>
      <use xlink:href="#DejaVuSans-6f" x="60.576172"/>
      <use xlink:href="#DejaVuSans-73" x="121.757812"/>
      <use xlink:href="#DejaVuSans-7a" x="173.857422"/>
      <use xlink:href="#DejaVuSans-74" x="226.347656"/>
      <use xlink:href="#DejaVuSans-20" x="265.556641"/>
      <use xlink:href="#DejaVuSans-75" x="297.34375"/>
      <use xlink:href="#DejaVuSans-17c" x="360.722656"/>
      <use xlink:href="#DejaVuSans-79" x="413.212891"/>
      <use xlink:href="#DejaVuSans-74" x="472.392578"/>
      <use xlink:href="#DejaVuSans-6b" x="511.601562"/>
      <use xlink:href="#DejaVuSans-6f" x="565.886719"/>
      <use xlink:href="#DejaVuSans-77" x="627.068359"/>
      <use xlink:href="#DejaVuSans-6e" x="708.855469"/>
      <use xlink:href="#DejaVuSans-69" x="772.234375"/>
      <use xlink:href="#DejaVuSans-6b" x="800.017578"/>
      <use xlink:href="#DejaVuSans-61" x="856.177734"/>
      <use xlink:href="#DejaVuSans-20" x="917.457031"/>
      <use xlink:href="#DejaVuSans-28" x="949.244141"/>
      <use xlink:href="#DejaVuSans-63" x="988.257812"/>
      <use xlink:href="#DejaVuSans-72" x="1043.238281"/>
      <use xlink:href="#DejaVuSans-65" x="1082.101562"/>
      <use xlink:href="#DejaVuSans-61" x="1143.625"/>
      <use xlink:href="#DejaVuSans-74" x="1204.904297"/>
      <use xlink:href="#DejaVuSans-65" x="1244.113281"/>
      <use xlink:href="#DejaVuSans-54" x="1305.636719"/>
      <use xlink:href="#DejaVuSans-6f" x="1349.720703"/>
      <use xlink:href="#DejaVuSans-6b" x="1410.902344"/>
      <use xlink:href="#DejaVuSans-65" x="1465.1875"/>
      <use xlink:href="#DejaVuSans-6e" x="1526.710938"/>
      <use xlink:href="#DejaVuSans-29" x="1590.089844"/>
     </g>
    </g>
    <g id="line2d_31">
     <path d="M 347.292187 56.576562 
L 357.292187 56.576562 
L 367.292187 56.576562 
" style="fill: none; stroke: #ff7f0e; stroke-width: 1.5; stroke-linecap: square"/>
    </g>
    <g id="text_22">
     <!-- Koszt aplikacji (receiveToken) -->
     <g transform="translate(375.292187 60.076562)scale(0.1 -0.1)">
      <defs>
       <path id="DejaVuSans-70" d="M 1159 525 
L 1159 -1331 
L 581 -1331 
L 581 3500 
L 1159 3500 
L 1159 2969 
Q 1341 3281 1617 3432 
Q 1894 3584 2278 3584 
Q 2916 3584 3314 3078 
Q 3713 2572 3713 1747 
Q 3713 922 3314 415 
Q 2916 -91 2278 -91 
Q 1894 -91 1617 61 
Q 1341 213 1159 525 
z
M 3116 1747 
Q 3116 2381 2855 2742 
Q 2594 3103 2138 3103 
Q 1681 3103 1420 2742 
Q 1159 2381 1159 1747 
Q 1159 1113 1420 752 
Q 1681 391 2138 391 
Q 2594 391 2855 752 
Q 3116 1113 3116 1747 
z
" transform="scale(0.015625)"/>
       <path id="DejaVuSans-76" d="M 191 3500 
L 800 3500 
L 1894 563 
L 2988 3500 
L 3597 3500 
L 2284 0 
L 1503 0 
L 191 3500 
z
" transform="scale(0.015625)"/>
      </defs>
      <use xlink:href="#DejaVuSans-4b"/>
      <use xlink:href="#DejaVuSans-6f" x="60.576172"/>
      <use xlink:href="#DejaVuSans-73" x="121.757812"/>
      <use xlink:href="#DejaVuSans-7a" x="173.857422"/>
      <use xlink:href="#DejaVuSans-74" x="226.347656"/>
      <use xlink:href="#DejaVuSans-20" x="265.556641"/>
      <use xlink:href="#DejaVuSans-61" x="297.34375"/>
      <use xlink:href="#DejaVuSans-70" x="358.623047"/>
      <use xlink:href="#DejaVuSans-6c" x="422.099609"/>
      <use xlink:href="#DejaVuSans-69" x="449.882812"/>
      <use xlink:href="#DejaVuSans-6b" x="477.666016"/>
      <use xlink:href="#DejaVuSans-61" x="533.826172"/>
      <use xlink:href="#DejaVuSans-63" x="595.105469"/>
      <use xlink:href="#DejaVuSans-6a" x="650.085938"/>
      <use xlink:href="#DejaVuSans-69" x="677.869141"/>
      <use xlink:href="#DejaVuSans-20" x="705.652344"/>
      <use xlink:href="#DejaVuSans-28" x="737.439453"/>
      <use xlink:href="#DejaVuSans-72" x="776.453125"/>
      <use xlink:href="#DejaVuSans-65" x="815.316406"/>
      <use xlink:href="#DejaVuSans-63" x="876.839844"/>
      <use xlink:href="#DejaVuSans-65" x="931.820312"/>
      <use xlink:href="#DejaVuSans-69" x="993.34375"/>
      <use xlink:href="#DejaVuSans-76" x="1021.126953"/>
      <use xlink:href="#DejaVuSans-65" x="1080.306641"/>
      <use xlink:href="#DejaVuSans-54" x="1141.830078"/>
      <use xlink:href="#DejaVuSans-6f" x="1185.914062"/>
      <use xlink:href="#DejaVuSans-6b" x="1247.095703"/>
      <use xlink:href="#DejaVuSans-65" x="1301.380859"/>
      <use xlink:href="#DejaVuSans-6e" x="1362.904297"/>
      <use xlink:href="#DejaVuSans-29" x="1426.283203"/>
     </g>
    </g>
   </g>
  </g>
 </g>
 <defs>
  <clipPath id="p2139278a9d">
   <rect x="115.2" y="28.8" width="432" height="201.6"/>
  </clipPath>
 </defs>
</svg>
