<?xml version="1.0" encoding="utf-8" standalone="no"?>
<!DOCTYPE svg PUBLIC "-//W3C//DTD SVG 1.1//EN"
  "http://www.w3.org/Graphics/SVG/1.1/DTD/svg11.dtd">
<svg xmlns:xlink="http://www.w3.org/1999/xlink" width="576pt" height="360pt" viewBox="0 0 576 360" xmlns="http://www.w3.org/2000/svg" version="1.1">
 <metadata>
  <rdf:RDF xmlns:dc="http://purl.org/dc/elements/1.1/" xmlns:cc="http://creativecommons.org/ns#" xmlns:rdf="http://www.w3.org/1999/02/22-rdf-syntax-ns#">
   <cc:Work>
    <dc:type rdf:resource="http://purl.org/dc/dcmitype/StillImage"/>
    <dc:date>2022-08-15T18:19:03.947528</dc:date>
    <dc:format>image/svg+xml</dc:format>
    <dc:creator>
     <cc:Agent>
      <dc:title>Matplotlib v3.5.2, https://matplotlib.org/</dc:title>
     </cc:Agent>
    </dc:creator>
   </cc:Work>
  </rdf:RDF>
 </metadata>
 <defs>
  <style type="text/css">*{stroke-linejoin: round; stroke-linecap: butt}</style>
 </defs>
 <g id="figure_1">
  <g id="patch_1">
   <path d="M 0 360 
L 576 360 
L 576 0 
L 0 0 
z
" style="fill: #ffffff"/>
  </g>
  <g id="axes_1">
   <g id="patch_2">
    <path d="M 57.6 288 
L 547.2 288 
L 547.2 36 
L 57.6 36 
z
" style="fill: #ffffff"/>
   </g>
   <g id="matplotlib.axis_1">
    <g id="xtick_1">
     <g id="line2d_1">
      <path d="M 87.451419 288 
L 87.451419 36 
" clip-path="url(#p36ec7a7a99)" style="fill: none; stroke: #b0b0b0; stroke-opacity: 0.7; stroke-width: 0.8; stroke-linecap: square"/>
     </g>
     <g id="line2d_2">
      <defs>
       <path id="m6585c0669d" d="M 0 0 
L 0 3.5 
" style="stroke: #000000; stroke-width: 0.8"/>
      </defs>
      <g>
       <use xlink:href="#m6585c0669d" x="87.451419" y="288" style="stroke: #000000; stroke-width: 0.8"/>
      </g>
     </g>
     <g id="text_1">
      <!-- 01.08.2022 -->
      <g transform="translate(45.494575 340.859189)rotate(-45)scale(0.1 -0.1)">
       <defs>
        <path id="DejaVuSans-30" d="M 2034 4250 
Q 1547 4250 1301 3770 
Q 1056 3291 1056 2328 
Q 1056 1369 1301 889 
Q 1547 409 2034 409 
Q 2525 409 2770 889 
Q 3016 1369 3016 2328 
Q 3016 3291 2770 3770 
Q 2525 4250 2034 4250 
z
M 2034 4750 
Q 2819 4750 3233 4129 
Q 3647 3509 3647 2328 
Q 3647 1150 3233 529 
Q 2819 -91 2034 -91 
Q 1250 -91 836 529 
Q 422 1150 422 2328 
Q 422 3509 836 4129 
Q 1250 4750 2034 4750 
z
" transform="scale(0.015625)"/>
        <path id="DejaVuSans-31" d="M 794 531 
L 1825 531 
L 1825 4091 
L 703 3866 
L 703 4441 
L 1819 4666 
L 2450 4666 
L 2450 531 
L 3481 531 
L 3481 0 
L 794 0 
L 794 531 
z
" transform="scale(0.015625)"/>
        <path id="DejaVuSans-2e" d="M 684 794 
L 1344 794 
L 1344 0 
L 684 0 
L 684 794 
z
" transform="scale(0.015625)"/>
        <path id="DejaVuSans-38" d="M 2034 2216 
Q 1584 2216 1326 1975 
Q 1069 1734 1069 1313 
Q 1069 891 1326 650 
Q 1584 409 2034 409 
Q 2484 409 2743 651 
Q 3003 894 3003 1313 
Q 3003 1734 2745 1975 
Q 2488 2216 2034 2216 
z
M 1403 2484 
Q 997 2584 770 2862 
Q 544 3141 544 3541 
Q 544 4100 942 4425 
Q 1341 4750 2034 4750 
Q 2731 4750 3128 4425 
Q 3525 4100 3525 3541 
Q 3525 3141 3298 2862 
Q 3072 2584 2669 2484 
Q 3125 2378 3379 2068 
Q 3634 1759 3634 1313 
Q 3634 634 3220 271 
Q 2806 -91 2034 -91 
Q 1263 -91 848 271 
Q 434 634 434 1313 
Q 434 1759 690 2068 
Q 947 2378 1403 2484 
z
M 1172 3481 
Q 1172 3119 1398 2916 
Q 1625 2713 2034 2713 
Q 2441 2713 2670 2916 
Q 2900 3119 2900 3481 
Q 2900 3844 2670 4047 
Q 2441 4250 2034 4250 
Q 1625 4250 1398 4047 
Q 1172 3844 1172 3481 
z
" transform="scale(0.015625)"/>
        <path id="DejaVuSans-32" d="M 1228 531 
L 3431 531 
L 3431 0 
L 469 0 
L 469 531 
Q 828 903 1448 1529 
Q 2069 2156 2228 2338 
Q 2531 2678 2651 2914 
Q 2772 3150 2772 3378 
Q 2772 3750 2511 3984 
Q 2250 4219 1831 4219 
Q 1534 4219 1204 4116 
Q 875 4013 500 3803 
L 500 4441 
Q 881 4594 1212 4672 
Q 1544 4750 1819 4750 
Q 2544 4750 2975 4387 
Q 3406 4025 3406 3419 
Q 3406 3131 3298 2873 
Q 3191 2616 2906 2266 
Q 2828 2175 2409 1742 
Q 1991 1309 1228 531 
z
" transform="scale(0.015625)"/>
       </defs>
       <use xlink:href="#DejaVuSans-30"/>
       <use xlink:href="#DejaVuSans-31" x="63.623047"/>
       <use xlink:href="#DejaVuSans-2e" x="127.246094"/>
       <use xlink:href="#DejaVuSans-30" x="159.033203"/>
       <use xlink:href="#DejaVuSans-38" x="222.65625"/>
       <use xlink:href="#DejaVuSans-2e" x="286.279297"/>
       <use xlink:href="#DejaVuSans-32" x="318.066406"/>
       <use xlink:href="#DejaVuSans-30" x="381.689453"/>
       <use xlink:href="#DejaVuSans-32" x="445.3125"/>
       <use xlink:href="#DejaVuSans-32" x="508.935547"/>
      </g>
     </g>
    </g>
    <g id="xtick_2">
     <g id="line2d_3">
      <path d="M 136.883745 288 
L 136.883745 36 
" clip-path="url(#p36ec7a7a99)" style="fill: none; stroke: #b0b0b0; stroke-opacity: 0.7; stroke-width: 0.8; stroke-linecap: square"/>
     </g>
     <g id="line2d_4">
      <g>
       <use xlink:href="#m6585c0669d" x="136.883745" y="288" style="stroke: #000000; stroke-width: 0.8"/>
      </g>
     </g>
     <g id="text_2">
      <!-- 02.08.2022 -->
      <g transform="translate(94.926902 340.859189)rotate(-45)scale(0.1 -0.1)">
       <use xlink:href="#DejaVuSans-30"/>
       <use xlink:href="#DejaVuSans-32" x="63.623047"/>
       <use xlink:href="#DejaVuSans-2e" x="127.246094"/>
       <use xlink:href="#DejaVuSans-30" x="159.033203"/>
       <use xlink:href="#DejaVuSans-38" x="222.65625"/>
       <use xlink:href="#DejaVuSans-2e" x="286.279297"/>
       <use xlink:href="#DejaVuSans-32" x="318.066406"/>
       <use xlink:href="#DejaVuSans-30" x="381.689453"/>
       <use xlink:href="#DejaVuSans-32" x="445.3125"/>
       <use xlink:href="#DejaVuSans-32" x="508.935547"/>
      </g>
     </g>
    </g>
    <g id="xtick_3">
     <g id="line2d_5">
      <path d="M 186.316072 288 
L 186.316072 36 
" clip-path="url(#p36ec7a7a99)" style="fill: none; stroke: #b0b0b0; stroke-opacity: 0.7; stroke-width: 0.8; stroke-linecap: square"/>
     </g>
     <g id="line2d_6">
      <g>
       <use xlink:href="#m6585c0669d" x="186.316072" y="288" style="stroke: #000000; stroke-width: 0.8"/>
      </g>
     </g>
     <g id="text_3">
      <!-- 03.08.2022 -->
      <g transform="translate(144.359228 340.859189)rotate(-45)scale(0.1 -0.1)">
       <defs>
        <path id="DejaVuSans-33" d="M 2597 2516 
Q 3050 2419 3304 2112 
Q 3559 1806 3559 1356 
Q 3559 666 3084 287 
Q 2609 -91 1734 -91 
Q 1441 -91 1130 -33 
Q 819 25 488 141 
L 488 750 
Q 750 597 1062 519 
Q 1375 441 1716 441 
Q 2309 441 2620 675 
Q 2931 909 2931 1356 
Q 2931 1769 2642 2001 
Q 2353 2234 1838 2234 
L 1294 2234 
L 1294 2753 
L 1863 2753 
Q 2328 2753 2575 2939 
Q 2822 3125 2822 3475 
Q 2822 3834 2567 4026 
Q 2313 4219 1838 4219 
Q 1578 4219 1281 4162 
Q 984 4106 628 3988 
L 628 4550 
Q 988 4650 1302 4700 
Q 1616 4750 1894 4750 
Q 2613 4750 3031 4423 
Q 3450 4097 3450 3541 
Q 3450 3153 3228 2886 
Q 3006 2619 2597 2516 
z
" transform="scale(0.015625)"/>
       </defs>
       <use xlink:href="#DejaVuSans-30"/>
       <use xlink:href="#DejaVuSans-33" x="63.623047"/>
       <use xlink:href="#DejaVuSans-2e" x="127.246094"/>
       <use xlink:href="#DejaVuSans-30" x="159.033203"/>
       <use xlink:href="#DejaVuSans-38" x="222.65625"/>
       <use xlink:href="#DejaVuSans-2e" x="286.279297"/>
       <use xlink:href="#DejaVuSans-32" x="318.066406"/>
       <use xlink:href="#DejaVuSans-30" x="381.689453"/>
       <use xlink:href="#DejaVuSans-32" x="445.3125"/>
       <use xlink:href="#DejaVuSans-32" x="508.935547"/>
      </g>
     </g>
    </g>
    <g id="xtick_4">
     <g id="line2d_7">
      <path d="M 235.748399 288 
L 235.748399 36 
" clip-path="url(#p36ec7a7a99)" style="fill: none; stroke: #b0b0b0; stroke-opacity: 0.7; stroke-width: 0.8; stroke-linecap: square"/>
     </g>
     <g id="line2d_8">
      <g>
       <use xlink:href="#m6585c0669d" x="235.748399" y="288" style="stroke: #000000; stroke-width: 0.8"/>
      </g>
     </g>
     <g id="text_4">
      <!-- 04.08.2022 -->
      <g transform="translate(193.791555 340.859189)rotate(-45)scale(0.1 -0.1)">
       <defs>
        <path id="DejaVuSans-34" d="M 2419 4116 
L 825 1625 
L 2419 1625 
L 2419 4116 
z
M 2253 4666 
L 3047 4666 
L 3047 1625 
L 3713 1625 
L 3713 1100 
L 3047 1100 
L 3047 0 
L 2419 0 
L 2419 1100 
L 313 1100 
L 313 1709 
L 2253 4666 
z
" transform="scale(0.015625)"/>
       </defs>
       <use xlink:href="#DejaVuSans-30"/>
       <use xlink:href="#DejaVuSans-34" x="63.623047"/>
       <use xlink:href="#DejaVuSans-2e" x="127.246094"/>
       <use xlink:href="#DejaVuSans-30" x="159.033203"/>
       <use xlink:href="#DejaVuSans-38" x="222.65625"/>
       <use xlink:href="#DejaVuSans-2e" x="286.279297"/>
       <use xlink:href="#DejaVuSans-32" x="318.066406"/>
       <use xlink:href="#DejaVuSans-30" x="381.689453"/>
       <use xlink:href="#DejaVuSans-32" x="445.3125"/>
       <use xlink:href="#DejaVuSans-32" x="508.935547"/>
      </g>
     </g>
    </g>
    <g id="xtick_5">
     <g id="line2d_9">
      <path d="M 285.180726 288 
L 285.180726 36 
" clip-path="url(#p36ec7a7a99)" style="fill: none; stroke: #b0b0b0; stroke-opacity: 0.7; stroke-width: 0.8; stroke-linecap: square"/>
     </g>
     <g id="line2d_10">
      <g>
       <use xlink:href="#m6585c0669d" x="285.180726" y="288" style="stroke: #000000; stroke-width: 0.8"/>
      </g>
     </g>
     <g id="text_5">
      <!-- 05.08.2022 -->
      <g transform="translate(243.223882 340.859189)rotate(-45)scale(0.1 -0.1)">
       <defs>
        <path id="DejaVuSans-35" d="M 691 4666 
L 3169 4666 
L 3169 4134 
L 1269 4134 
L 1269 2991 
Q 1406 3038 1543 3061 
Q 1681 3084 1819 3084 
Q 2600 3084 3056 2656 
Q 3513 2228 3513 1497 
Q 3513 744 3044 326 
Q 2575 -91 1722 -91 
Q 1428 -91 1123 -41 
Q 819 9 494 109 
L 494 744 
Q 775 591 1075 516 
Q 1375 441 1709 441 
Q 2250 441 2565 725 
Q 2881 1009 2881 1497 
Q 2881 1984 2565 2268 
Q 2250 2553 1709 2553 
Q 1456 2553 1204 2497 
Q 953 2441 691 2322 
L 691 4666 
z
" transform="scale(0.015625)"/>
       </defs>
       <use xlink:href="#DejaVuSans-30"/>
       <use xlink:href="#DejaVuSans-35" x="63.623047"/>
       <use xlink:href="#DejaVuSans-2e" x="127.246094"/>
       <use xlink:href="#DejaVuSans-30" x="159.033203"/>
       <use xlink:href="#DejaVuSans-38" x="222.65625"/>
       <use xlink:href="#DejaVuSans-2e" x="286.279297"/>
       <use xlink:href="#DejaVuSans-32" x="318.066406"/>
       <use xlink:href="#DejaVuSans-30" x="381.689453"/>
       <use xlink:href="#DejaVuSans-32" x="445.3125"/>
       <use xlink:href="#DejaVuSans-32" x="508.935547"/>
      </g>
     </g>
    </g>
    <g id="xtick_6">
     <g id="line2d_11">
      <path d="M 334.613052 288 
L 334.613052 36 
" clip-path="url(#p36ec7a7a99)" style="fill: none; stroke: #b0b0b0; stroke-opacity: 0.7; stroke-width: 0.8; stroke-linecap: square"/>
     </g>
     <g id="line2d_12">
      <g>
       <use xlink:href="#m6585c0669d" x="334.613052" y="288" style="stroke: #000000; stroke-width: 0.8"/>
      </g>
     </g>
     <g id="text_6">
      <!-- 06.08.2022 -->
      <g transform="translate(292.656209 340.859189)rotate(-45)scale(0.1 -0.1)">
       <defs>
        <path id="DejaVuSans-36" d="M 2113 2584 
Q 1688 2584 1439 2293 
Q 1191 2003 1191 1497 
Q 1191 994 1439 701 
Q 1688 409 2113 409 
Q 2538 409 2786 701 
Q 3034 994 3034 1497 
Q 3034 2003 2786 2293 
Q 2538 2584 2113 2584 
z
M 3366 4563 
L 3366 3988 
Q 3128 4100 2886 4159 
Q 2644 4219 2406 4219 
Q 1781 4219 1451 3797 
Q 1122 3375 1075 2522 
Q 1259 2794 1537 2939 
Q 1816 3084 2150 3084 
Q 2853 3084 3261 2657 
Q 3669 2231 3669 1497 
Q 3669 778 3244 343 
Q 2819 -91 2113 -91 
Q 1303 -91 875 529 
Q 447 1150 447 2328 
Q 447 3434 972 4092 
Q 1497 4750 2381 4750 
Q 2619 4750 2861 4703 
Q 3103 4656 3366 4563 
z
" transform="scale(0.015625)"/>
       </defs>
       <use xlink:href="#DejaVuSans-30"/>
       <use xlink:href="#DejaVuSans-36" x="63.623047"/>
       <use xlink:href="#DejaVuSans-2e" x="127.246094"/>
       <use xlink:href="#DejaVuSans-30" x="159.033203"/>
       <use xlink:href="#DejaVuSans-38" x="222.65625"/>
       <use xlink:href="#DejaVuSans-2e" x="286.279297"/>
       <use xlink:href="#DejaVuSans-32" x="318.066406"/>
       <use xlink:href="#DejaVuSans-30" x="381.689453"/>
       <use xlink:href="#DejaVuSans-32" x="445.3125"/>
       <use xlink:href="#DejaVuSans-32" x="508.935547"/>
      </g>
     </g>
    </g>
    <g id="xtick_7">
     <g id="line2d_13">
      <path d="M 384.045379 288 
L 384.045379 36 
" clip-path="url(#p36ec7a7a99)" style="fill: none; stroke: #b0b0b0; stroke-opacity: 0.7; stroke-width: 0.8; stroke-linecap: square"/>
     </g>
     <g id="line2d_14">
      <g>
       <use xlink:href="#m6585c0669d" x="384.045379" y="288" style="stroke: #000000; stroke-width: 0.8"/>
      </g>
     </g>
     <g id="text_7">
      <!-- 07.08.2022 -->
      <g transform="translate(342.088535 340.859189)rotate(-45)scale(0.1 -0.1)">
       <defs>
        <path id="DejaVuSans-37" d="M 525 4666 
L 3525 4666 
L 3525 4397 
L 1831 0 
L 1172 0 
L 2766 4134 
L 525 4134 
L 525 4666 
z
" transform="scale(0.015625)"/>
       </defs>
       <use xlink:href="#DejaVuSans-30"/>
       <use xlink:href="#DejaVuSans-37" x="63.623047"/>
       <use xlink:href="#DejaVuSans-2e" x="127.246094"/>
       <use xlink:href="#DejaVuSans-30" x="159.033203"/>
       <use xlink:href="#DejaVuSans-38" x="222.65625"/>
       <use xlink:href="#DejaVuSans-2e" x="286.279297"/>
       <use xlink:href="#DejaVuSans-32" x="318.066406"/>
       <use xlink:href="#DejaVuSans-30" x="381.689453"/>
       <use xlink:href="#DejaVuSans-32" x="445.3125"/>
       <use xlink:href="#DejaVuSans-32" x="508.935547"/>
      </g>
     </g>
    </g>
    <g id="xtick_8">
     <g id="line2d_15">
      <path d="M 433.477706 288 
L 433.477706 36 
" clip-path="url(#p36ec7a7a99)" style="fill: none; stroke: #b0b0b0; stroke-opacity: 0.7; stroke-width: 0.8; stroke-linecap: square"/>
     </g>
     <g id="line2d_16">
      <g>
       <use xlink:href="#m6585c0669d" x="433.477706" y="288" style="stroke: #000000; stroke-width: 0.8"/>
      </g>
     </g>
     <g id="text_8">
      <!-- 08.08.2022 -->
      <g transform="translate(391.520862 340.859189)rotate(-45)scale(0.1 -0.1)">
       <use xlink:href="#DejaVuSans-30"/>
       <use xlink:href="#DejaVuSans-38" x="63.623047"/>
       <use xlink:href="#DejaVuSans-2e" x="127.246094"/>
       <use xlink:href="#DejaVuSans-30" x="159.033203"/>
       <use xlink:href="#DejaVuSans-38" x="222.65625"/>
       <use xlink:href="#DejaVuSans-2e" x="286.279297"/>
       <use xlink:href="#DejaVuSans-32" x="318.066406"/>
       <use xlink:href="#DejaVuSans-30" x="381.689453"/>
       <use xlink:href="#DejaVuSans-32" x="445.3125"/>
       <use xlink:href="#DejaVuSans-32" x="508.935547"/>
      </g>
     </g>
    </g>
    <g id="xtick_9">
     <g id="line2d_17">
      <path d="M 482.910033 288 
L 482.910033 36 
" clip-path="url(#p36ec7a7a99)" style="fill: none; stroke: #b0b0b0; stroke-opacity: 0.7; stroke-width: 0.8; stroke-linecap: square"/>
     </g>
     <g id="line2d_18">
      <g>
       <use xlink:href="#m6585c0669d" x="482.910033" y="288" style="stroke: #000000; stroke-width: 0.8"/>
      </g>
     </g>
     <g id="text_9">
      <!-- 09.08.2022 -->
      <g transform="translate(440.953189 340.859189)rotate(-45)scale(0.1 -0.1)">
       <defs>
        <path id="DejaVuSans-39" d="M 703 97 
L 703 672 
Q 941 559 1184 500 
Q 1428 441 1663 441 
Q 2288 441 2617 861 
Q 2947 1281 2994 2138 
Q 2813 1869 2534 1725 
Q 2256 1581 1919 1581 
Q 1219 1581 811 2004 
Q 403 2428 403 3163 
Q 403 3881 828 4315 
Q 1253 4750 1959 4750 
Q 2769 4750 3195 4129 
Q 3622 3509 3622 2328 
Q 3622 1225 3098 567 
Q 2575 -91 1691 -91 
Q 1453 -91 1209 -44 
Q 966 3 703 97 
z
M 1959 2075 
Q 2384 2075 2632 2365 
Q 2881 2656 2881 3163 
Q 2881 3666 2632 3958 
Q 2384 4250 1959 4250 
Q 1534 4250 1286 3958 
Q 1038 3666 1038 3163 
Q 1038 2656 1286 2365 
Q 1534 2075 1959 2075 
z
" transform="scale(0.015625)"/>
       </defs>
       <use xlink:href="#DejaVuSans-30"/>
       <use xlink:href="#DejaVuSans-39" x="63.623047"/>
       <use xlink:href="#DejaVuSans-2e" x="127.246094"/>
       <use xlink:href="#DejaVuSans-30" x="159.033203"/>
       <use xlink:href="#DejaVuSans-38" x="222.65625"/>
       <use xlink:href="#DejaVuSans-2e" x="286.279297"/>
       <use xlink:href="#DejaVuSans-32" x="318.066406"/>
       <use xlink:href="#DejaVuSans-30" x="381.689453"/>
       <use xlink:href="#DejaVuSans-32" x="445.3125"/>
       <use xlink:href="#DejaVuSans-32" x="508.935547"/>
      </g>
     </g>
    </g>
    <g id="xtick_10">
     <g id="line2d_19">
      <path d="M 532.342359 288 
L 532.342359 36 
" clip-path="url(#p36ec7a7a99)" style="fill: none; stroke: #b0b0b0; stroke-opacity: 0.7; stroke-width: 0.8; stroke-linecap: square"/>
     </g>
     <g id="line2d_20">
      <g>
       <use xlink:href="#m6585c0669d" x="532.342359" y="288" style="stroke: #000000; stroke-width: 0.8"/>
      </g>
     </g>
     <g id="text_10">
      <!-- 10.08.2022 -->
      <g transform="translate(490.385516 340.859189)rotate(-45)scale(0.1 -0.1)">
       <use xlink:href="#DejaVuSans-31"/>
       <use xlink:href="#DejaVuSans-30" x="63.623047"/>
       <use xlink:href="#DejaVuSans-2e" x="127.246094"/>
       <use xlink:href="#DejaVuSans-30" x="159.033203"/>
       <use xlink:href="#DejaVuSans-38" x="222.65625"/>
       <use xlink:href="#DejaVuSans-2e" x="286.279297"/>
       <use xlink:href="#DejaVuSans-32" x="318.066406"/>
       <use xlink:href="#DejaVuSans-30" x="381.689453"/>
       <use xlink:href="#DejaVuSans-32" x="445.3125"/>
       <use xlink:href="#DejaVuSans-32" x="508.935547"/>
      </g>
     </g>
    </g>
    <g id="text_11">
     <!-- Data -->
     <g transform="translate(290.461719 353.928188)scale(0.1 -0.1)">
      <defs>
       <path id="DejaVuSans-44" d="M 1259 4147 
L 1259 519 
L 2022 519 
Q 2988 519 3436 956 
Q 3884 1394 3884 2338 
Q 3884 3275 3436 3711 
Q 2988 4147 2022 4147 
L 1259 4147 
z
M 628 4666 
L 1925 4666 
Q 3281 4666 3915 4102 
Q 4550 3538 4550 2338 
Q 4550 1131 3912 565 
Q 3275 0 1925 0 
L 628 0 
L 628 4666 
z
" transform="scale(0.015625)"/>
       <path id="DejaVuSans-61" d="M 2194 1759 
Q 1497 1759 1228 1600 
Q 959 1441 959 1056 
Q 959 750 1161 570 
Q 1363 391 1709 391 
Q 2188 391 2477 730 
Q 2766 1069 2766 1631 
L 2766 1759 
L 2194 1759 
z
M 3341 1997 
L 3341 0 
L 2766 0 
L 2766 531 
Q 2569 213 2275 61 
Q 1981 -91 1556 -91 
Q 1019 -91 701 211 
Q 384 513 384 1019 
Q 384 1609 779 1909 
Q 1175 2209 1959 2209 
L 2766 2209 
L 2766 2266 
Q 2766 2663 2505 2880 
Q 2244 3097 1772 3097 
Q 1472 3097 1187 3025 
Q 903 2953 641 2809 
L 641 3341 
Q 956 3463 1253 3523 
Q 1550 3584 1831 3584 
Q 2591 3584 2966 3190 
Q 3341 2797 3341 1997 
z
" transform="scale(0.015625)"/>
       <path id="DejaVuSans-74" d="M 1172 4494 
L 1172 3500 
L 2356 3500 
L 2356 3053 
L 1172 3053 
L 1172 1153 
Q 1172 725 1289 603 
Q 1406 481 1766 481 
L 2356 481 
L 2356 0 
L 1766 0 
Q 1100 0 847 248 
Q 594 497 594 1153 
L 594 3053 
L 172 3053 
L 172 3500 
L 594 3500 
L 594 4494 
L 1172 4494 
z
" transform="scale(0.015625)"/>
      </defs>
      <use xlink:href="#DejaVuSans-44"/>
      <use xlink:href="#DejaVuSans-61" x="77.001953"/>
      <use xlink:href="#DejaVuSans-74" x="138.28125"/>
      <use xlink:href="#DejaVuSans-61" x="177.490234"/>
     </g>
    </g>
   </g>
   <g id="matplotlib.axis_2">
    <g id="ytick_1">
     <g id="line2d_21">
      <defs>
       <path id="m23e5eebc3f" d="M 0 0 
L -3.5 0 
" style="stroke: #000000; stroke-width: 0.8"/>
      </defs>
      <g>
       <use xlink:href="#m23e5eebc3f" x="57.6" y="288" style="stroke: #000000; stroke-width: 0.8"/>
      </g>
     </g>
     <g id="text_12">
      <!-- 0 -->
      <g transform="translate(44.2375 291.799219)scale(0.1 -0.1)">
       <use xlink:href="#DejaVuSans-30"/>
      </g>
     </g>
    </g>
    <g id="ytick_2">
     <g id="line2d_22">
      <g>
       <use xlink:href="#m23e5eebc3f" x="57.6" y="233.297315" style="stroke: #000000; stroke-width: 0.8"/>
      </g>
     </g>
     <g id="text_13">
      <!-- 20 -->
      <g transform="translate(37.875 237.096534)scale(0.1 -0.1)">
       <use xlink:href="#DejaVuSans-32"/>
       <use xlink:href="#DejaVuSans-30" x="63.623047"/>
      </g>
     </g>
    </g>
    <g id="ytick_3">
     <g id="line2d_23">
      <g>
       <use xlink:href="#m23e5eebc3f" x="57.6" y="178.59463" style="stroke: #000000; stroke-width: 0.8"/>
      </g>
     </g>
     <g id="text_14">
      <!-- 40 -->
      <g transform="translate(37.875 182.393849)scale(0.1 -0.1)">
       <use xlink:href="#DejaVuSans-34"/>
       <use xlink:href="#DejaVuSans-30" x="63.623047"/>
      </g>
     </g>
    </g>
    <g id="ytick_4">
     <g id="line2d_24">
      <g>
       <use xlink:href="#m23e5eebc3f" x="57.6" y="123.891945" style="stroke: #000000; stroke-width: 0.8"/>
      </g>
     </g>
     <g id="text_15">
      <!-- 60 -->
      <g transform="translate(37.875 127.691163)scale(0.1 -0.1)">
       <use xlink:href="#DejaVuSans-36"/>
       <use xlink:href="#DejaVuSans-30" x="63.623047"/>
      </g>
     </g>
    </g>
    <g id="ytick_5">
     <g id="line2d_25">
      <g>
       <use xlink:href="#m23e5eebc3f" x="57.6" y="69.18926" style="stroke: #000000; stroke-width: 0.8"/>
      </g>
     </g>
     <g id="text_16">
      <!-- 80 -->
      <g transform="translate(37.875 72.988478)scale(0.1 -0.1)">
       <use xlink:href="#DejaVuSans-38"/>
       <use xlink:href="#DejaVuSans-30" x="63.623047"/>
      </g>
     </g>
    </g>
    <g id="text_17">
     <!-- Czas (s) -->
     <g transform="translate(31.795312 181.879687)rotate(-90)scale(0.1 -0.1)">
      <defs>
       <path id="DejaVuSans-43" d="M 4122 4306 
L 4122 3641 
Q 3803 3938 3442 4084 
Q 3081 4231 2675 4231 
Q 1875 4231 1450 3742 
Q 1025 3253 1025 2328 
Q 1025 1406 1450 917 
Q 1875 428 2675 428 
Q 3081 428 3442 575 
Q 3803 722 4122 1019 
L 4122 359 
Q 3791 134 3420 21 
Q 3050 -91 2638 -91 
Q 1578 -91 968 557 
Q 359 1206 359 2328 
Q 359 3453 968 4101 
Q 1578 4750 2638 4750 
Q 3056 4750 3426 4639 
Q 3797 4528 4122 4306 
z
" transform="scale(0.015625)"/>
       <path id="DejaVuSans-7a" d="M 353 3500 
L 3084 3500 
L 3084 2975 
L 922 459 
L 3084 459 
L 3084 0 
L 275 0 
L 275 525 
L 2438 3041 
L 353 3041 
L 353 3500 
z
" transform="scale(0.015625)"/>
       <path id="DejaVuSans-73" d="M 2834 3397 
L 2834 2853 
Q 2591 2978 2328 3040 
Q 2066 3103 1784 3103 
Q 1356 3103 1142 2972 
Q 928 2841 928 2578 
Q 928 2378 1081 2264 
Q 1234 2150 1697 2047 
L 1894 2003 
Q 2506 1872 2764 1633 
Q 3022 1394 3022 966 
Q 3022 478 2636 193 
Q 2250 -91 1575 -91 
Q 1294 -91 989 -36 
Q 684 19 347 128 
L 347 722 
Q 666 556 975 473 
Q 1284 391 1588 391 
Q 1994 391 2212 530 
Q 2431 669 2431 922 
Q 2431 1156 2273 1281 
Q 2116 1406 1581 1522 
L 1381 1569 
Q 847 1681 609 1914 
Q 372 2147 372 2553 
Q 372 3047 722 3315 
Q 1072 3584 1716 3584 
Q 2034 3584 2315 3537 
Q 2597 3491 2834 3397 
z
" transform="scale(0.015625)"/>
       <path id="DejaVuSans-20" transform="scale(0.015625)"/>
       <path id="DejaVuSans-28" d="M 1984 4856 
Q 1566 4138 1362 3434 
Q 1159 2731 1159 2009 
Q 1159 1288 1364 580 
Q 1569 -128 1984 -844 
L 1484 -844 
Q 1016 -109 783 600 
Q 550 1309 550 2009 
Q 550 2706 781 3412 
Q 1013 4119 1484 4856 
L 1984 4856 
z
" transform="scale(0.015625)"/>
       <path id="DejaVuSans-29" d="M 513 4856 
L 1013 4856 
Q 1481 4119 1714 3412 
Q 1947 2706 1947 2009 
Q 1947 1309 1714 600 
Q 1481 -109 1013 -844 
L 513 -844 
Q 928 -128 1133 580 
Q 1338 1288 1338 2009 
Q 1338 2731 1133 3434 
Q 928 4138 513 4856 
z
" transform="scale(0.015625)"/>
      </defs>
      <use xlink:href="#DejaVuSans-43"/>
      <use xlink:href="#DejaVuSans-7a" x="69.824219"/>
      <use xlink:href="#DejaVuSans-61" x="122.314453"/>
      <use xlink:href="#DejaVuSans-73" x="183.59375"/>
      <use xlink:href="#DejaVuSans-20" x="235.693359"/>
      <use xlink:href="#DejaVuSans-28" x="267.480469"/>
      <use xlink:href="#DejaVuSans-73" x="306.494141"/>
      <use xlink:href="#DejaVuSans-29" x="358.59375"/>
     </g>
    </g>
   </g>
   <g id="line2d_26">
    <path d="M 79.854545 210.126578 
L 81.913975 249.418536 
L 83.973828 251.985466 
L 86.033207 206.233858 
L 88.092666 254.889063 
L 90.152157 246.728711 
L 92.211937 245.606203 
L 94.271598 213.294501 
L 96.331093 240.317898 
L 98.390977 242.118648 
L 100.451634 216.109068 
L 102.510294 246.134365 
L 104.570023 210.497956 
L 106.629977 243.110763 
L 108.689629 246.354395 
L 110.74982 245.510945 
L 114.869116 230.550372 
L 116.929184 244.393224 
L 118.988357 245.21423 
L 121.047943 248.107187 
L 123.233668 250.076757 
L 125.291988 241.79932 
L 127.352939 245.811885 
L 129.414337 238.709729 
L 131.471662 203.942231 
L 133.531001 253.227342 
L 135.590605 239.010112 
L 139.709796 252.100957 
L 141.769693 247.187043 
L 143.832037 247.263232 
L 145.889274 186.603027 
L 150.009222 247.738104 
L 152.068328 254.621575 
L 154.128058 215.226854 
L 156.188067 241.282219 
L 158.247509 248.032883 
L 160.30727 207.463813 
L 162.368121 243.644146 
L 164.427097 246.519019 
L 168.546716 206.459874 
L 170.60663 253.894657 
L 172.665884 244.437954 
L 174.726003 254.732687 
L 176.785639 247.822041 
L 178.848566 214.903922 
L 180.908738 218.09215 
L 182.968053 250.452559 
L 185.026907 243.126244 
L 187.086082 241.695827 
L 189.14574 253.520097 
L 191.205327 207.861126 
L 193.264963 233.378075 
L 195.325182 245.493135 
L 197.38502 245.501147 
L 199.445025 247.643383 
L 201.504723 208.201801 
L 203.564674 244.205026 
L 205.624615 255.347229 
L 207.684702 244.295145 
L 209.744128 246.555181 
L 211.801218 218.044488 
L 213.861087 252.674013 
L 215.920784 228.136521 
L 217.980576 236.930202 
L 220.096311 229.632143 
L 222.153335 252.110895 
L 224.213145 201.041404 
L 228.334466 255.368267 
L 230.393739 257.359526 
L 232.453862 226.330547 
L 234.511645 244.982397 
L 236.573139 244.931301 
L 240.692711 255.156605 
L 242.752117 241.384057 
L 244.811912 212.341063 
L 246.872705 252.872047 
L 248.930951 246.858107 
L 250.990799 230.494085 
L 253.050783 248.100044 
L 255.109048 248.324218 
L 257.168793 242.15432 
L 259.228208 217.115729 
L 261.288204 205.715872 
L 263.348254 247.429554 
L 265.408191 209.61964 
L 267.467904 237.194364 
L 271.587233 213.068627 
L 273.647364 249.236294 
L 275.706668 206.912716 
L 277.767121 248.190326 
L 279.828346 230.398391 
L 281.886385 211.028792 
L 283.948886 222.134815 
L 286.007134 260.571886 
L 288.066931 210.86991 
L 290.126887 211.23273 
L 292.18671 201.235835 
L 294.247039 211.511548 
L 296.306701 210.318188 
L 298.366231 200.896614 
L 300.426203 204.416927 
L 302.48568 217.062262 
L 304.54544 216.532535 
L 306.60524 204.018935 
L 308.664716 224.836352 
L 310.724577 214.721027 
L 314.844347 250.423016 
L 316.904295 203.026408 
L 318.963691 257.019728 
L 321.023167 246.019693 
L 323.083413 252.390317 
L 325.140594 215.306397 
L 327.199991 245.843533 
L 329.259918 248.816745 
L 331.320587 223.510713 
L 335.398262 253.495396 
L 337.458369 221.462153 
L 339.518179 246.858348 
L 341.57801 257.588362 
L 343.637029 243.490908 
L 345.090636 -1 
M 346.287631 -1 
L 347.756464 252.513072 
L 349.816213 251.60438 
L 351.875921 228.733135 
L 353.935743 246.985782 
L 355.995447 204.459421 
L 358.055282 207.065985 
L 360.115183 244.563979 
L 362.176015 248.957583 
L 364.234742 246.988241 
L 366.295352 242.485736 
L 368.354847 251.308153 
L 370.414577 245.543082 
L 372.473592 241.540568 
L 374.533463 228.956274 
L 376.593235 246.554938 
L 378.65283 252.802218 
L 382.772898 237.254385 
L 386.894733 248.513604 
L 388.954919 230.096638 
L 391.013691 244.403963 
L 395.133807 247.689228 
L 397.193314 232.582127 
L 399.25293 233.294019 
L 401.313022 237.639613 
L 403.372766 247.545213 
L 405.435044 250.1567 
L 407.493844 259.030911 
L 409.552182 245.172985 
L 411.609752 251.509808 
L 413.669099 251.880922 
L 415.729105 247.843194 
L 417.788665 253.051383 
L 419.84965 245.321673 
L 421.90928 244.297899 
L 423.969098 244.252889 
L 426.027819 251.659983 
L 428.13983 247.755716 
L 430.198897 250.634407 
L 432.258387 249.226773 
L 434.317979 225.310114 
L 436.377686 248.503567 
L 438.437266 252.656193 
L 440.497092 248.85967 
L 442.556928 253.946661 
L 444.616581 251.524743 
L 446.676184 250.483506 
L 448.736225 252.089553 
L 450.795774 247.510767 
L 452.855274 254.43127 
L 456.974639 204.505537 
L 459.035237 248.443387 
L 463.15421 232.09355 
L 467.273206 214.120626 
L 469.333434 256.622905 
L 471.392261 248.832693 
L 473.45201 251.746627 
L 475.511923 245.674922 
L 477.571761 247.625394 
L 479.633418 251.07674 
L 481.692952 213.431626 
L 483.751294 254.840099 
L 485.810807 251.543045 
L 487.870322 253.949804 
L 489.929929 215.894319 
L 491.989719 250.279676 
L 496.109187 206.278571 
L 498.168902 252.137283 
L 500.228802 226.791493 
L 502.288442 207.144218 
L 504.348317 210.184634 
L 506.408589 216.886827 
L 508.467916 245.641474 
L 510.527273 204.777394 
L 512.587181 226.061462 
L 514.646868 211.72087 
L 516.706555 252.590562 
L 518.766304 224.635299 
L 520.826036 208.352022 
L 522.885792 212.407501 
L 524.945455 250.267982 
L 524.945455 250.267982 
" clip-path="url(#p36ec7a7a99)" style="fill: none; stroke: #1f77b4; stroke-width: 1.5; stroke-linecap: square"/>
   </g>
   <g id="line2d_27">
    <path d="M 79.854545 122.416281 
L 81.913975 205.879741 
L 83.973828 208.157192 
L 86.033207 127.390663 
L 88.092666 205.173738 
L 90.152157 210.030671 
L 92.211937 203.358257 
L 94.271598 128.170221 
L 96.331093 201.521449 
L 98.390977 206.050933 
L 100.451634 118.429742 
L 102.510294 207.022419 
L 104.570023 146.921429 
L 106.629977 201.726666 
L 108.689629 205.984992 
L 110.74982 206.642239 
L 114.869116 169.926487 
L 116.929184 207.636778 
L 118.988357 205.661185 
L 121.047943 209.84818 
L 123.233668 204.318159 
L 125.291988 203.248545 
L 127.352939 206.406045 
L 129.414337 200.891307 
L 131.471662 124.125416 
L 133.531001 213.678359 
L 135.590605 145.626334 
L 139.709796 210.752118 
L 141.769693 204.494285 
L 143.832037 203.630379 
L 145.889274 105.027332 
L 150.009222 207.051637 
L 152.068328 208.206582 
L 154.128058 134.456144 
L 156.188067 202.297465 
L 158.247509 205.391683 
L 160.30727 121.435172 
L 162.368121 204.647156 
L 164.427097 207.087464 
L 168.546716 105.652092 
L 170.60663 216.417408 
L 172.665884 209.055533 
L 174.726003 206.505618 
L 176.785639 206.346016 
L 178.848566 134.515278 
L 180.908738 130.811624 
L 182.968053 207.808284 
L 185.026907 205.346402 
L 187.086082 195.836392 
L 189.14574 208.344352 
L 191.205327 130.489868 
L 193.264963 183.859376 
L 195.325182 208.966158 
L 197.38502 204.205207 
L 199.445025 206.504663 
L 201.504723 123.968971 
L 203.564674 201.401548 
L 205.624615 217.752179 
L 207.684702 203.306281 
L 209.744128 206.590624 
L 211.801218 129.507339 
L 213.861087 201.741087 
L 215.920784 148.186672 
L 217.980576 151.772134 
L 220.096311 175.284081 
L 222.153335 213.053926 
L 224.213145 118.28154 
L 226.272788 148.294036 
L 228.334466 211.591281 
L 230.393739 213.459712 
L 232.453862 147.44692 
L 234.511645 159.345634 
L 236.573139 206.68439 
L 240.692711 217.75334 
L 242.752117 205.107084 
L 244.811912 126.743246 
L 246.872705 207.962486 
L 248.930951 205.777298 
L 250.990799 186.876911 
L 253.050783 207.759594 
L 255.109048 206.107308 
L 257.168793 199.980476 
L 259.228208 131.316016 
L 261.288204 123.766967 
L 263.348254 204.210255 
L 265.408191 127.199451 
L 267.467904 200.897225 
L 269.527299 183.708514 
L 271.587233 130.90572 
L 273.647364 203.265028 
L 275.706668 118.742913 
L 277.767121 211.642906 
L 279.828346 190.026362 
L 281.886385 128.063898 
L 283.948886 158.934909 
L 286.007134 218.001342 
L 288.066931 128.816808 
L 292.18671 134.340936 
L 294.247039 129.592882 
L 296.306701 131.330499 
L 298.366231 120.537228 
L 300.426203 125.924276 
L 302.48568 130.101263 
L 304.54544 132.406296 
L 306.60524 120.626722 
L 310.724577 133.614153 
L 314.844347 210.974087 
L 316.904295 121.835558 
L 318.963691 209.682613 
L 321.023167 203.983318 
L 323.083413 212.449321 
L 325.140594 132.962007 
L 327.199991 205.14664 
L 329.259918 212.114448 
L 331.320587 179.272767 
L 335.398262 217.358546 
L 337.458369 174.843914 
L 339.518179 203.875652 
L 341.57801 213.084952 
L 343.637029 198.708547 
L 344.854652 -1 
M 346.511757 -1 
L 347.756464 209.992385 
L 349.816213 206.670241 
L 351.875921 175.444483 
L 353.935743 207.050075 
L 355.995447 124.900101 
L 358.055282 120.108386 
L 360.115183 204.879601 
L 362.176015 205.256424 
L 364.234742 205.113886 
L 366.295352 205.877677 
L 368.354847 205.78631 
L 370.414577 208.334287 
L 372.473592 201.135141 
L 374.533463 147.973553 
L 376.593235 204.390542 
L 378.65283 214.376381 
L 382.772898 154.124368 
L 384.836689 201.320219 
L 386.894733 205.668971 
L 388.954919 152.354284 
L 391.013691 201.572608 
L 395.133807 206.413179 
L 397.193314 152.242804 
L 399.25293 153.089326 
L 401.313022 150.485155 
L 403.372766 205.954504 
L 405.435044 208.318435 
L 407.493844 218.179784 
L 409.552182 208.381652 
L 411.609752 210.738133 
L 413.669099 209.532928 
L 415.729105 210.602395 
L 417.788665 208.312468 
L 419.84965 204.738781 
L 421.90928 203.017905 
L 423.969098 203.843853 
L 426.027819 209.225159 
L 428.13983 208.706231 
L 430.198897 206.791034 
L 432.258387 206.752467 
L 434.317979 177.789585 
L 436.377686 210.381874 
L 438.437266 215.28755 
L 440.497092 208.003761 
L 442.556928 214.386934 
L 444.616581 209.619892 
L 446.676184 216.361775 
L 448.736225 206.886753 
L 450.795774 205.769174 
L 452.855274 218.983714 
L 456.974639 121.8317 
L 459.035237 209.178522 
L 461.094199 204.42964 
L 463.15421 193.540444 
L 467.273206 131.657178 
L 469.333434 209.249295 
L 471.392261 204.807085 
L 473.45201 211.398585 
L 475.511923 206.684901 
L 477.571761 210.61922 
L 479.633418 215.554761 
L 481.692952 133.63994 
L 483.751294 218.272523 
L 485.810807 213.480925 
L 487.870322 211.042693 
L 489.929929 132.315626 
L 491.989719 214.401807 
L 496.109187 120 
L 498.168902 212.256097 
L 500.228802 165.488735 
L 502.288442 127.081571 
L 504.348317 132.978814 
L 506.408589 133.270941 
L 508.467916 204.920457 
L 510.527273 120.919682 
L 512.587181 126.623857 
L 514.646868 127.277078 
L 516.706555 207.801706 
L 518.766304 148.743371 
L 520.826036 124.732775 
L 522.885792 127.527611 
L 524.945455 209.58082 
L 524.945455 209.58082 
" clip-path="url(#p36ec7a7a99)" style="fill: none; stroke: #ff7f0e; stroke-width: 1.5; stroke-linecap: square"/>
   </g>
   <g id="patch_3">
    <path d="M 57.6 288 
L 57.6 36 
" style="fill: none; stroke: #000000; stroke-width: 0.8; stroke-linejoin: miter; stroke-linecap: square"/>
   </g>
   <g id="patch_4">
    <path d="M 547.2 288 
L 547.2 36 
" style="fill: none; stroke: #000000; stroke-width: 0.8; stroke-linejoin: miter; stroke-linecap: square"/>
   </g>
   <g id="patch_5">
    <path d="M 57.6 288 
L 547.2 288 
" style="fill: none; stroke: #000000; stroke-width: 0.8; stroke-linejoin: miter; stroke-linecap: square"/>
   </g>
   <g id="patch_6">
    <path d="M 57.6 36 
L 547.2 36 
" style="fill: none; stroke: #000000; stroke-width: 0.8; stroke-linejoin: miter; stroke-linecap: square"/>
   </g>
   <g id="text_18">
    <!-- Czas do uzyskania potwierdzen transakcji dla sieci 'Polygon' -->
    <g transform="translate(122.015625 30)scale(0.12 -0.12)">
     <defs>
      <path id="DejaVuSans-64" d="M 2906 2969 
L 2906 4863 
L 3481 4863 
L 3481 0 
L 2906 0 
L 2906 525 
Q 2725 213 2448 61 
Q 2172 -91 1784 -91 
Q 1150 -91 751 415 
Q 353 922 353 1747 
Q 353 2572 751 3078 
Q 1150 3584 1784 3584 
Q 2172 3584 2448 3432 
Q 2725 3281 2906 2969 
z
M 947 1747 
Q 947 1113 1208 752 
Q 1469 391 1925 391 
Q 2381 391 2643 752 
Q 2906 1113 2906 1747 
Q 2906 2381 2643 2742 
Q 2381 3103 1925 3103 
Q 1469 3103 1208 2742 
Q 947 2381 947 1747 
z
" transform="scale(0.015625)"/>
      <path id="DejaVuSans-6f" d="M 1959 3097 
Q 1497 3097 1228 2736 
Q 959 2375 959 1747 
Q 959 1119 1226 758 
Q 1494 397 1959 397 
Q 2419 397 2687 759 
Q 2956 1122 2956 1747 
Q 2956 2369 2687 2733 
Q 2419 3097 1959 3097 
z
M 1959 3584 
Q 2709 3584 3137 3096 
Q 3566 2609 3566 1747 
Q 3566 888 3137 398 
Q 2709 -91 1959 -91 
Q 1206 -91 779 398 
Q 353 888 353 1747 
Q 353 2609 779 3096 
Q 1206 3584 1959 3584 
z
" transform="scale(0.015625)"/>
      <path id="DejaVuSans-75" d="M 544 1381 
L 544 3500 
L 1119 3500 
L 1119 1403 
Q 1119 906 1312 657 
Q 1506 409 1894 409 
Q 2359 409 2629 706 
Q 2900 1003 2900 1516 
L 2900 3500 
L 3475 3500 
L 3475 0 
L 2900 0 
L 2900 538 
Q 2691 219 2414 64 
Q 2138 -91 1772 -91 
Q 1169 -91 856 284 
Q 544 659 544 1381 
z
M 1991 3584 
L 1991 3584 
z
" transform="scale(0.015625)"/>
      <path id="DejaVuSans-79" d="M 2059 -325 
Q 1816 -950 1584 -1140 
Q 1353 -1331 966 -1331 
L 506 -1331 
L 506 -850 
L 844 -850 
Q 1081 -850 1212 -737 
Q 1344 -625 1503 -206 
L 1606 56 
L 191 3500 
L 800 3500 
L 1894 763 
L 2988 3500 
L 3597 3500 
L 2059 -325 
z
" transform="scale(0.015625)"/>
      <path id="DejaVuSans-6b" d="M 581 4863 
L 1159 4863 
L 1159 1991 
L 2875 3500 
L 3609 3500 
L 1753 1863 
L 3688 0 
L 2938 0 
L 1159 1709 
L 1159 0 
L 581 0 
L 581 4863 
z
" transform="scale(0.015625)"/>
      <path id="DejaVuSans-6e" d="M 3513 2113 
L 3513 0 
L 2938 0 
L 2938 2094 
Q 2938 2591 2744 2837 
Q 2550 3084 2163 3084 
Q 1697 3084 1428 2787 
Q 1159 2491 1159 1978 
L 1159 0 
L 581 0 
L 581 3500 
L 1159 3500 
L 1159 2956 
Q 1366 3272 1645 3428 
Q 1925 3584 2291 3584 
Q 2894 3584 3203 3211 
Q 3513 2838 3513 2113 
z
" transform="scale(0.015625)"/>
      <path id="DejaVuSans-69" d="M 603 3500 
L 1178 3500 
L 1178 0 
L 603 0 
L 603 3500 
z
M 603 4863 
L 1178 4863 
L 1178 4134 
L 603 4134 
L 603 4863 
z
" transform="scale(0.015625)"/>
      <path id="DejaVuSans-70" d="M 1159 525 
L 1159 -1331 
L 581 -1331 
L 581 3500 
L 1159 3500 
L 1159 2969 
Q 1341 3281 1617 3432 
Q 1894 3584 2278 3584 
Q 2916 3584 3314 3078 
Q 3713 2572 3713 1747 
Q 3713 922 3314 415 
Q 2916 -91 2278 -91 
Q 1894 -91 1617 61 
Q 1341 213 1159 525 
z
M 3116 1747 
Q 3116 2381 2855 2742 
Q 2594 3103 2138 3103 
Q 1681 3103 1420 2742 
Q 1159 2381 1159 1747 
Q 1159 1113 1420 752 
Q 1681 391 2138 391 
Q 2594 391 2855 752 
Q 3116 1113 3116 1747 
z
" transform="scale(0.015625)"/>
      <path id="DejaVuSans-77" d="M 269 3500 
L 844 3500 
L 1563 769 
L 2278 3500 
L 2956 3500 
L 3675 769 
L 4391 3500 
L 4966 3500 
L 4050 0 
L 3372 0 
L 2619 2869 
L 1863 0 
L 1184 0 
L 269 3500 
z
" transform="scale(0.015625)"/>
      <path id="DejaVuSans-65" d="M 3597 1894 
L 3597 1613 
L 953 1613 
Q 991 1019 1311 708 
Q 1631 397 2203 397 
Q 2534 397 2845 478 
Q 3156 559 3463 722 
L 3463 178 
Q 3153 47 2828 -22 
Q 2503 -91 2169 -91 
Q 1331 -91 842 396 
Q 353 884 353 1716 
Q 353 2575 817 3079 
Q 1281 3584 2069 3584 
Q 2775 3584 3186 3129 
Q 3597 2675 3597 1894 
z
M 3022 2063 
Q 3016 2534 2758 2815 
Q 2500 3097 2075 3097 
Q 1594 3097 1305 2825 
Q 1016 2553 972 2059 
L 3022 2063 
z
" transform="scale(0.015625)"/>
      <path id="DejaVuSans-72" d="M 2631 2963 
Q 2534 3019 2420 3045 
Q 2306 3072 2169 3072 
Q 1681 3072 1420 2755 
Q 1159 2438 1159 1844 
L 1159 0 
L 581 0 
L 581 3500 
L 1159 3500 
L 1159 2956 
Q 1341 3275 1631 3429 
Q 1922 3584 2338 3584 
Q 2397 3584 2469 3576 
Q 2541 3569 2628 3553 
L 2631 2963 
z
" transform="scale(0.015625)"/>
      <path id="DejaVuSans-63" d="M 3122 3366 
L 3122 2828 
Q 2878 2963 2633 3030 
Q 2388 3097 2138 3097 
Q 1578 3097 1268 2742 
Q 959 2388 959 1747 
Q 959 1106 1268 751 
Q 1578 397 2138 397 
Q 2388 397 2633 464 
Q 2878 531 3122 666 
L 3122 134 
Q 2881 22 2623 -34 
Q 2366 -91 2075 -91 
Q 1284 -91 818 406 
Q 353 903 353 1747 
Q 353 2603 823 3093 
Q 1294 3584 2113 3584 
Q 2378 3584 2631 3529 
Q 2884 3475 3122 3366 
z
" transform="scale(0.015625)"/>
      <path id="DejaVuSans-6a" d="M 603 3500 
L 1178 3500 
L 1178 -63 
Q 1178 -731 923 -1031 
Q 669 -1331 103 -1331 
L -116 -1331 
L -116 -844 
L 38 -844 
Q 366 -844 484 -692 
Q 603 -541 603 -63 
L 603 3500 
z
M 603 4863 
L 1178 4863 
L 1178 4134 
L 603 4134 
L 603 4863 
z
" transform="scale(0.015625)"/>
      <path id="DejaVuSans-6c" d="M 603 4863 
L 1178 4863 
L 1178 0 
L 603 0 
L 603 4863 
z
" transform="scale(0.015625)"/>
      <path id="DejaVuSans-27" d="M 1147 4666 
L 1147 2931 
L 616 2931 
L 616 4666 
L 1147 4666 
z
" transform="scale(0.015625)"/>
      <path id="DejaVuSans-50" d="M 1259 4147 
L 1259 2394 
L 2053 2394 
Q 2494 2394 2734 2622 
Q 2975 2850 2975 3272 
Q 2975 3691 2734 3919 
Q 2494 4147 2053 4147 
L 1259 4147 
z
M 628 4666 
L 2053 4666 
Q 2838 4666 3239 4311 
Q 3641 3956 3641 3272 
Q 3641 2581 3239 2228 
Q 2838 1875 2053 1875 
L 1259 1875 
L 1259 0 
L 628 0 
L 628 4666 
z
" transform="scale(0.015625)"/>
      <path id="DejaVuSans-67" d="M 2906 1791 
Q 2906 2416 2648 2759 
Q 2391 3103 1925 3103 
Q 1463 3103 1205 2759 
Q 947 2416 947 1791 
Q 947 1169 1205 825 
Q 1463 481 1925 481 
Q 2391 481 2648 825 
Q 2906 1169 2906 1791 
z
M 3481 434 
Q 3481 -459 3084 -895 
Q 2688 -1331 1869 -1331 
Q 1566 -1331 1297 -1286 
Q 1028 -1241 775 -1147 
L 775 -588 
Q 1028 -725 1275 -790 
Q 1522 -856 1778 -856 
Q 2344 -856 2625 -561 
Q 2906 -266 2906 331 
L 2906 616 
Q 2728 306 2450 153 
Q 2172 0 1784 0 
Q 1141 0 747 490 
Q 353 981 353 1791 
Q 353 2603 747 3093 
Q 1141 3584 1784 3584 
Q 2172 3584 2450 3431 
Q 2728 3278 2906 2969 
L 2906 3500 
L 3481 3500 
L 3481 434 
z
" transform="scale(0.015625)"/>
     </defs>
     <use xlink:href="#DejaVuSans-43"/>
     <use xlink:href="#DejaVuSans-7a" x="69.824219"/>
     <use xlink:href="#DejaVuSans-61" x="122.314453"/>
     <use xlink:href="#DejaVuSans-73" x="183.59375"/>
     <use xlink:href="#DejaVuSans-20" x="235.693359"/>
     <use xlink:href="#DejaVuSans-64" x="267.480469"/>
     <use xlink:href="#DejaVuSans-6f" x="330.957031"/>
     <use xlink:href="#DejaVuSans-20" x="392.138672"/>
     <use xlink:href="#DejaVuSans-75" x="423.925781"/>
     <use xlink:href="#DejaVuSans-7a" x="487.304688"/>
     <use xlink:href="#DejaVuSans-79" x="539.794922"/>
     <use xlink:href="#DejaVuSans-73" x="598.974609"/>
     <use xlink:href="#DejaVuSans-6b" x="651.074219"/>
     <use xlink:href="#DejaVuSans-61" x="707.234375"/>
     <use xlink:href="#DejaVuSans-6e" x="768.513672"/>
     <use xlink:href="#DejaVuSans-69" x="831.892578"/>
     <use xlink:href="#DejaVuSans-61" x="859.675781"/>
     <use xlink:href="#DejaVuSans-20" x="920.955078"/>
     <use xlink:href="#DejaVuSans-70" x="952.742188"/>
     <use xlink:href="#DejaVuSans-6f" x="1016.21875"/>
     <use xlink:href="#DejaVuSans-74" x="1077.400391"/>
     <use xlink:href="#DejaVuSans-77" x="1116.609375"/>
     <use xlink:href="#DejaVuSans-69" x="1198.396484"/>
     <use xlink:href="#DejaVuSans-65" x="1226.179688"/>
     <use xlink:href="#DejaVuSans-72" x="1287.703125"/>
     <use xlink:href="#DejaVuSans-64" x="1327.066406"/>
     <use xlink:href="#DejaVuSans-7a" x="1390.542969"/>
     <use xlink:href="#DejaVuSans-65" x="1443.033203"/>
     <use xlink:href="#DejaVuSans-6e" x="1504.556641"/>
     <use xlink:href="#DejaVuSans-20" x="1567.935547"/>
     <use xlink:href="#DejaVuSans-74" x="1599.722656"/>
     <use xlink:href="#DejaVuSans-72" x="1638.931641"/>
     <use xlink:href="#DejaVuSans-61" x="1680.044922"/>
     <use xlink:href="#DejaVuSans-6e" x="1741.324219"/>
     <use xlink:href="#DejaVuSans-73" x="1804.703125"/>
     <use xlink:href="#DejaVuSans-61" x="1856.802734"/>
     <use xlink:href="#DejaVuSans-6b" x="1918.082031"/>
     <use xlink:href="#DejaVuSans-63" x="1975.992188"/>
     <use xlink:href="#DejaVuSans-6a" x="2030.972656"/>
     <use xlink:href="#DejaVuSans-69" x="2058.755859"/>
     <use xlink:href="#DejaVuSans-20" x="2086.539062"/>
     <use xlink:href="#DejaVuSans-64" x="2118.326172"/>
     <use xlink:href="#DejaVuSans-6c" x="2181.802734"/>
     <use xlink:href="#DejaVuSans-61" x="2209.585938"/>
     <use xlink:href="#DejaVuSans-20" x="2270.865234"/>
     <use xlink:href="#DejaVuSans-73" x="2302.652344"/>
     <use xlink:href="#DejaVuSans-69" x="2354.751953"/>
     <use xlink:href="#DejaVuSans-65" x="2382.535156"/>
     <use xlink:href="#DejaVuSans-63" x="2444.058594"/>
     <use xlink:href="#DejaVuSans-69" x="2499.039062"/>
     <use xlink:href="#DejaVuSans-20" x="2526.822266"/>
     <use xlink:href="#DejaVuSans-27" x="2558.609375"/>
     <use xlink:href="#DejaVuSans-50" x="2586.099609"/>
     <use xlink:href="#DejaVuSans-6f" x="2642.777344"/>
     <use xlink:href="#DejaVuSans-6c" x="2703.958984"/>
     <use xlink:href="#DejaVuSans-79" x="2731.742188"/>
     <use xlink:href="#DejaVuSans-67" x="2790.921875"/>
     <use xlink:href="#DejaVuSans-6f" x="2854.398438"/>
     <use xlink:href="#DejaVuSans-6e" x="2915.580078"/>
     <use xlink:href="#DejaVuSans-27" x="2978.958984"/>
    </g>
   </g>
   <g id="legend_1">
    <g id="patch_7">
     <path d="M 410.392187 73.35625 
L 540.2 73.35625 
Q 542.2 73.35625 542.2 71.35625 
L 542.2 43 
Q 542.2 41 540.2 41 
L 410.392187 41 
Q 408.392187 41 408.392187 43 
L 408.392187 71.35625 
Q 408.392187 73.35625 410.392187 73.35625 
z
" style="fill: #ffffff; opacity: 0.8; stroke: #cccccc; stroke-linejoin: miter"/>
    </g>
    <g id="line2d_28">
     <path d="M 412.392187 49.098438 
L 422.392187 49.098438 
L 432.392187 49.098438 
" style="fill: none; stroke: #1f77b4; stroke-width: 1.5; stroke-linecap: square"/>
    </g>
    <g id="text_19">
     <!-- Czas 2 potwierdzen -->
     <g transform="translate(440.392187 52.598438)scale(0.1 -0.1)">
      <use xlink:href="#DejaVuSans-43"/>
      <use xlink:href="#DejaVuSans-7a" x="69.824219"/>
      <use xlink:href="#DejaVuSans-61" x="122.314453"/>
      <use xlink:href="#DejaVuSans-73" x="183.59375"/>
      <use xlink:href="#DejaVuSans-20" x="235.693359"/>
      <use xlink:href="#DejaVuSans-32" x="267.480469"/>
      <use xlink:href="#DejaVuSans-20" x="331.103516"/>
      <use xlink:href="#DejaVuSans-70" x="362.890625"/>
      <use xlink:href="#DejaVuSans-6f" x="426.367188"/>
      <use xlink:href="#DejaVuSans-74" x="487.548828"/>
      <use xlink:href="#DejaVuSans-77" x="526.757812"/>
      <use xlink:href="#DejaVuSans-69" x="608.544922"/>
      <use xlink:href="#DejaVuSans-65" x="636.328125"/>
      <use xlink:href="#DejaVuSans-72" x="697.851562"/>
      <use xlink:href="#DejaVuSans-64" x="737.214844"/>
      <use xlink:href="#DejaVuSans-7a" x="800.691406"/>
      <use xlink:href="#DejaVuSans-65" x="853.181641"/>
      <use xlink:href="#DejaVuSans-6e" x="914.705078"/>
     </g>
    </g>
    <g id="line2d_29">
     <path d="M 412.392187 63.776563 
L 422.392187 63.776563 
L 432.392187 63.776563 
" style="fill: none; stroke: #ff7f0e; stroke-width: 1.5; stroke-linecap: square"/>
    </g>
    <g id="text_20">
     <!-- Czas 5 potwierdzen -->
     <g transform="translate(440.392187 67.276563)scale(0.1 -0.1)">
      <use xlink:href="#DejaVuSans-43"/>
      <use xlink:href="#DejaVuSans-7a" x="69.824219"/>
      <use xlink:href="#DejaVuSans-61" x="122.314453"/>
      <use xlink:href="#DejaVuSans-73" x="183.59375"/>
      <use xlink:href="#DejaVuSans-20" x="235.693359"/>
      <use xlink:href="#DejaVuSans-35" x="267.480469"/>
      <use xlink:href="#DejaVuSans-20" x="331.103516"/>
      <use xlink:href="#DejaVuSans-70" x="362.890625"/>
      <use xlink:href="#DejaVuSans-6f" x="426.367188"/>
      <use xlink:href="#DejaVuSans-74" x="487.548828"/>
      <use xlink:href="#DejaVuSans-77" x="526.757812"/>
      <use xlink:href="#DejaVuSans-69" x="608.544922"/>
      <use xlink:href="#DejaVuSans-65" x="636.328125"/>
      <use xlink:href="#DejaVuSans-72" x="697.851562"/>
      <use xlink:href="#DejaVuSans-64" x="737.214844"/>
      <use xlink:href="#DejaVuSans-7a" x="800.691406"/>
      <use xlink:href="#DejaVuSans-65" x="853.181641"/>
      <use xlink:href="#DejaVuSans-6e" x="914.705078"/>
     </g>
    </g>
   </g>
  </g>
 </g>
 <defs>
  <clipPath id="p36ec7a7a99">
   <rect x="57.6" y="36" width="489.6" height="252"/>
  </clipPath>
 </defs>
</svg>
