<?xml version="1.0" encoding="utf-8" standalone="no"?>
<!DOCTYPE svg PUBLIC "-//W3C//DTD SVG 1.1//EN"
  "http://www.w3.org/Graphics/SVG/1.1/DTD/svg11.dtd">
<svg xmlns:xlink="http://www.w3.org/1999/xlink" width="576pt" height="360pt" viewBox="0 0 576 360" xmlns="http://www.w3.org/2000/svg" version="1.1">
 <metadata>
  <rdf:RDF xmlns:dc="http://purl.org/dc/elements/1.1/" xmlns:cc="http://creativecommons.org/ns#" xmlns:rdf="http://www.w3.org/1999/02/22-rdf-syntax-ns#">
   <cc:Work>
    <dc:type rdf:resource="http://purl.org/dc/dcmitype/StillImage"/>
    <dc:date>2022-08-15T18:19:07.234608</dc:date>
    <dc:format>image/svg+xml</dc:format>
    <dc:creator>
     <cc:Agent>
      <dc:title>Matplotlib v3.5.2, https://matplotlib.org/</dc:title>
     </cc:Agent>
    </dc:creator>
   </cc:Work>
  </rdf:RDF>
 </metadata>
 <defs>
  <style type="text/css">*{stroke-linejoin: round; stroke-linecap: butt}</style>
 </defs>
 <g id="figure_1">
  <g id="patch_1">
   <path d="M 0 360 
L 576 360 
L 576 0 
L 0 0 
z
" style="fill: #ffffff"/>
  </g>
  <g id="axes_1">
   <g id="patch_2">
    <path d="M 57.6 288 
L 547.2 288 
L 547.2 36 
L 57.6 36 
z
" style="fill: #ffffff"/>
   </g>
   <g id="matplotlib.axis_1">
    <g id="xtick_1">
     <g id="line2d_1">
      <path d="M 87.451141 288 
L 87.451141 36 
" clip-path="url(#p857c6079a5)" style="fill: none; stroke: #b0b0b0; stroke-opacity: 0.7; stroke-width: 0.8; stroke-linecap: square"/>
     </g>
     <g id="line2d_2">
      <defs>
       <path id="m5931362753" d="M 0 0 
L 0 3.5 
" style="stroke: #000000; stroke-width: 0.8"/>
      </defs>
      <g>
       <use xlink:href="#m5931362753" x="87.451141" y="288" style="stroke: #000000; stroke-width: 0.8"/>
      </g>
     </g>
     <g id="text_1">
      <!-- 01.08.2022 -->
      <g transform="translate(45.494298 340.859189)rotate(-45)scale(0.1 -0.1)">
       <defs>
        <path id="DejaVuSans-30" d="M 2034 4250 
Q 1547 4250 1301 3770 
Q 1056 3291 1056 2328 
Q 1056 1369 1301 889 
Q 1547 409 2034 409 
Q 2525 409 2770 889 
Q 3016 1369 3016 2328 
Q 3016 3291 2770 3770 
Q 2525 4250 2034 4250 
z
M 2034 4750 
Q 2819 4750 3233 4129 
Q 3647 3509 3647 2328 
Q 3647 1150 3233 529 
Q 2819 -91 2034 -91 
Q 1250 -91 836 529 
Q 422 1150 422 2328 
Q 422 3509 836 4129 
Q 1250 4750 2034 4750 
z
" transform="scale(0.015625)"/>
        <path id="DejaVuSans-31" d="M 794 531 
L 1825 531 
L 1825 4091 
L 703 3866 
L 703 4441 
L 1819 4666 
L 2450 4666 
L 2450 531 
L 3481 531 
L 3481 0 
L 794 0 
L 794 531 
z
" transform="scale(0.015625)"/>
        <path id="DejaVuSans-2e" d="M 684 794 
L 1344 794 
L 1344 0 
L 684 0 
L 684 794 
z
" transform="scale(0.015625)"/>
        <path id="DejaVuSans-38" d="M 2034 2216 
Q 1584 2216 1326 1975 
Q 1069 1734 1069 1313 
Q 1069 891 1326 650 
Q 1584 409 2034 409 
Q 2484 409 2743 651 
Q 3003 894 3003 1313 
Q 3003 1734 2745 1975 
Q 2488 2216 2034 2216 
z
M 1403 2484 
Q 997 2584 770 2862 
Q 544 3141 544 3541 
Q 544 4100 942 4425 
Q 1341 4750 2034 4750 
Q 2731 4750 3128 4425 
Q 3525 4100 3525 3541 
Q 3525 3141 3298 2862 
Q 3072 2584 2669 2484 
Q 3125 2378 3379 2068 
Q 3634 1759 3634 1313 
Q 3634 634 3220 271 
Q 2806 -91 2034 -91 
Q 1263 -91 848 271 
Q 434 634 434 1313 
Q 434 1759 690 2068 
Q 947 2378 1403 2484 
z
M 1172 3481 
Q 1172 3119 1398 2916 
Q 1625 2713 2034 2713 
Q 2441 2713 2670 2916 
Q 2900 3119 2900 3481 
Q 2900 3844 2670 4047 
Q 2441 4250 2034 4250 
Q 1625 4250 1398 4047 
Q 1172 3844 1172 3481 
z
" transform="scale(0.015625)"/>
        <path id="DejaVuSans-32" d="M 1228 531 
L 3431 531 
L 3431 0 
L 469 0 
L 469 531 
Q 828 903 1448 1529 
Q 2069 2156 2228 2338 
Q 2531 2678 2651 2914 
Q 2772 3150 2772 3378 
Q 2772 3750 2511 3984 
Q 2250 4219 1831 4219 
Q 1534 4219 1204 4116 
Q 875 4013 500 3803 
L 500 4441 
Q 881 4594 1212 4672 
Q 1544 4750 1819 4750 
Q 2544 4750 2975 4387 
Q 3406 4025 3406 3419 
Q 3406 3131 3298 2873 
Q 3191 2616 2906 2266 
Q 2828 2175 2409 1742 
Q 1991 1309 1228 531 
z
" transform="scale(0.015625)"/>
       </defs>
       <use xlink:href="#DejaVuSans-30"/>
       <use xlink:href="#DejaVuSans-31" x="63.623047"/>
       <use xlink:href="#DejaVuSans-2e" x="127.246094"/>
       <use xlink:href="#DejaVuSans-30" x="159.033203"/>
       <use xlink:href="#DejaVuSans-38" x="222.65625"/>
       <use xlink:href="#DejaVuSans-2e" x="286.279297"/>
       <use xlink:href="#DejaVuSans-32" x="318.066406"/>
       <use xlink:href="#DejaVuSans-30" x="381.689453"/>
       <use xlink:href="#DejaVuSans-32" x="445.3125"/>
       <use xlink:href="#DejaVuSans-32" x="508.935547"/>
      </g>
     </g>
    </g>
    <g id="xtick_2">
     <g id="line2d_3">
      <path d="M 136.88343 288 
L 136.88343 36 
" clip-path="url(#p857c6079a5)" style="fill: none; stroke: #b0b0b0; stroke-opacity: 0.7; stroke-width: 0.8; stroke-linecap: square"/>
     </g>
     <g id="line2d_4">
      <g>
       <use xlink:href="#m5931362753" x="136.88343" y="288" style="stroke: #000000; stroke-width: 0.8"/>
      </g>
     </g>
     <g id="text_2">
      <!-- 02.08.2022 -->
      <g transform="translate(94.926586 340.859189)rotate(-45)scale(0.1 -0.1)">
       <use xlink:href="#DejaVuSans-30"/>
       <use xlink:href="#DejaVuSans-32" x="63.623047"/>
       <use xlink:href="#DejaVuSans-2e" x="127.246094"/>
       <use xlink:href="#DejaVuSans-30" x="159.033203"/>
       <use xlink:href="#DejaVuSans-38" x="222.65625"/>
       <use xlink:href="#DejaVuSans-2e" x="286.279297"/>
       <use xlink:href="#DejaVuSans-32" x="318.066406"/>
       <use xlink:href="#DejaVuSans-30" x="381.689453"/>
       <use xlink:href="#DejaVuSans-32" x="445.3125"/>
       <use xlink:href="#DejaVuSans-32" x="508.935547"/>
      </g>
     </g>
    </g>
    <g id="xtick_3">
     <g id="line2d_5">
      <path d="M 186.315719 288 
L 186.315719 36 
" clip-path="url(#p857c6079a5)" style="fill: none; stroke: #b0b0b0; stroke-opacity: 0.7; stroke-width: 0.8; stroke-linecap: square"/>
     </g>
     <g id="line2d_6">
      <g>
       <use xlink:href="#m5931362753" x="186.315719" y="288" style="stroke: #000000; stroke-width: 0.8"/>
      </g>
     </g>
     <g id="text_3">
      <!-- 03.08.2022 -->
      <g transform="translate(144.358875 340.859189)rotate(-45)scale(0.1 -0.1)">
       <defs>
        <path id="DejaVuSans-33" d="M 2597 2516 
Q 3050 2419 3304 2112 
Q 3559 1806 3559 1356 
Q 3559 666 3084 287 
Q 2609 -91 1734 -91 
Q 1441 -91 1130 -33 
Q 819 25 488 141 
L 488 750 
Q 750 597 1062 519 
Q 1375 441 1716 441 
Q 2309 441 2620 675 
Q 2931 909 2931 1356 
Q 2931 1769 2642 2001 
Q 2353 2234 1838 2234 
L 1294 2234 
L 1294 2753 
L 1863 2753 
Q 2328 2753 2575 2939 
Q 2822 3125 2822 3475 
Q 2822 3834 2567 4026 
Q 2313 4219 1838 4219 
Q 1578 4219 1281 4162 
Q 984 4106 628 3988 
L 628 4550 
Q 988 4650 1302 4700 
Q 1616 4750 1894 4750 
Q 2613 4750 3031 4423 
Q 3450 4097 3450 3541 
Q 3450 3153 3228 2886 
Q 3006 2619 2597 2516 
z
" transform="scale(0.015625)"/>
       </defs>
       <use xlink:href="#DejaVuSans-30"/>
       <use xlink:href="#DejaVuSans-33" x="63.623047"/>
       <use xlink:href="#DejaVuSans-2e" x="127.246094"/>
       <use xlink:href="#DejaVuSans-30" x="159.033203"/>
       <use xlink:href="#DejaVuSans-38" x="222.65625"/>
       <use xlink:href="#DejaVuSans-2e" x="286.279297"/>
       <use xlink:href="#DejaVuSans-32" x="318.066406"/>
       <use xlink:href="#DejaVuSans-30" x="381.689453"/>
       <use xlink:href="#DejaVuSans-32" x="445.3125"/>
       <use xlink:href="#DejaVuSans-32" x="508.935547"/>
      </g>
     </g>
    </g>
    <g id="xtick_4">
     <g id="line2d_7">
      <path d="M 235.748007 288 
L 235.748007 36 
" clip-path="url(#p857c6079a5)" style="fill: none; stroke: #b0b0b0; stroke-opacity: 0.7; stroke-width: 0.8; stroke-linecap: square"/>
     </g>
     <g id="line2d_8">
      <g>
       <use xlink:href="#m5931362753" x="235.748007" y="288" style="stroke: #000000; stroke-width: 0.8"/>
      </g>
     </g>
     <g id="text_4">
      <!-- 04.08.2022 -->
      <g transform="translate(193.791163 340.859189)rotate(-45)scale(0.1 -0.1)">
       <defs>
        <path id="DejaVuSans-34" d="M 2419 4116 
L 825 1625 
L 2419 1625 
L 2419 4116 
z
M 2253 4666 
L 3047 4666 
L 3047 1625 
L 3713 1625 
L 3713 1100 
L 3047 1100 
L 3047 0 
L 2419 0 
L 2419 1100 
L 313 1100 
L 313 1709 
L 2253 4666 
z
" transform="scale(0.015625)"/>
       </defs>
       <use xlink:href="#DejaVuSans-30"/>
       <use xlink:href="#DejaVuSans-34" x="63.623047"/>
       <use xlink:href="#DejaVuSans-2e" x="127.246094"/>
       <use xlink:href="#DejaVuSans-30" x="159.033203"/>
       <use xlink:href="#DejaVuSans-38" x="222.65625"/>
       <use xlink:href="#DejaVuSans-2e" x="286.279297"/>
       <use xlink:href="#DejaVuSans-32" x="318.066406"/>
       <use xlink:href="#DejaVuSans-30" x="381.689453"/>
       <use xlink:href="#DejaVuSans-32" x="445.3125"/>
       <use xlink:href="#DejaVuSans-32" x="508.935547"/>
      </g>
     </g>
    </g>
    <g id="xtick_5">
     <g id="line2d_9">
      <path d="M 285.180296 288 
L 285.180296 36 
" clip-path="url(#p857c6079a5)" style="fill: none; stroke: #b0b0b0; stroke-opacity: 0.7; stroke-width: 0.8; stroke-linecap: square"/>
     </g>
     <g id="line2d_10">
      <g>
       <use xlink:href="#m5931362753" x="285.180296" y="288" style="stroke: #000000; stroke-width: 0.8"/>
      </g>
     </g>
     <g id="text_5">
      <!-- 05.08.2022 -->
      <g transform="translate(243.223452 340.859189)rotate(-45)scale(0.1 -0.1)">
       <defs>
        <path id="DejaVuSans-35" d="M 691 4666 
L 3169 4666 
L 3169 4134 
L 1269 4134 
L 1269 2991 
Q 1406 3038 1543 3061 
Q 1681 3084 1819 3084 
Q 2600 3084 3056 2656 
Q 3513 2228 3513 1497 
Q 3513 744 3044 326 
Q 2575 -91 1722 -91 
Q 1428 -91 1123 -41 
Q 819 9 494 109 
L 494 744 
Q 775 591 1075 516 
Q 1375 441 1709 441 
Q 2250 441 2565 725 
Q 2881 1009 2881 1497 
Q 2881 1984 2565 2268 
Q 2250 2553 1709 2553 
Q 1456 2553 1204 2497 
Q 953 2441 691 2322 
L 691 4666 
z
" transform="scale(0.015625)"/>
       </defs>
       <use xlink:href="#DejaVuSans-30"/>
       <use xlink:href="#DejaVuSans-35" x="63.623047"/>
       <use xlink:href="#DejaVuSans-2e" x="127.246094"/>
       <use xlink:href="#DejaVuSans-30" x="159.033203"/>
       <use xlink:href="#DejaVuSans-38" x="222.65625"/>
       <use xlink:href="#DejaVuSans-2e" x="286.279297"/>
       <use xlink:href="#DejaVuSans-32" x="318.066406"/>
       <use xlink:href="#DejaVuSans-30" x="381.689453"/>
       <use xlink:href="#DejaVuSans-32" x="445.3125"/>
       <use xlink:href="#DejaVuSans-32" x="508.935547"/>
      </g>
     </g>
    </g>
    <g id="xtick_6">
     <g id="line2d_11">
      <path d="M 334.612584 288 
L 334.612584 36 
" clip-path="url(#p857c6079a5)" style="fill: none; stroke: #b0b0b0; stroke-opacity: 0.7; stroke-width: 0.8; stroke-linecap: square"/>
     </g>
     <g id="line2d_12">
      <g>
       <use xlink:href="#m5931362753" x="334.612584" y="288" style="stroke: #000000; stroke-width: 0.8"/>
      </g>
     </g>
     <g id="text_6">
      <!-- 06.08.2022 -->
      <g transform="translate(292.655741 340.859189)rotate(-45)scale(0.1 -0.1)">
       <defs>
        <path id="DejaVuSans-36" d="M 2113 2584 
Q 1688 2584 1439 2293 
Q 1191 2003 1191 1497 
Q 1191 994 1439 701 
Q 1688 409 2113 409 
Q 2538 409 2786 701 
Q 3034 994 3034 1497 
Q 3034 2003 2786 2293 
Q 2538 2584 2113 2584 
z
M 3366 4563 
L 3366 3988 
Q 3128 4100 2886 4159 
Q 2644 4219 2406 4219 
Q 1781 4219 1451 3797 
Q 1122 3375 1075 2522 
Q 1259 2794 1537 2939 
Q 1816 3084 2150 3084 
Q 2853 3084 3261 2657 
Q 3669 2231 3669 1497 
Q 3669 778 3244 343 
Q 2819 -91 2113 -91 
Q 1303 -91 875 529 
Q 447 1150 447 2328 
Q 447 3434 972 4092 
Q 1497 4750 2381 4750 
Q 2619 4750 2861 4703 
Q 3103 4656 3366 4563 
z
" transform="scale(0.015625)"/>
       </defs>
       <use xlink:href="#DejaVuSans-30"/>
       <use xlink:href="#DejaVuSans-36" x="63.623047"/>
       <use xlink:href="#DejaVuSans-2e" x="127.246094"/>
       <use xlink:href="#DejaVuSans-30" x="159.033203"/>
       <use xlink:href="#DejaVuSans-38" x="222.65625"/>
       <use xlink:href="#DejaVuSans-2e" x="286.279297"/>
       <use xlink:href="#DejaVuSans-32" x="318.066406"/>
       <use xlink:href="#DejaVuSans-30" x="381.689453"/>
       <use xlink:href="#DejaVuSans-32" x="445.3125"/>
       <use xlink:href="#DejaVuSans-32" x="508.935547"/>
      </g>
     </g>
    </g>
    <g id="xtick_7">
     <g id="line2d_13">
      <path d="M 384.044873 288 
L 384.044873 36 
" clip-path="url(#p857c6079a5)" style="fill: none; stroke: #b0b0b0; stroke-opacity: 0.7; stroke-width: 0.8; stroke-linecap: square"/>
     </g>
     <g id="line2d_14">
      <g>
       <use xlink:href="#m5931362753" x="384.044873" y="288" style="stroke: #000000; stroke-width: 0.8"/>
      </g>
     </g>
     <g id="text_7">
      <!-- 07.08.2022 -->
      <g transform="translate(342.088029 340.859189)rotate(-45)scale(0.1 -0.1)">
       <defs>
        <path id="DejaVuSans-37" d="M 525 4666 
L 3525 4666 
L 3525 4397 
L 1831 0 
L 1172 0 
L 2766 4134 
L 525 4134 
L 525 4666 
z
" transform="scale(0.015625)"/>
       </defs>
       <use xlink:href="#DejaVuSans-30"/>
       <use xlink:href="#DejaVuSans-37" x="63.623047"/>
       <use xlink:href="#DejaVuSans-2e" x="127.246094"/>
       <use xlink:href="#DejaVuSans-30" x="159.033203"/>
       <use xlink:href="#DejaVuSans-38" x="222.65625"/>
       <use xlink:href="#DejaVuSans-2e" x="286.279297"/>
       <use xlink:href="#DejaVuSans-32" x="318.066406"/>
       <use xlink:href="#DejaVuSans-30" x="381.689453"/>
       <use xlink:href="#DejaVuSans-32" x="445.3125"/>
       <use xlink:href="#DejaVuSans-32" x="508.935547"/>
      </g>
     </g>
    </g>
    <g id="xtick_8">
     <g id="line2d_15">
      <path d="M 433.477161 288 
L 433.477161 36 
" clip-path="url(#p857c6079a5)" style="fill: none; stroke: #b0b0b0; stroke-opacity: 0.7; stroke-width: 0.8; stroke-linecap: square"/>
     </g>
     <g id="line2d_16">
      <g>
       <use xlink:href="#m5931362753" x="433.477161" y="288" style="stroke: #000000; stroke-width: 0.8"/>
      </g>
     </g>
     <g id="text_8">
      <!-- 08.08.2022 -->
      <g transform="translate(391.520318 340.859189)rotate(-45)scale(0.1 -0.1)">
       <use xlink:href="#DejaVuSans-30"/>
       <use xlink:href="#DejaVuSans-38" x="63.623047"/>
       <use xlink:href="#DejaVuSans-2e" x="127.246094"/>
       <use xlink:href="#DejaVuSans-30" x="159.033203"/>
       <use xlink:href="#DejaVuSans-38" x="222.65625"/>
       <use xlink:href="#DejaVuSans-2e" x="286.279297"/>
       <use xlink:href="#DejaVuSans-32" x="318.066406"/>
       <use xlink:href="#DejaVuSans-30" x="381.689453"/>
       <use xlink:href="#DejaVuSans-32" x="445.3125"/>
       <use xlink:href="#DejaVuSans-32" x="508.935547"/>
      </g>
     </g>
    </g>
    <g id="xtick_9">
     <g id="line2d_17">
      <path d="M 482.90945 288 
L 482.90945 36 
" clip-path="url(#p857c6079a5)" style="fill: none; stroke: #b0b0b0; stroke-opacity: 0.7; stroke-width: 0.8; stroke-linecap: square"/>
     </g>
     <g id="line2d_18">
      <g>
       <use xlink:href="#m5931362753" x="482.90945" y="288" style="stroke: #000000; stroke-width: 0.8"/>
      </g>
     </g>
     <g id="text_9">
      <!-- 09.08.2022 -->
      <g transform="translate(440.952606 340.859189)rotate(-45)scale(0.1 -0.1)">
       <defs>
        <path id="DejaVuSans-39" d="M 703 97 
L 703 672 
Q 941 559 1184 500 
Q 1428 441 1663 441 
Q 2288 441 2617 861 
Q 2947 1281 2994 2138 
Q 2813 1869 2534 1725 
Q 2256 1581 1919 1581 
Q 1219 1581 811 2004 
Q 403 2428 403 3163 
Q 403 3881 828 4315 
Q 1253 4750 1959 4750 
Q 2769 4750 3195 4129 
Q 3622 3509 3622 2328 
Q 3622 1225 3098 567 
Q 2575 -91 1691 -91 
Q 1453 -91 1209 -44 
Q 966 3 703 97 
z
M 1959 2075 
Q 2384 2075 2632 2365 
Q 2881 2656 2881 3163 
Q 2881 3666 2632 3958 
Q 2384 4250 1959 4250 
Q 1534 4250 1286 3958 
Q 1038 3666 1038 3163 
Q 1038 2656 1286 2365 
Q 1534 2075 1959 2075 
z
" transform="scale(0.015625)"/>
       </defs>
       <use xlink:href="#DejaVuSans-30"/>
       <use xlink:href="#DejaVuSans-39" x="63.623047"/>
       <use xlink:href="#DejaVuSans-2e" x="127.246094"/>
       <use xlink:href="#DejaVuSans-30" x="159.033203"/>
       <use xlink:href="#DejaVuSans-38" x="222.65625"/>
       <use xlink:href="#DejaVuSans-2e" x="286.279297"/>
       <use xlink:href="#DejaVuSans-32" x="318.066406"/>
       <use xlink:href="#DejaVuSans-30" x="381.689453"/>
       <use xlink:href="#DejaVuSans-32" x="445.3125"/>
       <use xlink:href="#DejaVuSans-32" x="508.935547"/>
      </g>
     </g>
    </g>
    <g id="xtick_10">
     <g id="line2d_19">
      <path d="M 532.341739 288 
L 532.341739 36 
" clip-path="url(#p857c6079a5)" style="fill: none; stroke: #b0b0b0; stroke-opacity: 0.7; stroke-width: 0.8; stroke-linecap: square"/>
     </g>
     <g id="line2d_20">
      <g>
       <use xlink:href="#m5931362753" x="532.341739" y="288" style="stroke: #000000; stroke-width: 0.8"/>
      </g>
     </g>
     <g id="text_10">
      <!-- 10.08.2022 -->
      <g transform="translate(490.384895 340.859189)rotate(-45)scale(0.1 -0.1)">
       <use xlink:href="#DejaVuSans-31"/>
       <use xlink:href="#DejaVuSans-30" x="63.623047"/>
       <use xlink:href="#DejaVuSans-2e" x="127.246094"/>
       <use xlink:href="#DejaVuSans-30" x="159.033203"/>
       <use xlink:href="#DejaVuSans-38" x="222.65625"/>
       <use xlink:href="#DejaVuSans-2e" x="286.279297"/>
       <use xlink:href="#DejaVuSans-32" x="318.066406"/>
       <use xlink:href="#DejaVuSans-30" x="381.689453"/>
       <use xlink:href="#DejaVuSans-32" x="445.3125"/>
       <use xlink:href="#DejaVuSans-32" x="508.935547"/>
      </g>
     </g>
    </g>
    <g id="text_11">
     <!-- Data -->
     <g transform="translate(290.461719 353.928188)scale(0.1 -0.1)">
      <defs>
       <path id="DejaVuSans-44" d="M 1259 4147 
L 1259 519 
L 2022 519 
Q 2988 519 3436 956 
Q 3884 1394 3884 2338 
Q 3884 3275 3436 3711 
Q 2988 4147 2022 4147 
L 1259 4147 
z
M 628 4666 
L 1925 4666 
Q 3281 4666 3915 4102 
Q 4550 3538 4550 2338 
Q 4550 1131 3912 565 
Q 3275 0 1925 0 
L 628 0 
L 628 4666 
z
" transform="scale(0.015625)"/>
       <path id="DejaVuSans-61" d="M 2194 1759 
Q 1497 1759 1228 1600 
Q 959 1441 959 1056 
Q 959 750 1161 570 
Q 1363 391 1709 391 
Q 2188 391 2477 730 
Q 2766 1069 2766 1631 
L 2766 1759 
L 2194 1759 
z
M 3341 1997 
L 3341 0 
L 2766 0 
L 2766 531 
Q 2569 213 2275 61 
Q 1981 -91 1556 -91 
Q 1019 -91 701 211 
Q 384 513 384 1019 
Q 384 1609 779 1909 
Q 1175 2209 1959 2209 
L 2766 2209 
L 2766 2266 
Q 2766 2663 2505 2880 
Q 2244 3097 1772 3097 
Q 1472 3097 1187 3025 
Q 903 2953 641 2809 
L 641 3341 
Q 956 3463 1253 3523 
Q 1550 3584 1831 3584 
Q 2591 3584 2966 3190 
Q 3341 2797 3341 1997 
z
" transform="scale(0.015625)"/>
       <path id="DejaVuSans-74" d="M 1172 4494 
L 1172 3500 
L 2356 3500 
L 2356 3053 
L 1172 3053 
L 1172 1153 
Q 1172 725 1289 603 
Q 1406 481 1766 481 
L 2356 481 
L 2356 0 
L 1766 0 
Q 1100 0 847 248 
Q 594 497 594 1153 
L 594 3053 
L 172 3053 
L 172 3500 
L 594 3500 
L 594 4494 
L 1172 4494 
z
" transform="scale(0.015625)"/>
      </defs>
      <use xlink:href="#DejaVuSans-44"/>
      <use xlink:href="#DejaVuSans-61" x="77.001953"/>
      <use xlink:href="#DejaVuSans-74" x="138.28125"/>
      <use xlink:href="#DejaVuSans-61" x="177.490234"/>
     </g>
    </g>
   </g>
   <g id="matplotlib.axis_2">
    <g id="ytick_1">
     <g id="line2d_21">
      <defs>
       <path id="m936ec0ff7c" d="M 0 0 
L -3.5 0 
" style="stroke: #000000; stroke-width: 0.8"/>
      </defs>
      <g>
       <use xlink:href="#m936ec0ff7c" x="57.6" y="288" style="stroke: #000000; stroke-width: 0.8"/>
      </g>
     </g>
     <g id="text_12">
      <!-- 0 -->
      <g transform="translate(44.2375 291.799219)scale(0.1 -0.1)">
       <use xlink:href="#DejaVuSans-30"/>
      </g>
     </g>
    </g>
    <g id="ytick_2">
     <g id="line2d_22">
      <g>
       <use xlink:href="#m936ec0ff7c" x="57.6" y="255.294102" style="stroke: #000000; stroke-width: 0.8"/>
      </g>
     </g>
     <g id="text_13">
      <!-- 20 -->
      <g transform="translate(37.875 259.093321)scale(0.1 -0.1)">
       <use xlink:href="#DejaVuSans-32"/>
       <use xlink:href="#DejaVuSans-30" x="63.623047"/>
      </g>
     </g>
    </g>
    <g id="ytick_3">
     <g id="line2d_23">
      <g>
       <use xlink:href="#m936ec0ff7c" x="57.6" y="222.588204" style="stroke: #000000; stroke-width: 0.8"/>
      </g>
     </g>
     <g id="text_14">
      <!-- 40 -->
      <g transform="translate(37.875 226.387422)scale(0.1 -0.1)">
       <use xlink:href="#DejaVuSans-34"/>
       <use xlink:href="#DejaVuSans-30" x="63.623047"/>
      </g>
     </g>
    </g>
    <g id="ytick_4">
     <g id="line2d_24">
      <g>
       <use xlink:href="#m936ec0ff7c" x="57.6" y="189.882305" style="stroke: #000000; stroke-width: 0.8"/>
      </g>
     </g>
     <g id="text_15">
      <!-- 60 -->
      <g transform="translate(37.875 193.681524)scale(0.1 -0.1)">
       <use xlink:href="#DejaVuSans-36"/>
       <use xlink:href="#DejaVuSans-30" x="63.623047"/>
      </g>
     </g>
    </g>
    <g id="ytick_5">
     <g id="line2d_25">
      <g>
       <use xlink:href="#m936ec0ff7c" x="57.6" y="157.176407" style="stroke: #000000; stroke-width: 0.8"/>
      </g>
     </g>
     <g id="text_16">
      <!-- 80 -->
      <g transform="translate(37.875 160.975626)scale(0.1 -0.1)">
       <use xlink:href="#DejaVuSans-38"/>
       <use xlink:href="#DejaVuSans-30" x="63.623047"/>
      </g>
     </g>
    </g>
    <g id="ytick_6">
     <g id="line2d_26">
      <g>
       <use xlink:href="#m936ec0ff7c" x="57.6" y="124.470509" style="stroke: #000000; stroke-width: 0.8"/>
      </g>
     </g>
     <g id="text_17">
      <!-- 100 -->
      <g transform="translate(31.5125 128.269728)scale(0.1 -0.1)">
       <use xlink:href="#DejaVuSans-31"/>
       <use xlink:href="#DejaVuSans-30" x="63.623047"/>
       <use xlink:href="#DejaVuSans-30" x="127.246094"/>
      </g>
     </g>
    </g>
    <g id="ytick_7">
     <g id="line2d_27">
      <g>
       <use xlink:href="#m936ec0ff7c" x="57.6" y="91.764611" style="stroke: #000000; stroke-width: 0.8"/>
      </g>
     </g>
     <g id="text_18">
      <!-- 120 -->
      <g transform="translate(31.5125 95.563829)scale(0.1 -0.1)">
       <use xlink:href="#DejaVuSans-31"/>
       <use xlink:href="#DejaVuSans-32" x="63.623047"/>
       <use xlink:href="#DejaVuSans-30" x="127.246094"/>
      </g>
     </g>
    </g>
    <g id="ytick_8">
     <g id="line2d_28">
      <g>
       <use xlink:href="#m936ec0ff7c" x="57.6" y="59.058712" style="stroke: #000000; stroke-width: 0.8"/>
      </g>
     </g>
     <g id="text_19">
      <!-- 140 -->
      <g transform="translate(31.5125 62.857931)scale(0.1 -0.1)">
       <use xlink:href="#DejaVuSans-31"/>
       <use xlink:href="#DejaVuSans-34" x="63.623047"/>
       <use xlink:href="#DejaVuSans-30" x="127.246094"/>
      </g>
     </g>
    </g>
    <g id="text_20">
     <!-- Czas (s) -->
     <g transform="translate(25.432812 181.879687)rotate(-90)scale(0.1 -0.1)">
      <defs>
       <path id="DejaVuSans-43" d="M 4122 4306 
L 4122 3641 
Q 3803 3938 3442 4084 
Q 3081 4231 2675 4231 
Q 1875 4231 1450 3742 
Q 1025 3253 1025 2328 
Q 1025 1406 1450 917 
Q 1875 428 2675 428 
Q 3081 428 3442 575 
Q 3803 722 4122 1019 
L 4122 359 
Q 3791 134 3420 21 
Q 3050 -91 2638 -91 
Q 1578 -91 968 557 
Q 359 1206 359 2328 
Q 359 3453 968 4101 
Q 1578 4750 2638 4750 
Q 3056 4750 3426 4639 
Q 3797 4528 4122 4306 
z
" transform="scale(0.015625)"/>
       <path id="DejaVuSans-7a" d="M 353 3500 
L 3084 3500 
L 3084 2975 
L 922 459 
L 3084 459 
L 3084 0 
L 275 0 
L 275 525 
L 2438 3041 
L 353 3041 
L 353 3500 
z
" transform="scale(0.015625)"/>
       <path id="DejaVuSans-73" d="M 2834 3397 
L 2834 2853 
Q 2591 2978 2328 3040 
Q 2066 3103 1784 3103 
Q 1356 3103 1142 2972 
Q 928 2841 928 2578 
Q 928 2378 1081 2264 
Q 1234 2150 1697 2047 
L 1894 2003 
Q 2506 1872 2764 1633 
Q 3022 1394 3022 966 
Q 3022 478 2636 193 
Q 2250 -91 1575 -91 
Q 1294 -91 989 -36 
Q 684 19 347 128 
L 347 722 
Q 666 556 975 473 
Q 1284 391 1588 391 
Q 1994 391 2212 530 
Q 2431 669 2431 922 
Q 2431 1156 2273 1281 
Q 2116 1406 1581 1522 
L 1381 1569 
Q 847 1681 609 1914 
Q 372 2147 372 2553 
Q 372 3047 722 3315 
Q 1072 3584 1716 3584 
Q 2034 3584 2315 3537 
Q 2597 3491 2834 3397 
z
" transform="scale(0.015625)"/>
       <path id="DejaVuSans-20" transform="scale(0.015625)"/>
       <path id="DejaVuSans-28" d="M 1984 4856 
Q 1566 4138 1362 3434 
Q 1159 2731 1159 2009 
Q 1159 1288 1364 580 
Q 1569 -128 1984 -844 
L 1484 -844 
Q 1016 -109 783 600 
Q 550 1309 550 2009 
Q 550 2706 781 3412 
Q 1013 4119 1484 4856 
L 1984 4856 
z
" transform="scale(0.015625)"/>
       <path id="DejaVuSans-29" d="M 513 4856 
L 1013 4856 
Q 1481 4119 1714 3412 
Q 1947 2706 1947 2009 
Q 1947 1309 1714 600 
Q 1481 -109 1013 -844 
L 513 -844 
Q 928 -128 1133 580 
Q 1338 1288 1338 2009 
Q 1338 2731 1133 3434 
Q 928 4138 513 4856 
z
" transform="scale(0.015625)"/>
      </defs>
      <use xlink:href="#DejaVuSans-43"/>
      <use xlink:href="#DejaVuSans-7a" x="69.824219"/>
      <use xlink:href="#DejaVuSans-61" x="122.314453"/>
      <use xlink:href="#DejaVuSans-73" x="183.59375"/>
      <use xlink:href="#DejaVuSans-20" x="235.693359"/>
      <use xlink:href="#DejaVuSans-28" x="267.480469"/>
      <use xlink:href="#DejaVuSans-73" x="306.494141"/>
      <use xlink:href="#DejaVuSans-29" x="358.59375"/>
     </g>
    </g>
   </g>
   <g id="line2d_29">
    <path d="M 79.854545 268.710279 
L 81.91429 212.241313 
L 83.973959 208.553222 
L 86.033103 273.362105 
L 88.093022 143.939427 
L 90.152445 281.804931 
L 92.212463 268.372448 
L 94.272112 208.964503 
L 96.331687 257.488017 
L 98.391494 264.337622 
L 100.451039 255.496193 
L 102.51088 269.914947 
L 104.570673 251.757145 
L 106.629504 252.89858 
L 108.689719 243.987239 
L 112.809192 259.888925 
L 114.869069 258.842473 
L 116.928734 276.815872 
L 118.988511 274.053608 
L 121.048075 278.003381 
L 123.232815 277.826735 
L 125.29209 271.725752 
L 127.352775 172.782122 
L 129.414161 277.985647 
L 131.471009 258.428887 
L 133.530983 265.671066 
L 135.590229 275.619323 
L 137.650475 259.901702 
L 139.710122 259.618464 
L 141.769356 260.627778 
L 143.829831 269.304558 
L 145.889432 271.915024 
L 147.949385 272.284814 
L 150.008827 253.216086 
L 152.068639 265.067895 
L 154.128379 258.89947 
L 156.18815 274.875378 
L 158.246936 271.066107 
L 160.307324 274.848218 
L 162.366896 274.515847 
L 164.427071 273.567445 
L 166.486857 270.615861 
L 168.546552 263.032964 
L 170.606584 267.707451 
L 172.665795 262.966353 
L 176.785519 275.053052 
L 178.848821 265.194347 
L 180.908248 272.089633 
L 182.967418 277.957417 
L 185.026556 260.751327 
L 187.086226 273.395909 
L 189.146117 245.655895 
L 191.205875 277.706738 
L 193.265359 277.628628 
L 197.385487 236.324172 
L 199.444945 277.842759 
L 201.504933 274.67533 
L 203.564966 278.785105 
L 205.624233 262.33564 
L 207.68428 277.965196 
L 209.744146 273.842871 
L 211.801171 281.701599 
L 213.860945 277.04619 
L 215.920634 273.714967 
L 217.98044 277.812862 
L 220.094048 269.693775 
L 222.152701 281.514024 
L 224.221673 273.839843 
L 226.273003 273.615424 
L 228.334274 277.986947 
L 230.39376 259.498866 
L 232.453507 270.888976 
L 234.511786 237.117027 
L 236.573271 259.654064 
L 238.632839 255.485912 
L 240.693352 277.489412 
L 242.752401 240.395395 
L 244.812168 257.034934 
L 246.87215 260.014579 
L 248.93121 241.476039 
L 250.991214 278.206724 
L 253.050763 266.999958 
L 255.108325 257.461519 
L 257.168665 278.355935 
L 259.227782 269.047142 
L 261.288335 264.511349 
L 263.348225 282.35643 
L 265.40795 268.337604 
L 267.467451 267.396567 
L 269.526724 280.480677 
L 271.587016 257.667125 
L 273.646647 281.878001 
L 275.706723 276.006184 
L 277.766505 273.523696 
L 281.886363 267.881077 
L 283.94891 278.929524 
L 286.007545 270.60995 
L 288.067335 277.997028 
L 290.127282 252.581651 
L 292.187087 277.571437 
L 294.246395 278.393197 
L 296.306404 282.608461 
L 298.366173 282.092264 
L 300.426118 272.942106 
L 302.48589 281.812422 
L 304.545269 276.742692 
L 306.604876 275.639414 
L 308.66526 250.901158 
L 310.724681 257.541534 
L 312.784126 276.960773 
L 314.844508 266.817432 
L 316.904718 259.651195 
L 318.963452 280.062939 
L 321.022924 266.431907 
L 323.083619 260.769117 
L 325.14095 275.99228 
L 327.199748 275.842016 
L 329.260063 269.810871 
L 331.32088 278.461177 
L 333.340988 261.739901 
L 335.398398 271.652067 
L 337.457949 246.973077 
L 339.518501 261.19024 
L 341.578495 277.723711 
L 343.637432 274.743407 
L 345.69721 277.934742 
L 347.756861 273.711724 
L 349.81644 258.202815 
L 351.876171 245.15408 
L 353.935874 246.847271 
L 355.995092 269.761862 
L 358.055446 267.13425 
L 360.115239 277.998527 
L 362.176135 267.62266 
L 364.234988 251.046868 
L 366.295382 266.418162 
L 368.354933 277.554239 
L 370.414793 272.253005 
L 372.473956 263.566082 
L 374.53357 250.569977 
L 376.593492 221.306559 
L 378.653029 272.877954 
L 380.71326 282.877336 
L 382.773097 220.428322 
L 384.836896 235.148856 
L 386.894341 247.079729 
L 388.955221 278.085583 
L 391.01393 260.111532 
L 393.073987 273.409058 
L 395.134021 242.753343 
L 397.193428 255.299165 
L 399.25339 248.149939 
L 401.313475 265.533032 
L 403.373189 270.786696 
L 405.435821 261.828086 
L 407.493963 274.681496 
L 409.552195 255.907207 
L 411.609967 255.070947 
L 413.669161 230.224544 
L 415.729204 257.776122 
L 417.78879 267.031178 
L 419.849871 262.256696 
L 421.909413 274.871722 
L 423.969029 251.185769 
L 426.028018 270.728973 
L 428.1401 277.723383 
L 430.199533 271.821306 
L 432.258596 266.770318 
L 434.318158 273.208988 
L 436.378045 271.43209 
L 438.437704 277.40512 
L 440.497193 277.706337 
L 442.557086 279.722432 
L 444.616714 268.182029 
L 446.676652 273.3879 
L 448.736266 271.715255 
L 450.796121 272.852373 
L 452.855612 277.915978 
L 456.974802 277.921424 
L 459.035355 271.809316 
L 461.094281 269.95479 
L 463.153646 282.786584 
L 465.21373 273.789522 
L 467.272771 274.452654 
L 469.332735 279.036728 
L 471.391744 267.66532 
L 473.45216 277.836027 
L 475.511995 277.924338 
L 477.571132 280.293965 
L 479.633003 282.914354 
L 481.693057 257.853437 
L 483.751502 281.447351 
L 485.810098 281.254607 
L 487.870754 278.672707 
L 489.93034 281.744854 
L 494.0499 281.461807 
L 496.109532 277.827964 
L 498.168548 282.898811 
L 500.228925 276.011623 
L 502.288684 274.850714 
L 504.348353 262.781172 
L 506.408533 277.919844 
L 508.468156 272.719809 
L 510.527076 278.029219 
L 512.586655 281.489994 
L 514.646908 278.274558 
L 516.70671 281.729947 
L 518.766369 262.995941 
L 520.826089 273.364399 
L 522.886044 267.674641 
L 524.945455 273.422103 
L 524.945455 273.422103 
" clip-path="url(#p857c6079a5)" style="fill: none; stroke: #1f77b4; stroke-width: 1.5; stroke-linecap: square"/>
   </g>
   <g id="line2d_30">
    <path d="M 79.854545 4.428916 
L 81.91429 136.751466 
L 83.973959 120 
L 86.033103 241.371026 
L 88.02637 -1 
M 88.153106 -1 
L 90.152445 268.683834 
L 92.212463 98.533831 
L 94.272112 2.196996 
L 96.331687 200.721349 
L 98.391494 88.933792 
L 100.451039 26.292929 
L 102.51088 199.624532 
L 104.570673 162.995825 
L 106.629504 217.074371 
L 108.689719 210.505231 
L 110.749704 207.691536 
L 112.809192 220.203147 
L 114.869069 240.462129 
L 116.928734 248.234892 
L 118.988511 237.774447 
L 121.048075 250.624818 
L 123.232815 240.732468 
L 125.29209 226.334002 
L 127.352775 122.618615 
L 129.414161 247.124668 
L 131.471009 227.619716 
L 133.530983 230.496527 
L 135.590229 244.244754 
L 137.650475 245.12217 
L 139.710122 237.295326 
L 141.769356 250.303883 
L 143.829831 227.851163 
L 145.889432 253.573131 
L 147.949385 246.093828 
L 150.008827 226.894175 
L 152.068639 229.943693 
L 154.128379 226.563899 
L 156.18815 255.324625 
L 158.246936 239.194124 
L 160.307324 228.559929 
L 162.366896 256.62525 
L 164.427071 251.23143 
L 166.486857 244.061299 
L 168.546552 191.486111 
L 170.606584 229.61135 
L 172.665795 228.704975 
L 176.785519 226.190983 
L 178.848821 185.860295 
L 180.908248 234.137641 
L 182.967418 212.29741 
L 185.026556 231.545592 
L 187.086226 248.620886 
L 189.146117 195.896154 
L 191.205875 234.491248 
L 193.265359 232.849631 
L 195.325756 230.981067 
L 197.385487 217.380067 
L 199.444945 233.601474 
L 201.504933 257.633288 
L 203.564966 221.252423 
L 205.624233 235.173167 
L 207.68428 251.51865 
L 209.744146 235.462658 
L 211.801171 244.630502 
L 213.860945 229.738272 
L 215.920634 259.939283 
L 217.98044 261.123384 
L 220.094048 228.014596 
L 222.152701 245.161675 
L 224.221673 221.394536 
L 226.273003 250.202895 
L 228.334274 266.017404 
L 230.39376 212.168812 
L 232.453507 241.700352 
L 234.511786 206.60675 
L 236.573271 212.686962 
L 238.632839 212.012788 
L 240.693352 242.926703 
L 242.752401 209.191737 
L 244.812168 231.558583 
L 246.87215 208.154343 
L 248.93121 208.832051 
L 250.991214 261.425489 
L 253.050763 254.664866 
L 255.108325 220.08441 
L 257.168665 265.07227 
L 259.227782 224.730713 
L 261.288335 211.359383 
L 263.348225 212.507808 
L 265.40795 212.189725 
L 267.467451 252.655942 
L 269.526724 221.148324 
L 271.587016 212.309023 
L 273.646647 211.691799 
L 275.706723 240.235602 
L 277.766505 243.357059 
L 279.828315 212.81275 
L 281.886363 241.229314 
L 283.94891 251.543296 
L 286.007545 242.029501 
L 288.067335 265.385278 
L 290.127282 239.848908 
L 292.187087 240.809169 
L 294.246395 268.818274 
L 296.306404 272.937087 
L 298.366173 240.580774 
L 300.426118 217.623569 
L 302.48589 261.644864 
L 304.545269 267.109637 
L 306.604876 259.26979 
L 308.66526 218.695453 
L 310.724681 215.768687 
L 312.784126 240.805746 
L 314.844508 240.302989 
L 316.904718 241.621989 
L 318.963452 258.793498 
L 321.022924 242.844878 
L 323.083619 238.303911 
L 325.14095 238.78587 
L 327.199748 242.18951 
L 329.260063 216.113856 
L 331.32088 252.325901 
L 333.340988 205.48392 
L 335.398398 203.839683 
L 337.457949 188.880516 
L 339.518501 223.244081 
L 341.578495 222.100007 
L 343.637432 250.470105 
L 345.69721 250.90448 
L 349.81644 204.430083 
L 351.876171 218.239134 
L 353.935874 202.256519 
L 355.995092 250.742655 
L 358.055446 226.153631 
L 360.115239 204.992041 
L 362.176135 207.463888 
L 366.295382 207.778366 
L 368.354933 223.257614 
L 370.414793 235.876112 
L 372.473956 206.3301 
L 374.53357 188.326823 
L 376.593492 203.63126 
L 378.653029 253.375766 
L 380.71326 251.732388 
L 382.773097 203.052143 
L 384.836896 209.471359 
L 386.894341 208.912013 
L 388.955221 211.772663 
L 391.01393 219.58954 
L 393.073987 211.128806 
L 395.134021 196.344485 
L 397.193428 211.714293 
L 399.25339 221.29208 
L 401.313475 224.700821 
L 403.373189 214.339738 
L 405.435821 245.462036 
L 407.493963 215.119151 
L 409.552195 224.600766 
L 411.609967 209.92387 
L 413.669161 188.026171 
L 415.729204 235.820696 
L 417.78879 247.017349 
L 419.849871 239.274279 
L 421.909413 211.886349 
L 423.969029 217.646946 
L 426.028018 221.211812 
L 428.1401 235.092313 
L 430.199533 235.963475 
L 432.258596 227.51735 
L 434.318158 258.447039 
L 436.378045 253.059847 
L 438.437704 234.662304 
L 440.497193 234.68216 
L 442.557086 261.318457 
L 444.616714 226.208437 
L 446.676652 254.204033 
L 448.736266 253.323307 
L 450.796121 261.133718 
L 452.855612 242.495976 
L 454.915138 234.954541 
L 456.974802 247.39948 
L 459.035355 257.488883 
L 461.094281 236.842405 
L 463.153646 279.144654 
L 467.272771 234.794919 
L 469.332735 261.917522 
L 471.391744 255.668405 
L 473.45216 234.48546 
L 475.511995 257.631295 
L 477.571132 257.623813 
L 479.633003 264.904338 
L 481.693057 238.776626 
L 483.751502 237.476492 
L 485.810098 269.533004 
L 487.870754 253.374546 
L 489.93034 251.670119 
L 494.0499 232.69126 
L 496.109532 257.047673 
L 498.168548 272.127698 
L 500.228925 237.749819 
L 502.288684 236.886008 
L 504.348353 232.974834 
L 506.408533 259.459867 
L 508.468156 202.448302 
L 510.527076 256.533472 
L 512.586655 263.603024 
L 514.646908 261.726194 
L 516.70671 232.786164 
L 518.766369 212.284687 
L 520.826089 212.682997 
L 522.886044 237.113295 
L 524.945455 228.713068 
L 524.945455 228.713068 
" clip-path="url(#p857c6079a5)" style="fill: none; stroke: #ff7f0e; stroke-width: 1.5; stroke-linecap: square"/>
   </g>
   <g id="patch_3">
    <path d="M 57.6 288 
L 57.6 36 
" style="fill: none; stroke: #000000; stroke-width: 0.8; stroke-linejoin: miter; stroke-linecap: square"/>
   </g>
   <g id="patch_4">
    <path d="M 547.2 288 
L 547.2 36 
" style="fill: none; stroke: #000000; stroke-width: 0.8; stroke-linejoin: miter; stroke-linecap: square"/>
   </g>
   <g id="patch_5">
    <path d="M 57.6 288 
L 547.2 288 
" style="fill: none; stroke: #000000; stroke-width: 0.8; stroke-linejoin: miter; stroke-linecap: square"/>
   </g>
   <g id="patch_6">
    <path d="M 57.6 36 
L 547.2 36 
" style="fill: none; stroke: #000000; stroke-width: 0.8; stroke-linejoin: miter; stroke-linecap: square"/>
   </g>
   <g id="text_21">
    <!-- Czas do uzyskania potwierdzen transakcji dla sieci 'Arbitrum' -->
    <g transform="translate(119.075625 30)scale(0.12 -0.12)">
     <defs>
      <path id="DejaVuSans-64" d="M 2906 2969 
L 2906 4863 
L 3481 4863 
L 3481 0 
L 2906 0 
L 2906 525 
Q 2725 213 2448 61 
Q 2172 -91 1784 -91 
Q 1150 -91 751 415 
Q 353 922 353 1747 
Q 353 2572 751 3078 
Q 1150 3584 1784 3584 
Q 2172 3584 2448 3432 
Q 2725 3281 2906 2969 
z
M 947 1747 
Q 947 1113 1208 752 
Q 1469 391 1925 391 
Q 2381 391 2643 752 
Q 2906 1113 2906 1747 
Q 2906 2381 2643 2742 
Q 2381 3103 1925 3103 
Q 1469 3103 1208 2742 
Q 947 2381 947 1747 
z
" transform="scale(0.015625)"/>
      <path id="DejaVuSans-6f" d="M 1959 3097 
Q 1497 3097 1228 2736 
Q 959 2375 959 1747 
Q 959 1119 1226 758 
Q 1494 397 1959 397 
Q 2419 397 2687 759 
Q 2956 1122 2956 1747 
Q 2956 2369 2687 2733 
Q 2419 3097 1959 3097 
z
M 1959 3584 
Q 2709 3584 3137 3096 
Q 3566 2609 3566 1747 
Q 3566 888 3137 398 
Q 2709 -91 1959 -91 
Q 1206 -91 779 398 
Q 353 888 353 1747 
Q 353 2609 779 3096 
Q 1206 3584 1959 3584 
z
" transform="scale(0.015625)"/>
      <path id="DejaVuSans-75" d="M 544 1381 
L 544 3500 
L 1119 3500 
L 1119 1403 
Q 1119 906 1312 657 
Q 1506 409 1894 409 
Q 2359 409 2629 706 
Q 2900 1003 2900 1516 
L 2900 3500 
L 3475 3500 
L 3475 0 
L 2900 0 
L 2900 538 
Q 2691 219 2414 64 
Q 2138 -91 1772 -91 
Q 1169 -91 856 284 
Q 544 659 544 1381 
z
M 1991 3584 
L 1991 3584 
z
" transform="scale(0.015625)"/>
      <path id="DejaVuSans-79" d="M 2059 -325 
Q 1816 -950 1584 -1140 
Q 1353 -1331 966 -1331 
L 506 -1331 
L 506 -850 
L 844 -850 
Q 1081 -850 1212 -737 
Q 1344 -625 1503 -206 
L 1606 56 
L 191 3500 
L 800 3500 
L 1894 763 
L 2988 3500 
L 3597 3500 
L 2059 -325 
z
" transform="scale(0.015625)"/>
      <path id="DejaVuSans-6b" d="M 581 4863 
L 1159 4863 
L 1159 1991 
L 2875 3500 
L 3609 3500 
L 1753 1863 
L 3688 0 
L 2938 0 
L 1159 1709 
L 1159 0 
L 581 0 
L 581 4863 
z
" transform="scale(0.015625)"/>
      <path id="DejaVuSans-6e" d="M 3513 2113 
L 3513 0 
L 2938 0 
L 2938 2094 
Q 2938 2591 2744 2837 
Q 2550 3084 2163 3084 
Q 1697 3084 1428 2787 
Q 1159 2491 1159 1978 
L 1159 0 
L 581 0 
L 581 3500 
L 1159 3500 
L 1159 2956 
Q 1366 3272 1645 3428 
Q 1925 3584 2291 3584 
Q 2894 3584 3203 3211 
Q 3513 2838 3513 2113 
z
" transform="scale(0.015625)"/>
      <path id="DejaVuSans-69" d="M 603 3500 
L 1178 3500 
L 1178 0 
L 603 0 
L 603 3500 
z
M 603 4863 
L 1178 4863 
L 1178 4134 
L 603 4134 
L 603 4863 
z
" transform="scale(0.015625)"/>
      <path id="DejaVuSans-70" d="M 1159 525 
L 1159 -1331 
L 581 -1331 
L 581 3500 
L 1159 3500 
L 1159 2969 
Q 1341 3281 1617 3432 
Q 1894 3584 2278 3584 
Q 2916 3584 3314 3078 
Q 3713 2572 3713 1747 
Q 3713 922 3314 415 
Q 2916 -91 2278 -91 
Q 1894 -91 1617 61 
Q 1341 213 1159 525 
z
M 3116 1747 
Q 3116 2381 2855 2742 
Q 2594 3103 2138 3103 
Q 1681 3103 1420 2742 
Q 1159 2381 1159 1747 
Q 1159 1113 1420 752 
Q 1681 391 2138 391 
Q 2594 391 2855 752 
Q 3116 1113 3116 1747 
z
" transform="scale(0.015625)"/>
      <path id="DejaVuSans-77" d="M 269 3500 
L 844 3500 
L 1563 769 
L 2278 3500 
L 2956 3500 
L 3675 769 
L 4391 3500 
L 4966 3500 
L 4050 0 
L 3372 0 
L 2619 2869 
L 1863 0 
L 1184 0 
L 269 3500 
z
" transform="scale(0.015625)"/>
      <path id="DejaVuSans-65" d="M 3597 1894 
L 3597 1613 
L 953 1613 
Q 991 1019 1311 708 
Q 1631 397 2203 397 
Q 2534 397 2845 478 
Q 3156 559 3463 722 
L 3463 178 
Q 3153 47 2828 -22 
Q 2503 -91 2169 -91 
Q 1331 -91 842 396 
Q 353 884 353 1716 
Q 353 2575 817 3079 
Q 1281 3584 2069 3584 
Q 2775 3584 3186 3129 
Q 3597 2675 3597 1894 
z
M 3022 2063 
Q 3016 2534 2758 2815 
Q 2500 3097 2075 3097 
Q 1594 3097 1305 2825 
Q 1016 2553 972 2059 
L 3022 2063 
z
" transform="scale(0.015625)"/>
      <path id="DejaVuSans-72" d="M 2631 2963 
Q 2534 3019 2420 3045 
Q 2306 3072 2169 3072 
Q 1681 3072 1420 2755 
Q 1159 2438 1159 1844 
L 1159 0 
L 581 0 
L 581 3500 
L 1159 3500 
L 1159 2956 
Q 1341 3275 1631 3429 
Q 1922 3584 2338 3584 
Q 2397 3584 2469 3576 
Q 2541 3569 2628 3553 
L 2631 2963 
z
" transform="scale(0.015625)"/>
      <path id="DejaVuSans-63" d="M 3122 3366 
L 3122 2828 
Q 2878 2963 2633 3030 
Q 2388 3097 2138 3097 
Q 1578 3097 1268 2742 
Q 959 2388 959 1747 
Q 959 1106 1268 751 
Q 1578 397 2138 397 
Q 2388 397 2633 464 
Q 2878 531 3122 666 
L 3122 134 
Q 2881 22 2623 -34 
Q 2366 -91 2075 -91 
Q 1284 -91 818 406 
Q 353 903 353 1747 
Q 353 2603 823 3093 
Q 1294 3584 2113 3584 
Q 2378 3584 2631 3529 
Q 2884 3475 3122 3366 
z
" transform="scale(0.015625)"/>
      <path id="DejaVuSans-6a" d="M 603 3500 
L 1178 3500 
L 1178 -63 
Q 1178 -731 923 -1031 
Q 669 -1331 103 -1331 
L -116 -1331 
L -116 -844 
L 38 -844 
Q 366 -844 484 -692 
Q 603 -541 603 -63 
L 603 3500 
z
M 603 4863 
L 1178 4863 
L 1178 4134 
L 603 4134 
L 603 4863 
z
" transform="scale(0.015625)"/>
      <path id="DejaVuSans-6c" d="M 603 4863 
L 1178 4863 
L 1178 0 
L 603 0 
L 603 4863 
z
" transform="scale(0.015625)"/>
      <path id="DejaVuSans-27" d="M 1147 4666 
L 1147 2931 
L 616 2931 
L 616 4666 
L 1147 4666 
z
" transform="scale(0.015625)"/>
      <path id="DejaVuSans-41" d="M 2188 4044 
L 1331 1722 
L 3047 1722 
L 2188 4044 
z
M 1831 4666 
L 2547 4666 
L 4325 0 
L 3669 0 
L 3244 1197 
L 1141 1197 
L 716 0 
L 50 0 
L 1831 4666 
z
" transform="scale(0.015625)"/>
      <path id="DejaVuSans-62" d="M 3116 1747 
Q 3116 2381 2855 2742 
Q 2594 3103 2138 3103 
Q 1681 3103 1420 2742 
Q 1159 2381 1159 1747 
Q 1159 1113 1420 752 
Q 1681 391 2138 391 
Q 2594 391 2855 752 
Q 3116 1113 3116 1747 
z
M 1159 2969 
Q 1341 3281 1617 3432 
Q 1894 3584 2278 3584 
Q 2916 3584 3314 3078 
Q 3713 2572 3713 1747 
Q 3713 922 3314 415 
Q 2916 -91 2278 -91 
Q 1894 -91 1617 61 
Q 1341 213 1159 525 
L 1159 0 
L 581 0 
L 581 4863 
L 1159 4863 
L 1159 2969 
z
" transform="scale(0.015625)"/>
      <path id="DejaVuSans-6d" d="M 3328 2828 
Q 3544 3216 3844 3400 
Q 4144 3584 4550 3584 
Q 5097 3584 5394 3201 
Q 5691 2819 5691 2113 
L 5691 0 
L 5113 0 
L 5113 2094 
Q 5113 2597 4934 2840 
Q 4756 3084 4391 3084 
Q 3944 3084 3684 2787 
Q 3425 2491 3425 1978 
L 3425 0 
L 2847 0 
L 2847 2094 
Q 2847 2600 2669 2842 
Q 2491 3084 2119 3084 
Q 1678 3084 1418 2786 
Q 1159 2488 1159 1978 
L 1159 0 
L 581 0 
L 581 3500 
L 1159 3500 
L 1159 2956 
Q 1356 3278 1631 3431 
Q 1906 3584 2284 3584 
Q 2666 3584 2933 3390 
Q 3200 3197 3328 2828 
z
" transform="scale(0.015625)"/>
     </defs>
     <use xlink:href="#DejaVuSans-43"/>
     <use xlink:href="#DejaVuSans-7a" x="69.824219"/>
     <use xlink:href="#DejaVuSans-61" x="122.314453"/>
     <use xlink:href="#DejaVuSans-73" x="183.59375"/>
     <use xlink:href="#DejaVuSans-20" x="235.693359"/>
     <use xlink:href="#DejaVuSans-64" x="267.480469"/>
     <use xlink:href="#DejaVuSans-6f" x="330.957031"/>
     <use xlink:href="#DejaVuSans-20" x="392.138672"/>
     <use xlink:href="#DejaVuSans-75" x="423.925781"/>
     <use xlink:href="#DejaVuSans-7a" x="487.304688"/>
     <use xlink:href="#DejaVuSans-79" x="539.794922"/>
     <use xlink:href="#DejaVuSans-73" x="598.974609"/>
     <use xlink:href="#DejaVuSans-6b" x="651.074219"/>
     <use xlink:href="#DejaVuSans-61" x="707.234375"/>
     <use xlink:href="#DejaVuSans-6e" x="768.513672"/>
     <use xlink:href="#DejaVuSans-69" x="831.892578"/>
     <use xlink:href="#DejaVuSans-61" x="859.675781"/>
     <use xlink:href="#DejaVuSans-20" x="920.955078"/>
     <use xlink:href="#DejaVuSans-70" x="952.742188"/>
     <use xlink:href="#DejaVuSans-6f" x="1016.21875"/>
     <use xlink:href="#DejaVuSans-74" x="1077.400391"/>
     <use xlink:href="#DejaVuSans-77" x="1116.609375"/>
     <use xlink:href="#DejaVuSans-69" x="1198.396484"/>
     <use xlink:href="#DejaVuSans-65" x="1226.179688"/>
     <use xlink:href="#DejaVuSans-72" x="1287.703125"/>
     <use xlink:href="#DejaVuSans-64" x="1327.066406"/>
     <use xlink:href="#DejaVuSans-7a" x="1390.542969"/>
     <use xlink:href="#DejaVuSans-65" x="1443.033203"/>
     <use xlink:href="#DejaVuSans-6e" x="1504.556641"/>
     <use xlink:href="#DejaVuSans-20" x="1567.935547"/>
     <use xlink:href="#DejaVuSans-74" x="1599.722656"/>
     <use xlink:href="#DejaVuSans-72" x="1638.931641"/>
     <use xlink:href="#DejaVuSans-61" x="1680.044922"/>
     <use xlink:href="#DejaVuSans-6e" x="1741.324219"/>
     <use xlink:href="#DejaVuSans-73" x="1804.703125"/>
     <use xlink:href="#DejaVuSans-61" x="1856.802734"/>
     <use xlink:href="#DejaVuSans-6b" x="1918.082031"/>
     <use xlink:href="#DejaVuSans-63" x="1975.992188"/>
     <use xlink:href="#DejaVuSans-6a" x="2030.972656"/>
     <use xlink:href="#DejaVuSans-69" x="2058.755859"/>
     <use xlink:href="#DejaVuSans-20" x="2086.539062"/>
     <use xlink:href="#DejaVuSans-64" x="2118.326172"/>
     <use xlink:href="#DejaVuSans-6c" x="2181.802734"/>
     <use xlink:href="#DejaVuSans-61" x="2209.585938"/>
     <use xlink:href="#DejaVuSans-20" x="2270.865234"/>
     <use xlink:href="#DejaVuSans-73" x="2302.652344"/>
     <use xlink:href="#DejaVuSans-69" x="2354.751953"/>
     <use xlink:href="#DejaVuSans-65" x="2382.535156"/>
     <use xlink:href="#DejaVuSans-63" x="2444.058594"/>
     <use xlink:href="#DejaVuSans-69" x="2499.039062"/>
     <use xlink:href="#DejaVuSans-20" x="2526.822266"/>
     <use xlink:href="#DejaVuSans-27" x="2558.609375"/>
     <use xlink:href="#DejaVuSans-41" x="2586.099609"/>
     <use xlink:href="#DejaVuSans-72" x="2654.507812"/>
     <use xlink:href="#DejaVuSans-62" x="2695.621094"/>
     <use xlink:href="#DejaVuSans-69" x="2759.097656"/>
     <use xlink:href="#DejaVuSans-74" x="2786.880859"/>
     <use xlink:href="#DejaVuSans-72" x="2826.089844"/>
     <use xlink:href="#DejaVuSans-75" x="2867.203125"/>
     <use xlink:href="#DejaVuSans-6d" x="2930.582031"/>
     <use xlink:href="#DejaVuSans-27" x="3027.994141"/>
    </g>
   </g>
   <g id="legend_1">
    <g id="patch_7">
     <path d="M 410.392187 73.35625 
L 540.2 73.35625 
Q 542.2 73.35625 542.2 71.35625 
L 542.2 43 
Q 542.2 41 540.2 41 
L 410.392187 41 
Q 408.392187 41 408.392187 43 
L 408.392187 71.35625 
Q 408.392187 73.35625 410.392187 73.35625 
z
" style="fill: #ffffff; opacity: 0.8; stroke: #cccccc; stroke-linejoin: miter"/>
    </g>
    <g id="line2d_31">
     <path d="M 412.392187 49.098438 
L 422.392187 49.098438 
L 432.392187 49.098438 
" style="fill: none; stroke: #1f77b4; stroke-width: 1.5; stroke-linecap: square"/>
    </g>
    <g id="text_22">
     <!-- Czas 2 potwierdzen -->
     <g transform="translate(440.392187 52.598438)scale(0.1 -0.1)">
      <use xlink:href="#DejaVuSans-43"/>
      <use xlink:href="#DejaVuSans-7a" x="69.824219"/>
      <use xlink:href="#DejaVuSans-61" x="122.314453"/>
      <use xlink:href="#DejaVuSans-73" x="183.59375"/>
      <use xlink:href="#DejaVuSans-20" x="235.693359"/>
      <use xlink:href="#DejaVuSans-32" x="267.480469"/>
      <use xlink:href="#DejaVuSans-20" x="331.103516"/>
      <use xlink:href="#DejaVuSans-70" x="362.890625"/>
      <use xlink:href="#DejaVuSans-6f" x="426.367188"/>
      <use xlink:href="#DejaVuSans-74" x="487.548828"/>
      <use xlink:href="#DejaVuSans-77" x="526.757812"/>
      <use xlink:href="#DejaVuSans-69" x="608.544922"/>
      <use xlink:href="#DejaVuSans-65" x="636.328125"/>
      <use xlink:href="#DejaVuSans-72" x="697.851562"/>
      <use xlink:href="#DejaVuSans-64" x="737.214844"/>
      <use xlink:href="#DejaVuSans-7a" x="800.691406"/>
      <use xlink:href="#DejaVuSans-65" x="853.181641"/>
      <use xlink:href="#DejaVuSans-6e" x="914.705078"/>
     </g>
    </g>
    <g id="line2d_32">
     <path d="M 412.392187 63.776563 
L 422.392187 63.776563 
L 432.392187 63.776563 
" style="fill: none; stroke: #ff7f0e; stroke-width: 1.5; stroke-linecap: square"/>
    </g>
    <g id="text_23">
     <!-- Czas 5 potwierdzen -->
     <g transform="translate(440.392187 67.276563)scale(0.1 -0.1)">
      <use xlink:href="#DejaVuSans-43"/>
      <use xlink:href="#DejaVuSans-7a" x="69.824219"/>
      <use xlink:href="#DejaVuSans-61" x="122.314453"/>
      <use xlink:href="#DejaVuSans-73" x="183.59375"/>
      <use xlink:href="#DejaVuSans-20" x="235.693359"/>
      <use xlink:href="#DejaVuSans-35" x="267.480469"/>
      <use xlink:href="#DejaVuSans-20" x="331.103516"/>
      <use xlink:href="#DejaVuSans-70" x="362.890625"/>
      <use xlink:href="#DejaVuSans-6f" x="426.367188"/>
      <use xlink:href="#DejaVuSans-74" x="487.548828"/>
      <use xlink:href="#DejaVuSans-77" x="526.757812"/>
      <use xlink:href="#DejaVuSans-69" x="608.544922"/>
      <use xlink:href="#DejaVuSans-65" x="636.328125"/>
      <use xlink:href="#DejaVuSans-72" x="697.851562"/>
      <use xlink:href="#DejaVuSans-64" x="737.214844"/>
      <use xlink:href="#DejaVuSans-7a" x="800.691406"/>
      <use xlink:href="#DejaVuSans-65" x="853.181641"/>
      <use xlink:href="#DejaVuSans-6e" x="914.705078"/>
     </g>
    </g>
   </g>
  </g>
 </g>
 <defs>
  <clipPath id="p857c6079a5">
   <rect x="57.6" y="36" width="489.6" height="252"/>
  </clipPath>
 </defs>
</svg>
