<?xml version="1.0" encoding="utf-8" standalone="no"?>
<!DOCTYPE svg PUBLIC "-//W3C//DTD SVG 1.1//EN"
  "http://www.w3.org/Graphics/SVG/1.1/DTD/svg11.dtd">
<svg xmlns:xlink="http://www.w3.org/1999/xlink" width="576pt" height="360pt" viewBox="0 0 576 360" xmlns="http://www.w3.org/2000/svg" version="1.1">
 <metadata>
  <rdf:RDF xmlns:dc="http://purl.org/dc/elements/1.1/" xmlns:cc="http://creativecommons.org/ns#" xmlns:rdf="http://www.w3.org/1999/02/22-rdf-syntax-ns#">
   <cc:Work>
    <dc:type rdf:resource="http://purl.org/dc/dcmitype/StillImage"/>
    <dc:date>2022-08-15T18:19:05.113549</dc:date>
    <dc:format>image/svg+xml</dc:format>
    <dc:creator>
     <cc:Agent>
      <dc:title>Matplotlib v3.5.2, https://matplotlib.org/</dc:title>
     </cc:Agent>
    </dc:creator>
   </cc:Work>
  </rdf:RDF>
 </metadata>
 <defs>
  <style type="text/css">*{stroke-linejoin: round; stroke-linecap: butt}</style>
 </defs>
 <g id="figure_1">
  <g id="patch_1">
   <path d="M 0 360 
L 576 360 
L 576 0 
L 0 0 
z
" style="fill: #ffffff"/>
  </g>
  <g id="axes_1">
   <g id="patch_2">
    <path d="M 57.6 288 
L 547.2 288 
L 547.2 36 
L 57.6 36 
z
" style="fill: #ffffff"/>
   </g>
   <g id="matplotlib.axis_1">
    <g id="xtick_1">
     <g id="line2d_1">
      <path d="M 87.451526 288 
L 87.451526 36 
" clip-path="url(#p90efc29f45)" style="fill: none; stroke: #b0b0b0; stroke-opacity: 0.7; stroke-width: 0.8; stroke-linecap: square"/>
     </g>
     <g id="line2d_2">
      <defs>
       <path id="m1ec0a47bf3" d="M 0 0 
L 0 3.5 
" style="stroke: #000000; stroke-width: 0.8"/>
      </defs>
      <g>
       <use xlink:href="#m1ec0a47bf3" x="87.451526" y="288" style="stroke: #000000; stroke-width: 0.8"/>
      </g>
     </g>
     <g id="text_1">
      <!-- 01.08.2022 -->
      <g transform="translate(45.494683 340.859189)rotate(-45)scale(0.1 -0.1)">
       <defs>
        <path id="DejaVuSans-30" d="M 2034 4250 
Q 1547 4250 1301 3770 
Q 1056 3291 1056 2328 
Q 1056 1369 1301 889 
Q 1547 409 2034 409 
Q 2525 409 2770 889 
Q 3016 1369 3016 2328 
Q 3016 3291 2770 3770 
Q 2525 4250 2034 4250 
z
M 2034 4750 
Q 2819 4750 3233 4129 
Q 3647 3509 3647 2328 
Q 3647 1150 3233 529 
Q 2819 -91 2034 -91 
Q 1250 -91 836 529 
Q 422 1150 422 2328 
Q 422 3509 836 4129 
Q 1250 4750 2034 4750 
z
" transform="scale(0.015625)"/>
        <path id="DejaVuSans-31" d="M 794 531 
L 1825 531 
L 1825 4091 
L 703 3866 
L 703 4441 
L 1819 4666 
L 2450 4666 
L 2450 531 
L 3481 531 
L 3481 0 
L 794 0 
L 794 531 
z
" transform="scale(0.015625)"/>
        <path id="DejaVuSans-2e" d="M 684 794 
L 1344 794 
L 1344 0 
L 684 0 
L 684 794 
z
" transform="scale(0.015625)"/>
        <path id="DejaVuSans-38" d="M 2034 2216 
Q 1584 2216 1326 1975 
Q 1069 1734 1069 1313 
Q 1069 891 1326 650 
Q 1584 409 2034 409 
Q 2484 409 2743 651 
Q 3003 894 3003 1313 
Q 3003 1734 2745 1975 
Q 2488 2216 2034 2216 
z
M 1403 2484 
Q 997 2584 770 2862 
Q 544 3141 544 3541 
Q 544 4100 942 4425 
Q 1341 4750 2034 4750 
Q 2731 4750 3128 4425 
Q 3525 4100 3525 3541 
Q 3525 3141 3298 2862 
Q 3072 2584 2669 2484 
Q 3125 2378 3379 2068 
Q 3634 1759 3634 1313 
Q 3634 634 3220 271 
Q 2806 -91 2034 -91 
Q 1263 -91 848 271 
Q 434 634 434 1313 
Q 434 1759 690 2068 
Q 947 2378 1403 2484 
z
M 1172 3481 
Q 1172 3119 1398 2916 
Q 1625 2713 2034 2713 
Q 2441 2713 2670 2916 
Q 2900 3119 2900 3481 
Q 2900 3844 2670 4047 
Q 2441 4250 2034 4250 
Q 1625 4250 1398 4047 
Q 1172 3844 1172 3481 
z
" transform="scale(0.015625)"/>
        <path id="DejaVuSans-32" d="M 1228 531 
L 3431 531 
L 3431 0 
L 469 0 
L 469 531 
Q 828 903 1448 1529 
Q 2069 2156 2228 2338 
Q 2531 2678 2651 2914 
Q 2772 3150 2772 3378 
Q 2772 3750 2511 3984 
Q 2250 4219 1831 4219 
Q 1534 4219 1204 4116 
Q 875 4013 500 3803 
L 500 4441 
Q 881 4594 1212 4672 
Q 1544 4750 1819 4750 
Q 2544 4750 2975 4387 
Q 3406 4025 3406 3419 
Q 3406 3131 3298 2873 
Q 3191 2616 2906 2266 
Q 2828 2175 2409 1742 
Q 1991 1309 1228 531 
z
" transform="scale(0.015625)"/>
       </defs>
       <use xlink:href="#DejaVuSans-30"/>
       <use xlink:href="#DejaVuSans-31" x="63.623047"/>
       <use xlink:href="#DejaVuSans-2e" x="127.246094"/>
       <use xlink:href="#DejaVuSans-30" x="159.033203"/>
       <use xlink:href="#DejaVuSans-38" x="222.65625"/>
       <use xlink:href="#DejaVuSans-2e" x="286.279297"/>
       <use xlink:href="#DejaVuSans-32" x="318.066406"/>
       <use xlink:href="#DejaVuSans-30" x="381.689453"/>
       <use xlink:href="#DejaVuSans-32" x="445.3125"/>
       <use xlink:href="#DejaVuSans-32" x="508.935547"/>
      </g>
     </g>
    </g>
    <g id="xtick_2">
     <g id="line2d_3">
      <path d="M 136.883807 288 
L 136.883807 36 
" clip-path="url(#p90efc29f45)" style="fill: none; stroke: #b0b0b0; stroke-opacity: 0.7; stroke-width: 0.8; stroke-linecap: square"/>
     </g>
     <g id="line2d_4">
      <g>
       <use xlink:href="#m1ec0a47bf3" x="136.883807" y="288" style="stroke: #000000; stroke-width: 0.8"/>
      </g>
     </g>
     <g id="text_2">
      <!-- 02.08.2022 -->
      <g transform="translate(94.926964 340.859189)rotate(-45)scale(0.1 -0.1)">
       <use xlink:href="#DejaVuSans-30"/>
       <use xlink:href="#DejaVuSans-32" x="63.623047"/>
       <use xlink:href="#DejaVuSans-2e" x="127.246094"/>
       <use xlink:href="#DejaVuSans-30" x="159.033203"/>
       <use xlink:href="#DejaVuSans-38" x="222.65625"/>
       <use xlink:href="#DejaVuSans-2e" x="286.279297"/>
       <use xlink:href="#DejaVuSans-32" x="318.066406"/>
       <use xlink:href="#DejaVuSans-30" x="381.689453"/>
       <use xlink:href="#DejaVuSans-32" x="445.3125"/>
       <use xlink:href="#DejaVuSans-32" x="508.935547"/>
      </g>
     </g>
    </g>
    <g id="xtick_3">
     <g id="line2d_5">
      <path d="M 186.316088 288 
L 186.316088 36 
" clip-path="url(#p90efc29f45)" style="fill: none; stroke: #b0b0b0; stroke-opacity: 0.7; stroke-width: 0.8; stroke-linecap: square"/>
     </g>
     <g id="line2d_6">
      <g>
       <use xlink:href="#m1ec0a47bf3" x="186.316088" y="288" style="stroke: #000000; stroke-width: 0.8"/>
      </g>
     </g>
     <g id="text_3">
      <!-- 03.08.2022 -->
      <g transform="translate(144.359245 340.859189)rotate(-45)scale(0.1 -0.1)">
       <defs>
        <path id="DejaVuSans-33" d="M 2597 2516 
Q 3050 2419 3304 2112 
Q 3559 1806 3559 1356 
Q 3559 666 3084 287 
Q 2609 -91 1734 -91 
Q 1441 -91 1130 -33 
Q 819 25 488 141 
L 488 750 
Q 750 597 1062 519 
Q 1375 441 1716 441 
Q 2309 441 2620 675 
Q 2931 909 2931 1356 
Q 2931 1769 2642 2001 
Q 2353 2234 1838 2234 
L 1294 2234 
L 1294 2753 
L 1863 2753 
Q 2328 2753 2575 2939 
Q 2822 3125 2822 3475 
Q 2822 3834 2567 4026 
Q 2313 4219 1838 4219 
Q 1578 4219 1281 4162 
Q 984 4106 628 3988 
L 628 4550 
Q 988 4650 1302 4700 
Q 1616 4750 1894 4750 
Q 2613 4750 3031 4423 
Q 3450 4097 3450 3541 
Q 3450 3153 3228 2886 
Q 3006 2619 2597 2516 
z
" transform="scale(0.015625)"/>
       </defs>
       <use xlink:href="#DejaVuSans-30"/>
       <use xlink:href="#DejaVuSans-33" x="63.623047"/>
       <use xlink:href="#DejaVuSans-2e" x="127.246094"/>
       <use xlink:href="#DejaVuSans-30" x="159.033203"/>
       <use xlink:href="#DejaVuSans-38" x="222.65625"/>
       <use xlink:href="#DejaVuSans-2e" x="286.279297"/>
       <use xlink:href="#DejaVuSans-32" x="318.066406"/>
       <use xlink:href="#DejaVuSans-30" x="381.689453"/>
       <use xlink:href="#DejaVuSans-32" x="445.3125"/>
       <use xlink:href="#DejaVuSans-32" x="508.935547"/>
      </g>
     </g>
    </g>
    <g id="xtick_4">
     <g id="line2d_7">
      <path d="M 235.748369 288 
L 235.748369 36 
" clip-path="url(#p90efc29f45)" style="fill: none; stroke: #b0b0b0; stroke-opacity: 0.7; stroke-width: 0.8; stroke-linecap: square"/>
     </g>
     <g id="line2d_8">
      <g>
       <use xlink:href="#m1ec0a47bf3" x="235.748369" y="288" style="stroke: #000000; stroke-width: 0.8"/>
      </g>
     </g>
     <g id="text_4">
      <!-- 04.08.2022 -->
      <g transform="translate(193.791526 340.859189)rotate(-45)scale(0.1 -0.1)">
       <defs>
        <path id="DejaVuSans-34" d="M 2419 4116 
L 825 1625 
L 2419 1625 
L 2419 4116 
z
M 2253 4666 
L 3047 4666 
L 3047 1625 
L 3713 1625 
L 3713 1100 
L 3047 1100 
L 3047 0 
L 2419 0 
L 2419 1100 
L 313 1100 
L 313 1709 
L 2253 4666 
z
" transform="scale(0.015625)"/>
       </defs>
       <use xlink:href="#DejaVuSans-30"/>
       <use xlink:href="#DejaVuSans-34" x="63.623047"/>
       <use xlink:href="#DejaVuSans-2e" x="127.246094"/>
       <use xlink:href="#DejaVuSans-30" x="159.033203"/>
       <use xlink:href="#DejaVuSans-38" x="222.65625"/>
       <use xlink:href="#DejaVuSans-2e" x="286.279297"/>
       <use xlink:href="#DejaVuSans-32" x="318.066406"/>
       <use xlink:href="#DejaVuSans-30" x="381.689453"/>
       <use xlink:href="#DejaVuSans-32" x="445.3125"/>
       <use xlink:href="#DejaVuSans-32" x="508.935547"/>
      </g>
     </g>
    </g>
    <g id="xtick_5">
     <g id="line2d_9">
      <path d="M 285.18065 288 
L 285.18065 36 
" clip-path="url(#p90efc29f45)" style="fill: none; stroke: #b0b0b0; stroke-opacity: 0.7; stroke-width: 0.8; stroke-linecap: square"/>
     </g>
     <g id="line2d_10">
      <g>
       <use xlink:href="#m1ec0a47bf3" x="285.18065" y="288" style="stroke: #000000; stroke-width: 0.8"/>
      </g>
     </g>
     <g id="text_5">
      <!-- 05.08.2022 -->
      <g transform="translate(243.223807 340.859189)rotate(-45)scale(0.1 -0.1)">
       <defs>
        <path id="DejaVuSans-35" d="M 691 4666 
L 3169 4666 
L 3169 4134 
L 1269 4134 
L 1269 2991 
Q 1406 3038 1543 3061 
Q 1681 3084 1819 3084 
Q 2600 3084 3056 2656 
Q 3513 2228 3513 1497 
Q 3513 744 3044 326 
Q 2575 -91 1722 -91 
Q 1428 -91 1123 -41 
Q 819 9 494 109 
L 494 744 
Q 775 591 1075 516 
Q 1375 441 1709 441 
Q 2250 441 2565 725 
Q 2881 1009 2881 1497 
Q 2881 1984 2565 2268 
Q 2250 2553 1709 2553 
Q 1456 2553 1204 2497 
Q 953 2441 691 2322 
L 691 4666 
z
" transform="scale(0.015625)"/>
       </defs>
       <use xlink:href="#DejaVuSans-30"/>
       <use xlink:href="#DejaVuSans-35" x="63.623047"/>
       <use xlink:href="#DejaVuSans-2e" x="127.246094"/>
       <use xlink:href="#DejaVuSans-30" x="159.033203"/>
       <use xlink:href="#DejaVuSans-38" x="222.65625"/>
       <use xlink:href="#DejaVuSans-2e" x="286.279297"/>
       <use xlink:href="#DejaVuSans-32" x="318.066406"/>
       <use xlink:href="#DejaVuSans-30" x="381.689453"/>
       <use xlink:href="#DejaVuSans-32" x="445.3125"/>
       <use xlink:href="#DejaVuSans-32" x="508.935547"/>
      </g>
     </g>
    </g>
    <g id="xtick_6">
     <g id="line2d_11">
      <path d="M 334.612932 288 
L 334.612932 36 
" clip-path="url(#p90efc29f45)" style="fill: none; stroke: #b0b0b0; stroke-opacity: 0.7; stroke-width: 0.8; stroke-linecap: square"/>
     </g>
     <g id="line2d_12">
      <g>
       <use xlink:href="#m1ec0a47bf3" x="334.612932" y="288" style="stroke: #000000; stroke-width: 0.8"/>
      </g>
     </g>
     <g id="text_6">
      <!-- 06.08.2022 -->
      <g transform="translate(292.656088 340.859189)rotate(-45)scale(0.1 -0.1)">
       <defs>
        <path id="DejaVuSans-36" d="M 2113 2584 
Q 1688 2584 1439 2293 
Q 1191 2003 1191 1497 
Q 1191 994 1439 701 
Q 1688 409 2113 409 
Q 2538 409 2786 701 
Q 3034 994 3034 1497 
Q 3034 2003 2786 2293 
Q 2538 2584 2113 2584 
z
M 3366 4563 
L 3366 3988 
Q 3128 4100 2886 4159 
Q 2644 4219 2406 4219 
Q 1781 4219 1451 3797 
Q 1122 3375 1075 2522 
Q 1259 2794 1537 2939 
Q 1816 3084 2150 3084 
Q 2853 3084 3261 2657 
Q 3669 2231 3669 1497 
Q 3669 778 3244 343 
Q 2819 -91 2113 -91 
Q 1303 -91 875 529 
Q 447 1150 447 2328 
Q 447 3434 972 4092 
Q 1497 4750 2381 4750 
Q 2619 4750 2861 4703 
Q 3103 4656 3366 4563 
z
" transform="scale(0.015625)"/>
       </defs>
       <use xlink:href="#DejaVuSans-30"/>
       <use xlink:href="#DejaVuSans-36" x="63.623047"/>
       <use xlink:href="#DejaVuSans-2e" x="127.246094"/>
       <use xlink:href="#DejaVuSans-30" x="159.033203"/>
       <use xlink:href="#DejaVuSans-38" x="222.65625"/>
       <use xlink:href="#DejaVuSans-2e" x="286.279297"/>
       <use xlink:href="#DejaVuSans-32" x="318.066406"/>
       <use xlink:href="#DejaVuSans-30" x="381.689453"/>
       <use xlink:href="#DejaVuSans-32" x="445.3125"/>
       <use xlink:href="#DejaVuSans-32" x="508.935547"/>
      </g>
     </g>
    </g>
    <g id="xtick_7">
     <g id="line2d_13">
      <path d="M 384.045213 288 
L 384.045213 36 
" clip-path="url(#p90efc29f45)" style="fill: none; stroke: #b0b0b0; stroke-opacity: 0.7; stroke-width: 0.8; stroke-linecap: square"/>
     </g>
     <g id="line2d_14">
      <g>
       <use xlink:href="#m1ec0a47bf3" x="384.045213" y="288" style="stroke: #000000; stroke-width: 0.8"/>
      </g>
     </g>
     <g id="text_7">
      <!-- 07.08.2022 -->
      <g transform="translate(342.088369 340.859189)rotate(-45)scale(0.1 -0.1)">
       <defs>
        <path id="DejaVuSans-37" d="M 525 4666 
L 3525 4666 
L 3525 4397 
L 1831 0 
L 1172 0 
L 2766 4134 
L 525 4134 
L 525 4666 
z
" transform="scale(0.015625)"/>
       </defs>
       <use xlink:href="#DejaVuSans-30"/>
       <use xlink:href="#DejaVuSans-37" x="63.623047"/>
       <use xlink:href="#DejaVuSans-2e" x="127.246094"/>
       <use xlink:href="#DejaVuSans-30" x="159.033203"/>
       <use xlink:href="#DejaVuSans-38" x="222.65625"/>
       <use xlink:href="#DejaVuSans-2e" x="286.279297"/>
       <use xlink:href="#DejaVuSans-32" x="318.066406"/>
       <use xlink:href="#DejaVuSans-30" x="381.689453"/>
       <use xlink:href="#DejaVuSans-32" x="445.3125"/>
       <use xlink:href="#DejaVuSans-32" x="508.935547"/>
      </g>
     </g>
    </g>
    <g id="xtick_8">
     <g id="line2d_15">
      <path d="M 433.477494 288 
L 433.477494 36 
" clip-path="url(#p90efc29f45)" style="fill: none; stroke: #b0b0b0; stroke-opacity: 0.7; stroke-width: 0.8; stroke-linecap: square"/>
     </g>
     <g id="line2d_16">
      <g>
       <use xlink:href="#m1ec0a47bf3" x="433.477494" y="288" style="stroke: #000000; stroke-width: 0.8"/>
      </g>
     </g>
     <g id="text_8">
      <!-- 08.08.2022 -->
      <g transform="translate(391.52065 340.859189)rotate(-45)scale(0.1 -0.1)">
       <use xlink:href="#DejaVuSans-30"/>
       <use xlink:href="#DejaVuSans-38" x="63.623047"/>
       <use xlink:href="#DejaVuSans-2e" x="127.246094"/>
       <use xlink:href="#DejaVuSans-30" x="159.033203"/>
       <use xlink:href="#DejaVuSans-38" x="222.65625"/>
       <use xlink:href="#DejaVuSans-2e" x="286.279297"/>
       <use xlink:href="#DejaVuSans-32" x="318.066406"/>
       <use xlink:href="#DejaVuSans-30" x="381.689453"/>
       <use xlink:href="#DejaVuSans-32" x="445.3125"/>
       <use xlink:href="#DejaVuSans-32" x="508.935547"/>
      </g>
     </g>
    </g>
    <g id="xtick_9">
     <g id="line2d_17">
      <path d="M 482.909775 288 
L 482.909775 36 
" clip-path="url(#p90efc29f45)" style="fill: none; stroke: #b0b0b0; stroke-opacity: 0.7; stroke-width: 0.8; stroke-linecap: square"/>
     </g>
     <g id="line2d_18">
      <g>
       <use xlink:href="#m1ec0a47bf3" x="482.909775" y="288" style="stroke: #000000; stroke-width: 0.8"/>
      </g>
     </g>
     <g id="text_9">
      <!-- 09.08.2022 -->
      <g transform="translate(440.952931 340.859189)rotate(-45)scale(0.1 -0.1)">
       <defs>
        <path id="DejaVuSans-39" d="M 703 97 
L 703 672 
Q 941 559 1184 500 
Q 1428 441 1663 441 
Q 2288 441 2617 861 
Q 2947 1281 2994 2138 
Q 2813 1869 2534 1725 
Q 2256 1581 1919 1581 
Q 1219 1581 811 2004 
Q 403 2428 403 3163 
Q 403 3881 828 4315 
Q 1253 4750 1959 4750 
Q 2769 4750 3195 4129 
Q 3622 3509 3622 2328 
Q 3622 1225 3098 567 
Q 2575 -91 1691 -91 
Q 1453 -91 1209 -44 
Q 966 3 703 97 
z
M 1959 2075 
Q 2384 2075 2632 2365 
Q 2881 2656 2881 3163 
Q 2881 3666 2632 3958 
Q 2384 4250 1959 4250 
Q 1534 4250 1286 3958 
Q 1038 3666 1038 3163 
Q 1038 2656 1286 2365 
Q 1534 2075 1959 2075 
z
" transform="scale(0.015625)"/>
       </defs>
       <use xlink:href="#DejaVuSans-30"/>
       <use xlink:href="#DejaVuSans-39" x="63.623047"/>
       <use xlink:href="#DejaVuSans-2e" x="127.246094"/>
       <use xlink:href="#DejaVuSans-30" x="159.033203"/>
       <use xlink:href="#DejaVuSans-38" x="222.65625"/>
       <use xlink:href="#DejaVuSans-2e" x="286.279297"/>
       <use xlink:href="#DejaVuSans-32" x="318.066406"/>
       <use xlink:href="#DejaVuSans-30" x="381.689453"/>
       <use xlink:href="#DejaVuSans-32" x="445.3125"/>
       <use xlink:href="#DejaVuSans-32" x="508.935547"/>
      </g>
     </g>
    </g>
    <g id="xtick_10">
     <g id="line2d_19">
      <path d="M 532.342056 288 
L 532.342056 36 
" clip-path="url(#p90efc29f45)" style="fill: none; stroke: #b0b0b0; stroke-opacity: 0.7; stroke-width: 0.8; stroke-linecap: square"/>
     </g>
     <g id="line2d_20">
      <g>
       <use xlink:href="#m1ec0a47bf3" x="532.342056" y="288" style="stroke: #000000; stroke-width: 0.8"/>
      </g>
     </g>
     <g id="text_10">
      <!-- 10.08.2022 -->
      <g transform="translate(490.385212 340.859189)rotate(-45)scale(0.1 -0.1)">
       <use xlink:href="#DejaVuSans-31"/>
       <use xlink:href="#DejaVuSans-30" x="63.623047"/>
       <use xlink:href="#DejaVuSans-2e" x="127.246094"/>
       <use xlink:href="#DejaVuSans-30" x="159.033203"/>
       <use xlink:href="#DejaVuSans-38" x="222.65625"/>
       <use xlink:href="#DejaVuSans-2e" x="286.279297"/>
       <use xlink:href="#DejaVuSans-32" x="318.066406"/>
       <use xlink:href="#DejaVuSans-30" x="381.689453"/>
       <use xlink:href="#DejaVuSans-32" x="445.3125"/>
       <use xlink:href="#DejaVuSans-32" x="508.935547"/>
      </g>
     </g>
    </g>
    <g id="text_11">
     <!-- Data -->
     <g transform="translate(290.461719 353.928188)scale(0.1 -0.1)">
      <defs>
       <path id="DejaVuSans-44" d="M 1259 4147 
L 1259 519 
L 2022 519 
Q 2988 519 3436 956 
Q 3884 1394 3884 2338 
Q 3884 3275 3436 3711 
Q 2988 4147 2022 4147 
L 1259 4147 
z
M 628 4666 
L 1925 4666 
Q 3281 4666 3915 4102 
Q 4550 3538 4550 2338 
Q 4550 1131 3912 565 
Q 3275 0 1925 0 
L 628 0 
L 628 4666 
z
" transform="scale(0.015625)"/>
       <path id="DejaVuSans-61" d="M 2194 1759 
Q 1497 1759 1228 1600 
Q 959 1441 959 1056 
Q 959 750 1161 570 
Q 1363 391 1709 391 
Q 2188 391 2477 730 
Q 2766 1069 2766 1631 
L 2766 1759 
L 2194 1759 
z
M 3341 1997 
L 3341 0 
L 2766 0 
L 2766 531 
Q 2569 213 2275 61 
Q 1981 -91 1556 -91 
Q 1019 -91 701 211 
Q 384 513 384 1019 
Q 384 1609 779 1909 
Q 1175 2209 1959 2209 
L 2766 2209 
L 2766 2266 
Q 2766 2663 2505 2880 
Q 2244 3097 1772 3097 
Q 1472 3097 1187 3025 
Q 903 2953 641 2809 
L 641 3341 
Q 956 3463 1253 3523 
Q 1550 3584 1831 3584 
Q 2591 3584 2966 3190 
Q 3341 2797 3341 1997 
z
" transform="scale(0.015625)"/>
       <path id="DejaVuSans-74" d="M 1172 4494 
L 1172 3500 
L 2356 3500 
L 2356 3053 
L 1172 3053 
L 1172 1153 
Q 1172 725 1289 603 
Q 1406 481 1766 481 
L 2356 481 
L 2356 0 
L 1766 0 
Q 1100 0 847 248 
Q 594 497 594 1153 
L 594 3053 
L 172 3053 
L 172 3500 
L 594 3500 
L 594 4494 
L 1172 4494 
z
" transform="scale(0.015625)"/>
      </defs>
      <use xlink:href="#DejaVuSans-44"/>
      <use xlink:href="#DejaVuSans-61" x="77.001953"/>
      <use xlink:href="#DejaVuSans-74" x="138.28125"/>
      <use xlink:href="#DejaVuSans-61" x="177.490234"/>
     </g>
    </g>
   </g>
   <g id="matplotlib.axis_2">
    <g id="ytick_1">
     <g id="line2d_21">
      <defs>
       <path id="mff55e805a0" d="M 0 0 
L -3.5 0 
" style="stroke: #000000; stroke-width: 0.8"/>
      </defs>
      <g>
       <use xlink:href="#mff55e805a0" x="57.6" y="288" style="stroke: #000000; stroke-width: 0.8"/>
      </g>
     </g>
     <g id="text_12">
      <!-- 0 -->
      <g transform="translate(44.2375 291.799219)scale(0.1 -0.1)">
       <use xlink:href="#DejaVuSans-30"/>
      </g>
     </g>
    </g>
    <g id="ytick_2">
     <g id="line2d_22">
      <g>
       <use xlink:href="#mff55e805a0" x="57.6" y="253.951505" style="stroke: #000000; stroke-width: 0.8"/>
      </g>
     </g>
     <g id="text_13">
      <!-- 25 -->
      <g transform="translate(37.875 257.750724)scale(0.1 -0.1)">
       <use xlink:href="#DejaVuSans-32"/>
       <use xlink:href="#DejaVuSans-35" x="63.623047"/>
      </g>
     </g>
    </g>
    <g id="ytick_3">
     <g id="line2d_23">
      <g>
       <use xlink:href="#mff55e805a0" x="57.6" y="219.903011" style="stroke: #000000; stroke-width: 0.8"/>
      </g>
     </g>
     <g id="text_14">
      <!-- 50 -->
      <g transform="translate(37.875 223.70223)scale(0.1 -0.1)">
       <use xlink:href="#DejaVuSans-35"/>
       <use xlink:href="#DejaVuSans-30" x="63.623047"/>
      </g>
     </g>
    </g>
    <g id="ytick_4">
     <g id="line2d_24">
      <g>
       <use xlink:href="#mff55e805a0" x="57.6" y="185.854516" style="stroke: #000000; stroke-width: 0.8"/>
      </g>
     </g>
     <g id="text_15">
      <!-- 75 -->
      <g transform="translate(37.875 189.653735)scale(0.1 -0.1)">
       <use xlink:href="#DejaVuSans-37"/>
       <use xlink:href="#DejaVuSans-35" x="63.623047"/>
      </g>
     </g>
    </g>
    <g id="ytick_5">
     <g id="line2d_25">
      <g>
       <use xlink:href="#mff55e805a0" x="57.6" y="151.806022" style="stroke: #000000; stroke-width: 0.8"/>
      </g>
     </g>
     <g id="text_16">
      <!-- 100 -->
      <g transform="translate(31.5125 155.605241)scale(0.1 -0.1)">
       <use xlink:href="#DejaVuSans-31"/>
       <use xlink:href="#DejaVuSans-30" x="63.623047"/>
       <use xlink:href="#DejaVuSans-30" x="127.246094"/>
      </g>
     </g>
    </g>
    <g id="ytick_6">
     <g id="line2d_26">
      <g>
       <use xlink:href="#mff55e805a0" x="57.6" y="117.757527" style="stroke: #000000; stroke-width: 0.8"/>
      </g>
     </g>
     <g id="text_17">
      <!-- 125 -->
      <g transform="translate(31.5125 121.556746)scale(0.1 -0.1)">
       <use xlink:href="#DejaVuSans-31"/>
       <use xlink:href="#DejaVuSans-32" x="63.623047"/>
       <use xlink:href="#DejaVuSans-35" x="127.246094"/>
      </g>
     </g>
    </g>
    <g id="ytick_7">
     <g id="line2d_27">
      <g>
       <use xlink:href="#mff55e805a0" x="57.6" y="83.709033" style="stroke: #000000; stroke-width: 0.8"/>
      </g>
     </g>
     <g id="text_18">
      <!-- 150 -->
      <g transform="translate(31.5125 87.508251)scale(0.1 -0.1)">
       <use xlink:href="#DejaVuSans-31"/>
       <use xlink:href="#DejaVuSans-35" x="63.623047"/>
       <use xlink:href="#DejaVuSans-30" x="127.246094"/>
      </g>
     </g>
    </g>
    <g id="ytick_8">
     <g id="line2d_28">
      <g>
       <use xlink:href="#mff55e805a0" x="57.6" y="49.660538" style="stroke: #000000; stroke-width: 0.8"/>
      </g>
     </g>
     <g id="text_19">
      <!-- 175 -->
      <g transform="translate(31.5125 53.459757)scale(0.1 -0.1)">
       <use xlink:href="#DejaVuSans-31"/>
       <use xlink:href="#DejaVuSans-37" x="63.623047"/>
       <use xlink:href="#DejaVuSans-35" x="127.246094"/>
      </g>
     </g>
    </g>
    <g id="text_20">
     <!-- Czas (s) -->
     <g transform="translate(25.432812 181.879687)rotate(-90)scale(0.1 -0.1)">
      <defs>
       <path id="DejaVuSans-43" d="M 4122 4306 
L 4122 3641 
Q 3803 3938 3442 4084 
Q 3081 4231 2675 4231 
Q 1875 4231 1450 3742 
Q 1025 3253 1025 2328 
Q 1025 1406 1450 917 
Q 1875 428 2675 428 
Q 3081 428 3442 575 
Q 3803 722 4122 1019 
L 4122 359 
Q 3791 134 3420 21 
Q 3050 -91 2638 -91 
Q 1578 -91 968 557 
Q 359 1206 359 2328 
Q 359 3453 968 4101 
Q 1578 4750 2638 4750 
Q 3056 4750 3426 4639 
Q 3797 4528 4122 4306 
z
" transform="scale(0.015625)"/>
       <path id="DejaVuSans-7a" d="M 353 3500 
L 3084 3500 
L 3084 2975 
L 922 459 
L 3084 459 
L 3084 0 
L 275 0 
L 275 525 
L 2438 3041 
L 353 3041 
L 353 3500 
z
" transform="scale(0.015625)"/>
       <path id="DejaVuSans-73" d="M 2834 3397 
L 2834 2853 
Q 2591 2978 2328 3040 
Q 2066 3103 1784 3103 
Q 1356 3103 1142 2972 
Q 928 2841 928 2578 
Q 928 2378 1081 2264 
Q 1234 2150 1697 2047 
L 1894 2003 
Q 2506 1872 2764 1633 
Q 3022 1394 3022 966 
Q 3022 478 2636 193 
Q 2250 -91 1575 -91 
Q 1294 -91 989 -36 
Q 684 19 347 128 
L 347 722 
Q 666 556 975 473 
Q 1284 391 1588 391 
Q 1994 391 2212 530 
Q 2431 669 2431 922 
Q 2431 1156 2273 1281 
Q 2116 1406 1581 1522 
L 1381 1569 
Q 847 1681 609 1914 
Q 372 2147 372 2553 
Q 372 3047 722 3315 
Q 1072 3584 1716 3584 
Q 2034 3584 2315 3537 
Q 2597 3491 2834 3397 
z
" transform="scale(0.015625)"/>
       <path id="DejaVuSans-20" transform="scale(0.015625)"/>
       <path id="DejaVuSans-28" d="M 1984 4856 
Q 1566 4138 1362 3434 
Q 1159 2731 1159 2009 
Q 1159 1288 1364 580 
Q 1569 -128 1984 -844 
L 1484 -844 
Q 1016 -109 783 600 
Q 550 1309 550 2009 
Q 550 2706 781 3412 
Q 1013 4119 1484 4856 
L 1984 4856 
z
" transform="scale(0.015625)"/>
       <path id="DejaVuSans-29" d="M 513 4856 
L 1013 4856 
Q 1481 4119 1714 3412 
Q 1947 2706 1947 2009 
Q 1947 1309 1714 600 
Q 1481 -109 1013 -844 
L 513 -844 
Q 928 -128 1133 580 
Q 1338 1288 1338 2009 
Q 1338 2731 1133 3434 
Q 928 4138 513 4856 
z
" transform="scale(0.015625)"/>
      </defs>
      <use xlink:href="#DejaVuSans-43"/>
      <use xlink:href="#DejaVuSans-7a" x="69.824219"/>
      <use xlink:href="#DejaVuSans-61" x="122.314453"/>
      <use xlink:href="#DejaVuSans-73" x="183.59375"/>
      <use xlink:href="#DejaVuSans-20" x="235.693359"/>
      <use xlink:href="#DejaVuSans-28" x="267.480469"/>
      <use xlink:href="#DejaVuSans-73" x="306.494141"/>
      <use xlink:href="#DejaVuSans-29" x="358.59375"/>
     </g>
    </g>
   </g>
   <g id="line2d_29">
    <path d="M 79.854545 242.065607 
L 81.914081 259.090842 
L 83.973849 256.863807 
L 86.033039 232.207491 
L 88.092752 217.63761 
L 90.152542 239.60364 
L 92.21223 217.169068 
L 94.271732 256.549024 
L 96.331558 232.942915 
L 98.391222 242.814139 
L 100.450885 223.857714 
L 102.510708 218.145199 
L 104.570292 232.96296 
L 106.629882 191.813293 
L 108.689654 224.51547 
L 110.749522 243.234033 
L 112.809321 242.593044 
L 114.868938 243.266404 
L 116.928637 218.057977 
L 118.988213 241.473197 
L 121.048098 192.170616 
L 123.232794 228.175892 
L 125.292117 237.571673 
L 127.352599 253.201618 
L 129.414268 238.514145 
L 131.471546 253.226642 
L 133.530965 246.805525 
L 135.59062 228.404085 
L 137.650506 227.501041 
L 139.710037 228.815216 
L 141.770127 221.700886 
L 143.829587 211.896659 
L 145.889121 221.109807 
L 147.948997 220.312294 
L 150.008906 237.808027 
L 152.06848 230.182249 
L 154.128234 220.865011 
L 156.188146 222.812731 
L 158.247413 196.976313 
L 160.307218 237.155604 
L 162.367273 182.004222 
L 164.427798 248.48131 
L 166.486949 245.491503 
L 168.546515 238.142326 
L 170.606447 222.00911 
L 172.665608 230.806532 
L 174.725417 245.576123 
L 176.785374 245.305708 
L 178.848618 169.722109 
L 180.908238 242.34075 
L 182.967354 235.328788 
L 185.026231 249.888397 
L 187.086138 242.704435 
L 189.145887 241.376287 
L 191.205589 209.906054 
L 193.265208 217.362978 
L 195.325508 217.882866 
L 197.385323 202.553415 
L 199.445212 219.825079 
L 201.504843 235.607677 
L 203.564935 227.069972 
L 205.624481 209.237704 
L 207.684095 226.867645 
L 209.743998 243.193774 
L 211.801202 249.165242 
L 213.860822 222.98168 
L 215.920622 247.368887 
L 217.980397 232.10642 
L 220.094004 240.379638 
L 222.153086 198.063516 
L 224.212879 196.385397 
L 226.272895 214.335493 
L 228.334374 233.684539 
L 230.393696 232.581297 
L 232.453567 215.441896 
L 234.511589 222.288616 
L 236.572959 207.06087 
L 238.632803 248.211561 
L 240.69298 226.314179 
L 242.752209 247.4016 
L 244.812097 231.607636 
L 248.9311 249.115434 
L 250.990933 224.351626 
L 253.050603 256.402505 
L 255.10917 242.246761 
L 257.168784 223.529603 
L 259.228223 230.946896 
L 261.288259 239.07884 
L 263.348113 239.46595 
L 265.407738 246.662877 
L 267.467458 249.161582 
L 269.527208 248.601836 
L 271.586742 241.406824 
L 273.646633 222.432378 
L 275.706657 232.293812 
L 277.766887 233.814801 
L 279.828422 236.137972 
L 281.886213 250.694718 
L 283.94886 244.20534 
L 286.007244 259.945322 
L 288.067191 244.417635 
L 290.126881 250.880731 
L 292.186824 212.737738 
L 294.247277 252.591667 
L 296.306064 251.104961 
L 298.366225 252.466736 
L 300.425834 244.509073 
L 302.485753 245.57204 
L 304.545645 243.006372 
L 306.605284 229.919622 
L 308.664707 197.505269 
L 310.724783 203.119407 
L 312.784683 246.591071 
L 314.844439 252.791148 
L 316.904665 239.398059 
L 318.964049 239.351313 
L 321.023394 221.275741 
L 323.083577 232.832179 
L 325.140895 242.778449 
L 327.200318 242.406488 
L 329.259856 251.925161 
L 331.320809 245.866797 
L 333.340902 260.329484 
L 335.39842 226.241898 
L 337.458417 241.859446 
L 339.518145 248.608286 
L 341.578167 242.540004 
L 345.696972 256.36005 
L 347.756587 251.226022 
L 349.816395 250.47381 
L 351.875959 243.626562 
L 353.935792 241.707704 
L 355.995472 257.645707 
L 358.055287 248.475419 
L 360.115173 241.037945 
L 362.176017 236.433978 
L 364.234806 225.71674 
L 366.295446 251.247513 
L 368.354785 235.563563 
L 370.414624 236.095606 
L 372.473624 251.367366 
L 374.533488 243.387849 
L 376.593399 227.122237 
L 378.652799 258.269872 
L 380.713075 252.077943 
L 382.772876 250.634094 
L 384.83688 225.274053 
L 386.894576 231.735799 
L 388.954892 256.988021 
L 391.013817 229.798867 
L 393.073726 238.351667 
L 395.133785 248.878305 
L 397.19309 214.030168 
L 399.252814 231.606619 
L 401.313131 217.180555 
L 403.372851 248.336956 
L 405.435599 253.517721 
L 407.493851 234.177105 
L 409.552236 247.864003 
L 411.609719 231.506731 
L 413.669009 229.60117 
L 415.72892 246.020163 
L 417.788764 255.470829 
L 419.84971 256.017894 
L 421.909001 238.731698 
L 423.969092 249.313352 
L 426.027769 238.925831 
L 428.139767 192.815827 
L 430.199267 260.099202 
L 432.258244 225.349006 
L 434.317896 249.086675 
L 436.377442 233.85807 
L 438.437381 225.720101 
L 440.497095 234.921297 
L 442.556747 241.519987 
L 444.616788 243.422112 
L 446.676454 233.78713 
L 448.736066 226.760424 
L 450.795715 257.991142 
L 452.855541 217.877913 
L 454.915403 219.776833 
L 456.974611 228.00721 
L 459.035223 244.858567 
L 461.094199 241.832173 
L 463.153867 242.894057 
L 465.213536 240.998494 
L 467.273142 252.618069 
L 469.333369 235.669187 
L 471.392162 240.525157 
L 473.451977 236.025253 
L 475.511771 233.323977 
L 477.571772 252.337637 
L 479.633401 244.537765 
L 481.692917 244.258146 
L 483.751432 245.031813 
L 485.810579 243.737741 
L 487.870352 228.128853 
L 489.929878 252.790434 
L 491.989817 244.711811 
L 494.04964 234.149958 
L 496.109239 252.411735 
L 498.168767 235.795393 
L 500.228802 250.692587 
L 502.28823 258.861057 
L 504.347991 261.538979 
L 506.408508 253.696572 
L 508.467814 245.021985 
L 510.527498 238.109334 
L 512.587173 243.531566 
L 514.646667 254.021664 
L 516.706501 254.163574 
L 518.766204 237.632117 
L 520.825951 246.004388 
L 522.88578 238.0417 
L 524.945455 236.287072 
L 524.945455 236.287072 
" clip-path="url(#p90efc29f45)" style="fill: none; stroke: #1f77b4; stroke-width: 1.5; stroke-linecap: square"/>
   </g>
   <g id="line2d_30">
    <path d="M 79.854545 168.269324 
L 81.914081 208.813519 
L 83.973849 193.09406 
L 86.033039 151.464787 
L 88.092752 159.464606 
L 90.152542 184.213413 
L 92.21223 110.90547 
L 94.271732 198.932447 
L 96.331558 183.53942 
L 98.391222 192.282589 
L 100.450885 168.573171 
L 102.510708 136.174987 
L 104.570292 176.531006 
L 106.629882 134.38315 
L 108.689654 175.597802 
L 110.749522 176.126501 
L 112.809321 192.961519 
L 114.868938 168.240779 
L 116.928637 167.674677 
L 118.988213 168.471908 
L 121.048098 103.459413 
L 123.232794 163.008049 
L 125.292117 187.220601 
L 127.352599 196.734779 
L 129.414268 181.961159 
L 131.471546 196.671298 
L 133.530965 155.021203 
L 135.59062 170.962284 
L 137.650506 163.79909 
L 139.710037 171.217149 
L 141.770127 155.669846 
L 143.829587 155.288965 
L 145.889121 163.875995 
L 147.948997 131.348229 
L 150.008906 180.348397 
L 152.06848 155.369237 
L 154.128234 154.944548 
L 156.188146 155.519813 
L 158.247413 139.398281 
L 160.307218 172.641156 
L 162.367273 106.97991 
L 164.427798 197.986945 
L 166.486949 189.746637 
L 168.546515 139.953445 
L 170.606447 132.70435 
L 172.665608 172.767387 
L 174.725417 155.737381 
L 176.785374 181.970374 
L 178.848618 120 
L 180.908238 194.140015 
L 182.967354 167.901394 
L 185.026231 160.111849 
L 187.086138 176.983705 
L 189.145887 176.924379 
L 191.205589 111.501836 
L 195.325508 160.654777 
L 197.385323 145.510019 
L 199.445212 161.004587 
L 201.504843 136.34964 
L 203.564935 153.728603 
L 205.624481 129.637913 
L 207.684095 170.034434 
L 209.743998 136.721143 
L 211.801202 175.678057 
L 213.860822 150.886726 
L 215.920622 192.575541 
L 217.980397 168.079641 
L 220.094004 173.635521 
L 222.153086 131.345692 
L 224.212879 107.686001 
L 226.272895 156.503702 
L 228.334374 159.337535 
L 230.393696 166.08895 
L 232.453567 157.656183 
L 234.511589 164.448322 
L 236.572959 117.838592 
L 238.632803 150.912946 
L 240.69298 167.638941 
L 242.752209 191.608442 
L 244.812097 184.063974 
L 246.871883 183.965207 
L 248.9311 199.32201 
L 250.990933 143.421913 
L 253.050603 200.133769 
L 255.10917 173.999155 
L 257.168784 149.495834 
L 259.228223 149.033639 
L 261.288259 174.313827 
L 263.348113 174.09938 
L 265.407738 197.995001 
L 267.467458 198.959459 
L 269.527208 199.643428 
L 271.586742 157.39776 
L 273.646633 175.169481 
L 275.706657 175.209502 
L 277.766887 176.763473 
L 279.828422 170.310484 
L 281.886213 184.521219 
L 283.94886 186.970316 
L 286.007244 194.781669 
L 288.067191 194.221075 
L 290.126881 201.818787 
L 292.186824 162.150021 
L 294.247277 196.634218 
L 296.306064 195.213495 
L 300.425834 179.991951 
L 302.485753 196.698527 
L 304.545645 180.225738 
L 306.605284 179.600121 
L 308.664707 146.765654 
L 310.724783 138.775186 
L 312.784683 196.887832 
L 314.844439 196.186935 
L 316.904665 180.905321 
L 318.964049 157.101011 
L 321.023394 172.025091 
L 323.083577 172.981241 
L 325.140895 195.623635 
L 327.200318 195.204339 
L 329.259856 201.75541 
L 331.320809 195.528675 
L 333.340902 194.34155 
L 335.39842 175.422429 
L 337.458417 174.490929 
L 339.518145 192.792913 
L 341.578167 184.382291 
L 343.636988 193.295008 
L 345.696972 200.997049 
L 347.756587 192.931679 
L 349.816395 200.216178 
L 351.875959 193.373551 
L 353.935792 184.572222 
L 355.995472 202.073771 
L 358.055287 192.891931 
L 360.115173 185.725101 
L 362.176017 178.111565 
L 364.234806 177.074282 
L 366.295446 195.914877 
L 368.354785 176.895109 
L 370.414624 161.997621 
L 372.473624 185.801572 
L 374.533488 186.389708 
L 376.593399 169.859135 
L 378.652799 211.17109 
L 380.713075 203.396628 
L 382.772876 203.32173 
L 384.83688 168.033615 
L 386.894576 173.545509 
L 388.954892 182.780373 
L 391.013817 174.016194 
L 393.073726 181.562386 
L 395.133785 198.887487 
L 397.19309 156.773416 
L 399.252814 183.169087 
L 401.313131 158.998441 
L 403.372851 191.199429 
L 405.435599 195.45915 
L 407.493851 176.188912 
L 409.552236 191.960993 
L 411.609719 171.841721 
L 415.72892 189.615896 
L 417.788764 197.505746 
L 419.84971 199.297217 
L 421.909001 182.355006 
L 423.969092 199.029687 
L 426.027769 188.662666 
L 428.139767 128.58075 
L 430.199267 209.802774 
L 432.258244 150.776455 
L 434.317896 192.159405 
L 436.377442 176.196625 
L 438.437381 167.70086 
L 440.497095 168.660585 
L 442.556747 184.065067 
L 444.616788 177.252767 
L 446.676454 177.325114 
L 448.736066 169.354672 
L 450.795715 194.33668 
L 452.855541 160.994304 
L 454.915403 160.71892 
L 456.974611 144.306166 
L 459.035223 194.402933 
L 461.094199 186.150429 
L 463.153867 194.616103 
L 465.213536 192.515053 
L 467.273142 201.862715 
L 469.333369 185.723747 
L 471.392162 193.221192 
L 473.451977 176.452688 
L 475.511771 186.709065 
L 477.571772 202.36415 
L 479.633401 197.257873 
L 481.692917 195.404071 
L 483.751432 186.764322 
L 485.810579 193.924528 
L 487.870352 177.495653 
L 489.929878 202.096625 
L 491.989817 194.911649 
L 494.04964 187.192153 
L 496.109239 203.608486 
L 498.168767 186.374134 
L 500.228802 203.773555 
L 502.28823 211.444238 
L 504.347991 211.0277 
L 506.408508 203.283268 
L 508.467814 196.160035 
L 510.527498 187.734413 
L 512.587173 196.215069 
L 514.646667 203.747559 
L 516.706501 203.640534 
L 518.766204 187.813439 
L 520.825951 195.84916 
L 522.88578 188.155704 
L 524.945455 188.335431 
L 524.945455 188.335431 
" clip-path="url(#p90efc29f45)" style="fill: none; stroke: #ff7f0e; stroke-width: 1.5; stroke-linecap: square"/>
   </g>
   <g id="patch_3">
    <path d="M 57.6 288 
L 57.6 36 
" style="fill: none; stroke: #000000; stroke-width: 0.8; stroke-linejoin: miter; stroke-linecap: square"/>
   </g>
   <g id="patch_4">
    <path d="M 547.2 288 
L 547.2 36 
" style="fill: none; stroke: #000000; stroke-width: 0.8; stroke-linejoin: miter; stroke-linecap: square"/>
   </g>
   <g id="patch_5">
    <path d="M 57.6 288 
L 547.2 288 
" style="fill: none; stroke: #000000; stroke-width: 0.8; stroke-linejoin: miter; stroke-linecap: square"/>
   </g>
   <g id="patch_6">
    <path d="M 57.6 36 
L 547.2 36 
" style="fill: none; stroke: #000000; stroke-width: 0.8; stroke-linejoin: miter; stroke-linecap: square"/>
   </g>
   <g id="text_21">
    <!-- Czas do uzyskania potwierdzen transakcji dla sieci 'Ethereum Ropsten' -->
    <g transform="translate(90.021562 30)scale(0.12 -0.12)">
     <defs>
      <path id="DejaVuSans-64" d="M 2906 2969 
L 2906 4863 
L 3481 4863 
L 3481 0 
L 2906 0 
L 2906 525 
Q 2725 213 2448 61 
Q 2172 -91 1784 -91 
Q 1150 -91 751 415 
Q 353 922 353 1747 
Q 353 2572 751 3078 
Q 1150 3584 1784 3584 
Q 2172 3584 2448 3432 
Q 2725 3281 2906 2969 
z
M 947 1747 
Q 947 1113 1208 752 
Q 1469 391 1925 391 
Q 2381 391 2643 752 
Q 2906 1113 2906 1747 
Q 2906 2381 2643 2742 
Q 2381 3103 1925 3103 
Q 1469 3103 1208 2742 
Q 947 2381 947 1747 
z
" transform="scale(0.015625)"/>
      <path id="DejaVuSans-6f" d="M 1959 3097 
Q 1497 3097 1228 2736 
Q 959 2375 959 1747 
Q 959 1119 1226 758 
Q 1494 397 1959 397 
Q 2419 397 2687 759 
Q 2956 1122 2956 1747 
Q 2956 2369 2687 2733 
Q 2419 3097 1959 3097 
z
M 1959 3584 
Q 2709 3584 3137 3096 
Q 3566 2609 3566 1747 
Q 3566 888 3137 398 
Q 2709 -91 1959 -91 
Q 1206 -91 779 398 
Q 353 888 353 1747 
Q 353 2609 779 3096 
Q 1206 3584 1959 3584 
z
" transform="scale(0.015625)"/>
      <path id="DejaVuSans-75" d="M 544 1381 
L 544 3500 
L 1119 3500 
L 1119 1403 
Q 1119 906 1312 657 
Q 1506 409 1894 409 
Q 2359 409 2629 706 
Q 2900 1003 2900 1516 
L 2900 3500 
L 3475 3500 
L 3475 0 
L 2900 0 
L 2900 538 
Q 2691 219 2414 64 
Q 2138 -91 1772 -91 
Q 1169 -91 856 284 
Q 544 659 544 1381 
z
M 1991 3584 
L 1991 3584 
z
" transform="scale(0.015625)"/>
      <path id="DejaVuSans-79" d="M 2059 -325 
Q 1816 -950 1584 -1140 
Q 1353 -1331 966 -1331 
L 506 -1331 
L 506 -850 
L 844 -850 
Q 1081 -850 1212 -737 
Q 1344 -625 1503 -206 
L 1606 56 
L 191 3500 
L 800 3500 
L 1894 763 
L 2988 3500 
L 3597 3500 
L 2059 -325 
z
" transform="scale(0.015625)"/>
      <path id="DejaVuSans-6b" d="M 581 4863 
L 1159 4863 
L 1159 1991 
L 2875 3500 
L 3609 3500 
L 1753 1863 
L 3688 0 
L 2938 0 
L 1159 1709 
L 1159 0 
L 581 0 
L 581 4863 
z
" transform="scale(0.015625)"/>
      <path id="DejaVuSans-6e" d="M 3513 2113 
L 3513 0 
L 2938 0 
L 2938 2094 
Q 2938 2591 2744 2837 
Q 2550 3084 2163 3084 
Q 1697 3084 1428 2787 
Q 1159 2491 1159 1978 
L 1159 0 
L 581 0 
L 581 3500 
L 1159 3500 
L 1159 2956 
Q 1366 3272 1645 3428 
Q 1925 3584 2291 3584 
Q 2894 3584 3203 3211 
Q 3513 2838 3513 2113 
z
" transform="scale(0.015625)"/>
      <path id="DejaVuSans-69" d="M 603 3500 
L 1178 3500 
L 1178 0 
L 603 0 
L 603 3500 
z
M 603 4863 
L 1178 4863 
L 1178 4134 
L 603 4134 
L 603 4863 
z
" transform="scale(0.015625)"/>
      <path id="DejaVuSans-70" d="M 1159 525 
L 1159 -1331 
L 581 -1331 
L 581 3500 
L 1159 3500 
L 1159 2969 
Q 1341 3281 1617 3432 
Q 1894 3584 2278 3584 
Q 2916 3584 3314 3078 
Q 3713 2572 3713 1747 
Q 3713 922 3314 415 
Q 2916 -91 2278 -91 
Q 1894 -91 1617 61 
Q 1341 213 1159 525 
z
M 3116 1747 
Q 3116 2381 2855 2742 
Q 2594 3103 2138 3103 
Q 1681 3103 1420 2742 
Q 1159 2381 1159 1747 
Q 1159 1113 1420 752 
Q 1681 391 2138 391 
Q 2594 391 2855 752 
Q 3116 1113 3116 1747 
z
" transform="scale(0.015625)"/>
      <path id="DejaVuSans-77" d="M 269 3500 
L 844 3500 
L 1563 769 
L 2278 3500 
L 2956 3500 
L 3675 769 
L 4391 3500 
L 4966 3500 
L 4050 0 
L 3372 0 
L 2619 2869 
L 1863 0 
L 1184 0 
L 269 3500 
z
" transform="scale(0.015625)"/>
      <path id="DejaVuSans-65" d="M 3597 1894 
L 3597 1613 
L 953 1613 
Q 991 1019 1311 708 
Q 1631 397 2203 397 
Q 2534 397 2845 478 
Q 3156 559 3463 722 
L 3463 178 
Q 3153 47 2828 -22 
Q 2503 -91 2169 -91 
Q 1331 -91 842 396 
Q 353 884 353 1716 
Q 353 2575 817 3079 
Q 1281 3584 2069 3584 
Q 2775 3584 3186 3129 
Q 3597 2675 3597 1894 
z
M 3022 2063 
Q 3016 2534 2758 2815 
Q 2500 3097 2075 3097 
Q 1594 3097 1305 2825 
Q 1016 2553 972 2059 
L 3022 2063 
z
" transform="scale(0.015625)"/>
      <path id="DejaVuSans-72" d="M 2631 2963 
Q 2534 3019 2420 3045 
Q 2306 3072 2169 3072 
Q 1681 3072 1420 2755 
Q 1159 2438 1159 1844 
L 1159 0 
L 581 0 
L 581 3500 
L 1159 3500 
L 1159 2956 
Q 1341 3275 1631 3429 
Q 1922 3584 2338 3584 
Q 2397 3584 2469 3576 
Q 2541 3569 2628 3553 
L 2631 2963 
z
" transform="scale(0.015625)"/>
      <path id="DejaVuSans-63" d="M 3122 3366 
L 3122 2828 
Q 2878 2963 2633 3030 
Q 2388 3097 2138 3097 
Q 1578 3097 1268 2742 
Q 959 2388 959 1747 
Q 959 1106 1268 751 
Q 1578 397 2138 397 
Q 2388 397 2633 464 
Q 2878 531 3122 666 
L 3122 134 
Q 2881 22 2623 -34 
Q 2366 -91 2075 -91 
Q 1284 -91 818 406 
Q 353 903 353 1747 
Q 353 2603 823 3093 
Q 1294 3584 2113 3584 
Q 2378 3584 2631 3529 
Q 2884 3475 3122 3366 
z
" transform="scale(0.015625)"/>
      <path id="DejaVuSans-6a" d="M 603 3500 
L 1178 3500 
L 1178 -63 
Q 1178 -731 923 -1031 
Q 669 -1331 103 -1331 
L -116 -1331 
L -116 -844 
L 38 -844 
Q 366 -844 484 -692 
Q 603 -541 603 -63 
L 603 3500 
z
M 603 4863 
L 1178 4863 
L 1178 4134 
L 603 4134 
L 603 4863 
z
" transform="scale(0.015625)"/>
      <path id="DejaVuSans-6c" d="M 603 4863 
L 1178 4863 
L 1178 0 
L 603 0 
L 603 4863 
z
" transform="scale(0.015625)"/>
      <path id="DejaVuSans-27" d="M 1147 4666 
L 1147 2931 
L 616 2931 
L 616 4666 
L 1147 4666 
z
" transform="scale(0.015625)"/>
      <path id="DejaVuSans-45" d="M 628 4666 
L 3578 4666 
L 3578 4134 
L 1259 4134 
L 1259 2753 
L 3481 2753 
L 3481 2222 
L 1259 2222 
L 1259 531 
L 3634 531 
L 3634 0 
L 628 0 
L 628 4666 
z
" transform="scale(0.015625)"/>
      <path id="DejaVuSans-68" d="M 3513 2113 
L 3513 0 
L 2938 0 
L 2938 2094 
Q 2938 2591 2744 2837 
Q 2550 3084 2163 3084 
Q 1697 3084 1428 2787 
Q 1159 2491 1159 1978 
L 1159 0 
L 581 0 
L 581 4863 
L 1159 4863 
L 1159 2956 
Q 1366 3272 1645 3428 
Q 1925 3584 2291 3584 
Q 2894 3584 3203 3211 
Q 3513 2838 3513 2113 
z
" transform="scale(0.015625)"/>
      <path id="DejaVuSans-6d" d="M 3328 2828 
Q 3544 3216 3844 3400 
Q 4144 3584 4550 3584 
Q 5097 3584 5394 3201 
Q 5691 2819 5691 2113 
L 5691 0 
L 5113 0 
L 5113 2094 
Q 5113 2597 4934 2840 
Q 4756 3084 4391 3084 
Q 3944 3084 3684 2787 
Q 3425 2491 3425 1978 
L 3425 0 
L 2847 0 
L 2847 2094 
Q 2847 2600 2669 2842 
Q 2491 3084 2119 3084 
Q 1678 3084 1418 2786 
Q 1159 2488 1159 1978 
L 1159 0 
L 581 0 
L 581 3500 
L 1159 3500 
L 1159 2956 
Q 1356 3278 1631 3431 
Q 1906 3584 2284 3584 
Q 2666 3584 2933 3390 
Q 3200 3197 3328 2828 
z
" transform="scale(0.015625)"/>
      <path id="DejaVuSans-52" d="M 2841 2188 
Q 3044 2119 3236 1894 
Q 3428 1669 3622 1275 
L 4263 0 
L 3584 0 
L 2988 1197 
Q 2756 1666 2539 1819 
Q 2322 1972 1947 1972 
L 1259 1972 
L 1259 0 
L 628 0 
L 628 4666 
L 2053 4666 
Q 2853 4666 3247 4331 
Q 3641 3997 3641 3322 
Q 3641 2881 3436 2590 
Q 3231 2300 2841 2188 
z
M 1259 4147 
L 1259 2491 
L 2053 2491 
Q 2509 2491 2742 2702 
Q 2975 2913 2975 3322 
Q 2975 3731 2742 3939 
Q 2509 4147 2053 4147 
L 1259 4147 
z
" transform="scale(0.015625)"/>
     </defs>
     <use xlink:href="#DejaVuSans-43"/>
     <use xlink:href="#DejaVuSans-7a" x="69.824219"/>
     <use xlink:href="#DejaVuSans-61" x="122.314453"/>
     <use xlink:href="#DejaVuSans-73" x="183.59375"/>
     <use xlink:href="#DejaVuSans-20" x="235.693359"/>
     <use xlink:href="#DejaVuSans-64" x="267.480469"/>
     <use xlink:href="#DejaVuSans-6f" x="330.957031"/>
     <use xlink:href="#DejaVuSans-20" x="392.138672"/>
     <use xlink:href="#DejaVuSans-75" x="423.925781"/>
     <use xlink:href="#DejaVuSans-7a" x="487.304688"/>
     <use xlink:href="#DejaVuSans-79" x="539.794922"/>
     <use xlink:href="#DejaVuSans-73" x="598.974609"/>
     <use xlink:href="#DejaVuSans-6b" x="651.074219"/>
     <use xlink:href="#DejaVuSans-61" x="707.234375"/>
     <use xlink:href="#DejaVuSans-6e" x="768.513672"/>
     <use xlink:href="#DejaVuSans-69" x="831.892578"/>
     <use xlink:href="#DejaVuSans-61" x="859.675781"/>
     <use xlink:href="#DejaVuSans-20" x="920.955078"/>
     <use xlink:href="#DejaVuSans-70" x="952.742188"/>
     <use xlink:href="#DejaVuSans-6f" x="1016.21875"/>
     <use xlink:href="#DejaVuSans-74" x="1077.400391"/>
     <use xlink:href="#DejaVuSans-77" x="1116.609375"/>
     <use xlink:href="#DejaVuSans-69" x="1198.396484"/>
     <use xlink:href="#DejaVuSans-65" x="1226.179688"/>
     <use xlink:href="#DejaVuSans-72" x="1287.703125"/>
     <use xlink:href="#DejaVuSans-64" x="1327.066406"/>
     <use xlink:href="#DejaVuSans-7a" x="1390.542969"/>
     <use xlink:href="#DejaVuSans-65" x="1443.033203"/>
     <use xlink:href="#DejaVuSans-6e" x="1504.556641"/>
     <use xlink:href="#DejaVuSans-20" x="1567.935547"/>
     <use xlink:href="#DejaVuSans-74" x="1599.722656"/>
     <use xlink:href="#DejaVuSans-72" x="1638.931641"/>
     <use xlink:href="#DejaVuSans-61" x="1680.044922"/>
     <use xlink:href="#DejaVuSans-6e" x="1741.324219"/>
     <use xlink:href="#DejaVuSans-73" x="1804.703125"/>
     <use xlink:href="#DejaVuSans-61" x="1856.802734"/>
     <use xlink:href="#DejaVuSans-6b" x="1918.082031"/>
     <use xlink:href="#DejaVuSans-63" x="1975.992188"/>
     <use xlink:href="#DejaVuSans-6a" x="2030.972656"/>
     <use xlink:href="#DejaVuSans-69" x="2058.755859"/>
     <use xlink:href="#DejaVuSans-20" x="2086.539062"/>
     <use xlink:href="#DejaVuSans-64" x="2118.326172"/>
     <use xlink:href="#DejaVuSans-6c" x="2181.802734"/>
     <use xlink:href="#DejaVuSans-61" x="2209.585938"/>
     <use xlink:href="#DejaVuSans-20" x="2270.865234"/>
     <use xlink:href="#DejaVuSans-73" x="2302.652344"/>
     <use xlink:href="#DejaVuSans-69" x="2354.751953"/>
     <use xlink:href="#DejaVuSans-65" x="2382.535156"/>
     <use xlink:href="#DejaVuSans-63" x="2444.058594"/>
     <use xlink:href="#DejaVuSans-69" x="2499.039062"/>
     <use xlink:href="#DejaVuSans-20" x="2526.822266"/>
     <use xlink:href="#DejaVuSans-27" x="2558.609375"/>
     <use xlink:href="#DejaVuSans-45" x="2586.099609"/>
     <use xlink:href="#DejaVuSans-74" x="2649.283203"/>
     <use xlink:href="#DejaVuSans-68" x="2688.492188"/>
     <use xlink:href="#DejaVuSans-65" x="2751.871094"/>
     <use xlink:href="#DejaVuSans-72" x="2813.394531"/>
     <use xlink:href="#DejaVuSans-65" x="2852.257812"/>
     <use xlink:href="#DejaVuSans-75" x="2913.78125"/>
     <use xlink:href="#DejaVuSans-6d" x="2977.160156"/>
     <use xlink:href="#DejaVuSans-20" x="3074.572266"/>
     <use xlink:href="#DejaVuSans-52" x="3106.359375"/>
     <use xlink:href="#DejaVuSans-6f" x="3171.341797"/>
     <use xlink:href="#DejaVuSans-70" x="3232.523438"/>
     <use xlink:href="#DejaVuSans-73" x="3296"/>
     <use xlink:href="#DejaVuSans-74" x="3348.099609"/>
     <use xlink:href="#DejaVuSans-65" x="3387.308594"/>
     <use xlink:href="#DejaVuSans-6e" x="3448.832031"/>
     <use xlink:href="#DejaVuSans-27" x="3512.210938"/>
    </g>
   </g>
   <g id="legend_1">
    <g id="patch_7">
     <path d="M 410.392187 73.35625 
L 540.2 73.35625 
Q 542.2 73.35625 542.2 71.35625 
L 542.2 43 
Q 542.2 41 540.2 41 
L 410.392187 41 
Q 408.392187 41 408.392187 43 
L 408.392187 71.35625 
Q 408.392187 73.35625 410.392187 73.35625 
z
" style="fill: #ffffff; opacity: 0.8; stroke: #cccccc; stroke-linejoin: miter"/>
    </g>
    <g id="line2d_31">
     <path d="M 412.392187 49.098438 
L 422.392187 49.098438 
L 432.392187 49.098438 
" style="fill: none; stroke: #1f77b4; stroke-width: 1.5; stroke-linecap: square"/>
    </g>
    <g id="text_22">
     <!-- Czas 2 potwierdzen -->
     <g transform="translate(440.392187 52.598438)scale(0.1 -0.1)">
      <use xlink:href="#DejaVuSans-43"/>
      <use xlink:href="#DejaVuSans-7a" x="69.824219"/>
      <use xlink:href="#DejaVuSans-61" x="122.314453"/>
      <use xlink:href="#DejaVuSans-73" x="183.59375"/>
      <use xlink:href="#DejaVuSans-20" x="235.693359"/>
      <use xlink:href="#DejaVuSans-32" x="267.480469"/>
      <use xlink:href="#DejaVuSans-20" x="331.103516"/>
      <use xlink:href="#DejaVuSans-70" x="362.890625"/>
      <use xlink:href="#DejaVuSans-6f" x="426.367188"/>
      <use xlink:href="#DejaVuSans-74" x="487.548828"/>
      <use xlink:href="#DejaVuSans-77" x="526.757812"/>
      <use xlink:href="#DejaVuSans-69" x="608.544922"/>
      <use xlink:href="#DejaVuSans-65" x="636.328125"/>
      <use xlink:href="#DejaVuSans-72" x="697.851562"/>
      <use xlink:href="#DejaVuSans-64" x="737.214844"/>
      <use xlink:href="#DejaVuSans-7a" x="800.691406"/>
      <use xlink:href="#DejaVuSans-65" x="853.181641"/>
      <use xlink:href="#DejaVuSans-6e" x="914.705078"/>
     </g>
    </g>
    <g id="line2d_32">
     <path d="M 412.392187 63.776563 
L 422.392187 63.776563 
L 432.392187 63.776563 
" style="fill: none; stroke: #ff7f0e; stroke-width: 1.5; stroke-linecap: square"/>
    </g>
    <g id="text_23">
     <!-- Czas 5 potwierdzen -->
     <g transform="translate(440.392187 67.276563)scale(0.1 -0.1)">
      <use xlink:href="#DejaVuSans-43"/>
      <use xlink:href="#DejaVuSans-7a" x="69.824219"/>
      <use xlink:href="#DejaVuSans-61" x="122.314453"/>
      <use xlink:href="#DejaVuSans-73" x="183.59375"/>
      <use xlink:href="#DejaVuSans-20" x="235.693359"/>
      <use xlink:href="#DejaVuSans-35" x="267.480469"/>
      <use xlink:href="#DejaVuSans-20" x="331.103516"/>
      <use xlink:href="#DejaVuSans-70" x="362.890625"/>
      <use xlink:href="#DejaVuSans-6f" x="426.367188"/>
      <use xlink:href="#DejaVuSans-74" x="487.548828"/>
      <use xlink:href="#DejaVuSans-77" x="526.757812"/>
      <use xlink:href="#DejaVuSans-69" x="608.544922"/>
      <use xlink:href="#DejaVuSans-65" x="636.328125"/>
      <use xlink:href="#DejaVuSans-72" x="697.851562"/>
      <use xlink:href="#DejaVuSans-64" x="737.214844"/>
      <use xlink:href="#DejaVuSans-7a" x="800.691406"/>
      <use xlink:href="#DejaVuSans-65" x="853.181641"/>
      <use xlink:href="#DejaVuSans-6e" x="914.705078"/>
     </g>
    </g>
   </g>
  </g>
 </g>
 <defs>
  <clipPath id="p90efc29f45">
   <rect x="57.6" y="36" width="489.6" height="252"/>
  </clipPath>
 </defs>
</svg>
