<?xml version="1.0" encoding="utf-8" standalone="no"?>
<!DOCTYPE svg PUBLIC "-//W3C//DTD SVG 1.1//EN"
  "http://www.w3.org/Graphics/SVG/1.1/DTD/svg11.dtd">
<svg xmlns:xlink="http://www.w3.org/1999/xlink" width="576pt" height="288pt" viewBox="0 0 576 288" xmlns="http://www.w3.org/2000/svg" version="1.1">
 <metadata>
  <rdf:RDF xmlns:dc="http://purl.org/dc/elements/1.1/" xmlns:cc="http://creativecommons.org/ns#" xmlns:rdf="http://www.w3.org/1999/02/22-rdf-syntax-ns#">
   <cc:Work>
    <dc:type rdf:resource="http://purl.org/dc/dcmitype/StillImage"/>
    <dc:date>2022-10-20T22:12:19.247168</dc:date>
    <dc:format>image/svg+xml</dc:format>
    <dc:creator>
     <cc:Agent>
      <dc:title>Matplotlib v3.5.3, https://matplotlib.org/</dc:title>
     </cc:Agent>
    </dc:creator>
   </cc:Work>
  </rdf:RDF>
 </metadata>
 <defs>
  <style type="text/css">*{stroke-linejoin: round; stroke-linecap: butt}</style>
 </defs>
 <g id="figure_1">
  <g id="patch_1">
   <path d="M 0 288 
L 576 288 
L 576 0 
L 0 0 
z
" style="fill: #ffffff"/>
  </g>
  <g id="axes_1">
   <g id="patch_2">
    <path d="M 57.6 230.4 
L 547.2 230.4 
L 547.2 28.8 
L 57.6 28.8 
z
" style="fill: #ffffff"/>
   </g>
   <g id="matplotlib.axis_1">
    <g id="xtick_1">
     <g id="line2d_1">
      <path d="M 87.451977 230.4 
L 87.451977 28.8 
" clip-path="url(#p7f4ab02ece)" style="fill: none; stroke: #b0b0b0; stroke-opacity: 0.7; stroke-width: 0.8; stroke-linecap: square"/>
     </g>
     <g id="line2d_2">
      <defs>
       <path id="mc2767270ad" d="M 0 0 
L 0 3.5 
" style="stroke: #000000; stroke-width: 0.8"/>
      </defs>
      <g>
       <use xlink:href="#mc2767270ad" x="87.451977" y="230.4" style="stroke: #000000; stroke-width: 0.8"/>
      </g>
     </g>
     <g id="text_1">
      <!-- 01.08.2022 -->
      <g transform="translate(45.495133 283.259189)rotate(-45)scale(0.1 -0.1)">
       <defs>
        <path id="DejaVuSans-30" d="M 2034 4250 
Q 1547 4250 1301 3770 
Q 1056 3291 1056 2328 
Q 1056 1369 1301 889 
Q 1547 409 2034 409 
Q 2525 409 2770 889 
Q 3016 1369 3016 2328 
Q 3016 3291 2770 3770 
Q 2525 4250 2034 4250 
z
M 2034 4750 
Q 2819 4750 3233 4129 
Q 3647 3509 3647 2328 
Q 3647 1150 3233 529 
Q 2819 -91 2034 -91 
Q 1250 -91 836 529 
Q 422 1150 422 2328 
Q 422 3509 836 4129 
Q 1250 4750 2034 4750 
z
" transform="scale(0.015625)"/>
        <path id="DejaVuSans-31" d="M 794 531 
L 1825 531 
L 1825 4091 
L 703 3866 
L 703 4441 
L 1819 4666 
L 2450 4666 
L 2450 531 
L 3481 531 
L 3481 0 
L 794 0 
L 794 531 
z
" transform="scale(0.015625)"/>
        <path id="DejaVuSans-2e" d="M 684 794 
L 1344 794 
L 1344 0 
L 684 0 
L 684 794 
z
" transform="scale(0.015625)"/>
        <path id="DejaVuSans-38" d="M 2034 2216 
Q 1584 2216 1326 1975 
Q 1069 1734 1069 1313 
Q 1069 891 1326 650 
Q 1584 409 2034 409 
Q 2484 409 2743 651 
Q 3003 894 3003 1313 
Q 3003 1734 2745 1975 
Q 2488 2216 2034 2216 
z
M 1403 2484 
Q 997 2584 770 2862 
Q 544 3141 544 3541 
Q 544 4100 942 4425 
Q 1341 4750 2034 4750 
Q 2731 4750 3128 4425 
Q 3525 4100 3525 3541 
Q 3525 3141 3298 2862 
Q 3072 2584 2669 2484 
Q 3125 2378 3379 2068 
Q 3634 1759 3634 1313 
Q 3634 634 3220 271 
Q 2806 -91 2034 -91 
Q 1263 -91 848 271 
Q 434 634 434 1313 
Q 434 1759 690 2068 
Q 947 2378 1403 2484 
z
M 1172 3481 
Q 1172 3119 1398 2916 
Q 1625 2713 2034 2713 
Q 2441 2713 2670 2916 
Q 2900 3119 2900 3481 
Q 2900 3844 2670 4047 
Q 2441 4250 2034 4250 
Q 1625 4250 1398 4047 
Q 1172 3844 1172 3481 
z
" transform="scale(0.015625)"/>
        <path id="DejaVuSans-32" d="M 1228 531 
L 3431 531 
L 3431 0 
L 469 0 
L 469 531 
Q 828 903 1448 1529 
Q 2069 2156 2228 2338 
Q 2531 2678 2651 2914 
Q 2772 3150 2772 3378 
Q 2772 3750 2511 3984 
Q 2250 4219 1831 4219 
Q 1534 4219 1204 4116 
Q 875 4013 500 3803 
L 500 4441 
Q 881 4594 1212 4672 
Q 1544 4750 1819 4750 
Q 2544 4750 2975 4387 
Q 3406 4025 3406 3419 
Q 3406 3131 3298 2873 
Q 3191 2616 2906 2266 
Q 2828 2175 2409 1742 
Q 1991 1309 1228 531 
z
" transform="scale(0.015625)"/>
       </defs>
       <use xlink:href="#DejaVuSans-30"/>
       <use xlink:href="#DejaVuSans-31" x="63.623047"/>
       <use xlink:href="#DejaVuSans-2e" x="127.246094"/>
       <use xlink:href="#DejaVuSans-30" x="159.033203"/>
       <use xlink:href="#DejaVuSans-38" x="222.65625"/>
       <use xlink:href="#DejaVuSans-2e" x="286.279297"/>
       <use xlink:href="#DejaVuSans-32" x="318.066406"/>
       <use xlink:href="#DejaVuSans-30" x="381.689453"/>
       <use xlink:href="#DejaVuSans-32" x="445.3125"/>
       <use xlink:href="#DejaVuSans-32" x="508.935547"/>
      </g>
     </g>
    </g>
    <g id="xtick_2">
     <g id="line2d_3">
      <path d="M 136.88428 230.4 
L 136.88428 28.8 
" clip-path="url(#p7f4ab02ece)" style="fill: none; stroke: #b0b0b0; stroke-opacity: 0.7; stroke-width: 0.8; stroke-linecap: square"/>
     </g>
     <g id="line2d_4">
      <g>
       <use xlink:href="#mc2767270ad" x="136.88428" y="230.4" style="stroke: #000000; stroke-width: 0.8"/>
      </g>
     </g>
     <g id="text_2">
      <!-- 02.08.2022 -->
      <g transform="translate(94.927436 283.259189)rotate(-45)scale(0.1 -0.1)">
       <use xlink:href="#DejaVuSans-30"/>
       <use xlink:href="#DejaVuSans-32" x="63.623047"/>
       <use xlink:href="#DejaVuSans-2e" x="127.246094"/>
       <use xlink:href="#DejaVuSans-30" x="159.033203"/>
       <use xlink:href="#DejaVuSans-38" x="222.65625"/>
       <use xlink:href="#DejaVuSans-2e" x="286.279297"/>
       <use xlink:href="#DejaVuSans-32" x="318.066406"/>
       <use xlink:href="#DejaVuSans-30" x="381.689453"/>
       <use xlink:href="#DejaVuSans-32" x="445.3125"/>
       <use xlink:href="#DejaVuSans-32" x="508.935547"/>
      </g>
     </g>
    </g>
    <g id="xtick_3">
     <g id="line2d_5">
      <path d="M 186.316582 230.4 
L 186.316582 28.8 
" clip-path="url(#p7f4ab02ece)" style="fill: none; stroke: #b0b0b0; stroke-opacity: 0.7; stroke-width: 0.8; stroke-linecap: square"/>
     </g>
     <g id="line2d_6">
      <g>
       <use xlink:href="#mc2767270ad" x="186.316582" y="230.4" style="stroke: #000000; stroke-width: 0.8"/>
      </g>
     </g>
     <g id="text_3">
      <!-- 03.08.2022 -->
      <g transform="translate(144.359739 283.259189)rotate(-45)scale(0.1 -0.1)">
       <defs>
        <path id="DejaVuSans-33" d="M 2597 2516 
Q 3050 2419 3304 2112 
Q 3559 1806 3559 1356 
Q 3559 666 3084 287 
Q 2609 -91 1734 -91 
Q 1441 -91 1130 -33 
Q 819 25 488 141 
L 488 750 
Q 750 597 1062 519 
Q 1375 441 1716 441 
Q 2309 441 2620 675 
Q 2931 909 2931 1356 
Q 2931 1769 2642 2001 
Q 2353 2234 1838 2234 
L 1294 2234 
L 1294 2753 
L 1863 2753 
Q 2328 2753 2575 2939 
Q 2822 3125 2822 3475 
Q 2822 3834 2567 4026 
Q 2313 4219 1838 4219 
Q 1578 4219 1281 4162 
Q 984 4106 628 3988 
L 628 4550 
Q 988 4650 1302 4700 
Q 1616 4750 1894 4750 
Q 2613 4750 3031 4423 
Q 3450 4097 3450 3541 
Q 3450 3153 3228 2886 
Q 3006 2619 2597 2516 
z
" transform="scale(0.015625)"/>
       </defs>
       <use xlink:href="#DejaVuSans-30"/>
       <use xlink:href="#DejaVuSans-33" x="63.623047"/>
       <use xlink:href="#DejaVuSans-2e" x="127.246094"/>
       <use xlink:href="#DejaVuSans-30" x="159.033203"/>
       <use xlink:href="#DejaVuSans-38" x="222.65625"/>
       <use xlink:href="#DejaVuSans-2e" x="286.279297"/>
       <use xlink:href="#DejaVuSans-32" x="318.066406"/>
       <use xlink:href="#DejaVuSans-30" x="381.689453"/>
       <use xlink:href="#DejaVuSans-32" x="445.3125"/>
       <use xlink:href="#DejaVuSans-32" x="508.935547"/>
      </g>
     </g>
    </g>
    <g id="xtick_4">
     <g id="line2d_7">
      <path d="M 235.748885 230.4 
L 235.748885 28.8 
" clip-path="url(#p7f4ab02ece)" style="fill: none; stroke: #b0b0b0; stroke-opacity: 0.7; stroke-width: 0.8; stroke-linecap: square"/>
     </g>
     <g id="line2d_8">
      <g>
       <use xlink:href="#mc2767270ad" x="235.748885" y="230.4" style="stroke: #000000; stroke-width: 0.8"/>
      </g>
     </g>
     <g id="text_4">
      <!-- 04.08.2022 -->
      <g transform="translate(193.792041 283.259189)rotate(-45)scale(0.1 -0.1)">
       <defs>
        <path id="DejaVuSans-34" d="M 2419 4116 
L 825 1625 
L 2419 1625 
L 2419 4116 
z
M 2253 4666 
L 3047 4666 
L 3047 1625 
L 3713 1625 
L 3713 1100 
L 3047 1100 
L 3047 0 
L 2419 0 
L 2419 1100 
L 313 1100 
L 313 1709 
L 2253 4666 
z
" transform="scale(0.015625)"/>
       </defs>
       <use xlink:href="#DejaVuSans-30"/>
       <use xlink:href="#DejaVuSans-34" x="63.623047"/>
       <use xlink:href="#DejaVuSans-2e" x="127.246094"/>
       <use xlink:href="#DejaVuSans-30" x="159.033203"/>
       <use xlink:href="#DejaVuSans-38" x="222.65625"/>
       <use xlink:href="#DejaVuSans-2e" x="286.279297"/>
       <use xlink:href="#DejaVuSans-32" x="318.066406"/>
       <use xlink:href="#DejaVuSans-30" x="381.689453"/>
       <use xlink:href="#DejaVuSans-32" x="445.3125"/>
       <use xlink:href="#DejaVuSans-32" x="508.935547"/>
      </g>
     </g>
    </g>
    <g id="xtick_5">
     <g id="line2d_9">
      <path d="M 285.181188 230.4 
L 285.181188 28.8 
" clip-path="url(#p7f4ab02ece)" style="fill: none; stroke: #b0b0b0; stroke-opacity: 0.7; stroke-width: 0.8; stroke-linecap: square"/>
     </g>
     <g id="line2d_10">
      <g>
       <use xlink:href="#mc2767270ad" x="285.181188" y="230.4" style="stroke: #000000; stroke-width: 0.8"/>
      </g>
     </g>
     <g id="text_5">
      <!-- 05.08.2022 -->
      <g transform="translate(243.224344 283.259189)rotate(-45)scale(0.1 -0.1)">
       <defs>
        <path id="DejaVuSans-35" d="M 691 4666 
L 3169 4666 
L 3169 4134 
L 1269 4134 
L 1269 2991 
Q 1406 3038 1543 3061 
Q 1681 3084 1819 3084 
Q 2600 3084 3056 2656 
Q 3513 2228 3513 1497 
Q 3513 744 3044 326 
Q 2575 -91 1722 -91 
Q 1428 -91 1123 -41 
Q 819 9 494 109 
L 494 744 
Q 775 591 1075 516 
Q 1375 441 1709 441 
Q 2250 441 2565 725 
Q 2881 1009 2881 1497 
Q 2881 1984 2565 2268 
Q 2250 2553 1709 2553 
Q 1456 2553 1204 2497 
Q 953 2441 691 2322 
L 691 4666 
z
" transform="scale(0.015625)"/>
       </defs>
       <use xlink:href="#DejaVuSans-30"/>
       <use xlink:href="#DejaVuSans-35" x="63.623047"/>
       <use xlink:href="#DejaVuSans-2e" x="127.246094"/>
       <use xlink:href="#DejaVuSans-30" x="159.033203"/>
       <use xlink:href="#DejaVuSans-38" x="222.65625"/>
       <use xlink:href="#DejaVuSans-2e" x="286.279297"/>
       <use xlink:href="#DejaVuSans-32" x="318.066406"/>
       <use xlink:href="#DejaVuSans-30" x="381.689453"/>
       <use xlink:href="#DejaVuSans-32" x="445.3125"/>
       <use xlink:href="#DejaVuSans-32" x="508.935547"/>
      </g>
     </g>
    </g>
    <g id="xtick_6">
     <g id="line2d_11">
      <path d="M 334.613491 230.4 
L 334.613491 28.8 
" clip-path="url(#p7f4ab02ece)" style="fill: none; stroke: #b0b0b0; stroke-opacity: 0.7; stroke-width: 0.8; stroke-linecap: square"/>
     </g>
     <g id="line2d_12">
      <g>
       <use xlink:href="#mc2767270ad" x="334.613491" y="230.4" style="stroke: #000000; stroke-width: 0.8"/>
      </g>
     </g>
     <g id="text_6">
      <!-- 06.08.2022 -->
      <g transform="translate(292.656647 283.259189)rotate(-45)scale(0.1 -0.1)">
       <defs>
        <path id="DejaVuSans-36" d="M 2113 2584 
Q 1688 2584 1439 2293 
Q 1191 2003 1191 1497 
Q 1191 994 1439 701 
Q 1688 409 2113 409 
Q 2538 409 2786 701 
Q 3034 994 3034 1497 
Q 3034 2003 2786 2293 
Q 2538 2584 2113 2584 
z
M 3366 4563 
L 3366 3988 
Q 3128 4100 2886 4159 
Q 2644 4219 2406 4219 
Q 1781 4219 1451 3797 
Q 1122 3375 1075 2522 
Q 1259 2794 1537 2939 
Q 1816 3084 2150 3084 
Q 2853 3084 3261 2657 
Q 3669 2231 3669 1497 
Q 3669 778 3244 343 
Q 2819 -91 2113 -91 
Q 1303 -91 875 529 
Q 447 1150 447 2328 
Q 447 3434 972 4092 
Q 1497 4750 2381 4750 
Q 2619 4750 2861 4703 
Q 3103 4656 3366 4563 
z
" transform="scale(0.015625)"/>
       </defs>
       <use xlink:href="#DejaVuSans-30"/>
       <use xlink:href="#DejaVuSans-36" x="63.623047"/>
       <use xlink:href="#DejaVuSans-2e" x="127.246094"/>
       <use xlink:href="#DejaVuSans-30" x="159.033203"/>
       <use xlink:href="#DejaVuSans-38" x="222.65625"/>
       <use xlink:href="#DejaVuSans-2e" x="286.279297"/>
       <use xlink:href="#DejaVuSans-32" x="318.066406"/>
       <use xlink:href="#DejaVuSans-30" x="381.689453"/>
       <use xlink:href="#DejaVuSans-32" x="445.3125"/>
       <use xlink:href="#DejaVuSans-32" x="508.935547"/>
      </g>
     </g>
    </g>
    <g id="xtick_7">
     <g id="line2d_13">
      <path d="M 384.045793 230.4 
L 384.045793 28.8 
" clip-path="url(#p7f4ab02ece)" style="fill: none; stroke: #b0b0b0; stroke-opacity: 0.7; stroke-width: 0.8; stroke-linecap: square"/>
     </g>
     <g id="line2d_14">
      <g>
       <use xlink:href="#mc2767270ad" x="384.045793" y="230.4" style="stroke: #000000; stroke-width: 0.8"/>
      </g>
     </g>
     <g id="text_7">
      <!-- 07.08.2022 -->
      <g transform="translate(342.08895 283.259189)rotate(-45)scale(0.1 -0.1)">
       <defs>
        <path id="DejaVuSans-37" d="M 525 4666 
L 3525 4666 
L 3525 4397 
L 1831 0 
L 1172 0 
L 2766 4134 
L 525 4134 
L 525 4666 
z
" transform="scale(0.015625)"/>
       </defs>
       <use xlink:href="#DejaVuSans-30"/>
       <use xlink:href="#DejaVuSans-37" x="63.623047"/>
       <use xlink:href="#DejaVuSans-2e" x="127.246094"/>
       <use xlink:href="#DejaVuSans-30" x="159.033203"/>
       <use xlink:href="#DejaVuSans-38" x="222.65625"/>
       <use xlink:href="#DejaVuSans-2e" x="286.279297"/>
       <use xlink:href="#DejaVuSans-32" x="318.066406"/>
       <use xlink:href="#DejaVuSans-30" x="381.689453"/>
       <use xlink:href="#DejaVuSans-32" x="445.3125"/>
       <use xlink:href="#DejaVuSans-32" x="508.935547"/>
      </g>
     </g>
    </g>
    <g id="xtick_8">
     <g id="line2d_15">
      <path d="M 433.478096 230.4 
L 433.478096 28.8 
" clip-path="url(#p7f4ab02ece)" style="fill: none; stroke: #b0b0b0; stroke-opacity: 0.7; stroke-width: 0.8; stroke-linecap: square"/>
     </g>
     <g id="line2d_16">
      <g>
       <use xlink:href="#mc2767270ad" x="433.478096" y="230.4" style="stroke: #000000; stroke-width: 0.8"/>
      </g>
     </g>
     <g id="text_8">
      <!-- 08.08.2022 -->
      <g transform="translate(391.521252 283.259189)rotate(-45)scale(0.1 -0.1)">
       <use xlink:href="#DejaVuSans-30"/>
       <use xlink:href="#DejaVuSans-38" x="63.623047"/>
       <use xlink:href="#DejaVuSans-2e" x="127.246094"/>
       <use xlink:href="#DejaVuSans-30" x="159.033203"/>
       <use xlink:href="#DejaVuSans-38" x="222.65625"/>
       <use xlink:href="#DejaVuSans-2e" x="286.279297"/>
       <use xlink:href="#DejaVuSans-32" x="318.066406"/>
       <use xlink:href="#DejaVuSans-30" x="381.689453"/>
       <use xlink:href="#DejaVuSans-32" x="445.3125"/>
       <use xlink:href="#DejaVuSans-32" x="508.935547"/>
      </g>
     </g>
    </g>
    <g id="xtick_9">
     <g id="line2d_17">
      <path d="M 482.910399 230.4 
L 482.910399 28.8 
" clip-path="url(#p7f4ab02ece)" style="fill: none; stroke: #b0b0b0; stroke-opacity: 0.7; stroke-width: 0.8; stroke-linecap: square"/>
     </g>
     <g id="line2d_18">
      <g>
       <use xlink:href="#mc2767270ad" x="482.910399" y="230.4" style="stroke: #000000; stroke-width: 0.8"/>
      </g>
     </g>
     <g id="text_9">
      <!-- 09.08.2022 -->
      <g transform="translate(440.953555 283.259189)rotate(-45)scale(0.1 -0.1)">
       <defs>
        <path id="DejaVuSans-39" d="M 703 97 
L 703 672 
Q 941 559 1184 500 
Q 1428 441 1663 441 
Q 2288 441 2617 861 
Q 2947 1281 2994 2138 
Q 2813 1869 2534 1725 
Q 2256 1581 1919 1581 
Q 1219 1581 811 2004 
Q 403 2428 403 3163 
Q 403 3881 828 4315 
Q 1253 4750 1959 4750 
Q 2769 4750 3195 4129 
Q 3622 3509 3622 2328 
Q 3622 1225 3098 567 
Q 2575 -91 1691 -91 
Q 1453 -91 1209 -44 
Q 966 3 703 97 
z
M 1959 2075 
Q 2384 2075 2632 2365 
Q 2881 2656 2881 3163 
Q 2881 3666 2632 3958 
Q 2384 4250 1959 4250 
Q 1534 4250 1286 3958 
Q 1038 3666 1038 3163 
Q 1038 2656 1286 2365 
Q 1534 2075 1959 2075 
z
" transform="scale(0.015625)"/>
       </defs>
       <use xlink:href="#DejaVuSans-30"/>
       <use xlink:href="#DejaVuSans-39" x="63.623047"/>
       <use xlink:href="#DejaVuSans-2e" x="127.246094"/>
       <use xlink:href="#DejaVuSans-30" x="159.033203"/>
       <use xlink:href="#DejaVuSans-38" x="222.65625"/>
       <use xlink:href="#DejaVuSans-2e" x="286.279297"/>
       <use xlink:href="#DejaVuSans-32" x="318.066406"/>
       <use xlink:href="#DejaVuSans-30" x="381.689453"/>
       <use xlink:href="#DejaVuSans-32" x="445.3125"/>
       <use xlink:href="#DejaVuSans-32" x="508.935547"/>
      </g>
     </g>
    </g>
    <g id="xtick_10">
     <g id="line2d_19">
      <path d="M 532.342702 230.4 
L 532.342702 28.8 
" clip-path="url(#p7f4ab02ece)" style="fill: none; stroke: #b0b0b0; stroke-opacity: 0.7; stroke-width: 0.8; stroke-linecap: square"/>
     </g>
     <g id="line2d_20">
      <g>
       <use xlink:href="#mc2767270ad" x="532.342702" y="230.4" style="stroke: #000000; stroke-width: 0.8"/>
      </g>
     </g>
     <g id="text_10">
      <!-- 10.08.2022 -->
      <g transform="translate(490.385858 283.259189)rotate(-45)scale(0.1 -0.1)">
       <use xlink:href="#DejaVuSans-31"/>
       <use xlink:href="#DejaVuSans-30" x="63.623047"/>
       <use xlink:href="#DejaVuSans-2e" x="127.246094"/>
       <use xlink:href="#DejaVuSans-30" x="159.033203"/>
       <use xlink:href="#DejaVuSans-38" x="222.65625"/>
       <use xlink:href="#DejaVuSans-2e" x="286.279297"/>
       <use xlink:href="#DejaVuSans-32" x="318.066406"/>
       <use xlink:href="#DejaVuSans-30" x="381.689453"/>
       <use xlink:href="#DejaVuSans-32" x="445.3125"/>
       <use xlink:href="#DejaVuSans-32" x="508.935547"/>
      </g>
     </g>
    </g>
    <g id="text_11">
     <!-- Data -->
     <g transform="translate(290.461719 296.328188)scale(0.1 -0.1)">
      <defs>
       <path id="DejaVuSans-44" d="M 1259 4147 
L 1259 519 
L 2022 519 
Q 2988 519 3436 956 
Q 3884 1394 3884 2338 
Q 3884 3275 3436 3711 
Q 2988 4147 2022 4147 
L 1259 4147 
z
M 628 4666 
L 1925 4666 
Q 3281 4666 3915 4102 
Q 4550 3538 4550 2338 
Q 4550 1131 3912 565 
Q 3275 0 1925 0 
L 628 0 
L 628 4666 
z
" transform="scale(0.015625)"/>
       <path id="DejaVuSans-61" d="M 2194 1759 
Q 1497 1759 1228 1600 
Q 959 1441 959 1056 
Q 959 750 1161 570 
Q 1363 391 1709 391 
Q 2188 391 2477 730 
Q 2766 1069 2766 1631 
L 2766 1759 
L 2194 1759 
z
M 3341 1997 
L 3341 0 
L 2766 0 
L 2766 531 
Q 2569 213 2275 61 
Q 1981 -91 1556 -91 
Q 1019 -91 701 211 
Q 384 513 384 1019 
Q 384 1609 779 1909 
Q 1175 2209 1959 2209 
L 2766 2209 
L 2766 2266 
Q 2766 2663 2505 2880 
Q 2244 3097 1772 3097 
Q 1472 3097 1187 3025 
Q 903 2953 641 2809 
L 641 3341 
Q 956 3463 1253 3523 
Q 1550 3584 1831 3584 
Q 2591 3584 2966 3190 
Q 3341 2797 3341 1997 
z
" transform="scale(0.015625)"/>
       <path id="DejaVuSans-74" d="M 1172 4494 
L 1172 3500 
L 2356 3500 
L 2356 3053 
L 1172 3053 
L 1172 1153 
Q 1172 725 1289 603 
Q 1406 481 1766 481 
L 2356 481 
L 2356 0 
L 1766 0 
Q 1100 0 847 248 
Q 594 497 594 1153 
L 594 3053 
L 172 3053 
L 172 3500 
L 594 3500 
L 594 4494 
L 1172 4494 
z
" transform="scale(0.015625)"/>
      </defs>
      <use xlink:href="#DejaVuSans-44"/>
      <use xlink:href="#DejaVuSans-61" x="77.001953"/>
      <use xlink:href="#DejaVuSans-74" x="138.28125"/>
      <use xlink:href="#DejaVuSans-61" x="177.490234"/>
     </g>
    </g>
   </g>
   <g id="matplotlib.axis_2">
    <g id="ytick_1">
     <g id="line2d_21">
      <defs>
       <path id="mf464fefe01" d="M 0 0 
L -3.5 0 
" style="stroke: #000000; stroke-width: 0.8"/>
      </defs>
      <g>
       <use xlink:href="#mf464fefe01" x="57.6" y="211.46934" style="stroke: #000000; stroke-width: 0.8"/>
      </g>
     </g>
     <g id="text_12">
      <!-- 10 -->
      <g transform="translate(37.875 215.268559)scale(0.1 -0.1)">
       <use xlink:href="#DejaVuSans-31"/>
       <use xlink:href="#DejaVuSans-30" x="63.623047"/>
      </g>
     </g>
    </g>
    <g id="ytick_2">
     <g id="line2d_22">
      <g>
       <use xlink:href="#mf464fefe01" x="57.6" y="170.935772" style="stroke: #000000; stroke-width: 0.8"/>
      </g>
     </g>
     <g id="text_13">
      <!-- 15 -->
      <g transform="translate(37.875 174.734991)scale(0.1 -0.1)">
       <use xlink:href="#DejaVuSans-31"/>
       <use xlink:href="#DejaVuSans-35" x="63.623047"/>
      </g>
     </g>
    </g>
    <g id="ytick_3">
     <g id="line2d_23">
      <g>
       <use xlink:href="#mf464fefe01" x="57.6" y="130.402204" style="stroke: #000000; stroke-width: 0.8"/>
      </g>
     </g>
     <g id="text_14">
      <!-- 20 -->
      <g transform="translate(37.875 134.201423)scale(0.1 -0.1)">
       <use xlink:href="#DejaVuSans-32"/>
       <use xlink:href="#DejaVuSans-30" x="63.623047"/>
      </g>
     </g>
    </g>
    <g id="ytick_4">
     <g id="line2d_24">
      <g>
       <use xlink:href="#mf464fefe01" x="57.6" y="89.868637" style="stroke: #000000; stroke-width: 0.8"/>
      </g>
     </g>
     <g id="text_15">
      <!-- 25 -->
      <g transform="translate(37.875 93.667855)scale(0.1 -0.1)">
       <use xlink:href="#DejaVuSans-32"/>
       <use xlink:href="#DejaVuSans-35" x="63.623047"/>
      </g>
     </g>
    </g>
    <g id="ytick_5">
     <g id="line2d_25">
      <g>
       <use xlink:href="#mf464fefe01" x="57.6" y="49.335069" style="stroke: #000000; stroke-width: 0.8"/>
      </g>
     </g>
     <g id="text_16">
      <!-- 30 -->
      <g transform="translate(37.875 53.134288)scale(0.1 -0.1)">
       <use xlink:href="#DejaVuSans-33"/>
       <use xlink:href="#DejaVuSans-30" x="63.623047"/>
      </g>
     </g>
    </g>
    <g id="text_17">
     <!-- Czas (s) -->
     <g transform="translate(31.795312 149.479688)rotate(-90)scale(0.1 -0.1)">
      <defs>
       <path id="DejaVuSans-43" d="M 4122 4306 
L 4122 3641 
Q 3803 3938 3442 4084 
Q 3081 4231 2675 4231 
Q 1875 4231 1450 3742 
Q 1025 3253 1025 2328 
Q 1025 1406 1450 917 
Q 1875 428 2675 428 
Q 3081 428 3442 575 
Q 3803 722 4122 1019 
L 4122 359 
Q 3791 134 3420 21 
Q 3050 -91 2638 -91 
Q 1578 -91 968 557 
Q 359 1206 359 2328 
Q 359 3453 968 4101 
Q 1578 4750 2638 4750 
Q 3056 4750 3426 4639 
Q 3797 4528 4122 4306 
z
" transform="scale(0.015625)"/>
       <path id="DejaVuSans-7a" d="M 353 3500 
L 3084 3500 
L 3084 2975 
L 922 459 
L 3084 459 
L 3084 0 
L 275 0 
L 275 525 
L 2438 3041 
L 353 3041 
L 353 3500 
z
" transform="scale(0.015625)"/>
       <path id="DejaVuSans-73" d="M 2834 3397 
L 2834 2853 
Q 2591 2978 2328 3040 
Q 2066 3103 1784 3103 
Q 1356 3103 1142 2972 
Q 928 2841 928 2578 
Q 928 2378 1081 2264 
Q 1234 2150 1697 2047 
L 1894 2003 
Q 2506 1872 2764 1633 
Q 3022 1394 3022 966 
Q 3022 478 2636 193 
Q 2250 -91 1575 -91 
Q 1294 -91 989 -36 
Q 684 19 347 128 
L 347 722 
Q 666 556 975 473 
Q 1284 391 1588 391 
Q 1994 391 2212 530 
Q 2431 669 2431 922 
Q 2431 1156 2273 1281 
Q 2116 1406 1581 1522 
L 1381 1569 
Q 847 1681 609 1914 
Q 372 2147 372 2553 
Q 372 3047 722 3315 
Q 1072 3584 1716 3584 
Q 2034 3584 2315 3537 
Q 2597 3491 2834 3397 
z
" transform="scale(0.015625)"/>
       <path id="DejaVuSans-20" transform="scale(0.015625)"/>
       <path id="DejaVuSans-28" d="M 1984 4856 
Q 1566 4138 1362 3434 
Q 1159 2731 1159 2009 
Q 1159 1288 1364 580 
Q 1569 -128 1984 -844 
L 1484 -844 
Q 1016 -109 783 600 
Q 550 1309 550 2009 
Q 550 2706 781 3412 
Q 1013 4119 1484 4856 
L 1984 4856 
z
" transform="scale(0.015625)"/>
       <path id="DejaVuSans-29" d="M 513 4856 
L 1013 4856 
Q 1481 4119 1714 3412 
Q 1947 2706 1947 2009 
Q 1947 1309 1714 600 
Q 1481 -109 1013 -844 
L 513 -844 
Q 928 -128 1133 580 
Q 1338 1288 1338 2009 
Q 1338 2731 1133 3434 
Q 928 4138 513 4856 
z
" transform="scale(0.015625)"/>
      </defs>
      <use xlink:href="#DejaVuSans-43"/>
      <use xlink:href="#DejaVuSans-7a" x="69.824219"/>
      <use xlink:href="#DejaVuSans-61" x="122.314453"/>
      <use xlink:href="#DejaVuSans-73" x="183.59375"/>
      <use xlink:href="#DejaVuSans-20" x="235.693359"/>
      <use xlink:href="#DejaVuSans-28" x="267.480469"/>
      <use xlink:href="#DejaVuSans-73" x="306.494141"/>
      <use xlink:href="#DejaVuSans-29" x="358.59375"/>
     </g>
    </g>
   </g>
   <g id="line2d_26">
    <path d="M 79.854545 208.322232 
L 81.914386 177.958813 
L 83.974021 184.122663 
L 86.033122 206.097424 
L 88.09277 185.247704 
L 90.152495 212.744715 
L 92.212247 209.438872 
L 94.271989 201.489921 
L 96.331716 206.847836 
L 98.391275 202.188576 
L 100.450893 181.740825 
L 102.510761 198.837436 
L 104.570374 186.781243 
L 106.630192 210.891667 
L 108.689731 179.213999 
L 110.749731 164.750863 
L 112.809447 166.825092 
L 114.868996 214.175219 
L 116.928743 208.110575 
L 118.988421 161.521525 
L 121.048137 200.466199 
L 123.232808 202.269318 
L 125.292055 181.244892 
L 127.352784 214.247497 
L 129.414219 206.865864 
L 131.47161 210.898005 
L 133.530958 214.359113 
L 135.590687 203.595733 
L 137.650516 214.30809 
L 139.710114 201.871946 
L 141.769893 220.388278 
L 143.829623 215.434483 
L 145.889303 163.997702 
L 147.949153 221.20784 
L 150.008963 212.983293 
L 152.068552 207.669478 
L 154.128278 189.792731 
L 156.188198 199.464072 
L 158.247545 200.351167 
L 160.307439 208.887637 
L 162.367416 208.1729 
L 164.427221 169.451028 
L 166.487524 208.146696 
L 168.546583 201.654341 
L 170.606551 196.215191 
L 172.665688 186.209614 
L 174.725569 209.687168 
L 176.785628 211.775348 
L 178.848673 208.602582 
L 180.908367 215.543059 
L 182.96746 201.724959 
L 185.026619 206.743723 
L 187.086258 205.631882 
L 189.145867 208.212895 
L 191.205571 208.57062 
L 193.26543 209.041232 
L 195.325586 197.58953 
L 197.385456 200.812354 
L 199.445014 208.544987 
L 201.504899 209.523044 
L 203.565103 206.754108 
L 205.624623 219.236681 
L 207.683905 201.16136 
L 209.744254 212.909454 
L 211.801255 197.469253 
L 213.86099 195.064259 
L 215.920658 194.427098 
L 217.980475 207.935494 
L 220.094078 201.365151 
L 222.15329 161.432491 
L 224.2131 190.117929 
L 226.273026 203.927743 
L 228.334289 190.292276 
L 230.393791 194.021221 
L 232.453558 208.15454 
L 234.511787 213.02933 
L 236.573163 205.4186 
L 238.63292 194.740805 
L 240.693066 160.190313 
L 242.752366 188.761023 
L 244.812215 209.27988 
L 246.872008 196.307349 
L 248.931366 208.576193 
L 250.991101 213.993573 
L 253.050805 207.720427 
L 255.108894 200.304377 
L 257.168753 202.936353 
L 259.22843 213.936293 
L 261.288259 203.799712 
L 263.348202 208.697265 
L 265.407959 207.39654 
L 267.467671 172.634318 
L 271.587038 208.769835 
L 273.646675 210.549215 
L 275.706779 207.891884 
L 277.767187 213.960931 
L 279.828476 209.238893 
L 281.886349 212.724784 
L 283.948959 204.627314 
L 286.007433 188.424898 
L 288.067307 213.145003 
L 290.127057 185.615767 
L 292.187047 195.306977 
L 294.246764 176.691889 
L 296.306317 213.176716 
L 298.366683 199.841923 
L 300.425905 172.223845 
L 302.485895 220.42383 
L 304.545676 219.526648 
L 306.605542 201.470943 
L 308.665198 208.793134 
L 310.72481 220.923324 
L 312.784499 214.009612 
L 314.8446 206.381644 
L 316.90471 205.344503 
L 318.963926 206.092022 
L 321.02344 200.774349 
L 323.08361 179.40847 
L 325.14101 202.692576 
L 327.200224 204.115714 
L 329.260151 214.762298 
L 331.320797 208.133701 
L 333.341039 193.679495 
L 335.398538 221.236364 
L 337.458585 196.973116 
L 339.518368 177.567026 
L 341.578263 210.103933 
L 343.637261 205.518751 
L 345.6971 209.71778 
L 347.756711 205.657971 
L 349.816575 154.743463 
L 351.876239 209.109047 
L 353.935965 202.110863 
L 355.995729 207.673221 
L 358.055478 215.237397 
L 360.115389 212.20379 
L 364.23501 196.306182 
L 366.295452 191.697954 
L 368.355024 188.549359 
L 370.414835 147.041094 
L 372.473984 168.264961 
L 374.533586 201.638641 
L 376.593585 209.878048 
L 378.653058 203.712337 
L 380.713178 214.053594 
L 382.773101 177.300823 
L 384.836995 214.305113 
L 386.895049 213.879981 
L 388.955015 207.728397 
L 391.014225 207.634184 
L 393.073748 206.321661 
L 395.134084 213.815591 
L 397.193282 190.953885 
L 399.25316 203.614832 
L 401.313364 171.750211 
L 403.373034 214.997279 
L 405.435422 201.627795 
L 407.493965 212.502317 
L 409.55211 214.228184 
L 411.610065 214.79857 
L 413.669246 205.502009 
L 415.729194 213.395393 
L 417.788885 203.988379 
L 419.850048 206.480231 
L 421.909513 216.192044 
L 423.969242 202.564338 
L 426.027983 214.691629 
L 428.139971 220.275146 
L 430.199133 219.155372 
L 434.318102 177.781366 
L 436.377934 205.720035 
L 438.437476 177.521674 
L 440.497381 212.324289 
L 442.557106 205.586814 
L 444.616863 219.22015 
L 446.67648 201.304961 
L 448.736423 214.353515 
L 452.855685 201.055956 
L 454.915597 192.258722 
L 456.975003 201.100955 
L 459.03536 205.137331 
L 461.094357 206.697638 
L 463.154409 207.798837 
L 465.21376 205.101596 
L 467.273519 187.789005 
L 469.33346 200.344218 
L 471.392456 182.961877 
L 473.452349 182.849887 
L 475.512013 218.970172 
L 477.571818 209.884736 
L 479.633633 216.458294 
L 481.69321 215.269194 
L 483.751669 214.429033 
L 485.811003 207.020648 
L 487.870564 212.927065 
L 489.93034 218.057188 
L 491.990118 207.143256 
L 494.049854 205.509151 
L 496.109264 213.973283 
L 498.169337 206.763418 
L 500.228891 206.242184 
L 502.288685 213.331938 
L 504.348384 209.14049 
L 506.408718 206.836283 
L 508.468297 206.822465 
L 510.527504 200.849779 
L 512.587168 213.296696 
L 514.647065 209.285092 
L 516.706748 182.92996 
L 518.766514 213.62182 
L 520.826111 187.121239 
L 522.886067 208.732057 
L 524.945455 212.284038 
L 524.945455 212.284038 
" clip-path="url(#p7f4ab02ece)" style="fill: none; stroke: #1f77b4; stroke-width: 1.5; stroke-linecap: square"/>
   </g>
   <g id="line2d_27">
    <path d="M 79.854545 129.21835 
L 81.914386 79.313442 
L 83.974021 85.403615 
L 86.033122 101.503129 
L 88.09277 76.90163 
L 90.152495 124.200306 
L 92.212247 121.071462 
L 94.271989 121.972287 
L 96.331716 118.247062 
L 98.391275 119.454894 
L 100.450893 82.173069 
L 102.510761 99.932467 
L 104.570374 78.5966 
L 106.630192 122.591207 
L 108.689731 60.307177 
L 110.749731 60.789189 
L 112.809447 38.307909 
L 114.868996 126.83872 
L 116.928743 119.869537 
L 118.988421 37.963636 
L 121.048137 65.99524 
L 123.232808 109.838812 
L 125.292055 63.392908 
L 127.352784 131.028014 
L 129.414219 129.236025 
L 131.47161 132.997456 
L 133.530958 115.934189 
L 135.590687 90.583737 
L 137.650516 130.800901 
L 139.710114 124.005129 
L 141.769893 127.965737 
L 143.829623 133.077965 
L 145.889303 65.744349 
L 147.949153 133.328689 
L 150.008963 129.461806 
L 152.068552 119.37408 
L 154.128278 57.528568 
L 156.188198 105.909585 
L 158.247545 110.471715 
L 160.307439 130.37773 
L 162.367416 125.134096 
L 164.427221 75.993914 
L 166.487524 120.029447 
L 168.546583 118.570428 
L 170.606551 112.595096 
L 172.665688 62.322286 
L 174.725569 121.583126 
L 176.785628 128.100723 
L 178.848673 120.065922 
L 180.908367 86.331482 
L 182.96746 112.610322 
L 185.026619 98.067268 
L 187.086258 121.824608 
L 189.145867 120.37 
L 191.205571 124.689221 
L 193.26543 125.564368 
L 195.325586 109.238221 
L 197.385456 102.284773 
L 199.445014 120.258759 
L 201.504899 126.597391 
L 203.565103 122.554176 
L 205.624623 125.873726 
L 207.683905 112.722315 
L 209.744254 119.591657 
L 211.801255 114.992828 
L 213.86099 96.675883 
L 215.920658 111.038246 
L 217.980475 119.092072 
L 220.094078 112.805011 
L 222.15329 67.900217 
L 224.2131 97.137621 
L 226.273026 115.31769 
L 228.334289 97.496987 
L 232.453558 113.663645 
L 234.511787 118.241129 
L 236.573163 120.15418 
L 238.63292 105.213896 
L 240.693066 69.744662 
L 242.752366 104.851689 
L 244.812215 116.26277 
L 246.872008 103.773643 
L 248.931366 119.634657 
L 250.991101 125.164061 
L 253.050805 109.291495 
L 255.108894 117.342102 
L 257.168753 109.418343 
L 259.22843 89.776818 
L 261.288259 111.452146 
L 263.348202 126.136219 
L 265.407959 118.656817 
L 267.467671 74.214533 
L 269.527152 107.158295 
L 271.587038 111.233507 
L 273.646675 78.139959 
L 275.706779 89.031817 
L 277.767187 120.181706 
L 279.828476 121.086679 
L 283.948959 117.122034 
L 286.007433 63.716757 
L 288.067307 119.724241 
L 290.127057 108.15543 
L 292.187047 107.142094 
L 294.246764 62.26578 
L 296.306317 93.663575 
L 298.366683 101.628149 
L 300.425905 78.865578 
L 302.485895 132.027459 
L 304.545676 131.843447 
L 306.605542 81.911265 
L 308.665198 130.066892 
L 310.72481 137.895787 
L 312.784499 130.652668 
L 314.8446 122.207396 
L 316.90471 122.317913 
L 318.963926 112.718298 
L 321.02344 107.246148 
L 323.08361 96.032728 
L 325.14101 119.385057 
L 327.200224 60.608724 
L 329.260151 126.786069 
L 331.320797 119.940012 
L 333.341039 106.135317 
L 335.398538 128.035686 
L 337.458585 119.617152 
L 339.518368 89.828946 
L 341.578263 117.319067 
L 343.637261 123.39834 
L 345.6971 121.959808 
L 347.756711 78.279043 
L 349.816575 61.989321 
L 351.876239 115.520906 
L 353.935965 119.416031 
L 355.995729 119.157027 
L 358.055478 127.718006 
L 360.115389 118.146757 
L 362.176143 85.768728 
L 364.23501 107.831138 
L 368.355024 99.743437 
L 370.414835 63.93355 
L 372.473984 74.857486 
L 374.533586 108.505982 
L 376.593585 127.12297 
L 378.653058 121.079875 
L 380.713178 86.767262 
L 382.773101 64.872702 
L 384.836995 121.818794 
L 386.895049 99.940542 
L 388.955015 68.931125 
L 391.014225 89.145577 
L 393.073748 123.047556 
L 395.134084 131.348926 
L 397.193282 102.627006 
L 399.25316 119.9332 
L 401.313364 82.718407 
L 403.373034 127.395604 
L 405.435422 73.630729 
L 407.493965 133.282392 
L 409.55211 130.959212 
L 411.610065 126.93425 
L 413.669246 93.086567 
L 415.729194 130.465876 
L 417.788885 121.843327 
L 419.850048 83.37231 
L 421.909513 78.314628 
L 426.027983 131.704197 
L 428.139971 123.415193 
L 430.199133 135.574006 
L 434.318102 107.335341 
L 436.377934 129.764358 
L 438.437476 115.926002 
L 440.497381 137.395132 
L 442.557106 107.917606 
L 444.616863 135.593316 
L 446.67648 128.015196 
L 448.736423 136.677608 
L 450.796539 135.228871 
L 452.855685 127.697756 
L 454.915597 114.64894 
L 456.975003 132.341253 
L 459.03536 136.959239 
L 463.154409 129.391994 
L 465.21376 126.298256 
L 467.273519 119.034997 
L 469.33346 126.425859 
L 471.392456 110.080181 
L 473.452349 104.30929 
L 475.512013 145.376552 
L 477.571818 141.937459 
L 479.633633 154.423245 
L 481.69321 147.16316 
L 483.751669 146.979559 
L 485.811003 138.70463 
L 487.870564 138.984428 
L 489.93034 144.333923 
L 491.990118 103.334328 
L 496.109264 140.314076 
L 498.169337 138.248967 
L 500.228891 133.816085 
L 502.288685 139.201271 
L 504.348384 135.385858 
L 506.408718 138.157654 
L 508.468297 138.305693 
L 510.527504 132.823796 
L 512.587168 139.071623 
L 514.647065 142.099812 
L 516.706748 125.069539 
L 518.766514 140.240961 
L 520.826111 123.859655 
L 522.886067 140.599783 
L 524.945455 133.424601 
L 524.945455 133.424601 
" clip-path="url(#p7f4ab02ece)" style="fill: none; stroke: #ff7f0e; stroke-width: 1.5; stroke-linecap: square"/>
   </g>
   <g id="patch_3">
    <path d="M 57.6 230.4 
L 57.6 28.8 
" style="fill: none; stroke: #000000; stroke-width: 0.8; stroke-linejoin: miter; stroke-linecap: square"/>
   </g>
   <g id="patch_4">
    <path d="M 547.2 230.4 
L 547.2 28.8 
" style="fill: none; stroke: #000000; stroke-width: 0.8; stroke-linejoin: miter; stroke-linecap: square"/>
   </g>
   <g id="patch_5">
    <path d="M 57.6 230.4 
L 547.2 230.4 
" style="fill: none; stroke: #000000; stroke-width: 0.8; stroke-linejoin: miter; stroke-linecap: square"/>
   </g>
   <g id="patch_6">
    <path d="M 57.6 28.8 
L 547.2 28.8 
" style="fill: none; stroke: #000000; stroke-width: 0.8; stroke-linejoin: miter; stroke-linecap: square"/>
   </g>
   <g id="text_18">
    <!-- Czas do uzyskania potwierdzen transakcji dla sieci 'Harmony' -->
    <g transform="translate(118.168125 22.8)scale(0.12 -0.12)">
     <defs>
      <path id="DejaVuSans-64" d="M 2906 2969 
L 2906 4863 
L 3481 4863 
L 3481 0 
L 2906 0 
L 2906 525 
Q 2725 213 2448 61 
Q 2172 -91 1784 -91 
Q 1150 -91 751 415 
Q 353 922 353 1747 
Q 353 2572 751 3078 
Q 1150 3584 1784 3584 
Q 2172 3584 2448 3432 
Q 2725 3281 2906 2969 
z
M 947 1747 
Q 947 1113 1208 752 
Q 1469 391 1925 391 
Q 2381 391 2643 752 
Q 2906 1113 2906 1747 
Q 2906 2381 2643 2742 
Q 2381 3103 1925 3103 
Q 1469 3103 1208 2742 
Q 947 2381 947 1747 
z
" transform="scale(0.015625)"/>
      <path id="DejaVuSans-6f" d="M 1959 3097 
Q 1497 3097 1228 2736 
Q 959 2375 959 1747 
Q 959 1119 1226 758 
Q 1494 397 1959 397 
Q 2419 397 2687 759 
Q 2956 1122 2956 1747 
Q 2956 2369 2687 2733 
Q 2419 3097 1959 3097 
z
M 1959 3584 
Q 2709 3584 3137 3096 
Q 3566 2609 3566 1747 
Q 3566 888 3137 398 
Q 2709 -91 1959 -91 
Q 1206 -91 779 398 
Q 353 888 353 1747 
Q 353 2609 779 3096 
Q 1206 3584 1959 3584 
z
" transform="scale(0.015625)"/>
      <path id="DejaVuSans-75" d="M 544 1381 
L 544 3500 
L 1119 3500 
L 1119 1403 
Q 1119 906 1312 657 
Q 1506 409 1894 409 
Q 2359 409 2629 706 
Q 2900 1003 2900 1516 
L 2900 3500 
L 3475 3500 
L 3475 0 
L 2900 0 
L 2900 538 
Q 2691 219 2414 64 
Q 2138 -91 1772 -91 
Q 1169 -91 856 284 
Q 544 659 544 1381 
z
M 1991 3584 
L 1991 3584 
z
" transform="scale(0.015625)"/>
      <path id="DejaVuSans-79" d="M 2059 -325 
Q 1816 -950 1584 -1140 
Q 1353 -1331 966 -1331 
L 506 -1331 
L 506 -850 
L 844 -850 
Q 1081 -850 1212 -737 
Q 1344 -625 1503 -206 
L 1606 56 
L 191 3500 
L 800 3500 
L 1894 763 
L 2988 3500 
L 3597 3500 
L 2059 -325 
z
" transform="scale(0.015625)"/>
      <path id="DejaVuSans-6b" d="M 581 4863 
L 1159 4863 
L 1159 1991 
L 2875 3500 
L 3609 3500 
L 1753 1863 
L 3688 0 
L 2938 0 
L 1159 1709 
L 1159 0 
L 581 0 
L 581 4863 
z
" transform="scale(0.015625)"/>
      <path id="DejaVuSans-6e" d="M 3513 2113 
L 3513 0 
L 2938 0 
L 2938 2094 
Q 2938 2591 2744 2837 
Q 2550 3084 2163 3084 
Q 1697 3084 1428 2787 
Q 1159 2491 1159 1978 
L 1159 0 
L 581 0 
L 581 3500 
L 1159 3500 
L 1159 2956 
Q 1366 3272 1645 3428 
Q 1925 3584 2291 3584 
Q 2894 3584 3203 3211 
Q 3513 2838 3513 2113 
z
" transform="scale(0.015625)"/>
      <path id="DejaVuSans-69" d="M 603 3500 
L 1178 3500 
L 1178 0 
L 603 0 
L 603 3500 
z
M 603 4863 
L 1178 4863 
L 1178 4134 
L 603 4134 
L 603 4863 
z
" transform="scale(0.015625)"/>
      <path id="DejaVuSans-70" d="M 1159 525 
L 1159 -1331 
L 581 -1331 
L 581 3500 
L 1159 3500 
L 1159 2969 
Q 1341 3281 1617 3432 
Q 1894 3584 2278 3584 
Q 2916 3584 3314 3078 
Q 3713 2572 3713 1747 
Q 3713 922 3314 415 
Q 2916 -91 2278 -91 
Q 1894 -91 1617 61 
Q 1341 213 1159 525 
z
M 3116 1747 
Q 3116 2381 2855 2742 
Q 2594 3103 2138 3103 
Q 1681 3103 1420 2742 
Q 1159 2381 1159 1747 
Q 1159 1113 1420 752 
Q 1681 391 2138 391 
Q 2594 391 2855 752 
Q 3116 1113 3116 1747 
z
" transform="scale(0.015625)"/>
      <path id="DejaVuSans-77" d="M 269 3500 
L 844 3500 
L 1563 769 
L 2278 3500 
L 2956 3500 
L 3675 769 
L 4391 3500 
L 4966 3500 
L 4050 0 
L 3372 0 
L 2619 2869 
L 1863 0 
L 1184 0 
L 269 3500 
z
" transform="scale(0.015625)"/>
      <path id="DejaVuSans-65" d="M 3597 1894 
L 3597 1613 
L 953 1613 
Q 991 1019 1311 708 
Q 1631 397 2203 397 
Q 2534 397 2845 478 
Q 3156 559 3463 722 
L 3463 178 
Q 3153 47 2828 -22 
Q 2503 -91 2169 -91 
Q 1331 -91 842 396 
Q 353 884 353 1716 
Q 353 2575 817 3079 
Q 1281 3584 2069 3584 
Q 2775 3584 3186 3129 
Q 3597 2675 3597 1894 
z
M 3022 2063 
Q 3016 2534 2758 2815 
Q 2500 3097 2075 3097 
Q 1594 3097 1305 2825 
Q 1016 2553 972 2059 
L 3022 2063 
z
" transform="scale(0.015625)"/>
      <path id="DejaVuSans-72" d="M 2631 2963 
Q 2534 3019 2420 3045 
Q 2306 3072 2169 3072 
Q 1681 3072 1420 2755 
Q 1159 2438 1159 1844 
L 1159 0 
L 581 0 
L 581 3500 
L 1159 3500 
L 1159 2956 
Q 1341 3275 1631 3429 
Q 1922 3584 2338 3584 
Q 2397 3584 2469 3576 
Q 2541 3569 2628 3553 
L 2631 2963 
z
" transform="scale(0.015625)"/>
      <path id="DejaVuSans-63" d="M 3122 3366 
L 3122 2828 
Q 2878 2963 2633 3030 
Q 2388 3097 2138 3097 
Q 1578 3097 1268 2742 
Q 959 2388 959 1747 
Q 959 1106 1268 751 
Q 1578 397 2138 397 
Q 2388 397 2633 464 
Q 2878 531 3122 666 
L 3122 134 
Q 2881 22 2623 -34 
Q 2366 -91 2075 -91 
Q 1284 -91 818 406 
Q 353 903 353 1747 
Q 353 2603 823 3093 
Q 1294 3584 2113 3584 
Q 2378 3584 2631 3529 
Q 2884 3475 3122 3366 
z
" transform="scale(0.015625)"/>
      <path id="DejaVuSans-6a" d="M 603 3500 
L 1178 3500 
L 1178 -63 
Q 1178 -731 923 -1031 
Q 669 -1331 103 -1331 
L -116 -1331 
L -116 -844 
L 38 -844 
Q 366 -844 484 -692 
Q 603 -541 603 -63 
L 603 3500 
z
M 603 4863 
L 1178 4863 
L 1178 4134 
L 603 4134 
L 603 4863 
z
" transform="scale(0.015625)"/>
      <path id="DejaVuSans-6c" d="M 603 4863 
L 1178 4863 
L 1178 0 
L 603 0 
L 603 4863 
z
" transform="scale(0.015625)"/>
      <path id="DejaVuSans-27" d="M 1147 4666 
L 1147 2931 
L 616 2931 
L 616 4666 
L 1147 4666 
z
" transform="scale(0.015625)"/>
      <path id="DejaVuSans-48" d="M 628 4666 
L 1259 4666 
L 1259 2753 
L 3553 2753 
L 3553 4666 
L 4184 4666 
L 4184 0 
L 3553 0 
L 3553 2222 
L 1259 2222 
L 1259 0 
L 628 0 
L 628 4666 
z
" transform="scale(0.015625)"/>
      <path id="DejaVuSans-6d" d="M 3328 2828 
Q 3544 3216 3844 3400 
Q 4144 3584 4550 3584 
Q 5097 3584 5394 3201 
Q 5691 2819 5691 2113 
L 5691 0 
L 5113 0 
L 5113 2094 
Q 5113 2597 4934 2840 
Q 4756 3084 4391 3084 
Q 3944 3084 3684 2787 
Q 3425 2491 3425 1978 
L 3425 0 
L 2847 0 
L 2847 2094 
Q 2847 2600 2669 2842 
Q 2491 3084 2119 3084 
Q 1678 3084 1418 2786 
Q 1159 2488 1159 1978 
L 1159 0 
L 581 0 
L 581 3500 
L 1159 3500 
L 1159 2956 
Q 1356 3278 1631 3431 
Q 1906 3584 2284 3584 
Q 2666 3584 2933 3390 
Q 3200 3197 3328 2828 
z
" transform="scale(0.015625)"/>
     </defs>
     <use xlink:href="#DejaVuSans-43"/>
     <use xlink:href="#DejaVuSans-7a" x="69.824219"/>
     <use xlink:href="#DejaVuSans-61" x="122.314453"/>
     <use xlink:href="#DejaVuSans-73" x="183.59375"/>
     <use xlink:href="#DejaVuSans-20" x="235.693359"/>
     <use xlink:href="#DejaVuSans-64" x="267.480469"/>
     <use xlink:href="#DejaVuSans-6f" x="330.957031"/>
     <use xlink:href="#DejaVuSans-20" x="392.138672"/>
     <use xlink:href="#DejaVuSans-75" x="423.925781"/>
     <use xlink:href="#DejaVuSans-7a" x="487.304688"/>
     <use xlink:href="#DejaVuSans-79" x="539.794922"/>
     <use xlink:href="#DejaVuSans-73" x="598.974609"/>
     <use xlink:href="#DejaVuSans-6b" x="651.074219"/>
     <use xlink:href="#DejaVuSans-61" x="707.234375"/>
     <use xlink:href="#DejaVuSans-6e" x="768.513672"/>
     <use xlink:href="#DejaVuSans-69" x="831.892578"/>
     <use xlink:href="#DejaVuSans-61" x="859.675781"/>
     <use xlink:href="#DejaVuSans-20" x="920.955078"/>
     <use xlink:href="#DejaVuSans-70" x="952.742188"/>
     <use xlink:href="#DejaVuSans-6f" x="1016.21875"/>
     <use xlink:href="#DejaVuSans-74" x="1077.400391"/>
     <use xlink:href="#DejaVuSans-77" x="1116.609375"/>
     <use xlink:href="#DejaVuSans-69" x="1198.396484"/>
     <use xlink:href="#DejaVuSans-65" x="1226.179688"/>
     <use xlink:href="#DejaVuSans-72" x="1287.703125"/>
     <use xlink:href="#DejaVuSans-64" x="1327.066406"/>
     <use xlink:href="#DejaVuSans-7a" x="1390.542969"/>
     <use xlink:href="#DejaVuSans-65" x="1443.033203"/>
     <use xlink:href="#DejaVuSans-6e" x="1504.556641"/>
     <use xlink:href="#DejaVuSans-20" x="1567.935547"/>
     <use xlink:href="#DejaVuSans-74" x="1599.722656"/>
     <use xlink:href="#DejaVuSans-72" x="1638.931641"/>
     <use xlink:href="#DejaVuSans-61" x="1680.044922"/>
     <use xlink:href="#DejaVuSans-6e" x="1741.324219"/>
     <use xlink:href="#DejaVuSans-73" x="1804.703125"/>
     <use xlink:href="#DejaVuSans-61" x="1856.802734"/>
     <use xlink:href="#DejaVuSans-6b" x="1918.082031"/>
     <use xlink:href="#DejaVuSans-63" x="1975.992188"/>
     <use xlink:href="#DejaVuSans-6a" x="2030.972656"/>
     <use xlink:href="#DejaVuSans-69" x="2058.755859"/>
     <use xlink:href="#DejaVuSans-20" x="2086.539062"/>
     <use xlink:href="#DejaVuSans-64" x="2118.326172"/>
     <use xlink:href="#DejaVuSans-6c" x="2181.802734"/>
     <use xlink:href="#DejaVuSans-61" x="2209.585938"/>
     <use xlink:href="#DejaVuSans-20" x="2270.865234"/>
     <use xlink:href="#DejaVuSans-73" x="2302.652344"/>
     <use xlink:href="#DejaVuSans-69" x="2354.751953"/>
     <use xlink:href="#DejaVuSans-65" x="2382.535156"/>
     <use xlink:href="#DejaVuSans-63" x="2444.058594"/>
     <use xlink:href="#DejaVuSans-69" x="2499.039062"/>
     <use xlink:href="#DejaVuSans-20" x="2526.822266"/>
     <use xlink:href="#DejaVuSans-27" x="2558.609375"/>
     <use xlink:href="#DejaVuSans-48" x="2586.099609"/>
     <use xlink:href="#DejaVuSans-61" x="2661.294922"/>
     <use xlink:href="#DejaVuSans-72" x="2722.574219"/>
     <use xlink:href="#DejaVuSans-6d" x="2761.9375"/>
     <use xlink:href="#DejaVuSans-6f" x="2859.349609"/>
     <use xlink:href="#DejaVuSans-6e" x="2920.53125"/>
     <use xlink:href="#DejaVuSans-79" x="2983.910156"/>
     <use xlink:href="#DejaVuSans-27" x="3043.089844"/>
    </g>
   </g>
   <g id="legend_1">
    <g id="patch_7">
     <path d="M 410.392187 66.15625 
L 540.2 66.15625 
Q 542.2 66.15625 542.2 64.15625 
L 542.2 35.8 
Q 542.2 33.8 540.2 33.8 
L 410.392187 33.8 
Q 408.392187 33.8 408.392187 35.8 
L 408.392187 64.15625 
Q 408.392187 66.15625 410.392187 66.15625 
z
" style="fill: #ffffff; opacity: 0.8; stroke: #cccccc; stroke-linejoin: miter"/>
    </g>
    <g id="line2d_28">
     <path d="M 412.392187 41.898438 
L 422.392187 41.898438 
L 432.392187 41.898438 
" style="fill: none; stroke: #1f77b4; stroke-width: 1.5; stroke-linecap: square"/>
    </g>
    <g id="text_19">
     <!-- Czas 2 potwierdzen -->
     <g transform="translate(440.392187 45.398438)scale(0.1 -0.1)">
      <use xlink:href="#DejaVuSans-43"/>
      <use xlink:href="#DejaVuSans-7a" x="69.824219"/>
      <use xlink:href="#DejaVuSans-61" x="122.314453"/>
      <use xlink:href="#DejaVuSans-73" x="183.59375"/>
      <use xlink:href="#DejaVuSans-20" x="235.693359"/>
      <use xlink:href="#DejaVuSans-32" x="267.480469"/>
      <use xlink:href="#DejaVuSans-20" x="331.103516"/>
      <use xlink:href="#DejaVuSans-70" x="362.890625"/>
      <use xlink:href="#DejaVuSans-6f" x="426.367188"/>
      <use xlink:href="#DejaVuSans-74" x="487.548828"/>
      <use xlink:href="#DejaVuSans-77" x="526.757812"/>
      <use xlink:href="#DejaVuSans-69" x="608.544922"/>
      <use xlink:href="#DejaVuSans-65" x="636.328125"/>
      <use xlink:href="#DejaVuSans-72" x="697.851562"/>
      <use xlink:href="#DejaVuSans-64" x="737.214844"/>
      <use xlink:href="#DejaVuSans-7a" x="800.691406"/>
      <use xlink:href="#DejaVuSans-65" x="853.181641"/>
      <use xlink:href="#DejaVuSans-6e" x="914.705078"/>
     </g>
    </g>
    <g id="line2d_29">
     <path d="M 412.392187 56.576562 
L 422.392187 56.576562 
L 432.392187 56.576562 
" style="fill: none; stroke: #ff7f0e; stroke-width: 1.5; stroke-linecap: square"/>
    </g>
    <g id="text_20">
     <!-- Czas 5 potwierdzen -->
     <g transform="translate(440.392187 60.076562)scale(0.1 -0.1)">
      <use xlink:href="#DejaVuSans-43"/>
      <use xlink:href="#DejaVuSans-7a" x="69.824219"/>
      <use xlink:href="#DejaVuSans-61" x="122.314453"/>
      <use xlink:href="#DejaVuSans-73" x="183.59375"/>
      <use xlink:href="#DejaVuSans-20" x="235.693359"/>
      <use xlink:href="#DejaVuSans-35" x="267.480469"/>
      <use xlink:href="#DejaVuSans-20" x="331.103516"/>
      <use xlink:href="#DejaVuSans-70" x="362.890625"/>
      <use xlink:href="#DejaVuSans-6f" x="426.367188"/>
      <use xlink:href="#DejaVuSans-74" x="487.548828"/>
      <use xlink:href="#DejaVuSans-77" x="526.757812"/>
      <use xlink:href="#DejaVuSans-69" x="608.544922"/>
      <use xlink:href="#DejaVuSans-65" x="636.328125"/>
      <use xlink:href="#DejaVuSans-72" x="697.851562"/>
      <use xlink:href="#DejaVuSans-64" x="737.214844"/>
      <use xlink:href="#DejaVuSans-7a" x="800.691406"/>
      <use xlink:href="#DejaVuSans-65" x="853.181641"/>
      <use xlink:href="#DejaVuSans-6e" x="914.705078"/>
     </g>
    </g>
   </g>
  </g>
 </g>
 <defs>
  <clipPath id="p7f4ab02ece">
   <rect x="57.6" y="28.8" width="489.6" height="201.6"/>
  </clipPath>
 </defs>
</svg>
