<?xml version="1.0" encoding="utf-8" standalone="no"?>
<!DOCTYPE svg PUBLIC "-//W3C//DTD SVG 1.1//EN"
  "http://www.w3.org/Graphics/SVG/1.1/DTD/svg11.dtd">
<svg xmlns:xlink="http://www.w3.org/1999/xlink" width="576pt" height="288pt" viewBox="0 0 576 288" xmlns="http://www.w3.org/2000/svg" version="1.1">
 <metadata>
  <rdf:RDF xmlns:dc="http://purl.org/dc/elements/1.1/" xmlns:cc="http://creativecommons.org/ns#" xmlns:rdf="http://www.w3.org/1999/02/22-rdf-syntax-ns#">
   <cc:Work>
    <dc:type rdf:resource="http://purl.org/dc/dcmitype/StillImage"/>
    <dc:date>2022-10-22T18:25:38.281677</dc:date>
    <dc:format>image/svg+xml</dc:format>
    <dc:creator>
     <cc:Agent>
      <dc:title>Matplotlib v3.5.3, https://matplotlib.org/</dc:title>
     </cc:Agent>
    </dc:creator>
   </cc:Work>
  </rdf:RDF>
 </metadata>
 <defs>
  <style type="text/css">*{stroke-linejoin: round; stroke-linecap: butt}</style>
 </defs>
 <g id="figure_1">
  <g id="patch_1">
   <path d="M 0 288 
L 576 288 
L 576 0 
L 0 0 
z
" style="fill: #ffffff"/>
  </g>
  <g id="axes_1">
   <g id="patch_2">
    <path d="M 69.12 230.4 
L 547.2 230.4 
L 547.2 28.8 
L 69.12 28.8 
z
" style="fill: #ffffff"/>
   </g>
   <g id="matplotlib.axis_1">
    <g id="xtick_1">
     <g id="line2d_1">
      <path d="M 98.269638 230.4 
L 98.269638 28.8 
" clip-path="url(#pbe043a861b)" style="fill: none; stroke: #b0b0b0; stroke-opacity: 0.7; stroke-width: 0.8; stroke-linecap: square"/>
     </g>
     <g id="line2d_2">
      <defs>
       <path id="md85c12d50b" d="M 0 0 
L 0 3.5 
" style="stroke: #000000; stroke-width: 0.8"/>
      </defs>
      <g>
       <use xlink:href="#md85c12d50b" x="98.269638" y="230.4" style="stroke: #000000; stroke-width: 0.8"/>
      </g>
     </g>
     <g id="text_1">
      <!-- 01.08.2022 -->
      <g transform="translate(56.312794 283.259189)rotate(-45)scale(0.1 -0.1)">
       <defs>
        <path id="DejaVuSans-30" d="M 2034 4250 
Q 1547 4250 1301 3770 
Q 1056 3291 1056 2328 
Q 1056 1369 1301 889 
Q 1547 409 2034 409 
Q 2525 409 2770 889 
Q 3016 1369 3016 2328 
Q 3016 3291 2770 3770 
Q 2525 4250 2034 4250 
z
M 2034 4750 
Q 2819 4750 3233 4129 
Q 3647 3509 3647 2328 
Q 3647 1150 3233 529 
Q 2819 -91 2034 -91 
Q 1250 -91 836 529 
Q 422 1150 422 2328 
Q 422 3509 836 4129 
Q 1250 4750 2034 4750 
z
" transform="scale(0.015625)"/>
        <path id="DejaVuSans-31" d="M 794 531 
L 1825 531 
L 1825 4091 
L 703 3866 
L 703 4441 
L 1819 4666 
L 2450 4666 
L 2450 531 
L 3481 531 
L 3481 0 
L 794 0 
L 794 531 
z
" transform="scale(0.015625)"/>
        <path id="DejaVuSans-2e" d="M 684 794 
L 1344 794 
L 1344 0 
L 684 0 
L 684 794 
z
" transform="scale(0.015625)"/>
        <path id="DejaVuSans-38" d="M 2034 2216 
Q 1584 2216 1326 1975 
Q 1069 1734 1069 1313 
Q 1069 891 1326 650 
Q 1584 409 2034 409 
Q 2484 409 2743 651 
Q 3003 894 3003 1313 
Q 3003 1734 2745 1975 
Q 2488 2216 2034 2216 
z
M 1403 2484 
Q 997 2584 770 2862 
Q 544 3141 544 3541 
Q 544 4100 942 4425 
Q 1341 4750 2034 4750 
Q 2731 4750 3128 4425 
Q 3525 4100 3525 3541 
Q 3525 3141 3298 2862 
Q 3072 2584 2669 2484 
Q 3125 2378 3379 2068 
Q 3634 1759 3634 1313 
Q 3634 634 3220 271 
Q 2806 -91 2034 -91 
Q 1263 -91 848 271 
Q 434 634 434 1313 
Q 434 1759 690 2068 
Q 947 2378 1403 2484 
z
M 1172 3481 
Q 1172 3119 1398 2916 
Q 1625 2713 2034 2713 
Q 2441 2713 2670 2916 
Q 2900 3119 2900 3481 
Q 2900 3844 2670 4047 
Q 2441 4250 2034 4250 
Q 1625 4250 1398 4047 
Q 1172 3844 1172 3481 
z
" transform="scale(0.015625)"/>
        <path id="DejaVuSans-32" d="M 1228 531 
L 3431 531 
L 3431 0 
L 469 0 
L 469 531 
Q 828 903 1448 1529 
Q 2069 2156 2228 2338 
Q 2531 2678 2651 2914 
Q 2772 3150 2772 3378 
Q 2772 3750 2511 3984 
Q 2250 4219 1831 4219 
Q 1534 4219 1204 4116 
Q 875 4013 500 3803 
L 500 4441 
Q 881 4594 1212 4672 
Q 1544 4750 1819 4750 
Q 2544 4750 2975 4387 
Q 3406 4025 3406 3419 
Q 3406 3131 3298 2873 
Q 3191 2616 2906 2266 
Q 2828 2175 2409 1742 
Q 1991 1309 1228 531 
z
" transform="scale(0.015625)"/>
       </defs>
       <use xlink:href="#DejaVuSans-30"/>
       <use xlink:href="#DejaVuSans-31" x="63.623047"/>
       <use xlink:href="#DejaVuSans-2e" x="127.246094"/>
       <use xlink:href="#DejaVuSans-30" x="159.033203"/>
       <use xlink:href="#DejaVuSans-38" x="222.65625"/>
       <use xlink:href="#DejaVuSans-2e" x="286.279297"/>
       <use xlink:href="#DejaVuSans-32" x="318.066406"/>
       <use xlink:href="#DejaVuSans-30" x="381.689453"/>
       <use xlink:href="#DejaVuSans-32" x="445.3125"/>
       <use xlink:href="#DejaVuSans-32" x="508.935547"/>
      </g>
     </g>
    </g>
    <g id="xtick_2">
     <g id="line2d_3">
      <path d="M 146.538802 230.4 
L 146.538802 28.8 
" clip-path="url(#pbe043a861b)" style="fill: none; stroke: #b0b0b0; stroke-opacity: 0.7; stroke-width: 0.8; stroke-linecap: square"/>
     </g>
     <g id="line2d_4">
      <g>
       <use xlink:href="#md85c12d50b" x="146.538802" y="230.4" style="stroke: #000000; stroke-width: 0.8"/>
      </g>
     </g>
     <g id="text_2">
      <!-- 02.08.2022 -->
      <g transform="translate(104.581958 283.259189)rotate(-45)scale(0.1 -0.1)">
       <use xlink:href="#DejaVuSans-30"/>
       <use xlink:href="#DejaVuSans-32" x="63.623047"/>
       <use xlink:href="#DejaVuSans-2e" x="127.246094"/>
       <use xlink:href="#DejaVuSans-30" x="159.033203"/>
       <use xlink:href="#DejaVuSans-38" x="222.65625"/>
       <use xlink:href="#DejaVuSans-2e" x="286.279297"/>
       <use xlink:href="#DejaVuSans-32" x="318.066406"/>
       <use xlink:href="#DejaVuSans-30" x="381.689453"/>
       <use xlink:href="#DejaVuSans-32" x="445.3125"/>
       <use xlink:href="#DejaVuSans-32" x="508.935547"/>
      </g>
     </g>
    </g>
    <g id="xtick_3">
     <g id="line2d_5">
      <path d="M 194.807966 230.4 
L 194.807966 28.8 
" clip-path="url(#pbe043a861b)" style="fill: none; stroke: #b0b0b0; stroke-opacity: 0.7; stroke-width: 0.8; stroke-linecap: square"/>
     </g>
     <g id="line2d_6">
      <g>
       <use xlink:href="#md85c12d50b" x="194.807966" y="230.4" style="stroke: #000000; stroke-width: 0.8"/>
      </g>
     </g>
     <g id="text_3">
      <!-- 03.08.2022 -->
      <g transform="translate(152.851123 283.259189)rotate(-45)scale(0.1 -0.1)">
       <defs>
        <path id="DejaVuSans-33" d="M 2597 2516 
Q 3050 2419 3304 2112 
Q 3559 1806 3559 1356 
Q 3559 666 3084 287 
Q 2609 -91 1734 -91 
Q 1441 -91 1130 -33 
Q 819 25 488 141 
L 488 750 
Q 750 597 1062 519 
Q 1375 441 1716 441 
Q 2309 441 2620 675 
Q 2931 909 2931 1356 
Q 2931 1769 2642 2001 
Q 2353 2234 1838 2234 
L 1294 2234 
L 1294 2753 
L 1863 2753 
Q 2328 2753 2575 2939 
Q 2822 3125 2822 3475 
Q 2822 3834 2567 4026 
Q 2313 4219 1838 4219 
Q 1578 4219 1281 4162 
Q 984 4106 628 3988 
L 628 4550 
Q 988 4650 1302 4700 
Q 1616 4750 1894 4750 
Q 2613 4750 3031 4423 
Q 3450 4097 3450 3541 
Q 3450 3153 3228 2886 
Q 3006 2619 2597 2516 
z
" transform="scale(0.015625)"/>
       </defs>
       <use xlink:href="#DejaVuSans-30"/>
       <use xlink:href="#DejaVuSans-33" x="63.623047"/>
       <use xlink:href="#DejaVuSans-2e" x="127.246094"/>
       <use xlink:href="#DejaVuSans-30" x="159.033203"/>
       <use xlink:href="#DejaVuSans-38" x="222.65625"/>
       <use xlink:href="#DejaVuSans-2e" x="286.279297"/>
       <use xlink:href="#DejaVuSans-32" x="318.066406"/>
       <use xlink:href="#DejaVuSans-30" x="381.689453"/>
       <use xlink:href="#DejaVuSans-32" x="445.3125"/>
       <use xlink:href="#DejaVuSans-32" x="508.935547"/>
      </g>
     </g>
    </g>
    <g id="xtick_4">
     <g id="line2d_7">
      <path d="M 243.07713 230.4 
L 243.07713 28.8 
" clip-path="url(#pbe043a861b)" style="fill: none; stroke: #b0b0b0; stroke-opacity: 0.7; stroke-width: 0.8; stroke-linecap: square"/>
     </g>
     <g id="line2d_8">
      <g>
       <use xlink:href="#md85c12d50b" x="243.07713" y="230.4" style="stroke: #000000; stroke-width: 0.8"/>
      </g>
     </g>
     <g id="text_4">
      <!-- 04.08.2022 -->
      <g transform="translate(201.120287 283.259189)rotate(-45)scale(0.1 -0.1)">
       <defs>
        <path id="DejaVuSans-34" d="M 2419 4116 
L 825 1625 
L 2419 1625 
L 2419 4116 
z
M 2253 4666 
L 3047 4666 
L 3047 1625 
L 3713 1625 
L 3713 1100 
L 3047 1100 
L 3047 0 
L 2419 0 
L 2419 1100 
L 313 1100 
L 313 1709 
L 2253 4666 
z
" transform="scale(0.015625)"/>
       </defs>
       <use xlink:href="#DejaVuSans-30"/>
       <use xlink:href="#DejaVuSans-34" x="63.623047"/>
       <use xlink:href="#DejaVuSans-2e" x="127.246094"/>
       <use xlink:href="#DejaVuSans-30" x="159.033203"/>
       <use xlink:href="#DejaVuSans-38" x="222.65625"/>
       <use xlink:href="#DejaVuSans-2e" x="286.279297"/>
       <use xlink:href="#DejaVuSans-32" x="318.066406"/>
       <use xlink:href="#DejaVuSans-30" x="381.689453"/>
       <use xlink:href="#DejaVuSans-32" x="445.3125"/>
       <use xlink:href="#DejaVuSans-32" x="508.935547"/>
      </g>
     </g>
    </g>
    <g id="xtick_5">
     <g id="line2d_9">
      <path d="M 291.346295 230.4 
L 291.346295 28.8 
" clip-path="url(#pbe043a861b)" style="fill: none; stroke: #b0b0b0; stroke-opacity: 0.7; stroke-width: 0.8; stroke-linecap: square"/>
     </g>
     <g id="line2d_10">
      <g>
       <use xlink:href="#md85c12d50b" x="291.346295" y="230.4" style="stroke: #000000; stroke-width: 0.8"/>
      </g>
     </g>
     <g id="text_5">
      <!-- 05.08.2022 -->
      <g transform="translate(249.389451 283.259189)rotate(-45)scale(0.1 -0.1)">
       <defs>
        <path id="DejaVuSans-35" d="M 691 4666 
L 3169 4666 
L 3169 4134 
L 1269 4134 
L 1269 2991 
Q 1406 3038 1543 3061 
Q 1681 3084 1819 3084 
Q 2600 3084 3056 2656 
Q 3513 2228 3513 1497 
Q 3513 744 3044 326 
Q 2575 -91 1722 -91 
Q 1428 -91 1123 -41 
Q 819 9 494 109 
L 494 744 
Q 775 591 1075 516 
Q 1375 441 1709 441 
Q 2250 441 2565 725 
Q 2881 1009 2881 1497 
Q 2881 1984 2565 2268 
Q 2250 2553 1709 2553 
Q 1456 2553 1204 2497 
Q 953 2441 691 2322 
L 691 4666 
z
" transform="scale(0.015625)"/>
       </defs>
       <use xlink:href="#DejaVuSans-30"/>
       <use xlink:href="#DejaVuSans-35" x="63.623047"/>
       <use xlink:href="#DejaVuSans-2e" x="127.246094"/>
       <use xlink:href="#DejaVuSans-30" x="159.033203"/>
       <use xlink:href="#DejaVuSans-38" x="222.65625"/>
       <use xlink:href="#DejaVuSans-2e" x="286.279297"/>
       <use xlink:href="#DejaVuSans-32" x="318.066406"/>
       <use xlink:href="#DejaVuSans-30" x="381.689453"/>
       <use xlink:href="#DejaVuSans-32" x="445.3125"/>
       <use xlink:href="#DejaVuSans-32" x="508.935547"/>
      </g>
     </g>
    </g>
    <g id="xtick_6">
     <g id="line2d_11">
      <path d="M 339.615459 230.4 
L 339.615459 28.8 
" clip-path="url(#pbe043a861b)" style="fill: none; stroke: #b0b0b0; stroke-opacity: 0.7; stroke-width: 0.8; stroke-linecap: square"/>
     </g>
     <g id="line2d_12">
      <g>
       <use xlink:href="#md85c12d50b" x="339.615459" y="230.4" style="stroke: #000000; stroke-width: 0.8"/>
      </g>
     </g>
     <g id="text_6">
      <!-- 06.08.2022 -->
      <g transform="translate(297.658615 283.259189)rotate(-45)scale(0.1 -0.1)">
       <defs>
        <path id="DejaVuSans-36" d="M 2113 2584 
Q 1688 2584 1439 2293 
Q 1191 2003 1191 1497 
Q 1191 994 1439 701 
Q 1688 409 2113 409 
Q 2538 409 2786 701 
Q 3034 994 3034 1497 
Q 3034 2003 2786 2293 
Q 2538 2584 2113 2584 
z
M 3366 4563 
L 3366 3988 
Q 3128 4100 2886 4159 
Q 2644 4219 2406 4219 
Q 1781 4219 1451 3797 
Q 1122 3375 1075 2522 
Q 1259 2794 1537 2939 
Q 1816 3084 2150 3084 
Q 2853 3084 3261 2657 
Q 3669 2231 3669 1497 
Q 3669 778 3244 343 
Q 2819 -91 2113 -91 
Q 1303 -91 875 529 
Q 447 1150 447 2328 
Q 447 3434 972 4092 
Q 1497 4750 2381 4750 
Q 2619 4750 2861 4703 
Q 3103 4656 3366 4563 
z
" transform="scale(0.015625)"/>
       </defs>
       <use xlink:href="#DejaVuSans-30"/>
       <use xlink:href="#DejaVuSans-36" x="63.623047"/>
       <use xlink:href="#DejaVuSans-2e" x="127.246094"/>
       <use xlink:href="#DejaVuSans-30" x="159.033203"/>
       <use xlink:href="#DejaVuSans-38" x="222.65625"/>
       <use xlink:href="#DejaVuSans-2e" x="286.279297"/>
       <use xlink:href="#DejaVuSans-32" x="318.066406"/>
       <use xlink:href="#DejaVuSans-30" x="381.689453"/>
       <use xlink:href="#DejaVuSans-32" x="445.3125"/>
       <use xlink:href="#DejaVuSans-32" x="508.935547"/>
      </g>
     </g>
    </g>
    <g id="xtick_7">
     <g id="line2d_13">
      <path d="M 387.884623 230.4 
L 387.884623 28.8 
" clip-path="url(#pbe043a861b)" style="fill: none; stroke: #b0b0b0; stroke-opacity: 0.7; stroke-width: 0.8; stroke-linecap: square"/>
     </g>
     <g id="line2d_14">
      <g>
       <use xlink:href="#md85c12d50b" x="387.884623" y="230.4" style="stroke: #000000; stroke-width: 0.8"/>
      </g>
     </g>
     <g id="text_7">
      <!-- 07.08.2022 -->
      <g transform="translate(345.927779 283.259189)rotate(-45)scale(0.1 -0.1)">
       <defs>
        <path id="DejaVuSans-37" d="M 525 4666 
L 3525 4666 
L 3525 4397 
L 1831 0 
L 1172 0 
L 2766 4134 
L 525 4134 
L 525 4666 
z
" transform="scale(0.015625)"/>
       </defs>
       <use xlink:href="#DejaVuSans-30"/>
       <use xlink:href="#DejaVuSans-37" x="63.623047"/>
       <use xlink:href="#DejaVuSans-2e" x="127.246094"/>
       <use xlink:href="#DejaVuSans-30" x="159.033203"/>
       <use xlink:href="#DejaVuSans-38" x="222.65625"/>
       <use xlink:href="#DejaVuSans-2e" x="286.279297"/>
       <use xlink:href="#DejaVuSans-32" x="318.066406"/>
       <use xlink:href="#DejaVuSans-30" x="381.689453"/>
       <use xlink:href="#DejaVuSans-32" x="445.3125"/>
       <use xlink:href="#DejaVuSans-32" x="508.935547"/>
      </g>
     </g>
    </g>
    <g id="xtick_8">
     <g id="line2d_15">
      <path d="M 436.153787 230.4 
L 436.153787 28.8 
" clip-path="url(#pbe043a861b)" style="fill: none; stroke: #b0b0b0; stroke-opacity: 0.7; stroke-width: 0.8; stroke-linecap: square"/>
     </g>
     <g id="line2d_16">
      <g>
       <use xlink:href="#md85c12d50b" x="436.153787" y="230.4" style="stroke: #000000; stroke-width: 0.8"/>
      </g>
     </g>
     <g id="text_8">
      <!-- 08.08.2022 -->
      <g transform="translate(394.196943 283.259189)rotate(-45)scale(0.1 -0.1)">
       <use xlink:href="#DejaVuSans-30"/>
       <use xlink:href="#DejaVuSans-38" x="63.623047"/>
       <use xlink:href="#DejaVuSans-2e" x="127.246094"/>
       <use xlink:href="#DejaVuSans-30" x="159.033203"/>
       <use xlink:href="#DejaVuSans-38" x="222.65625"/>
       <use xlink:href="#DejaVuSans-2e" x="286.279297"/>
       <use xlink:href="#DejaVuSans-32" x="318.066406"/>
       <use xlink:href="#DejaVuSans-30" x="381.689453"/>
       <use xlink:href="#DejaVuSans-32" x="445.3125"/>
       <use xlink:href="#DejaVuSans-32" x="508.935547"/>
      </g>
     </g>
    </g>
    <g id="xtick_9">
     <g id="line2d_17">
      <path d="M 484.422951 230.4 
L 484.422951 28.8 
" clip-path="url(#pbe043a861b)" style="fill: none; stroke: #b0b0b0; stroke-opacity: 0.7; stroke-width: 0.8; stroke-linecap: square"/>
     </g>
     <g id="line2d_18">
      <g>
       <use xlink:href="#md85c12d50b" x="484.422951" y="230.4" style="stroke: #000000; stroke-width: 0.8"/>
      </g>
     </g>
     <g id="text_9">
      <!-- 09.08.2022 -->
      <g transform="translate(442.466107 283.259189)rotate(-45)scale(0.1 -0.1)">
       <defs>
        <path id="DejaVuSans-39" d="M 703 97 
L 703 672 
Q 941 559 1184 500 
Q 1428 441 1663 441 
Q 2288 441 2617 861 
Q 2947 1281 2994 2138 
Q 2813 1869 2534 1725 
Q 2256 1581 1919 1581 
Q 1219 1581 811 2004 
Q 403 2428 403 3163 
Q 403 3881 828 4315 
Q 1253 4750 1959 4750 
Q 2769 4750 3195 4129 
Q 3622 3509 3622 2328 
Q 3622 1225 3098 567 
Q 2575 -91 1691 -91 
Q 1453 -91 1209 -44 
Q 966 3 703 97 
z
M 1959 2075 
Q 2384 2075 2632 2365 
Q 2881 2656 2881 3163 
Q 2881 3666 2632 3958 
Q 2384 4250 1959 4250 
Q 1534 4250 1286 3958 
Q 1038 3666 1038 3163 
Q 1038 2656 1286 2365 
Q 1534 2075 1959 2075 
z
" transform="scale(0.015625)"/>
       </defs>
       <use xlink:href="#DejaVuSans-30"/>
       <use xlink:href="#DejaVuSans-39" x="63.623047"/>
       <use xlink:href="#DejaVuSans-2e" x="127.246094"/>
       <use xlink:href="#DejaVuSans-30" x="159.033203"/>
       <use xlink:href="#DejaVuSans-38" x="222.65625"/>
       <use xlink:href="#DejaVuSans-2e" x="286.279297"/>
       <use xlink:href="#DejaVuSans-32" x="318.066406"/>
       <use xlink:href="#DejaVuSans-30" x="381.689453"/>
       <use xlink:href="#DejaVuSans-32" x="445.3125"/>
       <use xlink:href="#DejaVuSans-32" x="508.935547"/>
      </g>
     </g>
    </g>
    <g id="xtick_10">
     <g id="line2d_19">
      <path d="M 532.692115 230.4 
L 532.692115 28.8 
" clip-path="url(#pbe043a861b)" style="fill: none; stroke: #b0b0b0; stroke-opacity: 0.7; stroke-width: 0.8; stroke-linecap: square"/>
     </g>
     <g id="line2d_20">
      <g>
       <use xlink:href="#md85c12d50b" x="532.692115" y="230.4" style="stroke: #000000; stroke-width: 0.8"/>
      </g>
     </g>
     <g id="text_10">
      <!-- 10.08.2022 -->
      <g transform="translate(490.735271 283.259189)rotate(-45)scale(0.1 -0.1)">
       <use xlink:href="#DejaVuSans-31"/>
       <use xlink:href="#DejaVuSans-30" x="63.623047"/>
       <use xlink:href="#DejaVuSans-2e" x="127.246094"/>
       <use xlink:href="#DejaVuSans-30" x="159.033203"/>
       <use xlink:href="#DejaVuSans-38" x="222.65625"/>
       <use xlink:href="#DejaVuSans-2e" x="286.279297"/>
       <use xlink:href="#DejaVuSans-32" x="318.066406"/>
       <use xlink:href="#DejaVuSans-30" x="381.689453"/>
       <use xlink:href="#DejaVuSans-32" x="445.3125"/>
       <use xlink:href="#DejaVuSans-32" x="508.935547"/>
      </g>
     </g>
    </g>
    <g id="text_11">
     <!-- Data -->
     <g transform="translate(296.221719 296.328188)scale(0.1 -0.1)">
      <defs>
       <path id="DejaVuSans-44" d="M 1259 4147 
L 1259 519 
L 2022 519 
Q 2988 519 3436 956 
Q 3884 1394 3884 2338 
Q 3884 3275 3436 3711 
Q 2988 4147 2022 4147 
L 1259 4147 
z
M 628 4666 
L 1925 4666 
Q 3281 4666 3915 4102 
Q 4550 3538 4550 2338 
Q 4550 1131 3912 565 
Q 3275 0 1925 0 
L 628 0 
L 628 4666 
z
" transform="scale(0.015625)"/>
       <path id="DejaVuSans-61" d="M 2194 1759 
Q 1497 1759 1228 1600 
Q 959 1441 959 1056 
Q 959 750 1161 570 
Q 1363 391 1709 391 
Q 2188 391 2477 730 
Q 2766 1069 2766 1631 
L 2766 1759 
L 2194 1759 
z
M 3341 1997 
L 3341 0 
L 2766 0 
L 2766 531 
Q 2569 213 2275 61 
Q 1981 -91 1556 -91 
Q 1019 -91 701 211 
Q 384 513 384 1019 
Q 384 1609 779 1909 
Q 1175 2209 1959 2209 
L 2766 2209 
L 2766 2266 
Q 2766 2663 2505 2880 
Q 2244 3097 1772 3097 
Q 1472 3097 1187 3025 
Q 903 2953 641 2809 
L 641 3341 
Q 956 3463 1253 3523 
Q 1550 3584 1831 3584 
Q 2591 3584 2966 3190 
Q 3341 2797 3341 1997 
z
" transform="scale(0.015625)"/>
       <path id="DejaVuSans-74" d="M 1172 4494 
L 1172 3500 
L 2356 3500 
L 2356 3053 
L 1172 3053 
L 1172 1153 
Q 1172 725 1289 603 
Q 1406 481 1766 481 
L 2356 481 
L 2356 0 
L 1766 0 
Q 1100 0 847 248 
Q 594 497 594 1153 
L 594 3053 
L 172 3053 
L 172 3500 
L 594 3500 
L 594 4494 
L 1172 4494 
z
" transform="scale(0.015625)"/>
      </defs>
      <use xlink:href="#DejaVuSans-44"/>
      <use xlink:href="#DejaVuSans-61" x="77.001953"/>
      <use xlink:href="#DejaVuSans-74" x="138.28125"/>
      <use xlink:href="#DejaVuSans-61" x="177.490234"/>
     </g>
    </g>
   </g>
   <g id="matplotlib.axis_2">
    <g id="ytick_1">
     <g id="line2d_21">
      <path d="M 69.12 223.981181 
L 547.2 223.981181 
" clip-path="url(#pbe043a861b)" style="fill: none; stroke: #b0b0b0; stroke-opacity: 0.7; stroke-width: 0.8; stroke-linecap: square"/>
     </g>
     <g id="line2d_22">
      <defs>
       <path id="m6819cc5b82" d="M 0 0 
L -3.5 0 
" style="stroke: #000000; stroke-width: 0.8"/>
      </defs>
      <g>
       <use xlink:href="#m6819cc5b82" x="69.12" y="223.981181" style="stroke: #000000; stroke-width: 0.8"/>
      </g>
     </g>
     <g id="text_12">
      <!-- 20 -->
      <g transform="translate(49.395 227.7804)scale(0.1 -0.1)">
       <use xlink:href="#DejaVuSans-32"/>
       <use xlink:href="#DejaVuSans-30" x="63.623047"/>
      </g>
     </g>
    </g>
    <g id="ytick_2">
     <g id="line2d_23">
      <path d="M 69.12 201.239204 
L 547.2 201.239204 
" clip-path="url(#pbe043a861b)" style="fill: none; stroke: #b0b0b0; stroke-opacity: 0.7; stroke-width: 0.8; stroke-linecap: square"/>
     </g>
     <g id="line2d_24">
      <g>
       <use xlink:href="#m6819cc5b82" x="69.12" y="201.239204" style="stroke: #000000; stroke-width: 0.8"/>
      </g>
     </g>
     <g id="text_13">
      <!-- 40 -->
      <g transform="translate(49.395 205.038422)scale(0.1 -0.1)">
       <use xlink:href="#DejaVuSans-34"/>
       <use xlink:href="#DejaVuSans-30" x="63.623047"/>
      </g>
     </g>
    </g>
    <g id="ytick_3">
     <g id="line2d_25">
      <path d="M 69.12 178.497226 
L 547.2 178.497226 
" clip-path="url(#pbe043a861b)" style="fill: none; stroke: #b0b0b0; stroke-opacity: 0.7; stroke-width: 0.8; stroke-linecap: square"/>
     </g>
     <g id="line2d_26">
      <g>
       <use xlink:href="#m6819cc5b82" x="69.12" y="178.497226" style="stroke: #000000; stroke-width: 0.8"/>
      </g>
     </g>
     <g id="text_14">
      <!-- 60 -->
      <g transform="translate(49.395 182.296445)scale(0.1 -0.1)">
       <use xlink:href="#DejaVuSans-36"/>
       <use xlink:href="#DejaVuSans-30" x="63.623047"/>
      </g>
     </g>
    </g>
    <g id="ytick_4">
     <g id="line2d_27">
      <path d="M 69.12 155.755249 
L 547.2 155.755249 
" clip-path="url(#pbe043a861b)" style="fill: none; stroke: #b0b0b0; stroke-opacity: 0.7; stroke-width: 0.8; stroke-linecap: square"/>
     </g>
     <g id="line2d_28">
      <g>
       <use xlink:href="#m6819cc5b82" x="69.12" y="155.755249" style="stroke: #000000; stroke-width: 0.8"/>
      </g>
     </g>
     <g id="text_15">
      <!-- 80 -->
      <g transform="translate(49.395 159.554468)scale(0.1 -0.1)">
       <use xlink:href="#DejaVuSans-38"/>
       <use xlink:href="#DejaVuSans-30" x="63.623047"/>
      </g>
     </g>
    </g>
    <g id="ytick_5">
     <g id="line2d_29">
      <path d="M 69.12 133.013271 
L 547.2 133.013271 
" clip-path="url(#pbe043a861b)" style="fill: none; stroke: #b0b0b0; stroke-opacity: 0.7; stroke-width: 0.8; stroke-linecap: square"/>
     </g>
     <g id="line2d_30">
      <g>
       <use xlink:href="#m6819cc5b82" x="69.12" y="133.013271" style="stroke: #000000; stroke-width: 0.8"/>
      </g>
     </g>
     <g id="text_16">
      <!-- 100 -->
      <g transform="translate(43.0325 136.81249)scale(0.1 -0.1)">
       <use xlink:href="#DejaVuSans-31"/>
       <use xlink:href="#DejaVuSans-30" x="63.623047"/>
       <use xlink:href="#DejaVuSans-30" x="127.246094"/>
      </g>
     </g>
    </g>
    <g id="ytick_6">
     <g id="line2d_31">
      <path d="M 69.12 110.271294 
L 547.2 110.271294 
" clip-path="url(#pbe043a861b)" style="fill: none; stroke: #b0b0b0; stroke-opacity: 0.7; stroke-width: 0.8; stroke-linecap: square"/>
     </g>
     <g id="line2d_32">
      <g>
       <use xlink:href="#m6819cc5b82" x="69.12" y="110.271294" style="stroke: #000000; stroke-width: 0.8"/>
      </g>
     </g>
     <g id="text_17">
      <!-- 120 -->
      <g transform="translate(43.0325 114.070513)scale(0.1 -0.1)">
       <use xlink:href="#DejaVuSans-31"/>
       <use xlink:href="#DejaVuSans-32" x="63.623047"/>
       <use xlink:href="#DejaVuSans-30" x="127.246094"/>
      </g>
     </g>
    </g>
    <g id="ytick_7">
     <g id="line2d_33">
      <path d="M 69.12 87.529316 
L 547.2 87.529316 
" clip-path="url(#pbe043a861b)" style="fill: none; stroke: #b0b0b0; stroke-opacity: 0.7; stroke-width: 0.8; stroke-linecap: square"/>
     </g>
     <g id="line2d_34">
      <g>
       <use xlink:href="#m6819cc5b82" x="69.12" y="87.529316" style="stroke: #000000; stroke-width: 0.8"/>
      </g>
     </g>
     <g id="text_18">
      <!-- 140 -->
      <g transform="translate(43.0325 91.328535)scale(0.1 -0.1)">
       <use xlink:href="#DejaVuSans-31"/>
       <use xlink:href="#DejaVuSans-34" x="63.623047"/>
       <use xlink:href="#DejaVuSans-30" x="127.246094"/>
      </g>
     </g>
    </g>
    <g id="ytick_8">
     <g id="line2d_35">
      <path d="M 69.12 64.787339 
L 547.2 64.787339 
" clip-path="url(#pbe043a861b)" style="fill: none; stroke: #b0b0b0; stroke-opacity: 0.7; stroke-width: 0.8; stroke-linecap: square"/>
     </g>
     <g id="line2d_36">
      <g>
       <use xlink:href="#m6819cc5b82" x="69.12" y="64.787339" style="stroke: #000000; stroke-width: 0.8"/>
      </g>
     </g>
     <g id="text_19">
      <!-- 160 -->
      <g transform="translate(43.0325 68.586558)scale(0.1 -0.1)">
       <use xlink:href="#DejaVuSans-31"/>
       <use xlink:href="#DejaVuSans-36" x="63.623047"/>
       <use xlink:href="#DejaVuSans-30" x="127.246094"/>
      </g>
     </g>
    </g>
    <g id="ytick_9">
     <g id="line2d_37">
      <path d="M 69.12 42.045362 
L 547.2 42.045362 
" clip-path="url(#pbe043a861b)" style="fill: none; stroke: #b0b0b0; stroke-opacity: 0.7; stroke-width: 0.8; stroke-linecap: square"/>
     </g>
     <g id="line2d_38">
      <g>
       <use xlink:href="#m6819cc5b82" x="69.12" y="42.045362" style="stroke: #000000; stroke-width: 0.8"/>
      </g>
     </g>
     <g id="text_20">
      <!-- 180 -->
      <g transform="translate(43.0325 45.84458)scale(0.1 -0.1)">
       <use xlink:href="#DejaVuSans-31"/>
       <use xlink:href="#DejaVuSans-38" x="63.623047"/>
       <use xlink:href="#DejaVuSans-30" x="127.246094"/>
      </g>
     </g>
    </g>
    <g id="text_21">
     <!-- Czas (s) -->
     <g transform="translate(36.952812 149.479688)rotate(-90)scale(0.1 -0.1)">
      <defs>
       <path id="DejaVuSans-43" d="M 4122 4306 
L 4122 3641 
Q 3803 3938 3442 4084 
Q 3081 4231 2675 4231 
Q 1875 4231 1450 3742 
Q 1025 3253 1025 2328 
Q 1025 1406 1450 917 
Q 1875 428 2675 428 
Q 3081 428 3442 575 
Q 3803 722 4122 1019 
L 4122 359 
Q 3791 134 3420 21 
Q 3050 -91 2638 -91 
Q 1578 -91 968 557 
Q 359 1206 359 2328 
Q 359 3453 968 4101 
Q 1578 4750 2638 4750 
Q 3056 4750 3426 4639 
Q 3797 4528 4122 4306 
z
" transform="scale(0.015625)"/>
       <path id="DejaVuSans-7a" d="M 353 3500 
L 3084 3500 
L 3084 2975 
L 922 459 
L 3084 459 
L 3084 0 
L 275 0 
L 275 525 
L 2438 3041 
L 353 3041 
L 353 3500 
z
" transform="scale(0.015625)"/>
       <path id="DejaVuSans-73" d="M 2834 3397 
L 2834 2853 
Q 2591 2978 2328 3040 
Q 2066 3103 1784 3103 
Q 1356 3103 1142 2972 
Q 928 2841 928 2578 
Q 928 2378 1081 2264 
Q 1234 2150 1697 2047 
L 1894 2003 
Q 2506 1872 2764 1633 
Q 3022 1394 3022 966 
Q 3022 478 2636 193 
Q 2250 -91 1575 -91 
Q 1294 -91 989 -36 
Q 684 19 347 128 
L 347 722 
Q 666 556 975 473 
Q 1284 391 1588 391 
Q 1994 391 2212 530 
Q 2431 669 2431 922 
Q 2431 1156 2273 1281 
Q 2116 1406 1581 1522 
L 1381 1569 
Q 847 1681 609 1914 
Q 372 2147 372 2553 
Q 372 3047 722 3315 
Q 1072 3584 1716 3584 
Q 2034 3584 2315 3537 
Q 2597 3491 2834 3397 
z
" transform="scale(0.015625)"/>
       <path id="DejaVuSans-20" transform="scale(0.015625)"/>
       <path id="DejaVuSans-28" d="M 1984 4856 
Q 1566 4138 1362 3434 
Q 1159 2731 1159 2009 
Q 1159 1288 1364 580 
Q 1569 -128 1984 -844 
L 1484 -844 
Q 1016 -109 783 600 
Q 550 1309 550 2009 
Q 550 2706 781 3412 
Q 1013 4119 1484 4856 
L 1984 4856 
z
" transform="scale(0.015625)"/>
       <path id="DejaVuSans-29" d="M 513 4856 
L 1013 4856 
Q 1481 4119 1714 3412 
Q 1947 2706 1947 2009 
Q 1947 1309 1714 600 
Q 1481 -109 1013 -844 
L 513 -844 
Q 928 -128 1133 580 
Q 1338 1288 1338 2009 
Q 1338 2731 1133 3434 
Q 928 4138 513 4856 
z
" transform="scale(0.015625)"/>
      </defs>
      <use xlink:href="#DejaVuSans-43"/>
      <use xlink:href="#DejaVuSans-7a" x="69.824219"/>
      <use xlink:href="#DejaVuSans-61" x="122.314453"/>
      <use xlink:href="#DejaVuSans-73" x="183.59375"/>
      <use xlink:href="#DejaVuSans-20" x="235.693359"/>
      <use xlink:href="#DejaVuSans-28" x="267.480469"/>
      <use xlink:href="#DejaVuSans-73" x="306.494141"/>
      <use xlink:href="#DejaVuSans-29" x="358.59375"/>
     </g>
    </g>
   </g>
   <g id="line2d_39">
    <path d="M 90.850909 218.44383 
L 92.862145 215.679558 
L 94.873418 212.398717 
L 96.88418 217.007597 
L 98.895351 215.148909 
L 100.906649 212.331384 
L 102.917897 214.685453 
L 104.929144 219.487237 
L 106.940162 213.428732 
L 108.951412 218.69543 
L 110.962727 214.240602 
L 112.973898 211.192689 
L 114.985076 217.545267 
L 116.996506 215.566692 
L 119.007693 213.31582 
L 121.018947 217.347812 
L 123.030352 216.652301 
L 125.041643 211.018929 
L 127.052617 214.584502 
L 129.064042 218.657954 
L 131.075233 213.866271 
L 133.208606 218.437864 
L 135.219209 213.329799 
L 137.231375 218.250852 
L 139.244412 216.208432 
L 141.253493 210.178794 
L 143.264356 216.047109 
L 145.275674 221.236364 
L 147.286934 210.28839 
L 149.298095 216.204827 
L 151.309412 215.852064 
L 153.320728 211.316271 
L 155.331865 216.880244 
L 157.343322 213.927624 
L 159.354731 219.21643 
L 161.365741 212.267351 
L 163.377052 217.665295 
L 165.388498 216.021992 
L 167.399336 218.234398 
L 169.410633 213.140632 
L 171.422294 219.480591 
L 173.433676 213.346953 
L 175.444716 216.945823 
L 177.456039 215.713269 
L 179.468155 211.974764 
L 181.478196 217.697992 
L 183.48984 214.33027 
L 185.501129 211.957793 
L 187.515688 211.742119 
L 189.527005 209.066339 
L 191.537483 216.144102 
L 193.548021 212.783018 
L 195.559521 218.131552 
L 197.570789 215.014054 
L 199.582007 212.300374 
L 201.593177 212.458097 
L 203.605073 215.969422 
L 205.616345 213.466445 
L 207.627552 211.957591 
L 209.638888 218.318669 
L 213.661727 210.826642 
L 215.672655 219.389142 
L 217.68417 214.210162 
L 219.693028 213.572016 
L 221.704158 211.969298 
L 223.715513 218.815457 
L 225.726889 215.429626 
L 227.790616 218.504711 
L 229.801485 213.244831 
L 231.812635 219.313656 
L 233.824167 216.719064 
L 235.836957 214.371556 
L 237.847936 209.566013 
L 239.859237 217.228123 
L 241.869158 210.523566 
L 243.881947 218.20348 
L 247.905029 213.812108 
L 249.915845 217.790951 
L 251.927125 213.03882 
L 253.938465 217.598159 
L 255.949273 211.804096 
L 257.960554 217.037722 
L 259.972006 211.107176 
L 261.981671 211.270728 
L 263.993 217.442593 
L 266.004115 215.335828 
L 268.015512 210.202113 
L 270.027039 212.269476 
L 272.038274 217.242389 
L 274.04955 213.718391 
L 276.060665 215.660668 
L 278.071989 213.186567 
L 280.083074 216.758226 
L 282.094712 210.015244 
L 284.106583 213.644708 
L 286.119553 214.556976 
L 288.128931 88.826802 
L 290.142977 208.940573 
L 292.153222 215.296067 
L 294.164463 212.138581 
L 296.175787 212.580537 
L 298.187356 219.26292 
L 300.198711 212.730185 
L 302.209496 210.660622 
L 304.220837 217.769583 
L 306.232394 215.40404 
L 308.243752 211.997962 
L 310.255207 215.684273 
L 312.266455 209.593933 
L 314.277678 216.13351 
L 316.288781 211.14117 
L 318.300244 215.947873 
L 320.31172 220.100817 
L 322.323173 215.387583 
L 324.334177 217.404567 
L 326.34547 215.671366 
L 328.356599 216.765515 
L 330.365684 212.234862 
L 332.376698 215.211319 
L 334.388003 220.311891 
L 336.400233 216.978045 
L 338.372913 216.815351 
L 340.381935 211.100102 
L 342.393562 216.153348 
L 344.404909 209.695931 
L 346.416355 216.87321 
L 348.426911 214.796864 
L 350.438195 216.762981 
L 352.449434 212.521033 
L 354.460693 215.010994 
L 356.471975 211.9282 
L 358.483213 217.179375 
L 360.494474 215.653506 
L 362.505883 212.993981 
L 364.517229 216.758924 
L 366.529608 215.905932 
L 368.539942 220.19031 
L 370.551958 215.546613 
L 372.562883 211.251808 
L 374.574425 217.382214 
L 378.596438 211.181508 
L 380.607688 216.987032 
L 384.630454 210.464466 
L 386.641836 216.780837 
L 388.656938 215.761384 
L 390.666739 216.076194 
L 392.678399 210.509615 
L 394.689033 214.60535 
L 396.700239 211.910915 
L 398.712025 216.84275 
L 400.722831 212.766836 
L 402.734103 218.458392 
L 404.745714 211.434249 
L 406.757131 216.266072 
L 408.771044 214.919157 
L 410.781124 209.211509 
L 412.791032 213.866279 
L 414.800273 217.701803 
L 416.811112 211.704724 
L 418.82241 219.453268 
L 420.833669 212.572927 
L 422.846269 219.110012 
L 424.857102 213.135101 
L 426.868672 212.613318 
L 428.878906 214.257359 
L 430.941249 218.154485 
L 432.952036 213.986067 
L 434.962821 211.549226 
L 436.973933 214.882809 
L 438.98531 212.82737 
L 440.996709 212.623103 
L 443.007835 216.596317 
L 445.01912 213.903803 
L 447.030484 216.339605 
L 449.041694 213.22396 
L 451.052777 216.560303 
L 453.064289 214.100644 
L 455.075448 204.244096 
L 457.086727 213.862367 
L 459.097669 218.446979 
L 461.109586 215.274073 
L 463.120105 213.709594 
L 465.13166 213.748953 
L 467.142695 202.438835 
L 469.153879 214.737163 
L 471.165398 218.059948 
L 473.176207 145.992593 
L 475.187191 217.760697 
L 477.198596 214.634586 
L 479.210225 212.626333 
L 481.223281 216.97945 
L 483.234308 216.229143 
L 485.244479 210.650967 
L 487.254924 215.299638 
L 489.266333 211.661699 
L 491.277672 217.598613 
L 493.288784 214.933199 
L 495.300163 202.451243 
L 497.311326 210.254281 
L 499.322577 215.681463 
L 501.334033 217.102644 
L 503.34528 213.427377 
L 505.356456 216.600507 
L 507.368209 211.84664 
L 509.379284 215.029178 
L 511.390306 219.851466 
L 513.401703 212.081267 
L 515.412674 216.095669 
L 517.42411 211.142227 
L 519.435321 215.987304 
L 521.446588 217.318449 
L 523.457822 211.440216 
L 525.469091 215.90479 
L 525.469091 215.90479 
" clip-path="url(#pbe043a861b)" style="fill: none; stroke: #1f77b4; stroke-width: 1.5; stroke-linecap: square"/>
   </g>
   <g id="line2d_40">
    <path d="M 90.850909 167.426641 
L 94.873418 160.208412 
L 96.88418 165.730596 
L 100.906649 160.408486 
L 102.917897 163.385598 
L 104.929144 168.014522 
L 106.940162 163.742571 
L 108.951412 167.81491 
L 110.962727 164.449193 
L 112.973898 159.241059 
L 114.985076 166.147714 
L 119.007693 161.806832 
L 121.018947 168.402158 
L 123.030352 164.422079 
L 125.041643 160.704078 
L 127.052617 162.528079 
L 129.064042 167.794423 
L 131.075233 163.627246 
L 133.208606 166.215777 
L 135.219209 161.446187 
L 137.231375 167.642488 
L 139.244412 164.785871 
L 141.253493 158.773847 
L 143.264356 163.959144 
L 145.275674 161.758784 
L 147.286934 159.144309 
L 149.298095 164.683636 
L 151.309412 164.094067 
L 153.320728 160.577632 
L 155.331865 165.879181 
L 157.343322 162.116574 
L 159.354731 166.74046 
L 161.365741 161.380635 
L 163.377052 166.967413 
L 165.388498 163.774139 
L 167.399336 165.957418 
L 169.410633 162.776337 
L 171.422294 167.899693 
L 173.433676 160.319113 
L 175.444716 165.913473 
L 177.456039 164.23767 
L 179.468155 159.660882 
L 181.478196 166.391555 
L 183.48984 163.200828 
L 185.501129 159.459009 
L 187.515688 160.982839 
L 189.527005 158.184816 
L 191.537483 163.695989 
L 193.548021 159.426167 
L 195.559521 166.120493 
L 197.570789 164.536517 
L 199.582007 162.545297 
L 201.593177 161.16364 
L 203.605073 166.296539 
L 205.616345 162.894195 
L 207.627552 160.106446 
L 209.638888 167.639822 
L 211.650499 163.603902 
L 213.661727 159.172032 
L 215.672655 168.077044 
L 217.68417 162.866388 
L 219.693028 162.935428 
L 221.704158 161.360906 
L 223.715513 165.519733 
L 225.726889 164.325503 
L 227.790616 167.584866 
L 229.801485 162.357114 
L 231.812635 167.490187 
L 233.824167 166.587276 
L 235.836957 162.837006 
L 237.847936 159.523784 
L 239.859237 165.451564 
L 241.869158 160.130551 
L 243.881947 166.024585 
L 245.893304 165.749227 
L 247.905029 161.615931 
L 249.915845 167.26204 
L 251.927125 162.418883 
L 253.938465 167.113783 
L 255.949273 160.612439 
L 257.960554 165.74056 
L 259.972006 161.254473 
L 261.981671 160.819346 
L 263.993 167.137824 
L 266.004115 163.658538 
L 268.015512 159.357529 
L 270.027039 160.58099 
L 272.038274 164.920953 
L 274.04955 161.163524 
L 276.060665 166.017448 
L 278.071989 161.743445 
L 280.083074 166.210097 
L 282.094712 159.572858 
L 284.106583 162.075361 
L 286.119553 162.987379 
L 288.128931 37.963636 
L 290.142977 159.183861 
L 292.153222 165.217561 
L 294.164463 161.483996 
L 296.175787 159.650257 
L 298.187356 168.017904 
L 300.198711 161.645561 
L 302.209496 159.276975 
L 304.220837 167.571143 
L 306.232394 164.008511 
L 308.243752 160.925029 
L 310.255207 163.824678 
L 312.266455 158.664164 
L 314.277678 164.293408 
L 316.288781 159.869132 
L 318.300244 164.735911 
L 320.31172 167.263584 
L 322.323173 163.660643 
L 324.334177 166.249858 
L 326.34547 163.229238 
L 328.356599 165.756597 
L 330.365684 160.136797 
L 334.388003 168.275159 
L 336.400233 165.859094 
L 338.372913 166.10909 
L 340.381935 159.201046 
L 342.393562 164.38295 
L 344.404909 158.925146 
L 346.416355 165.101573 
L 348.426911 161.740441 
L 350.438195 165.236505 
L 352.449434 161.251087 
L 354.460693 163.692597 
L 356.471975 159.646085 
L 358.483213 166.123042 
L 360.494474 163.917779 
L 362.505883 160.900125 
L 364.517229 165.484916 
L 366.529608 165.599472 
L 368.539942 168.357357 
L 372.562883 159.356143 
L 374.574425 166.18118 
L 376.584899 163.860673 
L 378.596438 160.085064 
L 380.607688 166.335667 
L 382.61898 162.406122 
L 384.630454 159.163552 
L 386.641836 165.776751 
L 388.656938 166.469434 
L 390.666739 163.615273 
L 392.678399 159.539134 
L 394.689033 163.191185 
L 396.700239 160.917277 
L 398.712025 166.372443 
L 400.722831 162.410929 
L 402.734103 167.238702 
L 404.745714 160.760233 
L 406.757131 165.889475 
L 408.771044 163.714301 
L 410.781124 159.553298 
L 412.791032 163.326982 
L 414.800273 165.182102 
L 416.811112 161.237464 
L 418.82241 167.374727 
L 420.833669 161.452558 
L 422.846269 167.39026 
L 424.857102 162.644399 
L 426.868672 160.900945 
L 428.878906 164.068881 
L 430.941249 168.585888 
L 432.952036 164.034988 
L 434.962821 160.089858 
L 436.973933 163.36333 
L 438.98531 161.825146 
L 440.996709 160.653218 
L 443.007835 165.256098 
L 445.01912 163.265556 
L 447.030484 164.271902 
L 449.041694 160.134715 
L 451.052777 165.928245 
L 453.064289 162.452097 
L 455.075448 152.957802 
L 457.086727 163.031791 
L 459.097669 167.256917 
L 463.120105 161.740433 
L 465.13166 163.290282 
L 467.142695 151.352259 
L 469.153879 163.401573 
L 471.165398 166.094479 
L 473.176207 94.669675 
L 475.187191 165.880589 
L 477.198596 162.676875 
L 479.210225 161.844759 
L 481.223281 167.77444 
L 483.234308 164.411545 
L 485.244479 158.949401 
L 487.254924 164.67883 
L 489.266333 160.373075 
L 491.277672 166.646893 
L 493.288784 164.463472 
L 495.300163 152.239542 
L 499.322577 164.738957 
L 501.334033 165.285943 
L 503.34528 160.339441 
L 505.356456 164.485187 
L 507.368209 160.887618 
L 509.379284 163.667519 
L 511.390306 167.791639 
L 513.401703 161.458042 
L 515.412674 165.053973 
L 517.42411 159.210767 
L 519.435321 163.316846 
L 521.446588 165.263273 
L 523.457822 159.210031 
L 525.469091 164.82898 
L 525.469091 164.82898 
" clip-path="url(#pbe043a861b)" style="fill: none; stroke: #ff7f0e; stroke-width: 1.5; stroke-linecap: square"/>
   </g>
   <g id="patch_3">
    <path d="M 69.12 230.4 
L 69.12 28.8 
" style="fill: none; stroke: #000000; stroke-width: 0.8; stroke-linejoin: miter; stroke-linecap: square"/>
   </g>
   <g id="patch_4">
    <path d="M 547.2 230.4 
L 547.2 28.8 
" style="fill: none; stroke: #000000; stroke-width: 0.8; stroke-linejoin: miter; stroke-linecap: square"/>
   </g>
   <g id="patch_5">
    <path d="M 69.12 230.4 
L 547.2 230.4 
" style="fill: none; stroke: #000000; stroke-width: 0.8; stroke-linejoin: miter; stroke-linecap: square"/>
   </g>
   <g id="patch_6">
    <path d="M 69.12 28.8 
L 547.2 28.8 
" style="fill: none; stroke: #000000; stroke-width: 0.8; stroke-linejoin: miter; stroke-linecap: square"/>
   </g>
   <g id="text_22">
    <!-- Czas potwierdzeń dla sieci 'Ethereum Rinkeby' -->
    <g transform="translate(168.415312 22.8)scale(0.12 -0.12)">
     <defs>
      <path id="DejaVuSans-70" d="M 1159 525 
L 1159 -1331 
L 581 -1331 
L 581 3500 
L 1159 3500 
L 1159 2969 
Q 1341 3281 1617 3432 
Q 1894 3584 2278 3584 
Q 2916 3584 3314 3078 
Q 3713 2572 3713 1747 
Q 3713 922 3314 415 
Q 2916 -91 2278 -91 
Q 1894 -91 1617 61 
Q 1341 213 1159 525 
z
M 3116 1747 
Q 3116 2381 2855 2742 
Q 2594 3103 2138 3103 
Q 1681 3103 1420 2742 
Q 1159 2381 1159 1747 
Q 1159 1113 1420 752 
Q 1681 391 2138 391 
Q 2594 391 2855 752 
Q 3116 1113 3116 1747 
z
" transform="scale(0.015625)"/>
      <path id="DejaVuSans-6f" d="M 1959 3097 
Q 1497 3097 1228 2736 
Q 959 2375 959 1747 
Q 959 1119 1226 758 
Q 1494 397 1959 397 
Q 2419 397 2687 759 
Q 2956 1122 2956 1747 
Q 2956 2369 2687 2733 
Q 2419 3097 1959 3097 
z
M 1959 3584 
Q 2709 3584 3137 3096 
Q 3566 2609 3566 1747 
Q 3566 888 3137 398 
Q 2709 -91 1959 -91 
Q 1206 -91 779 398 
Q 353 888 353 1747 
Q 353 2609 779 3096 
Q 1206 3584 1959 3584 
z
" transform="scale(0.015625)"/>
      <path id="DejaVuSans-77" d="M 269 3500 
L 844 3500 
L 1563 769 
L 2278 3500 
L 2956 3500 
L 3675 769 
L 4391 3500 
L 4966 3500 
L 4050 0 
L 3372 0 
L 2619 2869 
L 1863 0 
L 1184 0 
L 269 3500 
z
" transform="scale(0.015625)"/>
      <path id="DejaVuSans-69" d="M 603 3500 
L 1178 3500 
L 1178 0 
L 603 0 
L 603 3500 
z
M 603 4863 
L 1178 4863 
L 1178 4134 
L 603 4134 
L 603 4863 
z
" transform="scale(0.015625)"/>
      <path id="DejaVuSans-65" d="M 3597 1894 
L 3597 1613 
L 953 1613 
Q 991 1019 1311 708 
Q 1631 397 2203 397 
Q 2534 397 2845 478 
Q 3156 559 3463 722 
L 3463 178 
Q 3153 47 2828 -22 
Q 2503 -91 2169 -91 
Q 1331 -91 842 396 
Q 353 884 353 1716 
Q 353 2575 817 3079 
Q 1281 3584 2069 3584 
Q 2775 3584 3186 3129 
Q 3597 2675 3597 1894 
z
M 3022 2063 
Q 3016 2534 2758 2815 
Q 2500 3097 2075 3097 
Q 1594 3097 1305 2825 
Q 1016 2553 972 2059 
L 3022 2063 
z
" transform="scale(0.015625)"/>
      <path id="DejaVuSans-72" d="M 2631 2963 
Q 2534 3019 2420 3045 
Q 2306 3072 2169 3072 
Q 1681 3072 1420 2755 
Q 1159 2438 1159 1844 
L 1159 0 
L 581 0 
L 581 3500 
L 1159 3500 
L 1159 2956 
Q 1341 3275 1631 3429 
Q 1922 3584 2338 3584 
Q 2397 3584 2469 3576 
Q 2541 3569 2628 3553 
L 2631 2963 
z
" transform="scale(0.015625)"/>
      <path id="DejaVuSans-64" d="M 2906 2969 
L 2906 4863 
L 3481 4863 
L 3481 0 
L 2906 0 
L 2906 525 
Q 2725 213 2448 61 
Q 2172 -91 1784 -91 
Q 1150 -91 751 415 
Q 353 922 353 1747 
Q 353 2572 751 3078 
Q 1150 3584 1784 3584 
Q 2172 3584 2448 3432 
Q 2725 3281 2906 2969 
z
M 947 1747 
Q 947 1113 1208 752 
Q 1469 391 1925 391 
Q 2381 391 2643 752 
Q 2906 1113 2906 1747 
Q 2906 2381 2643 2742 
Q 2381 3103 1925 3103 
Q 1469 3103 1208 2742 
Q 947 2381 947 1747 
z
" transform="scale(0.015625)"/>
      <path id="DejaVuSans-144" d="M 2242 5119 
L 2864 5119 
L 1846 3944 
L 1367 3944 
L 2242 5119 
z
M 3513 2113 
L 3513 0 
L 2938 0 
L 2938 2094 
Q 2938 2591 2744 2837 
Q 2550 3084 2163 3084 
Q 1697 3084 1428 2787 
Q 1159 2491 1159 1978 
L 1159 0 
L 581 0 
L 581 3500 
L 1159 3500 
L 1159 2956 
Q 1366 3272 1645 3428 
Q 1925 3584 2291 3584 
Q 2894 3584 3203 3211 
Q 3513 2838 3513 2113 
z
" transform="scale(0.015625)"/>
      <path id="DejaVuSans-6c" d="M 603 4863 
L 1178 4863 
L 1178 0 
L 603 0 
L 603 4863 
z
" transform="scale(0.015625)"/>
      <path id="DejaVuSans-63" d="M 3122 3366 
L 3122 2828 
Q 2878 2963 2633 3030 
Q 2388 3097 2138 3097 
Q 1578 3097 1268 2742 
Q 959 2388 959 1747 
Q 959 1106 1268 751 
Q 1578 397 2138 397 
Q 2388 397 2633 464 
Q 2878 531 3122 666 
L 3122 134 
Q 2881 22 2623 -34 
Q 2366 -91 2075 -91 
Q 1284 -91 818 406 
Q 353 903 353 1747 
Q 353 2603 823 3093 
Q 1294 3584 2113 3584 
Q 2378 3584 2631 3529 
Q 2884 3475 3122 3366 
z
" transform="scale(0.015625)"/>
      <path id="DejaVuSans-27" d="M 1147 4666 
L 1147 2931 
L 616 2931 
L 616 4666 
L 1147 4666 
z
" transform="scale(0.015625)"/>
      <path id="DejaVuSans-45" d="M 628 4666 
L 3578 4666 
L 3578 4134 
L 1259 4134 
L 1259 2753 
L 3481 2753 
L 3481 2222 
L 1259 2222 
L 1259 531 
L 3634 531 
L 3634 0 
L 628 0 
L 628 4666 
z
" transform="scale(0.015625)"/>
      <path id="DejaVuSans-68" d="M 3513 2113 
L 3513 0 
L 2938 0 
L 2938 2094 
Q 2938 2591 2744 2837 
Q 2550 3084 2163 3084 
Q 1697 3084 1428 2787 
Q 1159 2491 1159 1978 
L 1159 0 
L 581 0 
L 581 4863 
L 1159 4863 
L 1159 2956 
Q 1366 3272 1645 3428 
Q 1925 3584 2291 3584 
Q 2894 3584 3203 3211 
Q 3513 2838 3513 2113 
z
" transform="scale(0.015625)"/>
      <path id="DejaVuSans-75" d="M 544 1381 
L 544 3500 
L 1119 3500 
L 1119 1403 
Q 1119 906 1312 657 
Q 1506 409 1894 409 
Q 2359 409 2629 706 
Q 2900 1003 2900 1516 
L 2900 3500 
L 3475 3500 
L 3475 0 
L 2900 0 
L 2900 538 
Q 2691 219 2414 64 
Q 2138 -91 1772 -91 
Q 1169 -91 856 284 
Q 544 659 544 1381 
z
M 1991 3584 
L 1991 3584 
z
" transform="scale(0.015625)"/>
      <path id="DejaVuSans-6d" d="M 3328 2828 
Q 3544 3216 3844 3400 
Q 4144 3584 4550 3584 
Q 5097 3584 5394 3201 
Q 5691 2819 5691 2113 
L 5691 0 
L 5113 0 
L 5113 2094 
Q 5113 2597 4934 2840 
Q 4756 3084 4391 3084 
Q 3944 3084 3684 2787 
Q 3425 2491 3425 1978 
L 3425 0 
L 2847 0 
L 2847 2094 
Q 2847 2600 2669 2842 
Q 2491 3084 2119 3084 
Q 1678 3084 1418 2786 
Q 1159 2488 1159 1978 
L 1159 0 
L 581 0 
L 581 3500 
L 1159 3500 
L 1159 2956 
Q 1356 3278 1631 3431 
Q 1906 3584 2284 3584 
Q 2666 3584 2933 3390 
Q 3200 3197 3328 2828 
z
" transform="scale(0.015625)"/>
      <path id="DejaVuSans-52" d="M 2841 2188 
Q 3044 2119 3236 1894 
Q 3428 1669 3622 1275 
L 4263 0 
L 3584 0 
L 2988 1197 
Q 2756 1666 2539 1819 
Q 2322 1972 1947 1972 
L 1259 1972 
L 1259 0 
L 628 0 
L 628 4666 
L 2053 4666 
Q 2853 4666 3247 4331 
Q 3641 3997 3641 3322 
Q 3641 2881 3436 2590 
Q 3231 2300 2841 2188 
z
M 1259 4147 
L 1259 2491 
L 2053 2491 
Q 2509 2491 2742 2702 
Q 2975 2913 2975 3322 
Q 2975 3731 2742 3939 
Q 2509 4147 2053 4147 
L 1259 4147 
z
" transform="scale(0.015625)"/>
      <path id="DejaVuSans-6e" d="M 3513 2113 
L 3513 0 
L 2938 0 
L 2938 2094 
Q 2938 2591 2744 2837 
Q 2550 3084 2163 3084 
Q 1697 3084 1428 2787 
Q 1159 2491 1159 1978 
L 1159 0 
L 581 0 
L 581 3500 
L 1159 3500 
L 1159 2956 
Q 1366 3272 1645 3428 
Q 1925 3584 2291 3584 
Q 2894 3584 3203 3211 
Q 3513 2838 3513 2113 
z
" transform="scale(0.015625)"/>
      <path id="DejaVuSans-6b" d="M 581 4863 
L 1159 4863 
L 1159 1991 
L 2875 3500 
L 3609 3500 
L 1753 1863 
L 3688 0 
L 2938 0 
L 1159 1709 
L 1159 0 
L 581 0 
L 581 4863 
z
" transform="scale(0.015625)"/>
      <path id="DejaVuSans-62" d="M 3116 1747 
Q 3116 2381 2855 2742 
Q 2594 3103 2138 3103 
Q 1681 3103 1420 2742 
Q 1159 2381 1159 1747 
Q 1159 1113 1420 752 
Q 1681 391 2138 391 
Q 2594 391 2855 752 
Q 3116 1113 3116 1747 
z
M 1159 2969 
Q 1341 3281 1617 3432 
Q 1894 3584 2278 3584 
Q 2916 3584 3314 3078 
Q 3713 2572 3713 1747 
Q 3713 922 3314 415 
Q 2916 -91 2278 -91 
Q 1894 -91 1617 61 
Q 1341 213 1159 525 
L 1159 0 
L 581 0 
L 581 4863 
L 1159 4863 
L 1159 2969 
z
" transform="scale(0.015625)"/>
      <path id="DejaVuSans-79" d="M 2059 -325 
Q 1816 -950 1584 -1140 
Q 1353 -1331 966 -1331 
L 506 -1331 
L 506 -850 
L 844 -850 
Q 1081 -850 1212 -737 
Q 1344 -625 1503 -206 
L 1606 56 
L 191 3500 
L 800 3500 
L 1894 763 
L 2988 3500 
L 3597 3500 
L 2059 -325 
z
" transform="scale(0.015625)"/>
     </defs>
     <use xlink:href="#DejaVuSans-43"/>
     <use xlink:href="#DejaVuSans-7a" x="69.824219"/>
     <use xlink:href="#DejaVuSans-61" x="122.314453"/>
     <use xlink:href="#DejaVuSans-73" x="183.59375"/>
     <use xlink:href="#DejaVuSans-20" x="235.693359"/>
     <use xlink:href="#DejaVuSans-70" x="267.480469"/>
     <use xlink:href="#DejaVuSans-6f" x="330.957031"/>
     <use xlink:href="#DejaVuSans-74" x="392.138672"/>
     <use xlink:href="#DejaVuSans-77" x="431.347656"/>
     <use xlink:href="#DejaVuSans-69" x="513.134766"/>
     <use xlink:href="#DejaVuSans-65" x="540.917969"/>
     <use xlink:href="#DejaVuSans-72" x="602.441406"/>
     <use xlink:href="#DejaVuSans-64" x="641.804688"/>
     <use xlink:href="#DejaVuSans-7a" x="705.28125"/>
     <use xlink:href="#DejaVuSans-65" x="757.771484"/>
     <use xlink:href="#DejaVuSans-144" x="819.294922"/>
     <use xlink:href="#DejaVuSans-20" x="882.673828"/>
     <use xlink:href="#DejaVuSans-64" x="914.460938"/>
     <use xlink:href="#DejaVuSans-6c" x="977.9375"/>
     <use xlink:href="#DejaVuSans-61" x="1005.720703"/>
     <use xlink:href="#DejaVuSans-20" x="1067"/>
     <use xlink:href="#DejaVuSans-73" x="1098.787109"/>
     <use xlink:href="#DejaVuSans-69" x="1150.886719"/>
     <use xlink:href="#DejaVuSans-65" x="1178.669922"/>
     <use xlink:href="#DejaVuSans-63" x="1240.193359"/>
     <use xlink:href="#DejaVuSans-69" x="1295.173828"/>
     <use xlink:href="#DejaVuSans-20" x="1322.957031"/>
     <use xlink:href="#DejaVuSans-27" x="1354.744141"/>
     <use xlink:href="#DejaVuSans-45" x="1382.234375"/>
     <use xlink:href="#DejaVuSans-74" x="1445.417969"/>
     <use xlink:href="#DejaVuSans-68" x="1484.626953"/>
     <use xlink:href="#DejaVuSans-65" x="1548.005859"/>
     <use xlink:href="#DejaVuSans-72" x="1609.529297"/>
     <use xlink:href="#DejaVuSans-65" x="1648.392578"/>
     <use xlink:href="#DejaVuSans-75" x="1709.916016"/>
     <use xlink:href="#DejaVuSans-6d" x="1773.294922"/>
     <use xlink:href="#DejaVuSans-20" x="1870.707031"/>
     <use xlink:href="#DejaVuSans-52" x="1902.494141"/>
     <use xlink:href="#DejaVuSans-69" x="1971.976562"/>
     <use xlink:href="#DejaVuSans-6e" x="1999.759766"/>
     <use xlink:href="#DejaVuSans-6b" x="2063.138672"/>
     <use xlink:href="#DejaVuSans-65" x="2117.423828"/>
     <use xlink:href="#DejaVuSans-62" x="2178.947266"/>
     <use xlink:href="#DejaVuSans-79" x="2242.423828"/>
     <use xlink:href="#DejaVuSans-27" x="2301.603516"/>
    </g>
   </g>
   <g id="legend_1">
    <g id="patch_7">
     <path d="M 410.392187 66.15625 
L 540.2 66.15625 
Q 542.2 66.15625 542.2 64.15625 
L 542.2 35.8 
Q 542.2 33.8 540.2 33.8 
L 410.392187 33.8 
Q 408.392187 33.8 408.392187 35.8 
L 408.392187 64.15625 
Q 408.392187 66.15625 410.392187 66.15625 
z
" style="fill: #ffffff; opacity: 0.8; stroke: #cccccc; stroke-linejoin: miter"/>
    </g>
    <g id="line2d_41">
     <path d="M 412.392187 41.898438 
L 422.392187 41.898438 
L 432.392187 41.898438 
" style="fill: none; stroke: #1f77b4; stroke-width: 1.5; stroke-linecap: square"/>
    </g>
    <g id="text_23">
     <!-- Czas 2 potwierdzen -->
     <g transform="translate(440.392187 45.398438)scale(0.1 -0.1)">
      <use xlink:href="#DejaVuSans-43"/>
      <use xlink:href="#DejaVuSans-7a" x="69.824219"/>
      <use xlink:href="#DejaVuSans-61" x="122.314453"/>
      <use xlink:href="#DejaVuSans-73" x="183.59375"/>
      <use xlink:href="#DejaVuSans-20" x="235.693359"/>
      <use xlink:href="#DejaVuSans-32" x="267.480469"/>
      <use xlink:href="#DejaVuSans-20" x="331.103516"/>
      <use xlink:href="#DejaVuSans-70" x="362.890625"/>
      <use xlink:href="#DejaVuSans-6f" x="426.367188"/>
      <use xlink:href="#DejaVuSans-74" x="487.548828"/>
      <use xlink:href="#DejaVuSans-77" x="526.757812"/>
      <use xlink:href="#DejaVuSans-69" x="608.544922"/>
      <use xlink:href="#DejaVuSans-65" x="636.328125"/>
      <use xlink:href="#DejaVuSans-72" x="697.851562"/>
      <use xlink:href="#DejaVuSans-64" x="737.214844"/>
      <use xlink:href="#DejaVuSans-7a" x="800.691406"/>
      <use xlink:href="#DejaVuSans-65" x="853.181641"/>
      <use xlink:href="#DejaVuSans-6e" x="914.705078"/>
     </g>
    </g>
    <g id="line2d_42">
     <path d="M 412.392187 56.576562 
L 422.392187 56.576562 
L 432.392187 56.576562 
" style="fill: none; stroke: #ff7f0e; stroke-width: 1.5; stroke-linecap: square"/>
    </g>
    <g id="text_24">
     <!-- Czas 5 potwierdzen -->
     <g transform="translate(440.392187 60.076562)scale(0.1 -0.1)">
      <use xlink:href="#DejaVuSans-43"/>
      <use xlink:href="#DejaVuSans-7a" x="69.824219"/>
      <use xlink:href="#DejaVuSans-61" x="122.314453"/>
      <use xlink:href="#DejaVuSans-73" x="183.59375"/>
      <use xlink:href="#DejaVuSans-20" x="235.693359"/>
      <use xlink:href="#DejaVuSans-35" x="267.480469"/>
      <use xlink:href="#DejaVuSans-20" x="331.103516"/>
      <use xlink:href="#DejaVuSans-70" x="362.890625"/>
      <use xlink:href="#DejaVuSans-6f" x="426.367188"/>
      <use xlink:href="#DejaVuSans-74" x="487.548828"/>
      <use xlink:href="#DejaVuSans-77" x="526.757812"/>
      <use xlink:href="#DejaVuSans-69" x="608.544922"/>
      <use xlink:href="#DejaVuSans-65" x="636.328125"/>
      <use xlink:href="#DejaVuSans-72" x="697.851562"/>
      <use xlink:href="#DejaVuSans-64" x="737.214844"/>
      <use xlink:href="#DejaVuSans-7a" x="800.691406"/>
      <use xlink:href="#DejaVuSans-65" x="853.181641"/>
      <use xlink:href="#DejaVuSans-6e" x="914.705078"/>
     </g>
    </g>
   </g>
  </g>
 </g>
 <defs>
  <clipPath id="pbe043a861b">
   <rect x="69.12" y="28.8" width="478.08" height="201.6"/>
  </clipPath>
 </defs>
</svg>
