<?xml version="1.0" encoding="utf-8" standalone="no"?>
<!DOCTYPE svg PUBLIC "-//W3C//DTD SVG 1.1//EN"
  "http://www.w3.org/Graphics/SVG/1.1/DTD/svg11.dtd">
<svg xmlns:xlink="http://www.w3.org/1999/xlink" width="576pt" height="288pt" viewBox="0 0 576 288" xmlns="http://www.w3.org/2000/svg" version="1.1">
 <metadata>
  <rdf:RDF xmlns:dc="http://purl.org/dc/elements/1.1/" xmlns:cc="http://creativecommons.org/ns#" xmlns:rdf="http://www.w3.org/1999/02/22-rdf-syntax-ns#">
   <cc:Work>
    <dc:type rdf:resource="http://purl.org/dc/dcmitype/StillImage"/>
    <dc:date>2022-10-22T18:25:38.440885</dc:date>
    <dc:format>image/svg+xml</dc:format>
    <dc:creator>
     <cc:Agent>
      <dc:title>Matplotlib v3.5.3, https://matplotlib.org/</dc:title>
     </cc:Agent>
    </dc:creator>
   </cc:Work>
  </rdf:RDF>
 </metadata>
 <defs>
  <style type="text/css">*{stroke-linejoin: round; stroke-linecap: butt}</style>
 </defs>
 <g id="figure_1">
  <g id="patch_1">
   <path d="M 0 288 
L 576 288 
L 576 0 
L 0 0 
z
" style="fill: #ffffff"/>
  </g>
  <g id="axes_1">
   <g id="patch_2">
    <path d="M 69.12 230.4 
L 547.2 230.4 
L 547.2 28.8 
L 69.12 28.8 
z
" style="fill: #ffffff"/>
   </g>
   <g id="matplotlib.axis_1">
    <g id="xtick_1">
     <g id="line2d_1">
      <path d="M 98.26951 230.4 
L 98.26951 28.8 
" clip-path="url(#pee5277cfc1)" style="fill: none; stroke: #b0b0b0; stroke-opacity: 0.7; stroke-width: 0.8; stroke-linecap: square"/>
     </g>
     <g id="line2d_2">
      <defs>
       <path id="m9d7246a4b7" d="M 0 0 
L 0 3.5 
" style="stroke: #000000; stroke-width: 0.8"/>
      </defs>
      <g>
       <use xlink:href="#m9d7246a4b7" x="98.26951" y="230.4" style="stroke: #000000; stroke-width: 0.8"/>
      </g>
     </g>
     <g id="text_1">
      <!-- 01.08.2022 -->
      <g transform="translate(56.312666 283.259189)rotate(-45)scale(0.1 -0.1)">
       <defs>
        <path id="DejaVuSans-30" d="M 2034 4250 
Q 1547 4250 1301 3770 
Q 1056 3291 1056 2328 
Q 1056 1369 1301 889 
Q 1547 409 2034 409 
Q 2525 409 2770 889 
Q 3016 1369 3016 2328 
Q 3016 3291 2770 3770 
Q 2525 4250 2034 4250 
z
M 2034 4750 
Q 2819 4750 3233 4129 
Q 3647 3509 3647 2328 
Q 3647 1150 3233 529 
Q 2819 -91 2034 -91 
Q 1250 -91 836 529 
Q 422 1150 422 2328 
Q 422 3509 836 4129 
Q 1250 4750 2034 4750 
z
" transform="scale(0.015625)"/>
        <path id="DejaVuSans-31" d="M 794 531 
L 1825 531 
L 1825 4091 
L 703 3866 
L 703 4441 
L 1819 4666 
L 2450 4666 
L 2450 531 
L 3481 531 
L 3481 0 
L 794 0 
L 794 531 
z
" transform="scale(0.015625)"/>
        <path id="DejaVuSans-2e" d="M 684 794 
L 1344 794 
L 1344 0 
L 684 0 
L 684 794 
z
" transform="scale(0.015625)"/>
        <path id="DejaVuSans-38" d="M 2034 2216 
Q 1584 2216 1326 1975 
Q 1069 1734 1069 1313 
Q 1069 891 1326 650 
Q 1584 409 2034 409 
Q 2484 409 2743 651 
Q 3003 894 3003 1313 
Q 3003 1734 2745 1975 
Q 2488 2216 2034 2216 
z
M 1403 2484 
Q 997 2584 770 2862 
Q 544 3141 544 3541 
Q 544 4100 942 4425 
Q 1341 4750 2034 4750 
Q 2731 4750 3128 4425 
Q 3525 4100 3525 3541 
Q 3525 3141 3298 2862 
Q 3072 2584 2669 2484 
Q 3125 2378 3379 2068 
Q 3634 1759 3634 1313 
Q 3634 634 3220 271 
Q 2806 -91 2034 -91 
Q 1263 -91 848 271 
Q 434 634 434 1313 
Q 434 1759 690 2068 
Q 947 2378 1403 2484 
z
M 1172 3481 
Q 1172 3119 1398 2916 
Q 1625 2713 2034 2713 
Q 2441 2713 2670 2916 
Q 2900 3119 2900 3481 
Q 2900 3844 2670 4047 
Q 2441 4250 2034 4250 
Q 1625 4250 1398 4047 
Q 1172 3844 1172 3481 
z
" transform="scale(0.015625)"/>
        <path id="DejaVuSans-32" d="M 1228 531 
L 3431 531 
L 3431 0 
L 469 0 
L 469 531 
Q 828 903 1448 1529 
Q 2069 2156 2228 2338 
Q 2531 2678 2651 2914 
Q 2772 3150 2772 3378 
Q 2772 3750 2511 3984 
Q 2250 4219 1831 4219 
Q 1534 4219 1204 4116 
Q 875 4013 500 3803 
L 500 4441 
Q 881 4594 1212 4672 
Q 1544 4750 1819 4750 
Q 2544 4750 2975 4387 
Q 3406 4025 3406 3419 
Q 3406 3131 3298 2873 
Q 3191 2616 2906 2266 
Q 2828 2175 2409 1742 
Q 1991 1309 1228 531 
z
" transform="scale(0.015625)"/>
       </defs>
       <use xlink:href="#DejaVuSans-30"/>
       <use xlink:href="#DejaVuSans-31" x="63.623047"/>
       <use xlink:href="#DejaVuSans-2e" x="127.246094"/>
       <use xlink:href="#DejaVuSans-30" x="159.033203"/>
       <use xlink:href="#DejaVuSans-38" x="222.65625"/>
       <use xlink:href="#DejaVuSans-2e" x="286.279297"/>
       <use xlink:href="#DejaVuSans-32" x="318.066406"/>
       <use xlink:href="#DejaVuSans-30" x="381.689453"/>
       <use xlink:href="#DejaVuSans-32" x="445.3125"/>
       <use xlink:href="#DejaVuSans-32" x="508.935547"/>
      </g>
     </g>
    </g>
    <g id="xtick_2">
     <g id="line2d_3">
      <path d="M 146.538702 230.4 
L 146.538702 28.8 
" clip-path="url(#pee5277cfc1)" style="fill: none; stroke: #b0b0b0; stroke-opacity: 0.7; stroke-width: 0.8; stroke-linecap: square"/>
     </g>
     <g id="line2d_4">
      <g>
       <use xlink:href="#m9d7246a4b7" x="146.538702" y="230.4" style="stroke: #000000; stroke-width: 0.8"/>
      </g>
     </g>
     <g id="text_2">
      <!-- 02.08.2022 -->
      <g transform="translate(104.581859 283.259189)rotate(-45)scale(0.1 -0.1)">
       <use xlink:href="#DejaVuSans-30"/>
       <use xlink:href="#DejaVuSans-32" x="63.623047"/>
       <use xlink:href="#DejaVuSans-2e" x="127.246094"/>
       <use xlink:href="#DejaVuSans-30" x="159.033203"/>
       <use xlink:href="#DejaVuSans-38" x="222.65625"/>
       <use xlink:href="#DejaVuSans-2e" x="286.279297"/>
       <use xlink:href="#DejaVuSans-32" x="318.066406"/>
       <use xlink:href="#DejaVuSans-30" x="381.689453"/>
       <use xlink:href="#DejaVuSans-32" x="445.3125"/>
       <use xlink:href="#DejaVuSans-32" x="508.935547"/>
      </g>
     </g>
    </g>
    <g id="xtick_3">
     <g id="line2d_5">
      <path d="M 194.807895 230.4 
L 194.807895 28.8 
" clip-path="url(#pee5277cfc1)" style="fill: none; stroke: #b0b0b0; stroke-opacity: 0.7; stroke-width: 0.8; stroke-linecap: square"/>
     </g>
     <g id="line2d_6">
      <g>
       <use xlink:href="#m9d7246a4b7" x="194.807895" y="230.4" style="stroke: #000000; stroke-width: 0.8"/>
      </g>
     </g>
     <g id="text_3">
      <!-- 03.08.2022 -->
      <g transform="translate(152.851051 283.259189)rotate(-45)scale(0.1 -0.1)">
       <defs>
        <path id="DejaVuSans-33" d="M 2597 2516 
Q 3050 2419 3304 2112 
Q 3559 1806 3559 1356 
Q 3559 666 3084 287 
Q 2609 -91 1734 -91 
Q 1441 -91 1130 -33 
Q 819 25 488 141 
L 488 750 
Q 750 597 1062 519 
Q 1375 441 1716 441 
Q 2309 441 2620 675 
Q 2931 909 2931 1356 
Q 2931 1769 2642 2001 
Q 2353 2234 1838 2234 
L 1294 2234 
L 1294 2753 
L 1863 2753 
Q 2328 2753 2575 2939 
Q 2822 3125 2822 3475 
Q 2822 3834 2567 4026 
Q 2313 4219 1838 4219 
Q 1578 4219 1281 4162 
Q 984 4106 628 3988 
L 628 4550 
Q 988 4650 1302 4700 
Q 1616 4750 1894 4750 
Q 2613 4750 3031 4423 
Q 3450 4097 3450 3541 
Q 3450 3153 3228 2886 
Q 3006 2619 2597 2516 
z
" transform="scale(0.015625)"/>
       </defs>
       <use xlink:href="#DejaVuSans-30"/>
       <use xlink:href="#DejaVuSans-33" x="63.623047"/>
       <use xlink:href="#DejaVuSans-2e" x="127.246094"/>
       <use xlink:href="#DejaVuSans-30" x="159.033203"/>
       <use xlink:href="#DejaVuSans-38" x="222.65625"/>
       <use xlink:href="#DejaVuSans-2e" x="286.279297"/>
       <use xlink:href="#DejaVuSans-32" x="318.066406"/>
       <use xlink:href="#DejaVuSans-30" x="381.689453"/>
       <use xlink:href="#DejaVuSans-32" x="445.3125"/>
       <use xlink:href="#DejaVuSans-32" x="508.935547"/>
      </g>
     </g>
    </g>
    <g id="xtick_4">
     <g id="line2d_7">
      <path d="M 243.077087 230.4 
L 243.077087 28.8 
" clip-path="url(#pee5277cfc1)" style="fill: none; stroke: #b0b0b0; stroke-opacity: 0.7; stroke-width: 0.8; stroke-linecap: square"/>
     </g>
     <g id="line2d_8">
      <g>
       <use xlink:href="#m9d7246a4b7" x="243.077087" y="230.4" style="stroke: #000000; stroke-width: 0.8"/>
      </g>
     </g>
     <g id="text_4">
      <!-- 04.08.2022 -->
      <g transform="translate(201.120243 283.259189)rotate(-45)scale(0.1 -0.1)">
       <defs>
        <path id="DejaVuSans-34" d="M 2419 4116 
L 825 1625 
L 2419 1625 
L 2419 4116 
z
M 2253 4666 
L 3047 4666 
L 3047 1625 
L 3713 1625 
L 3713 1100 
L 3047 1100 
L 3047 0 
L 2419 0 
L 2419 1100 
L 313 1100 
L 313 1709 
L 2253 4666 
z
" transform="scale(0.015625)"/>
       </defs>
       <use xlink:href="#DejaVuSans-30"/>
       <use xlink:href="#DejaVuSans-34" x="63.623047"/>
       <use xlink:href="#DejaVuSans-2e" x="127.246094"/>
       <use xlink:href="#DejaVuSans-30" x="159.033203"/>
       <use xlink:href="#DejaVuSans-38" x="222.65625"/>
       <use xlink:href="#DejaVuSans-2e" x="286.279297"/>
       <use xlink:href="#DejaVuSans-32" x="318.066406"/>
       <use xlink:href="#DejaVuSans-30" x="381.689453"/>
       <use xlink:href="#DejaVuSans-32" x="445.3125"/>
       <use xlink:href="#DejaVuSans-32" x="508.935547"/>
      </g>
     </g>
    </g>
    <g id="xtick_5">
     <g id="line2d_9">
      <path d="M 291.34628 230.4 
L 291.34628 28.8 
" clip-path="url(#pee5277cfc1)" style="fill: none; stroke: #b0b0b0; stroke-opacity: 0.7; stroke-width: 0.8; stroke-linecap: square"/>
     </g>
     <g id="line2d_10">
      <g>
       <use xlink:href="#m9d7246a4b7" x="291.34628" y="230.4" style="stroke: #000000; stroke-width: 0.8"/>
      </g>
     </g>
     <g id="text_5">
      <!-- 05.08.2022 -->
      <g transform="translate(249.389436 283.259189)rotate(-45)scale(0.1 -0.1)">
       <defs>
        <path id="DejaVuSans-35" d="M 691 4666 
L 3169 4666 
L 3169 4134 
L 1269 4134 
L 1269 2991 
Q 1406 3038 1543 3061 
Q 1681 3084 1819 3084 
Q 2600 3084 3056 2656 
Q 3513 2228 3513 1497 
Q 3513 744 3044 326 
Q 2575 -91 1722 -91 
Q 1428 -91 1123 -41 
Q 819 9 494 109 
L 494 744 
Q 775 591 1075 516 
Q 1375 441 1709 441 
Q 2250 441 2565 725 
Q 2881 1009 2881 1497 
Q 2881 1984 2565 2268 
Q 2250 2553 1709 2553 
Q 1456 2553 1204 2497 
Q 953 2441 691 2322 
L 691 4666 
z
" transform="scale(0.015625)"/>
       </defs>
       <use xlink:href="#DejaVuSans-30"/>
       <use xlink:href="#DejaVuSans-35" x="63.623047"/>
       <use xlink:href="#DejaVuSans-2e" x="127.246094"/>
       <use xlink:href="#DejaVuSans-30" x="159.033203"/>
       <use xlink:href="#DejaVuSans-38" x="222.65625"/>
       <use xlink:href="#DejaVuSans-2e" x="286.279297"/>
       <use xlink:href="#DejaVuSans-32" x="318.066406"/>
       <use xlink:href="#DejaVuSans-30" x="381.689453"/>
       <use xlink:href="#DejaVuSans-32" x="445.3125"/>
       <use xlink:href="#DejaVuSans-32" x="508.935547"/>
      </g>
     </g>
    </g>
    <g id="xtick_6">
     <g id="line2d_11">
      <path d="M 339.615472 230.4 
L 339.615472 28.8 
" clip-path="url(#pee5277cfc1)" style="fill: none; stroke: #b0b0b0; stroke-opacity: 0.7; stroke-width: 0.8; stroke-linecap: square"/>
     </g>
     <g id="line2d_12">
      <g>
       <use xlink:href="#m9d7246a4b7" x="339.615472" y="230.4" style="stroke: #000000; stroke-width: 0.8"/>
      </g>
     </g>
     <g id="text_6">
      <!-- 06.08.2022 -->
      <g transform="translate(297.658628 283.259189)rotate(-45)scale(0.1 -0.1)">
       <defs>
        <path id="DejaVuSans-36" d="M 2113 2584 
Q 1688 2584 1439 2293 
Q 1191 2003 1191 1497 
Q 1191 994 1439 701 
Q 1688 409 2113 409 
Q 2538 409 2786 701 
Q 3034 994 3034 1497 
Q 3034 2003 2786 2293 
Q 2538 2584 2113 2584 
z
M 3366 4563 
L 3366 3988 
Q 3128 4100 2886 4159 
Q 2644 4219 2406 4219 
Q 1781 4219 1451 3797 
Q 1122 3375 1075 2522 
Q 1259 2794 1537 2939 
Q 1816 3084 2150 3084 
Q 2853 3084 3261 2657 
Q 3669 2231 3669 1497 
Q 3669 778 3244 343 
Q 2819 -91 2113 -91 
Q 1303 -91 875 529 
Q 447 1150 447 2328 
Q 447 3434 972 4092 
Q 1497 4750 2381 4750 
Q 2619 4750 2861 4703 
Q 3103 4656 3366 4563 
z
" transform="scale(0.015625)"/>
       </defs>
       <use xlink:href="#DejaVuSans-30"/>
       <use xlink:href="#DejaVuSans-36" x="63.623047"/>
       <use xlink:href="#DejaVuSans-2e" x="127.246094"/>
       <use xlink:href="#DejaVuSans-30" x="159.033203"/>
       <use xlink:href="#DejaVuSans-38" x="222.65625"/>
       <use xlink:href="#DejaVuSans-2e" x="286.279297"/>
       <use xlink:href="#DejaVuSans-32" x="318.066406"/>
       <use xlink:href="#DejaVuSans-30" x="381.689453"/>
       <use xlink:href="#DejaVuSans-32" x="445.3125"/>
       <use xlink:href="#DejaVuSans-32" x="508.935547"/>
      </g>
     </g>
    </g>
    <g id="xtick_7">
     <g id="line2d_13">
      <path d="M 387.884665 230.4 
L 387.884665 28.8 
" clip-path="url(#pee5277cfc1)" style="fill: none; stroke: #b0b0b0; stroke-opacity: 0.7; stroke-width: 0.8; stroke-linecap: square"/>
     </g>
     <g id="line2d_14">
      <g>
       <use xlink:href="#m9d7246a4b7" x="387.884665" y="230.4" style="stroke: #000000; stroke-width: 0.8"/>
      </g>
     </g>
     <g id="text_7">
      <!-- 07.08.2022 -->
      <g transform="translate(345.927821 283.259189)rotate(-45)scale(0.1 -0.1)">
       <defs>
        <path id="DejaVuSans-37" d="M 525 4666 
L 3525 4666 
L 3525 4397 
L 1831 0 
L 1172 0 
L 2766 4134 
L 525 4134 
L 525 4666 
z
" transform="scale(0.015625)"/>
       </defs>
       <use xlink:href="#DejaVuSans-30"/>
       <use xlink:href="#DejaVuSans-37" x="63.623047"/>
       <use xlink:href="#DejaVuSans-2e" x="127.246094"/>
       <use xlink:href="#DejaVuSans-30" x="159.033203"/>
       <use xlink:href="#DejaVuSans-38" x="222.65625"/>
       <use xlink:href="#DejaVuSans-2e" x="286.279297"/>
       <use xlink:href="#DejaVuSans-32" x="318.066406"/>
       <use xlink:href="#DejaVuSans-30" x="381.689453"/>
       <use xlink:href="#DejaVuSans-32" x="445.3125"/>
       <use xlink:href="#DejaVuSans-32" x="508.935547"/>
      </g>
     </g>
    </g>
    <g id="xtick_8">
     <g id="line2d_15">
      <path d="M 436.153857 230.4 
L 436.153857 28.8 
" clip-path="url(#pee5277cfc1)" style="fill: none; stroke: #b0b0b0; stroke-opacity: 0.7; stroke-width: 0.8; stroke-linecap: square"/>
     </g>
     <g id="line2d_16">
      <g>
       <use xlink:href="#m9d7246a4b7" x="436.153857" y="230.4" style="stroke: #000000; stroke-width: 0.8"/>
      </g>
     </g>
     <g id="text_8">
      <!-- 08.08.2022 -->
      <g transform="translate(394.197013 283.259189)rotate(-45)scale(0.1 -0.1)">
       <use xlink:href="#DejaVuSans-30"/>
       <use xlink:href="#DejaVuSans-38" x="63.623047"/>
       <use xlink:href="#DejaVuSans-2e" x="127.246094"/>
       <use xlink:href="#DejaVuSans-30" x="159.033203"/>
       <use xlink:href="#DejaVuSans-38" x="222.65625"/>
       <use xlink:href="#DejaVuSans-2e" x="286.279297"/>
       <use xlink:href="#DejaVuSans-32" x="318.066406"/>
       <use xlink:href="#DejaVuSans-30" x="381.689453"/>
       <use xlink:href="#DejaVuSans-32" x="445.3125"/>
       <use xlink:href="#DejaVuSans-32" x="508.935547"/>
      </g>
     </g>
    </g>
    <g id="xtick_9">
     <g id="line2d_17">
      <path d="M 484.423049 230.4 
L 484.423049 28.8 
" clip-path="url(#pee5277cfc1)" style="fill: none; stroke: #b0b0b0; stroke-opacity: 0.7; stroke-width: 0.8; stroke-linecap: square"/>
     </g>
     <g id="line2d_18">
      <g>
       <use xlink:href="#m9d7246a4b7" x="484.423049" y="230.4" style="stroke: #000000; stroke-width: 0.8"/>
      </g>
     </g>
     <g id="text_9">
      <!-- 09.08.2022 -->
      <g transform="translate(442.466206 283.259189)rotate(-45)scale(0.1 -0.1)">
       <defs>
        <path id="DejaVuSans-39" d="M 703 97 
L 703 672 
Q 941 559 1184 500 
Q 1428 441 1663 441 
Q 2288 441 2617 861 
Q 2947 1281 2994 2138 
Q 2813 1869 2534 1725 
Q 2256 1581 1919 1581 
Q 1219 1581 811 2004 
Q 403 2428 403 3163 
Q 403 3881 828 4315 
Q 1253 4750 1959 4750 
Q 2769 4750 3195 4129 
Q 3622 3509 3622 2328 
Q 3622 1225 3098 567 
Q 2575 -91 1691 -91 
Q 1453 -91 1209 -44 
Q 966 3 703 97 
z
M 1959 2075 
Q 2384 2075 2632 2365 
Q 2881 2656 2881 3163 
Q 2881 3666 2632 3958 
Q 2384 4250 1959 4250 
Q 1534 4250 1286 3958 
Q 1038 3666 1038 3163 
Q 1038 2656 1286 2365 
Q 1534 2075 1959 2075 
z
" transform="scale(0.015625)"/>
       </defs>
       <use xlink:href="#DejaVuSans-30"/>
       <use xlink:href="#DejaVuSans-39" x="63.623047"/>
       <use xlink:href="#DejaVuSans-2e" x="127.246094"/>
       <use xlink:href="#DejaVuSans-30" x="159.033203"/>
       <use xlink:href="#DejaVuSans-38" x="222.65625"/>
       <use xlink:href="#DejaVuSans-2e" x="286.279297"/>
       <use xlink:href="#DejaVuSans-32" x="318.066406"/>
       <use xlink:href="#DejaVuSans-30" x="381.689453"/>
       <use xlink:href="#DejaVuSans-32" x="445.3125"/>
       <use xlink:href="#DejaVuSans-32" x="508.935547"/>
      </g>
     </g>
    </g>
    <g id="xtick_10">
     <g id="line2d_19">
      <path d="M 532.692242 230.4 
L 532.692242 28.8 
" clip-path="url(#pee5277cfc1)" style="fill: none; stroke: #b0b0b0; stroke-opacity: 0.7; stroke-width: 0.8; stroke-linecap: square"/>
     </g>
     <g id="line2d_20">
      <g>
       <use xlink:href="#m9d7246a4b7" x="532.692242" y="230.4" style="stroke: #000000; stroke-width: 0.8"/>
      </g>
     </g>
     <g id="text_10">
      <!-- 10.08.2022 -->
      <g transform="translate(490.735398 283.259189)rotate(-45)scale(0.1 -0.1)">
       <use xlink:href="#DejaVuSans-31"/>
       <use xlink:href="#DejaVuSans-30" x="63.623047"/>
       <use xlink:href="#DejaVuSans-2e" x="127.246094"/>
       <use xlink:href="#DejaVuSans-30" x="159.033203"/>
       <use xlink:href="#DejaVuSans-38" x="222.65625"/>
       <use xlink:href="#DejaVuSans-2e" x="286.279297"/>
       <use xlink:href="#DejaVuSans-32" x="318.066406"/>
       <use xlink:href="#DejaVuSans-30" x="381.689453"/>
       <use xlink:href="#DejaVuSans-32" x="445.3125"/>
       <use xlink:href="#DejaVuSans-32" x="508.935547"/>
      </g>
     </g>
    </g>
    <g id="text_11">
     <!-- Data -->
     <g transform="translate(296.221719 296.328188)scale(0.1 -0.1)">
      <defs>
       <path id="DejaVuSans-44" d="M 1259 4147 
L 1259 519 
L 2022 519 
Q 2988 519 3436 956 
Q 3884 1394 3884 2338 
Q 3884 3275 3436 3711 
Q 2988 4147 2022 4147 
L 1259 4147 
z
M 628 4666 
L 1925 4666 
Q 3281 4666 3915 4102 
Q 4550 3538 4550 2338 
Q 4550 1131 3912 565 
Q 3275 0 1925 0 
L 628 0 
L 628 4666 
z
" transform="scale(0.015625)"/>
       <path id="DejaVuSans-61" d="M 2194 1759 
Q 1497 1759 1228 1600 
Q 959 1441 959 1056 
Q 959 750 1161 570 
Q 1363 391 1709 391 
Q 2188 391 2477 730 
Q 2766 1069 2766 1631 
L 2766 1759 
L 2194 1759 
z
M 3341 1997 
L 3341 0 
L 2766 0 
L 2766 531 
Q 2569 213 2275 61 
Q 1981 -91 1556 -91 
Q 1019 -91 701 211 
Q 384 513 384 1019 
Q 384 1609 779 1909 
Q 1175 2209 1959 2209 
L 2766 2209 
L 2766 2266 
Q 2766 2663 2505 2880 
Q 2244 3097 1772 3097 
Q 1472 3097 1187 3025 
Q 903 2953 641 2809 
L 641 3341 
Q 956 3463 1253 3523 
Q 1550 3584 1831 3584 
Q 2591 3584 2966 3190 
Q 3341 2797 3341 1997 
z
" transform="scale(0.015625)"/>
       <path id="DejaVuSans-74" d="M 1172 4494 
L 1172 3500 
L 2356 3500 
L 2356 3053 
L 1172 3053 
L 1172 1153 
Q 1172 725 1289 603 
Q 1406 481 1766 481 
L 2356 481 
L 2356 0 
L 1766 0 
Q 1100 0 847 248 
Q 594 497 594 1153 
L 594 3053 
L 172 3053 
L 172 3500 
L 594 3500 
L 594 4494 
L 1172 4494 
z
" transform="scale(0.015625)"/>
      </defs>
      <use xlink:href="#DejaVuSans-44"/>
      <use xlink:href="#DejaVuSans-61" x="77.001953"/>
      <use xlink:href="#DejaVuSans-74" x="138.28125"/>
      <use xlink:href="#DejaVuSans-61" x="177.490234"/>
     </g>
    </g>
   </g>
   <g id="matplotlib.axis_2">
    <g id="ytick_1">
     <g id="line2d_21">
      <path d="M 69.12 201.84238 
L 547.2 201.84238 
" clip-path="url(#pee5277cfc1)" style="fill: none; stroke: #b0b0b0; stroke-opacity: 0.7; stroke-width: 0.8; stroke-linecap: square"/>
     </g>
     <g id="line2d_22">
      <defs>
       <path id="m1e65dc9115" d="M 0 0 
L -3.5 0 
" style="stroke: #000000; stroke-width: 0.8"/>
      </defs>
      <g>
       <use xlink:href="#m1e65dc9115" x="69.12" y="201.84238" style="stroke: #000000; stroke-width: 0.8"/>
      </g>
     </g>
     <g id="text_12">
      <!-- 10 -->
      <g transform="translate(49.395 205.641599)scale(0.1 -0.1)">
       <use xlink:href="#DejaVuSans-31"/>
       <use xlink:href="#DejaVuSans-30" x="63.623047"/>
      </g>
     </g>
    </g>
    <g id="ytick_2">
     <g id="line2d_23">
      <path d="M 69.12 172.16692 
L 547.2 172.16692 
" clip-path="url(#pee5277cfc1)" style="fill: none; stroke: #b0b0b0; stroke-opacity: 0.7; stroke-width: 0.8; stroke-linecap: square"/>
     </g>
     <g id="line2d_24">
      <g>
       <use xlink:href="#m1e65dc9115" x="69.12" y="172.16692" style="stroke: #000000; stroke-width: 0.8"/>
      </g>
     </g>
     <g id="text_13">
      <!-- 15 -->
      <g transform="translate(49.395 175.966138)scale(0.1 -0.1)">
       <use xlink:href="#DejaVuSans-31"/>
       <use xlink:href="#DejaVuSans-35" x="63.623047"/>
      </g>
     </g>
    </g>
    <g id="ytick_3">
     <g id="line2d_25">
      <path d="M 69.12 142.491459 
L 547.2 142.491459 
" clip-path="url(#pee5277cfc1)" style="fill: none; stroke: #b0b0b0; stroke-opacity: 0.7; stroke-width: 0.8; stroke-linecap: square"/>
     </g>
     <g id="line2d_26">
      <g>
       <use xlink:href="#m1e65dc9115" x="69.12" y="142.491459" style="stroke: #000000; stroke-width: 0.8"/>
      </g>
     </g>
     <g id="text_14">
      <!-- 20 -->
      <g transform="translate(49.395 146.290678)scale(0.1 -0.1)">
       <use xlink:href="#DejaVuSans-32"/>
       <use xlink:href="#DejaVuSans-30" x="63.623047"/>
      </g>
     </g>
    </g>
    <g id="ytick_4">
     <g id="line2d_27">
      <path d="M 69.12 112.815998 
L 547.2 112.815998 
" clip-path="url(#pee5277cfc1)" style="fill: none; stroke: #b0b0b0; stroke-opacity: 0.7; stroke-width: 0.8; stroke-linecap: square"/>
     </g>
     <g id="line2d_28">
      <g>
       <use xlink:href="#m1e65dc9115" x="69.12" y="112.815998" style="stroke: #000000; stroke-width: 0.8"/>
      </g>
     </g>
     <g id="text_15">
      <!-- 25 -->
      <g transform="translate(49.395 116.615217)scale(0.1 -0.1)">
       <use xlink:href="#DejaVuSans-32"/>
       <use xlink:href="#DejaVuSans-35" x="63.623047"/>
      </g>
     </g>
    </g>
    <g id="ytick_5">
     <g id="line2d_29">
      <path d="M 69.12 83.140538 
L 547.2 83.140538 
" clip-path="url(#pee5277cfc1)" style="fill: none; stroke: #b0b0b0; stroke-opacity: 0.7; stroke-width: 0.8; stroke-linecap: square"/>
     </g>
     <g id="line2d_30">
      <g>
       <use xlink:href="#m1e65dc9115" x="69.12" y="83.140538" style="stroke: #000000; stroke-width: 0.8"/>
      </g>
     </g>
     <g id="text_16">
      <!-- 30 -->
      <g transform="translate(49.395 86.939757)scale(0.1 -0.1)">
       <use xlink:href="#DejaVuSans-33"/>
       <use xlink:href="#DejaVuSans-30" x="63.623047"/>
      </g>
     </g>
    </g>
    <g id="ytick_6">
     <g id="line2d_31">
      <path d="M 69.12 53.465077 
L 547.2 53.465077 
" clip-path="url(#pee5277cfc1)" style="fill: none; stroke: #b0b0b0; stroke-opacity: 0.7; stroke-width: 0.8; stroke-linecap: square"/>
     </g>
     <g id="line2d_32">
      <g>
       <use xlink:href="#m1e65dc9115" x="69.12" y="53.465077" style="stroke: #000000; stroke-width: 0.8"/>
      </g>
     </g>
     <g id="text_17">
      <!-- 35 -->
      <g transform="translate(49.395 57.264296)scale(0.1 -0.1)">
       <use xlink:href="#DejaVuSans-33"/>
       <use xlink:href="#DejaVuSans-35" x="63.623047"/>
      </g>
     </g>
    </g>
    <g id="text_18">
     <!-- Czas (s) -->
     <g transform="translate(43.315313 149.479688)rotate(-90)scale(0.1 -0.1)">
      <defs>
       <path id="DejaVuSans-43" d="M 4122 4306 
L 4122 3641 
Q 3803 3938 3442 4084 
Q 3081 4231 2675 4231 
Q 1875 4231 1450 3742 
Q 1025 3253 1025 2328 
Q 1025 1406 1450 917 
Q 1875 428 2675 428 
Q 3081 428 3442 575 
Q 3803 722 4122 1019 
L 4122 359 
Q 3791 134 3420 21 
Q 3050 -91 2638 -91 
Q 1578 -91 968 557 
Q 359 1206 359 2328 
Q 359 3453 968 4101 
Q 1578 4750 2638 4750 
Q 3056 4750 3426 4639 
Q 3797 4528 4122 4306 
z
" transform="scale(0.015625)"/>
       <path id="DejaVuSans-7a" d="M 353 3500 
L 3084 3500 
L 3084 2975 
L 922 459 
L 3084 459 
L 3084 0 
L 275 0 
L 275 525 
L 2438 3041 
L 353 3041 
L 353 3500 
z
" transform="scale(0.015625)"/>
       <path id="DejaVuSans-73" d="M 2834 3397 
L 2834 2853 
Q 2591 2978 2328 3040 
Q 2066 3103 1784 3103 
Q 1356 3103 1142 2972 
Q 928 2841 928 2578 
Q 928 2378 1081 2264 
Q 1234 2150 1697 2047 
L 1894 2003 
Q 2506 1872 2764 1633 
Q 3022 1394 3022 966 
Q 3022 478 2636 193 
Q 2250 -91 1575 -91 
Q 1294 -91 989 -36 
Q 684 19 347 128 
L 347 722 
Q 666 556 975 473 
Q 1284 391 1588 391 
Q 1994 391 2212 530 
Q 2431 669 2431 922 
Q 2431 1156 2273 1281 
Q 2116 1406 1581 1522 
L 1381 1569 
Q 847 1681 609 1914 
Q 372 2147 372 2553 
Q 372 3047 722 3315 
Q 1072 3584 1716 3584 
Q 2034 3584 2315 3537 
Q 2597 3491 2834 3397 
z
" transform="scale(0.015625)"/>
       <path id="DejaVuSans-20" transform="scale(0.015625)"/>
       <path id="DejaVuSans-28" d="M 1984 4856 
Q 1566 4138 1362 3434 
Q 1159 2731 1159 2009 
Q 1159 1288 1364 580 
Q 1569 -128 1984 -844 
L 1484 -844 
Q 1016 -109 783 600 
Q 550 1309 550 2009 
Q 550 2706 781 3412 
Q 1013 4119 1484 4856 
L 1984 4856 
z
" transform="scale(0.015625)"/>
       <path id="DejaVuSans-29" d="M 513 4856 
L 1013 4856 
Q 1481 4119 1714 3412 
Q 1947 2706 1947 2009 
Q 1947 1309 1714 600 
Q 1481 -109 1013 -844 
L 513 -844 
Q 928 -128 1133 580 
Q 1338 1288 1338 2009 
Q 1338 2731 1133 3434 
Q 928 4138 513 4856 
z
" transform="scale(0.015625)"/>
      </defs>
      <use xlink:href="#DejaVuSans-43"/>
      <use xlink:href="#DejaVuSans-7a" x="69.824219"/>
      <use xlink:href="#DejaVuSans-61" x="122.314453"/>
      <use xlink:href="#DejaVuSans-73" x="183.59375"/>
      <use xlink:href="#DejaVuSans-20" x="235.693359"/>
      <use xlink:href="#DejaVuSans-28" x="267.480469"/>
      <use xlink:href="#DejaVuSans-73" x="306.494141"/>
      <use xlink:href="#DejaVuSans-29" x="358.59375"/>
     </g>
    </g>
   </g>
   <g id="line2d_33">
    <path d="M 90.850909 188.358438 
L 92.862044 194.545284 
L 96.884404 163.344561 
L 98.895715 166.913634 
L 100.906834 166.251081 
L 102.918221 169.433164 
L 104.929336 161.550269 
L 106.940213 190.172247 
L 108.951396 186.287695 
L 110.963109 191.339939 
L 112.973812 191.473314 
L 114.985114 203.375411 
L 116.996254 177.914447 
L 119.007628 187.614852 
L 123.030234 203.447865 
L 125.041503 167.213244 
L 127.052707 196.177049 
L 129.063854 194.502947 
L 131.075215 190.955033 
L 133.208499 173.252163 
L 135.219216 199.114199 
L 139.244783 167.416627 
L 141.253878 209.817595 
L 145.275969 165.096015 
L 147.287369 195.224278 
L 149.298496 187.578164 
L 151.309476 205.621321 
L 153.321036 190.420032 
L 155.331794 182.450739 
L 157.343262 185.493589 
L 159.354587 172.914858 
L 161.365772 188.489868 
L 163.376975 192.27748 
L 165.388418 186.058977 
L 167.399431 201.254335 
L 169.410717 195.362643 
L 171.422337 190.061476 
L 173.433564 191.688718 
L 175.444844 160.974754 
L 177.455994 191.322569 
L 179.467942 202.327824 
L 181.478277 191.439861 
L 183.489705 189.593265 
L 185.501126 170.642009 
L 187.515758 197.637395 
L 189.526978 200.969042 
L 191.53749 181.74646 
L 193.548198 192.186844 
L 195.559871 186.275002 
L 197.571044 159.937975 
L 199.582255 185.489738 
L 201.593557 171.994248 
L 203.605302 177.648593 
L 205.6161 173.431104 
L 207.627471 206.281836 
L 209.639231 145.874683 
L 211.650597 174.314842 
L 213.661526 169.580423 
L 215.672996 189.084504 
L 217.684222 185.620255 
L 219.692974 206.761601 
L 221.704355 177.582246 
L 223.716674 183.630613 
L 225.726906 197.664772 
L 227.79062 172.483116 
L 229.801477 183.92257 
L 231.813061 185.039078 
L 233.824186 181.411717 
L 235.837399 167.386403 
L 237.848 193.128467 
L 239.859688 176.891625 
L 241.869152 185.454516 
L 243.881995 202.530287 
L 245.893794 195.901122 
L 247.905339 184.543533 
L 249.916199 175.219211 
L 251.927225 213.744478 
L 253.938492 178.151171 
L 255.949366 174.136865 
L 257.960678 195.924842 
L 259.971869 182.766148 
L 261.981722 177.367577 
L 263.992907 180.496984 
L 266.004131 195.678149 
L 268.015772 221.236364 
L 270.027186 186.384017 
L 272.038309 180.77554 
L 274.049563 199.092566 
L 276.060641 195.848153 
L 278.071917 198.70577 
L 280.083286 183.98426 
L 282.094891 175.89852 
L 284.106596 179.47991 
L 286.119938 174.527385 
L 288.129335 172.470974 
L 290.143031 180.239115 
L 292.153217 173.789516 
L 294.16454 175.50088 
L 296.176164 168.751041 
L 298.18736 166.288778 
L 300.198735 187.162192 
L 302.209932 182.653827 
L 304.22141 203.142827 
L 306.232244 188.317766 
L 308.243905 179.464228 
L 310.255067 205.204502 
L 312.266439 171.70317 
L 314.277599 201.036284 
L 316.288972 179.928191 
L 320.311776 210.688306 
L 322.32332 185.632861 
L 324.334241 197.548112 
L 326.345399 184.530801 
L 328.356861 161.672441 
L 330.365796 200.378585 
L 332.376786 173.544153 
L 334.388076 201.557347 
L 336.400812 175.907204 
L 338.372997 199.086442 
L 340.382103 137.20731 
L 342.393915 195.337453 
L 344.405206 200.814936 
L 346.416526 208.601004 
L 348.426961 177.726727 
L 350.438311 192.594271 
L 352.449521 196.147749 
L 354.460855 187.965537 
L 356.473111 174.533368 
L 358.483278 176.968479 
L 360.494616 196.718164 
L 362.505986 207.964623 
L 364.517306 192.991488 
L 366.529623 205.250272 
L 368.540023 203.957651 
L 370.551907 185.536011 
L 372.56308 172.796884 
L 374.57459 200.944738 
L 376.585041 185.916989 
L 378.596341 195.073939 
L 380.607837 183.586084 
L 382.618843 192.528849 
L 384.630602 191.347586 
L 386.642401 202.286194 
L 388.657777 187.227376 
L 390.66708 179.755157 
L 392.678873 173.164916 
L 394.68933 173.741327 
L 396.700681 188.043687 
L 398.712154 199.83091 
L 400.722994 159.523734 
L 402.73426 193.123651 
L 404.745884 184.92304 
L 406.757133 171.962096 
L 408.77136 212.208815 
L 410.781136 181.202472 
L 412.791162 193.995599 
L 414.800691 179.351823 
L 416.811051 198.009038 
L 418.822695 191.036767 
L 420.833949 187.859153 
L 422.846546 191.497605 
L 424.857517 210.19229 
L 426.86874 196.171905 
L 428.879304 186.744865 
L 430.941369 197.065458 
L 432.952796 187.405164 
L 434.963101 194.547863 
L 436.974544 151.641878 
L 438.985789 157.602528 
L 443.008304 181.538352 
L 445.019348 208.778546 
L 447.030971 177.783244 
L 449.041827 206.366818 
L 451.053203 171.683709 
L 453.064314 180.257661 
L 455.07563 185.440894 
L 457.087018 197.435409 
L 459.097891 178.784704 
L 461.110001 195.018901 
L 463.120759 177.058341 
L 465.13243 151.474377 
L 467.142951 190.792935 
L 469.154114 205.012057 
L 471.165671 153.060355 
L 473.176076 189.510942 
L 475.187733 170.618923 
L 477.198526 195.429355 
L 479.210369 186.224848 
L 481.22389 183.149761 
L 483.234855 184.780879 
L 485.244695 173.73877 
L 487.255752 186.537573 
L 489.267174 182.469149 
L 491.278248 161.527135 
L 493.289049 183.93335 
L 495.300201 196.498321 
L 497.311869 187.667295 
L 499.323283 174.147715 
L 501.334657 181.68611 
L 503.345154 187.162117 
L 505.356718 180.80781 
L 507.369144 155.011436 
L 509.379614 191.257713 
L 511.390607 206.290795 
L 513.40158 176.648726 
L 515.412933 169.291495 
L 517.424264 195.914466 
L 519.435525 178.539454 
L 521.446721 178.632352 
L 523.45856 168.832314 
L 525.469091 181.167455 
L 525.469091 181.167455 
" clip-path="url(#pee5277cfc1)" style="fill: none; stroke: #1f77b4; stroke-width: 1.5; stroke-linecap: square"/>
   </g>
   <g id="line2d_34">
    <path d="M 90.850909 73.802081 
L 92.862044 118.215939 
L 94.873457 105.067744 
L 96.884404 38.090477 
L 98.895715 72.018355 
L 100.906834 54.023951 
L 102.918221 96.030655 
L 104.929336 83.503157 
L 106.940213 95.276793 
L 108.951396 116.747608 
L 110.963109 113.398776 
L 112.973812 117.216782 
L 114.985114 118.297676 
L 116.996254 103.393821 
L 119.007628 114.46358 
L 121.019142 121.977178 
L 123.030234 107.510024 
L 125.041503 98.368567 
L 127.052707 119.425155 
L 129.063854 122.219347 
L 131.075215 120.617371 
L 133.208499 39.874879 
L 135.219216 117.867204 
L 137.231413 76.593951 
L 139.244783 51.970808 
L 141.253878 102.653047 
L 143.264729 124.464051 
L 145.275969 84.083502 
L 147.287369 113.592979 
L 149.298496 89.592209 
L 151.309476 110.019563 
L 153.321036 88.597157 
L 155.331794 50.550326 
L 157.343262 107.419996 
L 159.354587 65.177397 
L 161.365772 52.531797 
L 163.376975 75.871113 
L 165.388418 111.654663 
L 167.399431 121.493278 
L 169.410717 114.932824 
L 171.422337 91.987123 
L 173.433564 114.299297 
L 175.444844 80.405634 
L 177.455994 115.040083 
L 179.467942 98.156188 
L 181.478277 115.143222 
L 183.489705 115.075115 
L 185.501126 56.953905 
L 187.515758 100.164463 
L 189.526978 124.74989 
L 191.53749 60.093853 
L 193.548198 107.575538 
L 195.559871 108.340791 
L 197.571044 54.956816 
L 199.582255 108.501547 
L 201.593557 108.366412 
L 203.605302 97.549952 
L 205.6161 100.394122 
L 207.627471 125.200092 
L 209.639231 75.220293 
L 211.650597 91.208918 
L 213.661526 100.784869 
L 215.672996 115.160411 
L 217.684222 116.448433 
L 219.692974 118.41255 
L 221.704355 77.208334 
L 223.716674 88.115255 
L 225.726906 128.258997 
L 227.79062 91.643447 
L 229.801477 114.856701 
L 231.813061 92.603169 
L 233.824186 102.918712 
L 235.837399 64.229208 
L 237.848 123.635413 
L 239.859688 64.458739 
L 241.869152 71.889695 
L 243.881995 137.226832 
L 247.905339 87.945574 
L 249.916199 76.785775 
L 251.927225 129.850428 
L 253.938492 102.79957 
L 255.949366 81.362024 
L 257.960678 127.209005 
L 259.971869 109.94044 
L 261.981722 104.039588 
L 263.992907 119.146075 
L 266.004131 99.005374 
L 268.015772 135.399388 
L 270.027186 114.088881 
L 272.038309 77.989866 
L 274.049563 110.949059 
L 276.060641 122.199648 
L 278.071917 124.94588 
L 280.083286 98.372056 
L 282.094891 100.891355 
L 284.106596 83.901576 
L 286.119938 90.628042 
L 288.129335 94.922907 
L 290.143031 74.012606 
L 292.153217 92.640502 
L 294.16454 104.531525 
L 296.176164 87.637077 
L 298.18736 48.597929 
L 300.198735 117.745642 
L 302.209932 47.298175 
L 304.22141 125.566064 
L 306.232244 106.972288 
L 308.243905 109.571134 
L 310.255067 134.453698 
L 312.266439 109.088724 
L 314.277599 121.03276 
L 316.288972 86.308704 
L 318.300089 104.784034 
L 320.311776 115.996711 
L 322.32332 110.902482 
L 324.334241 126.438348 
L 326.345399 115.967211 
L 328.356861 80.794193 
L 330.365796 129.168115 
L 332.376786 65.419076 
L 334.388076 88.177986 
L 336.400812 114.195502 
L 338.372997 130.775957 
L 340.382103 49.104857 
L 342.393915 80.135764 
L 344.405206 80.468742 
L 346.416526 135.946212 
L 348.426961 83.288401 
L 350.438311 119.377922 
L 352.449521 117.25815 
L 354.460855 107.708646 
L 356.473111 67.62813 
L 358.483278 89.4996 
L 360.494616 123.536025 
L 362.505986 135.936978 
L 364.517306 101.684223 
L 366.529623 116.737183 
L 368.540023 126.254223 
L 370.551907 81.366487 
L 372.56308 105.057663 
L 374.57459 130.178323 
L 376.585041 104.565565 
L 378.596341 113.371376 
L 380.607837 117.027291 
L 382.618843 116.977676 
L 384.630602 117.937197 
L 386.642401 118.241927 
L 388.657777 90.629849 
L 390.66708 84.509483 
L 392.678873 37.963636 
L 394.68933 52.493164 
L 396.700681 110.91945 
L 398.712154 89.735754 
L 400.722994 51.927527 
L 402.73426 85.576971 
L 404.745884 99.35782 
L 406.757133 68.65268 
L 408.77136 104.904849 
L 410.781136 107.124898 
L 412.791162 128.492608 
L 414.800691 105.626577 
L 416.811051 102.929256 
L 418.822695 116.826764 
L 420.833949 114.530437 
L 422.846546 112.960375 
L 424.857517 132.897629 
L 426.86874 84.085447 
L 428.879304 102.009764 
L 430.941369 110.071974 
L 432.952796 82.861353 
L 434.963101 93.616851 
L 436.974544 41.180073 
L 438.985789 61.251705 
L 440.996835 97.704314 
L 443.008304 70.793713 
L 445.019348 133.930526 
L 447.030971 96.501984 
L 449.041827 88.042046 
L 451.053203 64.751757 
L 453.064314 112.029423 
L 455.07563 100.690305 
L 457.087018 124.11291 
L 459.097891 112.014783 
L 461.110001 103.459724 
L 463.120759 101.694421 
L 465.13243 80.291204 
L 467.142951 112.11431 
L 469.154114 135.117259 
L 471.165671 80.369061 
L 473.176076 105.279872 
L 475.187733 99.167813 
L 477.198526 100.27528 
L 479.210369 68.652194 
L 481.22389 91.551337 
L 483.234855 96.779521 
L 485.244695 102.680955 
L 487.255752 95.036876 
L 489.267174 67.796571 
L 491.278248 80.838041 
L 493.289049 118.101718 
L 495.300201 100.004079 
L 497.311869 123.671484 
L 499.323283 71.956403 
L 501.334657 118.301838 
L 503.345154 117.007561 
L 505.356718 93.006299 
L 507.369144 74.841701 
L 509.379614 120.890129 
L 511.390607 110.565484 
L 513.40158 94.823632 
L 515.412933 83.838198 
L 517.424264 119.500804 
L 519.435525 110.471559 
L 521.446721 97.292709 
L 523.45856 105.83685 
L 525.469091 96.558976 
L 525.469091 96.558976 
" clip-path="url(#pee5277cfc1)" style="fill: none; stroke: #ff7f0e; stroke-width: 1.5; stroke-linecap: square"/>
   </g>
   <g id="patch_3">
    <path d="M 69.12 230.4 
L 69.12 28.8 
" style="fill: none; stroke: #000000; stroke-width: 0.8; stroke-linejoin: miter; stroke-linecap: square"/>
   </g>
   <g id="patch_4">
    <path d="M 547.2 230.4 
L 547.2 28.8 
" style="fill: none; stroke: #000000; stroke-width: 0.8; stroke-linejoin: miter; stroke-linecap: square"/>
   </g>
   <g id="patch_5">
    <path d="M 69.12 230.4 
L 547.2 230.4 
" style="fill: none; stroke: #000000; stroke-width: 0.8; stroke-linejoin: miter; stroke-linecap: square"/>
   </g>
   <g id="patch_6">
    <path d="M 69.12 28.8 
L 547.2 28.8 
" style="fill: none; stroke: #000000; stroke-width: 0.8; stroke-linejoin: miter; stroke-linecap: square"/>
   </g>
   <g id="text_19">
    <!-- Czas potwierdzeń dla sieci 'Ethereum Kovan' -->
    <g transform="translate(174.02625 22.8)scale(0.12 -0.12)">
     <defs>
      <path id="DejaVuSans-70" d="M 1159 525 
L 1159 -1331 
L 581 -1331 
L 581 3500 
L 1159 3500 
L 1159 2969 
Q 1341 3281 1617 3432 
Q 1894 3584 2278 3584 
Q 2916 3584 3314 3078 
Q 3713 2572 3713 1747 
Q 3713 922 3314 415 
Q 2916 -91 2278 -91 
Q 1894 -91 1617 61 
Q 1341 213 1159 525 
z
M 3116 1747 
Q 3116 2381 2855 2742 
Q 2594 3103 2138 3103 
Q 1681 3103 1420 2742 
Q 1159 2381 1159 1747 
Q 1159 1113 1420 752 
Q 1681 391 2138 391 
Q 2594 391 2855 752 
Q 3116 1113 3116 1747 
z
" transform="scale(0.015625)"/>
      <path id="DejaVuSans-6f" d="M 1959 3097 
Q 1497 3097 1228 2736 
Q 959 2375 959 1747 
Q 959 1119 1226 758 
Q 1494 397 1959 397 
Q 2419 397 2687 759 
Q 2956 1122 2956 1747 
Q 2956 2369 2687 2733 
Q 2419 3097 1959 3097 
z
M 1959 3584 
Q 2709 3584 3137 3096 
Q 3566 2609 3566 1747 
Q 3566 888 3137 398 
Q 2709 -91 1959 -91 
Q 1206 -91 779 398 
Q 353 888 353 1747 
Q 353 2609 779 3096 
Q 1206 3584 1959 3584 
z
" transform="scale(0.015625)"/>
      <path id="DejaVuSans-77" d="M 269 3500 
L 844 3500 
L 1563 769 
L 2278 3500 
L 2956 3500 
L 3675 769 
L 4391 3500 
L 4966 3500 
L 4050 0 
L 3372 0 
L 2619 2869 
L 1863 0 
L 1184 0 
L 269 3500 
z
" transform="scale(0.015625)"/>
      <path id="DejaVuSans-69" d="M 603 3500 
L 1178 3500 
L 1178 0 
L 603 0 
L 603 3500 
z
M 603 4863 
L 1178 4863 
L 1178 4134 
L 603 4134 
L 603 4863 
z
" transform="scale(0.015625)"/>
      <path id="DejaVuSans-65" d="M 3597 1894 
L 3597 1613 
L 953 1613 
Q 991 1019 1311 708 
Q 1631 397 2203 397 
Q 2534 397 2845 478 
Q 3156 559 3463 722 
L 3463 178 
Q 3153 47 2828 -22 
Q 2503 -91 2169 -91 
Q 1331 -91 842 396 
Q 353 884 353 1716 
Q 353 2575 817 3079 
Q 1281 3584 2069 3584 
Q 2775 3584 3186 3129 
Q 3597 2675 3597 1894 
z
M 3022 2063 
Q 3016 2534 2758 2815 
Q 2500 3097 2075 3097 
Q 1594 3097 1305 2825 
Q 1016 2553 972 2059 
L 3022 2063 
z
" transform="scale(0.015625)"/>
      <path id="DejaVuSans-72" d="M 2631 2963 
Q 2534 3019 2420 3045 
Q 2306 3072 2169 3072 
Q 1681 3072 1420 2755 
Q 1159 2438 1159 1844 
L 1159 0 
L 581 0 
L 581 3500 
L 1159 3500 
L 1159 2956 
Q 1341 3275 1631 3429 
Q 1922 3584 2338 3584 
Q 2397 3584 2469 3576 
Q 2541 3569 2628 3553 
L 2631 2963 
z
" transform="scale(0.015625)"/>
      <path id="DejaVuSans-64" d="M 2906 2969 
L 2906 4863 
L 3481 4863 
L 3481 0 
L 2906 0 
L 2906 525 
Q 2725 213 2448 61 
Q 2172 -91 1784 -91 
Q 1150 -91 751 415 
Q 353 922 353 1747 
Q 353 2572 751 3078 
Q 1150 3584 1784 3584 
Q 2172 3584 2448 3432 
Q 2725 3281 2906 2969 
z
M 947 1747 
Q 947 1113 1208 752 
Q 1469 391 1925 391 
Q 2381 391 2643 752 
Q 2906 1113 2906 1747 
Q 2906 2381 2643 2742 
Q 2381 3103 1925 3103 
Q 1469 3103 1208 2742 
Q 947 2381 947 1747 
z
" transform="scale(0.015625)"/>
      <path id="DejaVuSans-144" d="M 2242 5119 
L 2864 5119 
L 1846 3944 
L 1367 3944 
L 2242 5119 
z
M 3513 2113 
L 3513 0 
L 2938 0 
L 2938 2094 
Q 2938 2591 2744 2837 
Q 2550 3084 2163 3084 
Q 1697 3084 1428 2787 
Q 1159 2491 1159 1978 
L 1159 0 
L 581 0 
L 581 3500 
L 1159 3500 
L 1159 2956 
Q 1366 3272 1645 3428 
Q 1925 3584 2291 3584 
Q 2894 3584 3203 3211 
Q 3513 2838 3513 2113 
z
" transform="scale(0.015625)"/>
      <path id="DejaVuSans-6c" d="M 603 4863 
L 1178 4863 
L 1178 0 
L 603 0 
L 603 4863 
z
" transform="scale(0.015625)"/>
      <path id="DejaVuSans-63" d="M 3122 3366 
L 3122 2828 
Q 2878 2963 2633 3030 
Q 2388 3097 2138 3097 
Q 1578 3097 1268 2742 
Q 959 2388 959 1747 
Q 959 1106 1268 751 
Q 1578 397 2138 397 
Q 2388 397 2633 464 
Q 2878 531 3122 666 
L 3122 134 
Q 2881 22 2623 -34 
Q 2366 -91 2075 -91 
Q 1284 -91 818 406 
Q 353 903 353 1747 
Q 353 2603 823 3093 
Q 1294 3584 2113 3584 
Q 2378 3584 2631 3529 
Q 2884 3475 3122 3366 
z
" transform="scale(0.015625)"/>
      <path id="DejaVuSans-27" d="M 1147 4666 
L 1147 2931 
L 616 2931 
L 616 4666 
L 1147 4666 
z
" transform="scale(0.015625)"/>
      <path id="DejaVuSans-45" d="M 628 4666 
L 3578 4666 
L 3578 4134 
L 1259 4134 
L 1259 2753 
L 3481 2753 
L 3481 2222 
L 1259 2222 
L 1259 531 
L 3634 531 
L 3634 0 
L 628 0 
L 628 4666 
z
" transform="scale(0.015625)"/>
      <path id="DejaVuSans-68" d="M 3513 2113 
L 3513 0 
L 2938 0 
L 2938 2094 
Q 2938 2591 2744 2837 
Q 2550 3084 2163 3084 
Q 1697 3084 1428 2787 
Q 1159 2491 1159 1978 
L 1159 0 
L 581 0 
L 581 4863 
L 1159 4863 
L 1159 2956 
Q 1366 3272 1645 3428 
Q 1925 3584 2291 3584 
Q 2894 3584 3203 3211 
Q 3513 2838 3513 2113 
z
" transform="scale(0.015625)"/>
      <path id="DejaVuSans-75" d="M 544 1381 
L 544 3500 
L 1119 3500 
L 1119 1403 
Q 1119 906 1312 657 
Q 1506 409 1894 409 
Q 2359 409 2629 706 
Q 2900 1003 2900 1516 
L 2900 3500 
L 3475 3500 
L 3475 0 
L 2900 0 
L 2900 538 
Q 2691 219 2414 64 
Q 2138 -91 1772 -91 
Q 1169 -91 856 284 
Q 544 659 544 1381 
z
M 1991 3584 
L 1991 3584 
z
" transform="scale(0.015625)"/>
      <path id="DejaVuSans-6d" d="M 3328 2828 
Q 3544 3216 3844 3400 
Q 4144 3584 4550 3584 
Q 5097 3584 5394 3201 
Q 5691 2819 5691 2113 
L 5691 0 
L 5113 0 
L 5113 2094 
Q 5113 2597 4934 2840 
Q 4756 3084 4391 3084 
Q 3944 3084 3684 2787 
Q 3425 2491 3425 1978 
L 3425 0 
L 2847 0 
L 2847 2094 
Q 2847 2600 2669 2842 
Q 2491 3084 2119 3084 
Q 1678 3084 1418 2786 
Q 1159 2488 1159 1978 
L 1159 0 
L 581 0 
L 581 3500 
L 1159 3500 
L 1159 2956 
Q 1356 3278 1631 3431 
Q 1906 3584 2284 3584 
Q 2666 3584 2933 3390 
Q 3200 3197 3328 2828 
z
" transform="scale(0.015625)"/>
      <path id="DejaVuSans-4b" d="M 628 4666 
L 1259 4666 
L 1259 2694 
L 3353 4666 
L 4166 4666 
L 1850 2491 
L 4331 0 
L 3500 0 
L 1259 2247 
L 1259 0 
L 628 0 
L 628 4666 
z
" transform="scale(0.015625)"/>
      <path id="DejaVuSans-76" d="M 191 3500 
L 800 3500 
L 1894 563 
L 2988 3500 
L 3597 3500 
L 2284 0 
L 1503 0 
L 191 3500 
z
" transform="scale(0.015625)"/>
      <path id="DejaVuSans-6e" d="M 3513 2113 
L 3513 0 
L 2938 0 
L 2938 2094 
Q 2938 2591 2744 2837 
Q 2550 3084 2163 3084 
Q 1697 3084 1428 2787 
Q 1159 2491 1159 1978 
L 1159 0 
L 581 0 
L 581 3500 
L 1159 3500 
L 1159 2956 
Q 1366 3272 1645 3428 
Q 1925 3584 2291 3584 
Q 2894 3584 3203 3211 
Q 3513 2838 3513 2113 
z
" transform="scale(0.015625)"/>
     </defs>
     <use xlink:href="#DejaVuSans-43"/>
     <use xlink:href="#DejaVuSans-7a" x="69.824219"/>
     <use xlink:href="#DejaVuSans-61" x="122.314453"/>
     <use xlink:href="#DejaVuSans-73" x="183.59375"/>
     <use xlink:href="#DejaVuSans-20" x="235.693359"/>
     <use xlink:href="#DejaVuSans-70" x="267.480469"/>
     <use xlink:href="#DejaVuSans-6f" x="330.957031"/>
     <use xlink:href="#DejaVuSans-74" x="392.138672"/>
     <use xlink:href="#DejaVuSans-77" x="431.347656"/>
     <use xlink:href="#DejaVuSans-69" x="513.134766"/>
     <use xlink:href="#DejaVuSans-65" x="540.917969"/>
     <use xlink:href="#DejaVuSans-72" x="602.441406"/>
     <use xlink:href="#DejaVuSans-64" x="641.804688"/>
     <use xlink:href="#DejaVuSans-7a" x="705.28125"/>
     <use xlink:href="#DejaVuSans-65" x="757.771484"/>
     <use xlink:href="#DejaVuSans-144" x="819.294922"/>
     <use xlink:href="#DejaVuSans-20" x="882.673828"/>
     <use xlink:href="#DejaVuSans-64" x="914.460938"/>
     <use xlink:href="#DejaVuSans-6c" x="977.9375"/>
     <use xlink:href="#DejaVuSans-61" x="1005.720703"/>
     <use xlink:href="#DejaVuSans-20" x="1067"/>
     <use xlink:href="#DejaVuSans-73" x="1098.787109"/>
     <use xlink:href="#DejaVuSans-69" x="1150.886719"/>
     <use xlink:href="#DejaVuSans-65" x="1178.669922"/>
     <use xlink:href="#DejaVuSans-63" x="1240.193359"/>
     <use xlink:href="#DejaVuSans-69" x="1295.173828"/>
     <use xlink:href="#DejaVuSans-20" x="1322.957031"/>
     <use xlink:href="#DejaVuSans-27" x="1354.744141"/>
     <use xlink:href="#DejaVuSans-45" x="1382.234375"/>
     <use xlink:href="#DejaVuSans-74" x="1445.417969"/>
     <use xlink:href="#DejaVuSans-68" x="1484.626953"/>
     <use xlink:href="#DejaVuSans-65" x="1548.005859"/>
     <use xlink:href="#DejaVuSans-72" x="1609.529297"/>
     <use xlink:href="#DejaVuSans-65" x="1648.392578"/>
     <use xlink:href="#DejaVuSans-75" x="1709.916016"/>
     <use xlink:href="#DejaVuSans-6d" x="1773.294922"/>
     <use xlink:href="#DejaVuSans-20" x="1870.707031"/>
     <use xlink:href="#DejaVuSans-4b" x="1902.494141"/>
     <use xlink:href="#DejaVuSans-6f" x="1963.070312"/>
     <use xlink:href="#DejaVuSans-76" x="2024.251953"/>
     <use xlink:href="#DejaVuSans-61" x="2083.431641"/>
     <use xlink:href="#DejaVuSans-6e" x="2144.710938"/>
     <use xlink:href="#DejaVuSans-27" x="2208.089844"/>
    </g>
   </g>
   <g id="legend_1">
    <g id="patch_7">
     <path d="M 410.392187 66.15625 
L 540.2 66.15625 
Q 542.2 66.15625 542.2 64.15625 
L 542.2 35.8 
Q 542.2 33.8 540.2 33.8 
L 410.392187 33.8 
Q 408.392187 33.8 408.392187 35.8 
L 408.392187 64.15625 
Q 408.392187 66.15625 410.392187 66.15625 
z
" style="fill: #ffffff; opacity: 0.8; stroke: #cccccc; stroke-linejoin: miter"/>
    </g>
    <g id="line2d_35">
     <path d="M 412.392187 41.898438 
L 422.392187 41.898438 
L 432.392187 41.898438 
" style="fill: none; stroke: #1f77b4; stroke-width: 1.5; stroke-linecap: square"/>
    </g>
    <g id="text_20">
     <!-- Czas 2 potwierdzen -->
     <g transform="translate(440.392187 45.398438)scale(0.1 -0.1)">
      <use xlink:href="#DejaVuSans-43"/>
      <use xlink:href="#DejaVuSans-7a" x="69.824219"/>
      <use xlink:href="#DejaVuSans-61" x="122.314453"/>
      <use xlink:href="#DejaVuSans-73" x="183.59375"/>
      <use xlink:href="#DejaVuSans-20" x="235.693359"/>
      <use xlink:href="#DejaVuSans-32" x="267.480469"/>
      <use xlink:href="#DejaVuSans-20" x="331.103516"/>
      <use xlink:href="#DejaVuSans-70" x="362.890625"/>
      <use xlink:href="#DejaVuSans-6f" x="426.367188"/>
      <use xlink:href="#DejaVuSans-74" x="487.548828"/>
      <use xlink:href="#DejaVuSans-77" x="526.757812"/>
      <use xlink:href="#DejaVuSans-69" x="608.544922"/>
      <use xlink:href="#DejaVuSans-65" x="636.328125"/>
      <use xlink:href="#DejaVuSans-72" x="697.851562"/>
      <use xlink:href="#DejaVuSans-64" x="737.214844"/>
      <use xlink:href="#DejaVuSans-7a" x="800.691406"/>
      <use xlink:href="#DejaVuSans-65" x="853.181641"/>
      <use xlink:href="#DejaVuSans-6e" x="914.705078"/>
     </g>
    </g>
    <g id="line2d_36">
     <path d="M 412.392187 56.576562 
L 422.392187 56.576562 
L 432.392187 56.576562 
" style="fill: none; stroke: #ff7f0e; stroke-width: 1.5; stroke-linecap: square"/>
    </g>
    <g id="text_21">
     <!-- Czas 5 potwierdzen -->
     <g transform="translate(440.392187 60.076562)scale(0.1 -0.1)">
      <use xlink:href="#DejaVuSans-43"/>
      <use xlink:href="#DejaVuSans-7a" x="69.824219"/>
      <use xlink:href="#DejaVuSans-61" x="122.314453"/>
      <use xlink:href="#DejaVuSans-73" x="183.59375"/>
      <use xlink:href="#DejaVuSans-20" x="235.693359"/>
      <use xlink:href="#DejaVuSans-35" x="267.480469"/>
      <use xlink:href="#DejaVuSans-20" x="331.103516"/>
      <use xlink:href="#DejaVuSans-70" x="362.890625"/>
      <use xlink:href="#DejaVuSans-6f" x="426.367188"/>
      <use xlink:href="#DejaVuSans-74" x="487.548828"/>
      <use xlink:href="#DejaVuSans-77" x="526.757812"/>
      <use xlink:href="#DejaVuSans-69" x="608.544922"/>
      <use xlink:href="#DejaVuSans-65" x="636.328125"/>
      <use xlink:href="#DejaVuSans-72" x="697.851562"/>
      <use xlink:href="#DejaVuSans-64" x="737.214844"/>
      <use xlink:href="#DejaVuSans-7a" x="800.691406"/>
      <use xlink:href="#DejaVuSans-65" x="853.181641"/>
      <use xlink:href="#DejaVuSans-6e" x="914.705078"/>
     </g>
    </g>
   </g>
  </g>
 </g>
 <defs>
  <clipPath id="pee5277cfc1">
   <rect x="69.12" y="28.8" width="478.08" height="201.6"/>
  </clipPath>
 </defs>
</svg>
